<?xml version="1.0" encoding="UTF-8"?>
<!DOCTYPE svg PUBLIC "-//W3C//DTD SVG 1.1//EN" "http://www.w3.org/Graphics/SVG/1.1/DTD/svg11.dtd">
<!-- Creator: CorelDRAW 2018 (64-Bit) -->
<svg xmlns="http://www.w3.org/2000/svg" xml:space="preserve" width="102.049mm" height="140.928mm" version="1.1" style="shape-rendering:geometricPrecision; text-rendering:geometricPrecision; image-rendering:optimizeQuality; fill-rule:evenodd; clip-rule:evenodd"
viewBox="0 0 10204.9 14092.8"
 xmlns:xlink="http://www.w3.org/1999/xlink">
 <defs>
  <style type="text/css">
   <![CDATA[
    .fil0 {fill:#010105}
    .fil6 {fill:#26294A}
    .fil5 {fill:#343B71}
    .fil3 {fill:#425D92}
    .fil11 {fill:#6C8B95}
    .fil8 {fill:#7D4B34}
    .fil7 {fill:#A58E7E}
    .fil4 {fill:#A5B7C1}
    .fil14 {fill:#C85248}
    .fil10 {fill:#CB8336}
    .fil13 {fill:#CB88A7}
    .fil1 {fill:#CBCBCB}
    .fil9 {fill:#E8BBA8}
    .fil2 {fill:#F99B39}
    .fil12 {fill:white}
   ]]>
  </style>
 </defs>
 <g id="Layer_x0020_1">
  <metadata id="CorelCorpID_0Corel-Layer"/>
  <g id="_1514042358352">
   <path class="fil0" d="M2425.35 13358.3c45.57,-25.26 29.85,-8 111.43,1.84 43.95,5.31 93.68,4.07 137.85,0.79 46.17,-3.42 79.3,-12.69 122.05,-17.73 81.48,-9.59 63.02,-14.72 85.84,45.47 -58.98,29.11 -165.67,26.28 -239.01,26.92l-177.93 -15.09c-62.68,-26.32 -12.64,-3.61 -40.23,-42.2zm-5.65 -91.11c40.75,-24.72 76.39,8.44 194.3,2.83 67.6,-3.21 133.74,-21.12 196.68,-31.27l25.37 68.6c-73.47,17.28 -146.23,28.23 -222.93,29.09 -189.75,2.14 -173.15,-34.17 -193.42,-69.25zm3249.12 -62.93c30.82,-19.86 53.85,-83.02 160.42,17.37l-14.94 62.16 -99.82 10.59 -45.66 -90.12zm-3243.06 -33.42c51.29,-3.37 122.57,12.7 187.45,11.23 176.39,-3.97 143.53,-48.23 181.39,9.19 -27.32,49.18 -136.61,49.48 -196.5,51.49 -36.58,1.24 -85.55,-0.18 -121.18,-7.62 -58.8,-12.28 -56.72,-9.97 -51.16,-64.29zm3602.94 4.25c44.01,21.86 56.6,21.1 82.07,65.71 -41.01,-8.37 -12.72,11.2 -52.61,-18.31 -49.04,-36.26 -21.07,-25.44 -29.46,-47.4zm-486.04 30.32c-24.43,-56.9 -9.66,-140.39 -9.55,-207.64 33.83,26.8 54.1,72.41 75.61,117.57 -30.36,44.84 -29.58,58.23 -66.06,90.07zm-3115.56 -90.07c34.41,-14.68 176.7,-0.32 275.98,-5.86 64.61,-3.61 41.22,-13.16 63.05,21.04 -61.9,26.57 -187.56,28.37 -260.29,20.21 -93.71,-10.51 -58.21,-21.86 -78.74,-35.39zm3399.79 -30.37l26.85 -84.53c31.38,41.63 50.74,98.64 74.98,138.74 32.5,53.79 59.16,71.36 88.29,126.66l-64.38 4.41c-26.37,-75.69 6.26,-53.6 -45.55,-110.13 -37.09,-40.46 -50.32,-43.62 -80.19,-75.15zm-260.71 -103.28c70.46,6.38 53.75,11.49 90.34,50.75 21.3,22.84 45.23,42.56 62.44,60.97 41.25,-88.24 19.78,-120.52 116.01,-136.28l-41.43 141.2c68.32,66.36 110.87,67.66 117.48,124.09 11.42,97.12 -0.02,39.78 -19.25,61.12 -17.77,-7.08 -6.72,19.79 -26.7,-34.15 -9.61,-25.93 30.18,-64.89 -140.26,-124.26l-93.57 79.29c13.02,57.73 15.9,39.48 40.59,86.23 -76.41,7.36 -58.34,-21.44 -92.17,-79.22 24.76,-37.59 37.89,-46.09 60.12,-96.09l-73.6 -133.65zm87.83 0.54l80.14 -9.58 -20.53 66.85c-37.13,-23.68 -33.04,-22.44 -59.61,-57.27zm-1842.87 -79.46l18.09 -4.77c93.19,-6.08 185.29,38.55 524.57,-3.14 254.68,-31.28 212.34,-124.52 303.93,-309.55 8.37,207.33 -114.49,315.27 -280.57,365.81 -99.18,30.17 -202.55,38.1 -307.35,32.59 -87.6,-4.6 -218.88,-2.34 -258.67,-80.94zm-649.91 238.65l-15.26 136.47c-62.51,-29.51 -156.15,-125.78 -182.99,-193.4 -19.49,-49.09 -69.5,-238.69 -67.01,-280.45 -8.66,92.22 -12.09,241.95 26.17,321.21 40.88,84.66 141.86,104.67 215.67,172.31 -5.36,103.96 -59.02,126.14 -157.42,132.32 -170.24,-256.45 -117.27,-267.39 -185.11,-377.75 -75.6,-1.04 -148.92,10.59 -228,7.83 -71.68,-2.53 -132.67,-20.44 -185.61,-24.38 -23.68,133 -15.54,254.36 2.57,380.55 -197.23,-65.22 8.78,-183.74 -64,-585.23 -17.66,-97.39 -84.89,-330.3 -33.49,-419.58 77.98,-135.52 337.06,-139.89 499.97,-31.56 91.16,60.63 115.13,106.23 138.77,243.37 18.2,105.51 48.7,202.28 68.85,309.29 27.5,146.08 74.36,144.95 166.89,209zm3546.86 -629.19c214.74,94.05 558.77,105.79 796.98,43.53 -40.88,77.11 -45.57,94.41 -155.79,99.73 -126,6.08 -362.23,-2.18 -485.24,-28.09 -30.1,-6.33 -84.79,-17.01 -108.78,-26.35 -58.86,-22.95 -53.07,-12.59 -47.17,-88.82zm-1223.32 -13.62c35.88,23.73 48.14,37.09 92.22,52.78 -23.86,47.02 -46.81,85.96 -90.42,108.76 6.9,-56 19.86,-46.73 42.5,-91.45 -43.51,-32.09 -68.88,-21.15 -44.3,-70.09zm273.96 51.65c65.81,38.31 102.06,33.23 80.96,117.48 -42.02,-27.88 -97.03,-68.18 -140.68,-104.25l72.48 -86.95c62.52,-41.86 16.92,-9.31 34.62,-4.05 0.84,3.15 2.78,5.03 2.51,9.46l-13.59 33.97c-27,31.56 -12.46,-11.79 -36.3,34.34zm1103.47 -223.47c120.63,-11.67 242.09,-28.31 366.17,-20.46 123.97,7.85 188.17,52.78 315.33,68.09l-14.97 100.43c-147.88,98.48 -679.91,91.43 -799.52,-28.97 -11.76,-18 -12.07,-1.92 -7.82,-35.66 4.34,-34.44 6.57,-34.31 27.18,-48.56 38.39,-26.54 66.01,-6.06 113.63,-34.87zm-1210.5 242.68c41.75,20.8 129.97,83.4 157.58,115.85 -139.78,15.73 -95.44,-13.98 -179.94,-59.89 -26.05,65.34 -25.17,68.28 -114.16,74.29 28.54,-63.73 67.78,-88.37 98.85,-145.91 -34.17,-25.05 -83.58,-54.7 -112.23,-88.93l54.67 -34.4c59.91,25.06 57.31,44.26 92.88,74.53l55.4 -91.94 59.86 21.57 -112.91 134.83zm-2587.43 -190.05c80.41,-2.54 224.24,-20.06 291.51,7.98 46.18,19.25 129.35,114.25 113.14,185.19 -64.54,30.68 -147.96,-38.59 -211.76,-70.68 -106.17,-53.41 -161.17,-85.74 -192.89,-122.49zm2964.43 795.67l-53.17 -52.71c-42.6,-61.36 -78.04,-152.18 -98.68,-224.59 -65.18,4.71 -123.38,19.75 -189.98,25.81 -68.5,6.24 -138.94,-3.39 -201.78,-0.36l-1.59 338.91c-8,-60 -28.76,-85.01 -25.48,-160.02 2.93,-66.84 13.93,-139.14 13.52,-215.17 -0.68,-125.34 -218.68,-586.49 206.89,-560.39 150.73,9.25 230.75,80.26 229.4,229.15 -48.08,-82.54 -111.53,-249.86 -335.41,-185.66 -190.66,54.68 -148.48,206.48 -105.97,382.49 80.24,0.63 160.63,-2.88 240.88,-5.14 152.54,-4.3 147.35,4.34 183.4,-58.34 -19.44,299.84 20.85,287.94 137.97,486.02zm-607.48 113.36c-80,-25.48 -52.57,-149.64 -37.88,-303.19 26.39,-276.16 -227.69,-697.13 211.92,-757.43 228.15,-31.31 356.03,108.26 394.75,319.92 9.34,51.07 99.82,379.06 130.52,414.56 49.8,57.55 70.63,7.47 70.85,105.41 -68.94,-30.6 -119.11,-66.24 -149.29,-132.79 -35.15,-77.52 -27.19,-183 -58.87,-248.1 -22.88,97.71 -18.72,189.16 24.99,281.5 43.37,91.58 77.75,97.76 121.73,136.75 51.02,45.25 27.97,-16 34.62,60.4 -91.79,16.3 -145.92,-75.04 -178.81,-144.06 -147.44,-309.35 146.88,-692.68 -275.7,-745.64 -250.52,-31.41 -386.3,118.43 -341.63,360.03 84.73,458.23 26.73,215.08 37.51,510.6l18.68 112.85c0.61,11.17 -0.34,21.71 -3.39,29.19zm-3146.45 -948.49c1.43,-30.01 10.17,-91.91 22.7,-117.24 40.5,-81.81 220.44,-96.4 307.15,-83.71 139.39,20.4 262.9,122.2 282.85,264.44 -83.58,-61.91 -116.55,-125.84 -277.29,-147.6 -173.4,-23.47 -228.56,29.68 -335.41,84.11zm3072.66 -31.91c1.34,-100.63 27.86,-114.54 102.06,-152.37 174.46,-88.94 464.22,-90.19 507.7,162.16l-130.27 -93.33c-226.32,-101.33 -356.04,-12.37 -479.49,83.54zm853.18 -181.62c3.66,-87.87 109.29,-132.53 200.92,-108.92l9.61 112.59c-45.31,148.82 -131.88,157.3 -240.42,249.07 -12.03,-55.36 -14.3,-136.29 1.78,-194.5l28.11 -58.24zm661.59 200.36l-141.58 -24.89c-1.41,-118.77 51.31,-199.25 94.18,-282.25 89.28,-172.9 16.19,-166.14 51.04,-311.39 100.25,80.37 61.17,202.69 240.34,206.87 237.47,5.52 164.75,-152.8 308.96,-125.89 26.88,366.16 183.48,261.55 130.86,521.34 -193.94,83.62 -73.04,-24.92 -392.65,-76.23l-23.9 -119.79 -15.98 113.21c-104.01,41.56 -159.43,-0.81 -251.27,99.02zm-4559.34 -462.34c153.52,-54.74 210.91,-127.47 424.19,-47.49 241.67,90.62 192.21,153.76 226.34,305.18 93.06,413.02 38.9,632.13 159.05,915.43 -46.73,-22.27 -28.97,-3.89 -50.19,-67.71l-67.29 -266.54c-24.38,-119.61 -34.87,-277.91 -73.52,-381.54 -38.47,-103.13 -127.5,-182.63 -238.45,-217.71 -177.94,-56.26 -227.2,-11.47 -367.77,27.52l-12.36 -267.14zm3075.33 277.64c7.19,-59.68 24.46,-117.14 28.81,-180.26 4.07,-59.18 -16.17,-151.29 19.4,-199.7 77.7,100.18 79.04,195.72 284.06,179.68 119.73,-9.38 95.04,-29.14 153.66,-84.1 37.72,-35.37 103.98,-57.8 157.66,-41.77 32.27,55.5 21.32,157.9 26.62,236.98 9.34,139.75 125.8,342.17 37.24,647.7 -103.18,-171.43 -4.14,-404.79 -162.98,-557.56 -63.56,-61.13 -158.43,-100.98 -274.12,-95.89 -141.23,6.24 -175.73,57.64 -270.35,94.92zm-861.52 626.28c-50.37,85.26 -230.01,80.24 -324.49,87.02 -130.24,9.34 -279.49,7.6 -393.98,-25.86l2.33 -179.6c52.3,-14.25 249.5,-77.44 271.68,-79.4 105.95,-9.34 158.82,45.11 330.33,23.42 203.25,-96.71 243.57,-247.69 144.59,-472.4 -54.44,70.87 41.34,86.48 -13.77,258.12 -25.24,78.65 -73.03,146.17 -167.35,165.3 -126.93,25.76 -174.73,-30.91 -280.55,-28.42 -107.03,2.53 -159.11,73.34 -268.78,67.82 17.54,-89.99 1.81,-198.58 21.8,-295.23l52.75 -233.87c44.15,-88.4 389.87,-75.62 413.86,-10.13l19.34 88.33c16.1,118.74 16.07,177.5 120.76,282.06 -23.21,-69.51 -103.78,-327.4 -71.31,-391.33 2.08,3.16 3.4,5.11 3.91,10.63l26.46 89.48c26.03,-19.67 39.24,-36 70.63,-53.42 113.27,31.08 173.04,170.49 164.35,331.35 -6.92,128.12 -66.5,280.63 -122.56,366.13zm-564.61 -1165.99c116.11,39.05 251.47,57.08 390.73,62.1l-24.2 299.88c-149.03,-32.76 -225.75,-16.32 -374.39,-4.16l7.86 -357.82zm3326.65 174.97c-36.95,62.59 -98.1,107.1 -198.99,89.23 -78.58,-13.91 -110.19,-69.49 -136.95,-129.26 112.71,10.06 195.32,41.36 335.94,40.03zm-1329.93 -3.87c-201.81,21.78 -86.13,133.65 -300.54,117 -100.2,-7.8 -80.93,-29.87 -175.95,-131.02 -56.22,-59.8 -16.97,0.5 -45.82,-61.42 137.08,-25.49 344.2,-65.33 472.72,26.84l49.59 48.6zm-3589.19 0.83c-15.24,-80.73 -40.38,-109.69 20.06,-138.03 153.44,-71.96 333.6,-33.63 458.59,38.13l-0.47 132.17c-274.9,-88.98 -181.91,-77.02 -478.18,-32.27zm4670.36 -85.68c-292.3,-69.56 -252.19,-62.23 -255.74,-231.27 221.41,83.28 541.2,105.45 799.95,91.43l-69.66 169.87c-144.11,15.79 -336.08,2.94 -474.55,-30.03zm-3746.13 -2550.71c-19.76,240.29 -95.24,742.3 -17.39,941.35 60.72,155.29 11.34,259.65 -14.6,425.98 -14.72,94.38 -48.49,339.52 -98.22,401.68 1.83,132.84 -60.53,290.14 -69.24,431.95 -8.12,131.73 -37.99,306.24 -122.12,374.28 -57.01,-32.9 -126.48,-132.2 -308.65,-152.03 -183.87,-19.99 -248.98,30.37 -394.12,69.09l-76.3 -350.43c-22.23,-158.54 -116.37,-387.78 -52.24,-560.28 34.67,-93.23 57.65,-113.52 81.35,-237.42 17.46,-91.34 27.49,-184.17 39.8,-276.52l21.71 -303.14c31.05,-193.44 -26.91,-329.42 -86.73,-476.1 -41.65,-102.17 -53.86,-393.29 -57.53,-518.37 37.65,23.18 63.95,60.62 117.24,98.34 -17.13,-41.24 -141.41,-272.22 -168.71,-304.69 -36.5,-108.21 -103.54,-113.01 -115.44,-277.61 -26.44,-365.11 54.63,-260.02 298.48,-474.64 121.17,-106.63 123.86,-157.96 123.72,-256.33 54,34.85 124.67,137.58 169.74,212.55 82.29,136.87 49.1,95.58 188.87,184 506.33,165.06 1231.78,169.07 1782.16,113.84 -26.85,187.83 53.53,232.95 68.34,416.84 5.97,74.29 -3.62,426.05 -18,478.27 22.48,205.28 -30.78,527.44 -22.77,752.83 3.55,99.76 77.6,355.65 122.22,458.14 19.4,44.57 44.01,72.77 57.1,119.1l-279.84 -53.23c-73.03,-11.75 -140.01,-27.16 -214.27,-40.29 -34.46,-6.09 -73.14,-13.03 -107.67,-15.58 -66.53,-4.91 -79.91,-3.4 -106.57,20.07 43.41,19.2 55.54,41.12 108.45,70.94l369.6 185.1 -330.63 27.29c36.25,82.36 129.21,159.05 221.45,170.67 -33.04,-30.89 -84.53,-69.54 -108.81,-105.02 31.07,-21.77 37.04,-17.05 97.42,-24.04 82.11,-9.51 225.23,-25.55 287.22,-79.53l-111.87 -28c-129.79,-14.11 -263.61,-109.78 -356.49,-155.35 16.58,-9.34 1.13,-9.14 33.26,-13.35 8.44,-1.12 29,1.41 37.07,2.63 17.14,2.62 45.45,10.87 64.65,14.83l411.5 76.24 -10.92 34.87 -22.2 74.67c-8.94,133.78 -64.61,142.28 -8.57,264.08 55.29,120.17 58.5,106.38 17.39,238.55 -49.5,159.16 -90.57,332.38 -146.22,492.92 -144.89,46.68 -637.18,22.84 -706.82,-92.51 -42.5,-70.42 10.65,-70.87 -71.8,-141.97 -53.48,-46.11 -21.38,8.59 -48.29,-56.99 -45.2,-110.08 -33.91,-364.87 -13.15,-484.05 92.83,-602.5 -69.47,-883.3 -227.44,-1403.13 -33.62,-110.64 -235.92,-910.57 -288.5,-969.66 -31.39,-35.27 -217.48,-136.95 -261.62,-145.79 55.65,41.57 117.97,90.35 177.16,138.35 79.35,64.29 68.67,100.89 100.15,204.53 81.64,268.72 71.4,210.53 47.69,502.07zm4233.21 78.22c3.64,85.84 36.39,161.24 52.97,245.23 17.57,89.05 31.49,179.39 35.12,268.71 44.59,80.19 13.16,348.15 5.04,455.99 -13.19,175.15 -29.7,279.96 -7.44,457.48 27.88,222.48 62.96,699.15 -30.01,872.83 -77.45,-2.46 -222.03,19.72 -277.52,-16.35 -173.9,28.04 -412.93,-67.8 -527.04,-46.77l-7.6 -238.66c-21.86,-36.84 -135.81,-1355.84 -172.95,-1558.26l-223.04 -1065.79c-7.44,-98.26 -1.31,-201.35 -20.49,-302.01l-28.87 -86.59c3.93,316.05 -10.07,609.67 -39.13,922.06 -23.68,254.57 -92.22,637.26 -60.96,878.23 51.33,395.61 115.76,6.56 51.51,811.26 -18.97,237.56 -24.81,599.01 -129.31,818.53l-33.04 131.25 -36.45 -23.57c-86.66,-61.39 -185.63,-97.8 -291.58,-116.3 -181.57,-31.7 -241.99,8.21 -397.74,34.29 3.74,-65.31 49.41,-84.26 120.56,-105.95 57.64,-17.57 132.85,-28.4 195.47,-29.88 135.08,-3.21 250.39,38.63 366.85,73.7 -219.34,-146.37 -438.65,-130.91 -689.57,-42.22l-13.39 -31.63 -68.97 -803.95 -29.47 -204.52 67.3 39.26c147.36,99.86 226.8,123.29 414.72,146.44 -145.45,-76.7 -312.16,-146.04 -444.43,-252.25 -136.47,-109.59 -111.13,-170.11 -28.13,-264.9 3,2.42 6.69,6.2 8.45,7.94l101.02 113.93c36.05,35.11 84.9,58.99 136.21,91.24l115.28 27.39c-62.19,-27.62 -175.05,-108.89 -197.89,-143.85 -18.55,-10.2 -6.67,-1.65 -26.19,-17.93 -19.11,-15.95 -9.57,-7.62 -22.98,-22.46 -123.7,-136.9 -124.91,-206.69 -142.62,-402.44 -89.37,-298.77 -59.41,-822.01 -75.04,-1151.15 106.11,57 125.13,221.13 485.84,343.25 -143.26,-86.27 -303.27,-211.78 -399.7,-344.21 -100.16,-137.56 -86.84,-68.45 -82.04,-290.49 2.58,-119.84 19.44,-240.8 14.13,-359.81l1.56 -8.67c22.48,-176.75 12.53,-399.97 28.75,-586.58 14.42,-166 63.36,-326.13 82.9,-490.22 549.61,28.09 1034.85,93.15 1611.64,80.24 92.81,-2.07 187.5,-5.62 280.08,-9.91 44.03,-2.02 86.27,-5.45 130.05,-10.18 136.23,-14.72 107.17,-10.83 121.53,13.17 -1.02,98 -2.65,195.88 -3.58,293.89 -1.49,155.37 1.66,127.97 38.09,254.33 44.12,152.99 8.11,347.08 25.16,519.15 19.36,195.48 29.76,362.27 22.91,562.73 -6.15,179.71 -26.64,388.73 -5.97,564.98zm-402.55 -2313.76c6.85,30.82 5.95,36.9 8.48,66.77 -215.75,27.08 -527.37,11.31 -750.32,1.16l2.32 -115.17 715.94 -22.64 23.58 69.88zm-1210.2 -72.46c127.09,8.6 248.8,19.93 382.8,21.17l-1.78 113c-166.67,1.76 -359.15,-19.76 -528.8,-30.58 -55.61,-3.57 -113.17,1.56 -160.63,-28.55 48.35,-134.45 163.02,-84.87 308.41,-75.04zm1510.11 -22.86l16.23 142.42 -220.3 15 -17.18 -137.48 221.25 -19.94zm-2042.37 -20.87l164.38 19.35c4.09,45.16 -14.77,69.32 -39.29,104.62l-168.81 -13.82 43.72 -110.15zm-3053.92 340.29c-11.19,-165.13 -47.52,-347.53 -51.72,-509.99 -3.68,-143.23 28.51,-363.25 39.14,-515.91 22.87,-328.2 4.01,-710.48 116.4,-993.61 35.59,312.63 93.35,699.6 89.69,1008.42 -1.52,129.19 -16.51,642.82 -69.14,754.49 -51.01,108.25 -81.72,6.65 -41.83,191.92l-82.54 64.68zm5930.61 -1417.19c9.25,-36.05 160.08,-284.05 243.3,-337.62 52.82,101.85 157.46,198.3 208.97,318.26 63.8,148.62 122.23,218.75 189.8,341.38 134.87,244.69 215.9,476.05 310.49,752.21 44.5,129.89 82.99,267.05 144.87,386.27 102.66,197.73 204.63,706.63 165.96,880.36 -29.33,131.77 -76.55,305.35 -138.67,388.12 -17.46,-18.86 -38.11,27.81 -5.97,-135.89 65.29,-332.58 -28.38,-338.71 -111.96,-617.47 -26.94,-89.91 -33.31,-57.58 -113.54,-205.52 3.57,61.81 45.97,154.77 36.13,193.65 -4.54,17.91 -79.26,99.86 -97.64,128.55 -55.82,87.12 -113.71,252.97 -207.06,206.13 70.26,-176.07 111.19,-158.32 136.81,-400.26 18.82,-177.82 163.5,-111.26 90.67,-402.19 -61.29,-32.02 -197.08,-268.23 -251.02,-345.02l-357.93 -522.57c-82.41,-113.18 -293.49,-430.04 -322.77,-542.1 18.75,-24.04 51.54,-67.68 79.56,-86.29zm227.17 -408.61c-33.49,40.09 -75.37,80.23 -111.96,128.87 -95.93,127.46 -173.99,303.96 -285.23,393.87 -45.68,-96.67 -125.64,-137.38 -63.9,-240.52 23.85,-137.97 168.94,-332.49 238.15,-385.61 297.1,-227.95 300.81,-86.18 368.58,-10.84 -33.27,47.52 -26.1,22.19 -78.22,59.26 -30.35,21.59 -35.35,33.26 -67.42,54.97zm-6149.51 -1021.02c31.85,159.61 47.38,340.2 70.94,502.03 46.84,321.8 -0.81,119.54 -74.46,453.36 -45.73,207.24 -122.34,1309.64 -92.58,1581.3 18.5,168.73 33.56,336.07 55.71,508.86 15.57,121.6 82.89,402.01 12.63,495.29 -55.89,74.22 -196.43,226.59 -301.2,247.33 -36.88,-180.15 54.43,-336.65 37.63,-508.81 -12.26,-125.74 -64.24,-310.09 -88.98,-458.09 -51,-305.13 -117.53,-655.96 -150.68,-957.77 -13.71,-124.74 53.25,-343.32 76.68,-477.81 92.67,-531.85 19.27,-363 191.47,-919.05 44.89,-145 80.6,-275.33 116.08,-431.2l146.76 -35.44zm5115.77 1775.08c-46.38,450.72 77.33,482.44 87.04,625.63 -137.97,126.24 -297.51,94.3 -555.45,106.58l-72.81 3.37 -174.24 4.35c-297.67,4.7 -565.53,-11 -856.8,-21.56 -140.52,-9.92 -524.71,-11.05 -600.44,-87.19 -13.98,-20.33 -15.97,-31.69 -2.62,-83.04 4.24,-16.29 19.76,-59.21 23.29,-71.85l24.87 -46.36c98.57,25.29 180.73,-5.69 276.48,71.13l207.93 79.32c-53.54,-139.37 -350.35,-181.99 -473.94,-198.34 -19.76,-121.3 -81.95,-1099.87 -56.01,-1165.05 460.91,6.25 407.5,140 802.93,-39.28 237.58,-107.71 381.63,-214.2 599.54,-326.22 170.71,-87.72 186.51,-118.7 294.32,-176.3l448.02 -250.79c118.02,-68.34 202.15,47.46 401.38,-53.59 86.43,-43.83 72.9,-60.3 124.33,-98.8 33.53,46.96 85.45,79.62 113.84,139.84 127.16,176.55 40.99,131.2 200.6,272.34 60.23,53.27 51.14,82.88 88.42,154.54 41.36,79.47 63.07,54.3 105.9,132.83l-108.05 43.17c-33.3,28.47 -75.39,44.94 -109.45,76.6 -35.18,32.67 -59.42,55.24 -92.06,88.89 -34.48,35.53 -107.95,149.69 -132.42,216.83l-65.83 159.15c-41,-27.23 -30.64,-25.37 -64.14,-53.28 -25.23,-21.01 -37.81,-25.46 -61.16,-45.74 -93.58,-81.3 -163.53,-354.7 -193.38,-477.75 -30.91,-85.23 -39.8,-120.82 -119.24,-152.84 22.95,107.35 71.05,220.93 76.18,341.9 -42.24,-45.62 -58.34,-100.86 -103.68,-145.91 -97.22,-96.58 -42.7,-88.82 -86.22,-149.66 -38.38,54.84 -30.97,72.8 14.31,130.73 29.19,37.36 47.87,61.85 81.98,100.75 196.56,224.12 -8.19,609.78 -43.42,895.6zm-3032.76 335.39c-6.24,201.89 -21.37,515.93 30.26,706.84 50.36,186.15 160.45,370.16 178.25,573.78 18.99,109.39 75.87,365.37 49.3,455.13 -202.99,99.7 -1240.45,35.41 -1517.01,1.58 -285.14,-34.87 -430.64,-41.97 -558.16,-260.2 -204.7,-350.3 -234.03,-77.11 -211.35,-571.49 41.47,16.23 49.48,29.96 82.7,63.7 26.25,26.66 44.84,43.71 46.54,68.18 -11.33,-98.44 -106.01,-140.7 -138.81,-268.65l75.08 -67.37c182,73.79 468.32,544.88 476.41,580.28 -73.67,-183.9 -199.36,-449.64 -358.64,-565.9 -54.22,-39.57 -144.66,-75.34 -122.95,-160.31 119.47,-54.56 323.52,221.17 384.85,295.79 -53.87,-192.89 -167.07,-272.27 -322.3,-366.89 3.17,-72.99 24.09,-151.06 34.78,-226.72 9.73,-68.97 5.09,-180.07 35.15,-225.96 -21.91,-119.69 -3.19,-258.38 -8.89,-382.99 -5.36,-117.27 -13.19,-232.74 -26.43,-348.95 -22.35,-196.4 -79.09,-488.67 -62.08,-677.4l2.15 -66.31 -100.66 -704.6c49.21,-22.21 75.99,-60.29 114.14,-105.13 578.57,94.28 1128.49,500.6 1737.44,519.69 35.75,144.7 220.83,174.76 372.07,166.6 -99.82,493.34 -183.56,1043.94 -191.84,1567.3zm-1548.93 -2656.32c444.5,-88.11 423.78,61.44 829.91,55.2 92.66,-1.43 122.86,-11.99 200.62,-41.47 91.39,-34.63 278.07,106.37 486.63,176.5 -29.1,18.7 -41.74,14.79 -94.89,7.62 -368.51,-49.69 -1235.51,-68.27 -1422.27,-197.85zm4473.55 346.87c-8.4,-50.22 -32.43,-81.88 -50.25,-133.99 -36.91,-108 -6.54,-69.62 6.96,-155.98 15.94,-102.04 -49.86,-198.6 -79.26,-271.92 81.84,12.98 74.69,17.53 111.42,72.73 153.64,230.98 65.17,169.79 59.11,375.69 89.37,-65.58 190.16,-265 361.6,-257.06 74.85,48.55 91.25,58.44 65.01,169.43 125.19,-28.77 119.61,7.51 147.49,111.87 119.59,7.3 132.2,11.4 128.43,134.78 51.42,29.06 103.37,36.45 110.19,107.3 5.32,55.49 -18.04,113.23 -56.48,149.29 -56.81,-68.49 -58.82,-154.24 -169.93,-126.92 -106.51,26.2 -94.55,84.43 -183.08,124.12 -96.11,43.1 -177.31,26.12 -285.36,26.57 -101.86,0.39 -151.06,53.62 -218.09,92.68 -176.16,102.68 -1062,605.82 -1193.16,658.15 -209.4,83.56 -235.91,116.92 -496.92,86.47 -157.25,-18.36 -406.57,-31.02 -548.77,-72.32 -156.75,-45.52 -289.61,-157.73 -415.44,-192.71 27.66,-206.35 20.85,-172.27 359.9,-193.49 89.78,-268.02 257.46,-75.12 601.35,-84.19 158.32,-4.18 1025.66,-286.11 1219.78,-357.27l525.5 -263.23zm-2939.81 278.92l-74.67 239.01c-345.75,-14.38 -655.31,-111.85 -965.21,-225.15 -264.1,-96.56 -601.8,-263.09 -892.95,-294 -46.41,84.82 -76.53,129.58 -176.35,159.31 -74.08,6.9 -190.59,-10.31 -241.62,12.17 -17.8,86.37 23.02,98.98 54.13,164.31 -119.29,-46.02 -165.89,-91.13 -166.1,-247.93 29.17,-16.56 29.97,-10.84 54.5,-21.99 -100.59,-132.67 -77.15,-92.62 -43.76,-246.85 -56.87,-47.19 -52.44,-20.99 -71.79,-110.76 43.05,-24.17 61.66,-33.33 126.63,-35.5l-27.68 -119.27c173.79,-52.51 309.84,-8.86 495.04,-10.77 -97.71,-43.01 -121.63,-42.17 -131.99,-174.73 74.73,25.6 109.56,63.75 185.41,90.25 71.32,24.94 142.56,22.86 182.02,74.42 28.54,35.46 8.62,55.34 36.27,103.1 11.72,20.24 46.13,44.35 75.65,59.79 310.59,162.52 1200.32,162.12 1586.04,220.91 39.42,112.4 8.6,253.08 -3.57,363.68zm-1172.08 -1184.65c78.65,51.51 224.24,63.07 336.63,78.74 175.96,24.52 211.42,-0.18 376.7,-22.97l-41.58 445.38c-145.75,134.05 -498.43,17.2 -680.5,-13.77l8.75 -487.38zm2749.87 459.56c-5.42,-62.71 25.24,-172.46 28.79,-251.92 4.39,-98.46 -10.38,-193.41 -7.39,-286.29 88.91,24.81 96.06,62.08 143.87,131.61 46.56,67.69 97.46,111.62 117.27,-13.82 9.39,-59.49 -17.48,-70.55 60,-70.93 138.44,-0.66 183.94,115.42 214.76,165.37 85.89,-123.77 22.32,-189.73 233.97,-173.72 -6.97,180.6 -40.85,335.8 -21.47,520.28 -258.31,26.07 -512.93,5.04 -769.8,-20.58zm1392.14 -1125.38c98.71,71.57 113.48,110.08 42.06,246.18 -50.34,95.9 -89.85,157.27 -195.45,184.88l153.39 -431.06zm-1937.11 228.67c-39.87,-97.85 -62.5,-170.89 2.58,-237.85 40.95,23.18 18.3,-16.51 44.53,56.17 4.31,11.96 11.33,43.35 16.26,59.34 58.73,190.48 182.45,287.24 37.1,343.3 -36.47,-44.44 -76.66,-162.5 -100.47,-220.96zm-724.73 -246.17c-2.08,54.2 -186.14,437.28 -252.1,375.05 -39.39,-37.16 20.81,-83.25 33.85,-102.78 46.64,-69.93 -11.44,-40.41 47.63,-118.73 51.79,-68.68 90.11,-158.25 170.62,-153.54zm-1957.39 -135.39c0.38,76.75 -0.47,110.4 28.18,170.08 1.63,3.39 3.95,7.12 5.6,10.49 1.63,3.37 3.76,7.26 5.36,10.63 17.74,37.29 65.13,151.94 69.32,208.81 -56.95,-44.41 -224.52,-247.5 -161.58,-355.08 43.6,-74.53 4.02,-16.51 53.12,-44.93zm-526.04 10013.32c-10.79,257.55 104.06,553.36 51.99,768.3 -66.65,275.24 -40.55,357.05 418.19,361.99 98.53,1.08 300.47,-11.54 392.78,-36.69 104.5,-28.47 119.16,-118.33 138.13,-290.15 11.58,-104.84 -80.89,-194.64 -113.09,-309.5 -34.37,-122.57 -28.84,-259.78 -37.59,-388.96 75.63,20.63 145.71,65.24 218.59,102.17 32.75,16.58 79.78,43.87 113.03,53.46 133.93,38.58 178.82,-103.28 34.66,-246.49 -72.11,-71.64 -156.3,-61.06 -278.19,-60.97 82.35,-54.41 93.59,-30.21 191.45,-32.65 -105.63,-109.34 -173.2,-10.94 -291.91,31.68l-39.25 -163.63c-18.18,-78.75 -22.39,-122.05 -35.12,-197.24 -20.2,-119.42 -79.18,-65.76 -89.49,-151.38 61.97,-27.88 126.21,-5.43 200.57,-217.95 45.07,-128.76 34.6,-222.36 56.53,-353.98 31.91,-191.58 212.48,-897.45 204.88,-1052.31 -6.08,-123.9 -67.14,-53.76 -66.26,-349.72 0.66,-222.48 13.08,-553.77 68.23,-758.39 35.62,60.02 145.75,495.11 181.89,606.67 63.22,195.07 140.68,390.77 165.12,608 30.26,268.99 -36.25,487.76 -38.37,743.5 -3.29,400.82 94.82,270.89 141.27,445.81 22.56,84.96 13.29,58.43 80.88,100.6 10.09,89.35 5.12,183.38 5.66,274.04 0.09,17.35 0.02,59.61 -3.62,74.8 -15.06,62.96 -39.78,27.64 -58.95,140.24 -12.46,73.81 -29.59,140.45 -44.53,212.27 -18.89,90.91 -3.57,155.29 -11.27,240.39 -15.58,171.82 -58.05,124.87 -19.15,327.9 10.32,53.89 -1.06,50.43 2.17,105.69 177.07,122.12 537.72,100.77 733.57,17.35 270.49,-115.2 211.17,-513.34 201.07,-672.65 -10.3,-45.09 -23.37,-90.77 -41.91,-131.41 -31.61,-69.31 -53.55,-67.46 -84.42,-118.83 50.66,14.72 41.52,16.12 73.68,41.7 -23.7,-87.25 -35.95,-69.11 -113.79,-97.13 61.85,-31.8 177.47,-148.66 82.43,-224.01 -31.49,-24.97 -239.53,-68.34 -178.07,151.49l14.43 -24.09c35.01,-66.87 35.62,-108.55 136.16,-84.41 15.51,101.31 -105.56,174.08 -209.84,160.24l26.03 -307.85 218.45 -25.69 173.86 -586.74c30.08,-95.79 17.87,-96.45 -22,-185.91 -79.78,-179.08 41,-261.28 39.25,-413.26 -0.52,-44.74 -62.09,-112.76 -83.94,-164.43 -221.12,-522.83 -57.51,-1087.91 -75.67,-1640.89 -5.97,-181.84 -98.43,-292.64 -68.79,-434.73 50.86,-33.6 121.74,-16.78 146.59,-76.05 16.75,-40 -63.89,-563.45 -74.95,-615.73 -25.69,-121.55 -71.12,-242.31 -117.81,-352.48 -161.04,-379.98 -56.97,-870.66 -30.04,-1285.8 19.77,-305.09 45.07,-563.22 110.02,-852.73 38.24,7.85 208.64,101.29 259.4,128.79 138.99,75.32 155.09,67.73 315.06,109.9 38.53,251.1 51.27,541.38 66.62,798.09 33.86,566.55 -35.34,406.89 -44.66,578.94 -3.78,69.85 9.57,72.63 57.67,107.46 20.67,14.97 -6.49,-5.45 18.31,13.03l17.59 14.26c-211.77,459.77 -221.02,2295.07 -144.29,2875.88 14.63,110.77 31.13,221.12 48.8,328.78 9.84,59.95 30.16,116.22 9,171.58 -19.61,51.35 -60.16,63.84 -58.01,146.13 1.61,61.76 32.03,85.14 42.68,140.77 48.61,254.04 71.21,956.37 130.34,1240.39 67.71,325.19 -38.92,395.64 -39.23,669.72 -14.12,200.04 19.85,268.54 44,450.21 21.73,163.53 -23.94,332.39 -3.14,491.07 107.42,75.98 732.12,83.67 836.85,-56.77 50.57,-67.84 93.39,-152.84 66.91,-261.35 -81.9,-63.13 -100.78,-22.4 -98.82,-182.98 0.72,-58.67 13.3,-203.82 28.18,-256.54 30.16,-106.89 293.96,-179.91 375.96,-113.5 -106.02,-140.86 -190.08,-46.11 -327.55,-3.27 99.94,-148.63 122.85,-3.06 252.08,-291.34 4.03,-222.64 -195,-213.64 -293.46,-87.09 -24.22,31.12 -16.14,20.83 -31.59,59.39l-21.64 53.12c-86.09,-193.24 36.66,-362.86 39.1,-370.13 126.98,-376.92 140.25,-762.99 176.84,-1129.58 58.59,-586.95 -73.04,-449.93 -74.58,-776.43 -0.66,-138.53 15.56,-267.04 33.15,-402.12 19.77,-151.99 16.48,-257.21 22.05,-407.11 46.94,68.04 186.4,453.36 211.78,552.45 74.2,289.64 190.84,1734.06 203.05,2034.14l79.94 23.14c-14.32,194.23 12.73,265.87 -96,416.09 -19.78,48.49 -44.16,57.97 -49.81,121.8 -5.57,62.89 16.75,94.44 12.95,148.8 -9.34,133.74 -52.91,125.19 -1.69,283.22 282.04,66.05 417.97,113.43 743.2,44.87 209.81,-44.22 211.98,-428.11 135.1,-625.75 -39.76,-101.52 -69.54,-153.05 -76.17,-276.77 24.16,-74.31 46.9,66.37 140.62,-215.7 95.47,-287.28 76.14,-647.34 36.72,-939.33 -58.86,-436.09 90.32,-709.92 -50.99,-1272.47 -57.92,-230.66 -40.96,-392.95 -32.29,-639.99 8.07,-229.83 -19.7,-428.4 -27.32,-652.27 -3.8,-111.36 19.97,-214.3 6.94,-325.6 -40.7,-347.26 -67.52,-26.16 -59.63,-631.4 1.63,-126.01 -29.74,-300.32 -21.28,-318.88 48.93,-53.19 98.82,-37.11 108.18,-122.59 6.29,-57.37 -32.31,-108.53 -51.35,-162.62 -152.27,-432.49 102.71,-901.5 120.48,-1113.82 50.73,39.21 74.86,95.47 122.16,142.03 68.37,67.3 185.34,157.87 237.51,248.35 53.33,92.51 8.87,106.85 144.21,99.1 96,207.3 507.39,766.81 663.72,1005.98 115,175.95 300.41,391.08 228.18,536.06 -140.53,282.08 -43.76,63.09 -104.95,321.38 -24.41,103.03 -115.6,219.65 -112.28,286.79 101.72,81.8 165.83,2.33 220.19,-73.17 101.81,-141.41 59.23,-200.04 157.14,-211.04 108.53,143.67 -64.52,525.68 -37.7,619.76 14.41,34.19 28.09,9.38 63.08,79.71 24.19,48.56 3.19,26.15 45.43,72.55 74.71,-0.72 26.45,4.98 81.99,-23.32 136.05,-69.38 124.65,-252.62 196.82,-440.31 103.68,-269.58 -172.8,-920.48 -260.54,-1174.86 -155.34,-450.45 -203.32,-633.41 -451.55,-1036.69 -49.94,-81.16 -81.69,-172.23 -129.2,-250.42 -102.37,-168.46 -61.46,-67.39 -12.43,-230.53 59.61,-198.37 -149.58,-323.06 -265.18,-448.28 -41.86,-45.36 -105.79,-158.45 -148.43,-216.12l-161.08 -200.36c35.48,-52.12 75.44,-69.74 107.03,-193.71 11.28,-44.27 17.3,-88.24 3.82,-132.9 -17.21,-56.94 -35.21,-45.73 -71.87,-79.64 -55.97,-51.77 -12,-40.05 -50.9,-101.13 -27.68,-43.45 -52.98,-33.11 -92.33,-61.45 -57.03,-41.07 -13.57,-45.59 -53.1,-96.08 -29.62,-37.86 -56.74,-35.83 -108.09,-43.62 -76.66,-248.9 -246.06,-115.04 -394.84,-29.22 -14.55,-110.97 -143.85,-332.97 -260.77,-301.13 -62.88,17.12 -39.54,56.36 -44.61,104.32 -64.68,21.03 -110.61,35 -179.92,49.48 -56.3,11.76 -133.87,35.19 -185.66,8.32 -25.01,-128.27 12.22,-316.93 17.73,-453.21 93.4,13.33 86.21,-11.48 148.89,-45.65 51.74,-28.22 88.97,-27.18 136.72,-60.2 60.82,-42.09 36.46,-64.59 115.56,-81.86 143.83,-31.41 232.36,-142.54 278.22,-299.8 42.63,-146.26 -36.48,-167.86 -118.93,-248l54.12 -311.28c-72.3,99.32 -118.83,281.18 -138.06,420.66 -46.52,151.38 -110.06,467.79 -258.36,499.7 -23.11,-88.03 -38.79,-142.79 -109.16,-163.64l43.65 180.38 -116.63 59.85c-198.45,-105.49 -126.38,-50.72 -305.28,13.64l-75.13 -152.65c-73.13,-136.65 8.46,-163.06 -45.97,-271.61 -35.26,-67.05 -38.42,-52.19 -105.45,-92.56 123.65,179.44 46,92.99 79.29,309.25l2.23 40.04 60.77 155.3c-102.06,-39.31 -260.24,-100.09 -255.67,63.5 -64.11,-47.7 -86.79,-117.73 -179.13,-136.48 -142.04,-28.85 -109.52,-9.22 -218.7,-86.56 -142.55,-100.96 -181.92,-168.98 -265.21,-355.5 -41.82,-166.96 -109.27,-343.28 -155.95,-516.05 -51.42,-190.27 -88.28,-386.65 67.75,-531.08 69.43,68.07 33.16,82.76 59.8,71.25 -3.71,-25.87 -6.77,-52.76 -15.77,-76.3l-28.72 -49.52c-1.02,-5.56 -4.9,-6.29 -7.07,-9.65 -106.93,22.04 -200,303.31 -170.33,448.61 26.12,127.92 101.4,348.19 142.08,475.54 -34.33,54.78 -77.21,49.4 -91.25,136.86 -10.81,67.42 12.82,131.41 33.56,184.01 88.76,225.08 131.52,391.41 275.01,151.41 75.76,61.91 160.35,134.41 284.26,182.33 20.41,199.11 32.94,358.95 -31.21,543.98l-212.69 -29.78 -40.68 8.21c599.43,114.46 955.67,169.05 1560.14,42.03 11.08,25.1 32.11,77.57 34.62,104.34 8.72,93.02 -12.06,41.09 -24.49,108.3 -11.42,61.87 34.14,143.04 49.05,193.03 -69.02,54.08 -161.08,84.44 -234.47,125.37 -385.52,214.97 -904.08,337.11 -1336.2,454.23 -257.98,69.92 -430.26,-74.47 -620.4,-28.34 -38.87,27.64 -49.14,23.07 -79.37,57.21 -87.74,99.14 -0.84,74.16 -264.52,97.63 -159.72,14.22 -297.68,57.3 -405.76,-53.19 27.35,-72.52 59.53,-141.86 84.42,-219.76 22.05,-68.97 39.35,-164.24 64.5,-225.91 3.82,-63.89 12.7,-124.9 0.15,-189.3 -12.59,-64.65 -45.04,-94.24 -37.92,-147.24 140.12,-15.83 310.78,72.39 461.66,98.96l-179.62 -88.81 -70.21 -31.55c-94.87,-28.22 -82.05,-40.63 -200.86,-32.29 -138.28,9.7 -284.5,-106.64 -502.03,-185.32l41.61 -466.84 38.19 -27.91c89.35,-59.49 113.87,-64.54 215.42,-148.7 58.21,-48.24 35.56,-76.15 118.57,-92.92 72.82,-14.71 107.75,1.08 165.58,-48.35 84.23,-72 237.6,-322.54 234.84,-396.45 -3.07,-81.66 -63.58,-52.42 -124.53,-75.24 6.79,-71.68 34.13,-102.39 34.49,-197.08 0.33,-83.23 -11.26,-134.73 7.55,-213.35 24.38,-101.97 42.17,-61.43 5.42,-174.04 -24.21,-74.13 -12.3,-98.53 -44.02,-168.11l-65.83 -161.65c-8.87,-23.43 -12.82,-55.81 -23.21,-82.76 -28.6,-74.22 -14.11,-31.03 -46.51,-60.41 -129.96,-117.91 -121.35,-294.93 -471.46,-407.97 -66.61,-21.51 -108.79,-25.24 -179.55,-49.44 -74.9,-25.6 -430.8,43.92 -528.08,85.66 -85.07,36.52 -41.97,57.19 -130.01,99.98 -44.93,21.85 -94.59,43.64 -137.11,73.77 -129.68,91.88 -123.11,105.9 -200.94,239.66 -29.83,51.26 -125.94,258.9 -132.88,304.85 -17.14,113.28 -15.99,272.32 -7.31,377.2 27.89,337.61 -42.06,157.62 -86.07,323.2 -43.55,163.8 244.37,455.92 337.7,535.02 63.41,53.76 190.47,57.2 196.29,248.92 4.23,139.62 0.58,301.44 -3.12,441.26l-367.02 41.5c-68.43,-134.56 -45.71,-135.41 -217.42,-172.16 -128.37,-27.48 -163.56,-113.91 -261.05,-119.45 -72,84.76 -1.61,144.55 37.94,201.74 -77.38,-10.88 -193.66,-44.75 -270.8,-39.41 -82.56,5.72 -125.32,35.95 -145.2,95.52 -4.95,14.83 -3.75,21.28 -9.59,35.48 -22.21,53.8 -73.15,59.68 -83.4,113 -9.63,50.13 22.39,68.23 29.22,108.66 9.99,59.09 -24.06,46.61 -17.96,112.61 4.12,44.53 31.08,59.34 50.93,93.24 -82.36,109.2 2.92,270.99 176.28,347.99 -6.88,110.12 -86,323.69 -123.02,427.19 -53.76,150.27 -71.15,286.3 -92.47,454.14 -50.68,399.15 -151.85,630.95 -106.6,926.29 48.07,313.79 96.47,634.67 146.76,947.29 27.54,171.19 87.4,305.15 61.47,472.43 -12.01,77.56 -27.17,165.91 -34.54,240.79 -10.69,108.55 20.09,132.47 -6.65,238.08 -43.59,172.09 -33.85,332.83 50.3,466.7 121.03,192.52 77.38,200.32 99.21,446.54 19.58,220.75 54.63,261.39 107.41,439.73 69.33,234.18 18.12,752.61 -34.39,994.42 -41.1,189.35 -117.1,186.66 -89.42,436.83l143.26 676.09c30.84,98.39 88.19,48.46 103.43,172.79l-61.17 34.85c-12.93,119.76 14.55,189.33 14.12,295.47 -0.34,85.75 -38.13,136.77 -43.08,240.89z"/>
   <path class="fil1" d="M3017.64 12158.12l39.25 163.63c118.71,-42.62 186.28,-141.02 291.91,-31.68 -97.86,2.44 -109.1,-21.76 -191.45,32.65 121.89,-0.09 206.08,-10.67 278.19,60.97 144.16,143.21 99.27,285.07 -34.66,246.49 -33.25,-9.59 -80.28,-36.88 -113.03,-53.46 -72.88,-36.93 -142.96,-81.54 -218.59,-102.17 8.75,129.18 3.22,266.39 37.59,388.96 32.2,114.86 124.67,204.66 113.09,309.5 -18.97,171.82 -33.63,261.68 -138.13,290.15 -92.31,25.15 -294.25,37.77 -392.78,36.69 -458.74,-4.94 -484.84,-86.75 -418.19,-361.99 52.07,-214.94 -62.78,-510.75 -51.99,-768.3 -40.85,56.15 -44.33,39.44 -167.44,92.33 -56.87,24.44 -114.52,54.52 -176.41,81.28 -110.01,47.62 -240.14,111.07 -364.26,137.78 -323.5,69.61 -1254.56,-99.23 -733.67,388.4l318.57 304.2c44.66,42.42 48.37,61.01 99.9,97.4 508.73,359.31 1081.26,175.79 1721.17,158.38 651.1,-17.73 870.91,245.84 1335.1,275.1 567.3,35.75 1322.24,-472.86 2020.19,-381.81 241.18,31.47 476.98,93.78 727.83,88.24 76.03,-1.68 333.78,-45.26 372.22,-33.83 48.56,14.45 58.94,50.9 132.72,65.46 253.55,50.05 576.23,-92.85 758.23,-235.2 289.36,-226.32 164.63,-470.56 226.39,-579.12 83.57,-146.88 509.46,-85.26 305.82,-384.8 -186.92,-274.9 -899.83,-363.97 -1240.68,-372.29 76.88,197.64 74.71,581.53 -135.1,625.75 -325.23,68.56 -461.16,21.18 -743.2,-44.87 -51.22,-158.03 -7.65,-149.48 1.69,-283.22 3.8,-54.36 -18.52,-85.91 -12.95,-148.8 5.65,-63.83 30.03,-73.31 49.81,-121.8 -82.72,8.21 -182.47,10.79 -248.64,34.13 -129.23,288.28 -152.14,142.71 -252.08,291.34 137.47,-42.84 221.53,-137.59 327.55,3.27 -82,-66.41 -345.8,6.61 -375.96,113.5 -14.88,52.72 -27.46,197.87 -28.18,256.54 -1.96,160.58 16.92,119.85 98.82,182.98 26.48,108.51 -16.34,193.51 -66.91,261.35 -104.73,140.44 -729.43,132.75 -836.85,56.77 -20.8,-158.68 24.87,-327.54 3.14,-491.07 -24.15,-181.67 -58.12,-250.17 -44,-450.21 -217.52,37.71 -405.72,33.13 -598.95,-54.98 10.1,159.31 69.42,557.45 -201.07,672.65 -195.85,83.42 -556.5,104.77 -733.57,-17.35 -3.23,-55.26 8.15,-51.8 -2.17,-105.69 -38.9,-203.03 3.57,-156.08 19.15,-327.9 7.7,-85.1 -7.62,-149.48 11.27,-240.39 14.94,-71.82 32.07,-138.46 44.53,-212.27 -275.62,-22.1 -587.31,17.45 -813.22,87.31z"/>
   <path class="fil2" d="M3722.92 5400.54c-188.11,-20.98 -273.65,-117.77 -394.32,-192.62 79.19,14.52 347.82,149.9 394.32,192.62zm-1244.69 -454.27c27.75,30.33 50.36,21.49 50.38,21.49 21.41,-3.08 26.93,-15.9 47.51,-27.55l98.3 -39.57c-66.59,-211.01 -167.41,-492.26 -189.64,-724.59 150.34,52.51 95.89,292.07 232.57,483.66 81.74,114.54 225.87,295.13 328.08,385.77 183.53,162.75 173.83,156.87 410.19,303.75 164.61,102.29 324.83,155.11 391.4,332.9 -148.93,-21.05 -320.16,-168.02 -410.1,-175.55 -13.05,8.79 16.08,39.19 -53.87,-7.62l-321.57 -253.75c-35.97,36.79 -18.72,-6.56 -11.12,39 11.01,65.99 269.81,300.73 324.98,341.79l400.97 328.95c56.51,55.72 77.66,82.38 119.74,121.64 45.46,42.48 85.86,76.72 98.53,143.95 -385.43,-107.48 -819.37,-380.18 -1067.78,-645.99 -28.68,-30.7 -55.61,-49.88 -84.47,-83.23l-225.19 -290.6c-25.34,-40.31 -96.81,-180.84 -141.06,-188.14 -17.01,188.73 39.73,481 62.08,677.4 13.24,116.21 21.07,231.68 26.43,348.95 5.7,124.61 -13.02,263.3 8.89,382.99 73.94,288.49 20.85,225.67 209.99,408.86 -179.19,71.12 32.93,234.08 63.72,264.4 122.93,121.1 89.31,137.9 153.22,289.75 -46.48,-3.03 -32.59,-5.06 -75.22,-29.12 59.02,149.09 211.94,322.68 252.91,649.56 -54,-31.79 -87.76,-66.4 -105.99,-121.23 -58.55,66.01 -24.42,143.43 -125.03,186.72 -36.13,-67.8 -81.82,-240.16 -174.55,-353.18 -99.39,-121.15 -89.31,-47.68 -150.1,-124.52l-112.52 -165.51c-1.7,-24.47 -20.29,-41.52 -46.54,-68.18 -33.22,-33.74 -41.23,-47.47 -82.7,-63.7 -22.68,494.38 6.65,221.19 211.35,571.49 127.52,218.23 273.02,225.33 558.16,260.2 276.56,33.83 1314.02,98.12 1517.01,-1.58 26.57,-89.76 -30.31,-345.74 -49.3,-455.13 -12.35,20.63 -16.45,18.2 -33.32,33.99 -206.87,-793.14 -567.85,-574.98 -567.63,-1023.62 91.64,20.22 107.06,24.18 201.58,7.47l11.13 -193.36 129.87 25.65c12.66,-27.93 8.69,-33.36 19.18,-68.63 8.28,-27.8 1.74,-12.03 12.07,-34.72 12.42,-27.36 1.97,-9.4 18.61,-27.4 8.28,-523.36 92.02,-1073.96 191.84,-1567.3 -151.24,8.16 -336.32,-21.9 -372.07,-166.6 -608.95,-19.09 -1158.87,-425.41 -1737.44,-519.69 -38.15,44.84 -64.93,82.92 -114.14,105.13l100.66 704.6z"/>
   <path class="fil3" d="M5614.59 9978.46c-141.54,24.44 -197.6,-54.3 -261.14,-120.02 -121.08,-125.26 -110.7,-163.2 -72.75,-271 42.92,30.71 122.95,177.09 150.43,221.82 62.59,101.81 58.09,126.68 183.46,169.2zm913.42 -2666.66c89.21,-37.15 213.43,-38.08 318.61,-34.42 61.99,2.15 257.64,12.64 308.93,48.85 -112.37,35.53 -425.46,15.2 -574.98,24.44l24.6 125.58c129.62,5.15 299.3,-24.47 412.82,17.75l-415.13 30.01c13.12,117.61 23.66,428.99 42.11,509.26 146.07,49.75 403.73,16.54 542.58,-31.75 -130.93,130.03 -393.67,111.31 -595.31,82.54 -10.58,-63.7 -64.63,-771.1 -64.23,-772.26zm-1185.03 -91.4c131.57,7.14 586.62,23.17 672.33,61.75 15.95,44.49 -42.74,279.08 -49.55,366.28 -9.7,123.99 16.56,329.06 -6.42,430.84 -135.46,30.91 -507.99,3.14 -634.61,-45.95 -17.44,-154.12 -39.89,-336.32 -3.24,-485.11l48.29 440.83c103.39,36.32 425.03,68.73 536.62,51.54 15.65,-57.26 -4.45,-292.99 4.32,-391.95 11.11,-125.86 35.01,-210.35 54.18,-318.51 -103.07,-57.85 -439.22,-36.09 -581.11,-52.92l-12.48 145.59 423.34 55.56 -492.1 10.34 40.43 -268.29zm-157.51 804.14c66.35,63.46 93.72,111.88 177.16,170.42 112.91,79.18 185.34,77.61 204.54,118.7 -28.27,8.8 -74.51,-9.97 -113,-18.27 12.05,75.06 42.92,113.7 87,188.24 101.71,171.93 97.03,180.5 227.31,289.32 64.09,53.51 86.93,42.45 153.57,119.83 -84.46,-6.99 -222.65,-87.96 -280.55,-125.86 -216.32,-141.54 -275.89,-390.18 -376.32,-609.02l-81.27 -124.69c5.31,119.01 -11.55,239.97 -14.13,359.81 -4.8,222.04 -18.12,152.93 82.04,290.49 96.43,132.43 256.44,257.94 399.7,344.21 -360.71,-122.12 -379.73,-286.25 -485.84,-343.25 15.63,329.14 -14.33,852.38 75.04,1151.15 2.8,3.73 5.94,8.69 7.91,11.58 71.19,104.8 170.89,229.15 261.17,309.32 33.69,29.92 40.68,42.1 82.63,70.84l255.07 169.99c-36.23,20.13 -57.97,8.82 -115.95,-5.31 -171.02,-41.65 -204.34,-90.41 -299.04,-113.59 22.84,34.96 135.7,116.23 197.89,143.85l-115.28 -27.39c-28.45,35.48 -0.55,44.71 38.12,96.92 138.85,187.57 191.38,77.3 241.88,213.68l-53.12 -6.56c-187.92,-23.15 -267.36,-46.58 -414.72,-146.44l-67.3 -39.26 29.47 204.52 100.38 422.79c33.63,115.47 145.98,329.87 -31.41,381.16l13.39 31.63c250.92,-88.69 470.23,-104.15 689.57,42.22 -116.46,-35.07 -231.77,-76.91 -366.85,-73.7 -62.62,1.48 -137.83,12.31 -195.47,29.88 -71.15,21.69 -116.82,40.64 -120.56,105.95 155.75,-26.08 216.17,-65.99 397.74,-34.29 105.95,18.5 204.92,54.91 291.58,116.3l36.45 23.57 33.04 -131.25c0.32,-259.14 34.44,-577.52 53.64,-839.43 18.09,-246.6 -3.93,-308.9 -112.57,-459.7 -16.33,-22.68 -25.1,-33.51 -45.11,-62.07 -37.05,-52.89 -47.17,-85.82 -43.54,-160.38l112.62 -7.55c-13.7,-52.67 -77.04,-122.23 -111.6,-199.82 -35.25,-79.12 -52.94,-166.01 -59.92,-254.29 144.82,70.44 98.64,96 172.49,146.26 -18.29,-175.97 -15.37,-781.73 -0.24,-992.7 7.93,-110.35 30.26,-205.47 40.05,-308.97 -79.9,-35.26 -135.17,-92.81 -139.04,-226.44l161.97 75.63 -105.88 -133.13c-48.56,-53.14 -81.84,-56.45 -78.29,-155.41 100.09,18.52 117.36,121.3 297.08,104.3 19.88,-61.72 17.36,-26.71 15.46,-93.21 -0.77,-27.12 -6.82,-71.01 9.61,-99.69 172.23,299.71 352.15,451.49 756.44,423.52 -32.9,-56.33 -79.08,-50.86 -84.83,-106 141.8,-13.81 192.07,13.17 327.73,-41.78 -2.08,-218.89 -16.6,-449.55 -1.54,-668.25 10.49,-152.3 27.77,-296.06 78.2,-439.2l53.03 -102.87c1.11,-5.7 4.72,-6.67 7.35,-9.79 -14.36,-24 14.7,-27.89 -121.53,-13.17 -43.78,4.73 -86.02,8.16 -130.05,10.18 -92.58,4.29 -187.27,7.84 -280.08,9.91 -576.79,12.91 -1062.03,-52.15 -1611.64,-80.24 -19.54,164.09 -68.48,324.22 -82.9,490.22 -16.22,186.61 -6.27,409.83 -28.75,586.58z"/>
   <path class="fil4" d="M5799.39 6635.12c67.91,20.29 107.01,24.29 146.07,72.44 -38.76,34.1 -29.15,20.87 -93.01,20.53 0.09,0.21 8.34,26.98 17.43,45.02 291.27,10.56 559.13,26.26 856.8,21.56 66.94,-95.91 -77.14,-200.02 -169.79,-267.05 -209.77,-151.76 -406.35,-210.09 -654.42,-286.68 -117.09,-36.14 -295.91,-53.91 -246.52,-210.71 468.22,107.16 968.83,431.97 1224.48,463.54 -30.32,-48.47 -65.38,-74.41 -106.22,-136.61 -32.33,-49.23 -55.83,-98.44 -80.6,-162.94l-7.46 -17.97c0.98,-2.24 7.4,-8.94 10.09,-14.03 104.3,22.05 200.22,-6.08 333.46,30.96 136.57,37.95 249.66,172.52 262.64,75.74 16.47,-122.69 38.27,-61.67 104.73,-150.61 34.23,-45.8 0.54,-23.86 45.07,-63.57 35.23,-285.82 239.98,-671.48 43.42,-895.6 -34.11,-38.9 -52.79,-63.39 -81.98,-100.75 -45.28,-57.93 -52.69,-75.89 -14.31,-130.73 43.52,60.84 -11,53.08 86.22,149.66 45.34,45.05 61.44,100.29 103.68,145.91 -5.13,-120.97 -53.23,-234.55 -76.18,-341.9 79.44,32.02 88.33,67.61 119.24,152.84 37.56,-32.24 21.55,-37.26 55.25,-78.98 12.48,-15.45 55.34,-60.16 55.45,-60.32 17.25,197.92 56.08,389.68 211.05,517.29l50.28 33.32c2.08,-3.42 8.16,4.54 12.48,6.31 24.47,-67.14 97.94,-181.3 132.42,-216.83 32.64,-33.65 56.88,-56.22 92.06,-88.89 34.06,-31.66 76.15,-48.13 109.45,-76.6 -31.47,-34.98 -2.98,11.33 -18.86,-35.55l-14.72 -107.1 -153.05 -54.81c-30.64,-141.27 8.8,-72.03 -54.45,-205.94 -15.02,-31.76 -40.96,-160.68 -45.79,-199.48 -28.39,-60.22 -80.31,-92.88 -113.84,-139.84 -51.43,38.5 -37.9,54.97 -124.33,98.8 -199.23,101.05 -283.36,-14.75 -401.38,53.59l-448.02 250.79c-107.81,57.6 -123.61,88.58 -294.32,176.3 -217.91,112.02 -361.96,218.51 -599.54,326.22 -395.43,179.28 -342.02,45.53 -802.93,39.28 -25.94,65.18 36.25,1043.75 56.01,1165.05 123.59,16.35 420.4,58.97 473.94,198.34z"/>
   <path class="fil5" d="M6682.33 9511.18c362.98,-127.7 156.33,73.63 620.75,-341.4 -44.8,61.46 -67.37,106.72 -120.03,166.05 -74.27,83.63 -124.7,110.31 -145.54,149.53 98.05,2.28 227.61,-4.66 298.43,46.49 -43.74,159.32 -240.7,97.63 -325.5,197.4 26.43,60.42 66.51,60.22 125.14,92.08 45.89,24.94 93.8,51.56 123.81,71.85 -100.31,-19.36 -283.35,-65.9 -303,-163.93 52.06,-132 187.01,-63.57 283.76,-136.66 -122.48,-96.35 -389.84,-65.62 -557.82,-81.41zm-545.02 2120.85c104.5,-219.52 110.34,-580.97 129.31,-818.53 64.25,-804.7 -0.18,-415.65 -51.51,-811.26 -31.26,-240.97 37.28,-623.66 60.96,-878.23 29.06,-312.39 43.06,-606.01 39.13,-922.06l28.87 86.59c19.18,100.66 13.05,203.75 20.49,302.01l223.04 1065.79c37.14,202.42 151.09,1521.42 172.95,1558.26l-8.45 -87.7c279.71,-182.65 734.24,-10.56 755.86,109.36 -3.64,-6.42 7.58,-2.56 -25.5,-16.85 -90.91,-39.28 -262.75,-88.75 -359.68,-59.2 -18.31,113.57 74.13,196.04 126.16,233.04 95.26,67.75 169.52,66.91 266.89,105.18l-220.64 1.6c55.49,36.07 200.07,13.89 277.52,16.35 92.97,-173.68 57.89,-650.35 30.01,-872.83 -22.26,-177.52 -5.75,-282.33 7.44,-457.48 8.12,-107.84 39.55,-375.8 -5.04,-455.99l-10.16 32.48c-7.94,-73.18 -40.66,-179.21 -61.76,-248.42 -33.83,-110.91 -69.11,-78.67 -166.14,-121.14 17.27,-39.96 114.38,-150.97 149.97,-176.86 -20.67,-176.25 -0.18,-385.27 5.97,-564.98 6.85,-200.46 -3.55,-367.25 -22.91,-562.73 -17.05,-172.07 18.96,-366.16 -25.16,-519.15 -36.43,-126.36 -39.58,-98.96 -38.09,-254.33 0.93,-98.01 2.56,-195.89 3.58,-293.89 -2.63,3.12 -6.24,4.09 -7.35,9.79l-53.03 102.87c-50.43,143.14 -67.71,286.9 -78.2,439.2 -15.06,218.7 -0.54,449.36 1.54,668.25 -135.66,54.95 -185.93,27.97 -327.73,41.78 5.75,55.14 51.93,49.67 84.83,106 -404.29,27.97 -584.21,-123.81 -756.44,-423.52 -16.43,28.68 -10.38,72.57 -9.61,99.69 1.9,66.5 4.42,31.49 -15.46,93.21 -179.72,17 -196.99,-85.78 -297.08,-104.3 -3.55,98.96 29.73,102.27 78.29,155.41l105.88 133.13 -161.97 -75.63c3.87,133.63 59.14,191.18 139.04,226.44 -9.79,103.5 -32.12,198.62 -40.05,308.97 -15.13,210.97 -18.05,816.73 0.24,992.7 -73.85,-50.26 -27.67,-75.82 -172.49,-146.26 6.98,88.28 24.67,175.17 59.92,254.29 34.56,77.59 97.9,147.15 111.6,199.82l-112.62 7.55c-3.63,74.56 6.49,107.49 43.54,160.38 20.01,28.56 28.78,39.39 45.11,62.07 108.64,150.8 130.66,213.1 112.57,459.7 -19.2,261.91 -53.32,580.29 -53.64,839.43z"/>
   <path class="fil5" d="M2078.07 8701.61c49.6,-34.99 30.26,-60.61 75.58,-160.59 25.28,-55.78 50.47,-104.76 80.03,-149.2 37.79,72.29 74.26,649.88 123.59,864.89 24.74,107.82 51.74,140.77 92.49,226.55 66.77,140.54 136.13,295.1 211.96,440.92l200.44 435.93c-120.17,-100.77 -309.33,-186.5 -514.35,-394.79 -14.76,-14.98 -18.16,-20.92 -30.6,-31.98 -2.84,-2.53 -6.62,-5.77 -9.35,-8.05l-34.06 -22.86 -21.71 303.14c93.55,155.49 -70.71,499.54 -79.9,571.81 -31.5,247.56 113.39,328.27 94.94,560.01 -44.24,-22.12 -46.66,-32.25 -83.95,-57.6l76.3 350.43c145.14,-38.72 210.25,-89.08 394.12,-69.09 182.17,19.83 251.64,119.13 308.65,152.03 84.13,-68.04 114,-242.55 122.12,-374.28 8.71,-141.81 71.07,-299.11 69.24,-431.95 -2.03,-82.54 -34.53,-138.07 -56.17,-218.33 -55.2,-204.75 -86.07,-532.94 -91.31,-746.78 2.93,-2.72 7.64,-5.41 9.7,-7.03l27 -21.47c101.04,-97.91 111.14,-655.68 240.99,-775.4 23.71,-291.54 33.95,-233.35 -47.69,-502.07 -31.48,-103.64 -20.8,-140.24 -100.15,-204.53 -59.19,-48 -121.51,-96.78 -177.16,-138.35 -104.27,-26.21 -6.33,-6.06 -122.19,-93.62 -52.82,-39.91 -60.81,-45.97 -93.19,-109.77 -139.77,-88.42 -106.58,-47.13 -188.87,-184 -45.07,-74.97 -115.74,-177.7 -169.74,-212.55 0.14,98.37 -2.55,149.7 -123.72,256.33 -243.85,214.62 -324.92,109.53 -298.48,474.64 11.9,164.6 78.94,169.4 115.44,277.61z"/>
   <path class="fil6" d="M2958.82 8292.97c44.14,8.84 230.23,110.52 261.62,145.79 52.58,59.09 254.88,859.02 288.5,969.66 157.97,519.83 320.27,800.63 227.44,1403.13 232.69,-47.2 331.44,-191.58 287.92,-405.96 -2.9,-14.28 -13.87,-48.28 -0.16,-66.02 26.66,-23.47 40.04,-24.98 106.57,-20.07 34.53,2.55 73.21,9.49 107.67,15.58 74.26,13.13 141.24,28.54 214.27,40.29 17.3,-323.67 -61.45,-319.56 15.1,-734.25 24.15,-130.82 99.77,-562.16 96.04,-664.85l12.15 122.26c14.38,-52.22 23.97,-403.98 18,-478.27 -14.81,-183.89 -95.19,-229.01 -68.34,-416.84 -550.38,55.23 -1275.83,51.22 -1782.16,-113.84 32.38,63.8 40.37,69.86 93.19,109.77 115.86,87.56 17.92,67.41 122.19,93.62z"/>
   <path class="fil7" d="M5718.14 1846.63c96.36,11.99 178.77,37.32 245.45,82.34 105.93,71.5 81.57,101.99 149.3,168.84 -65.01,-77.5 -261.84,-176.26 -363.22,-230.35 -31.8,-16.96 -19.2,-11.69 -31.53,-20.83zm809.15 -735.63c100.75,174.6 112.59,301.38 92.4,526.72 -20.35,-54.4 -67.14,-256.53 -84.66,-323.58 -56.23,-48.07 -101.5,-147.1 -139.98,-226.04 -19.18,19.89 -15.61,5.6 -22.42,40.41 -5.35,27.33 63.3,157.07 85.75,281.34 22.58,125.1 44.1,268.1 39.83,384.68 -45.21,-72.52 -80.94,-57.82 -106.76,-208.52 3.48,83.76 21.62,184.93 5.16,268.94 -42.57,-56.33 -29.92,-60.9 -30.85,-63.92 -0.16,-0.55 -8.71,-44.89 -9.59,-49.91 -19.65,-112.28 -144.66,-580.25 -238.62,-606.06 -39.53,99.14 173.08,561.37 162.98,786.22 -139.08,-10.88 -219.24,-495.13 -242.29,-585.74l-14.99 -64.02c-64.29,-101.16 -83.06,-172.26 -229.21,-165.24 111.17,208.99 203.14,359.9 226.04,647.07l-40.63 -83.44c-85.64,-272.78 -160.72,-369.16 -218.64,-524.33 -55.36,22.64 -11.23,-12.87 -41.74,30.46 -23.86,33.9 -17.77,114.79 -11.4,154.47 34.46,215.15 211.28,371.08 222.61,433.2 -52.78,-57.13 -270.89,-149.37 -398.02,-343.92 -32.45,-49.65 -47.24,-119.62 -82.03,-164.47 6.97,80.64 0.59,182.12 9.6,246.14 2.17,3.36 6.05,4.09 7.07,9.65l28.72 49.52c9,23.54 12.06,50.43 15.77,76.3 51.3,114.75 -128.16,314.63 131.97,566.48 61.58,59.61 137.38,108.95 227.16,153.1 82.51,40.59 202.73,85.21 200.83,170.05 -148.12,14.39 -204.12,-32.24 -264.9,9.93 121.37,29.7 289.41,47.88 372.23,118.88 73.19,62.73 137.85,240.73 216.82,277.14 -33.29,-216.26 44.36,-129.81 -79.29,-309.25 67.03,40.37 70.19,25.51 105.45,92.56 44.21,-64.7 -29.15,-103.93 10,-267.36 107.01,-24.04 170.42,55.13 240.4,58.93 24.41,1.33 23.93,-3.89 26.55,-5.36 -36,-30.85 -27.23,-18.14 -41.4,-62.28 54.43,0.95 95.95,25.21 123.94,61.76 -6.98,-92.2 -199.97,-238.49 -176.18,-334.05 20.22,-81.23 524.93,-225.38 653.16,-259.82 86.15,-23.15 135.45,-74.19 119.04,-189.23 -2.4,-86.75 -53.3,-179.49 -89.38,-242.4 -106.08,-80.73 -95.38,-216 -289.93,-156.19 -31.91,-89.26 -147.73,-191.25 -191.31,-285l-125.48 19.2c-92.02,-110.7 -87.02,-168.14 -147.47,-302.37 -106.45,-9.05 -110.4,43.51 -172.61,2.76 -27.62,13.36 16.44,31.32 -42.45,-14.64 -10.06,-7.87 -40.27,-36.2 -48.41,-43.89 -40.87,-38.58 -43.45,-62.89 -100.68,-85.6 10.72,64.39 29.78,118.66 58.55,157.06 39.21,52.3 58.57,62.08 118.2,95.5 84.15,47.15 150.61,132.9 181.09,248.16z"/>
   <path class="fil8" d="M7334 4080.68l-525.5 263.23c-194.12,71.16 -1061.46,353.09 -1219.78,357.27 -343.89,9.07 -511.57,-183.83 -601.35,84.19 -339.05,21.22 -332.24,-12.86 -359.9,193.49 125.83,34.98 258.69,147.19 415.44,192.71 142.2,41.3 391.52,53.96 548.77,72.32 261.01,30.45 287.52,-2.91 496.92,-86.47 131.16,-52.33 1017,-555.47 1193.16,-658.15 67.03,-39.06 116.23,-92.29 218.09,-92.68 108.05,-0.45 189.25,16.53 285.36,-26.57 88.53,-39.69 76.57,-97.92 183.08,-124.12 111.11,-27.32 113.12,58.43 169.93,126.92 38.44,-36.06 61.8,-93.8 56.48,-149.29 -6.82,-70.85 -58.77,-78.24 -110.19,-107.3 3.77,-123.38 -8.84,-127.48 -128.43,-134.78 -27.88,-104.36 -22.3,-140.64 -147.49,-111.87 26.24,-110.99 9.84,-120.88 -65.01,-169.43 -171.44,-7.94 -272.23,191.48 -361.6,257.06 6.06,-205.9 94.53,-144.71 -59.11,-375.69 -36.73,-55.2 -29.58,-59.75 -111.42,-72.73 29.4,73.32 95.2,169.88 79.26,271.92 -13.5,86.36 -43.87,47.98 -6.96,155.98 17.82,52.11 41.85,83.77 50.25,133.99z"/>
   <path class="fil4" d="M5307.07 3709.18c33.53,29.2 749.58,214.65 862.47,246.88 218.54,62.41 757.68,230.07 918.08,39.91 -27.34,95.36 -63.91,114.2 -148.58,150.63l-70.71 28.88c-229.21,40.75 -648.02,-14.07 -867.99,-84.04 -125.67,-39.98 -117.02,50.95 -210.67,80.56 -160.27,50.68 -390.07,-235.55 -717.11,-298.01 -316.57,-60.45 -244.93,52.67 -303.95,-49.93l-118.45 75.57 70.21 31.55c25.71,-29.83 46.88,-44.53 119.13,-40.89 59.32,2.97 268.75,46.81 292.06,154.39 -80.48,4.89 -193.01,-0.25 -231.57,-24.69 -150.88,-26.57 -321.54,-114.79 -461.66,-98.96 -7.12,53 25.33,82.59 37.92,147.24 12.55,64.4 3.67,125.41 -0.15,189.3 -8.15,77.18 5.52,187.58 34.39,248.28 51.68,-36.64 37.16,-67.73 82.2,-114.05 9,-165.08 -3.19,-258.54 -14.52,-411.91 27.87,85.08 74.54,158.7 79.74,270.12 5,106.79 -33.69,208.01 -37.26,305.36l41.99 85.5c143.73,22.75 275.57,-17.86 414.19,-39.28 190.14,-46.13 362.42,98.26 620.4,28.34 432.12,-117.12 950.68,-239.26 1336.2,-454.23 73.39,-40.93 165.45,-71.29 234.47,-125.37 -14.91,-49.99 -60.47,-131.16 -49.05,-193.03 12.43,-67.21 33.21,-15.28 24.49,-108.3 -2.51,-26.77 -23.54,-79.24 -34.62,-104.34 -604.47,127.02 -960.71,72.43 -1560.14,-42.03l40.68 -8.21 -53.12 -26.12c-14.09,-3.04 -38.62,0.11 -53.89,7.48 -10.28,4.96 -61.66,47.49 -75.3,58.16 -86.91,67.94 -92.28,60 -199.88,75.24z"/>
   <path class="fil8" d="M2179.61 4315.1c-35.48,155.87 -71.19,286.2 -116.08,431.2 -172.2,556.05 -98.8,387.2 -191.47,919.05 -23.43,134.49 -90.39,353.07 -76.68,477.81 33.15,301.81 99.68,652.64 150.68,957.77 24.74,148 76.72,332.35 88.98,458.09 16.8,172.16 -74.51,328.66 -37.63,508.81 104.77,-20.74 245.31,-173.11 301.2,-247.33 70.26,-93.28 2.94,-373.69 -12.63,-495.29 -22.15,-172.79 -37.21,-340.13 -55.71,-508.86 -29.76,-271.66 46.85,-1374.06 92.58,-1581.3 73.65,-333.82 121.3,-131.56 74.46,-453.36 -23.56,-161.83 -39.09,-342.42 -70.94,-502.03l-146.76 35.44z"/>
   <path class="fil9" d="M2285.01 4238.77c20.99,-57.8 45.57,-55.83 79.49,-103.84 32.39,-45.83 30.87,-74.13 51.33,-127.49 278.79,32.47 648.48,175.66 898.18,269.83 223.23,84.19 711.68,231.29 975.55,218.47 18.7,-36.46 59.27,-116.38 104.63,-136.14 12.17,-110.6 42.99,-251.28 3.57,-363.68 -385.72,-58.79 -1275.45,-58.39 -1586.04,-220.91 -29.52,-15.44 -63.93,-39.55 -75.65,-59.79 -27.65,-47.76 -7.73,-67.64 -36.27,-103.1 -39.46,-51.56 -110.7,-49.48 -182.02,-74.42 -75.85,-26.5 -110.68,-64.65 -185.41,-90.25 10.36,132.56 34.28,131.72 131.99,174.73 -185.2,1.91 -321.25,-41.74 -495.04,10.77l27.68 119.27c-64.97,2.17 -83.58,11.33 -126.63,35.5 19.35,89.77 14.92,63.57 71.79,110.76 -33.39,154.23 -56.83,114.18 43.76,246.85 -24.53,11.15 -25.33,5.43 -54.5,21.99 0.21,156.8 46.81,201.91 166.1,247.93 -31.11,-65.33 -71.93,-77.94 -54.13,-164.31 51.03,-22.48 167.54,-5.27 241.62,-12.17z"/>
   <path class="fil9" d="M8248.71 5709.29c-10.65,54.97 -8.89,19.51 8.7,57.89 72.91,159.16 786.54,1078.62 843.46,1438.09 72.83,290.93 -71.85,224.37 -90.67,402.19 -25.62,241.94 -66.55,224.19 -136.81,400.26 93.35,46.84 151.24,-119.01 207.06,-206.13 18.38,-28.69 93.1,-110.64 97.64,-128.55 9.84,-38.88 -32.56,-131.84 -36.13,-193.65 80.23,147.94 86.6,115.61 113.54,205.52 83.58,278.76 177.25,284.89 111.96,617.47 -32.14,163.7 -11.49,117.03 5.97,135.89 62.12,-82.77 109.34,-256.35 138.67,-388.12 38.67,-173.73 -63.3,-682.63 -165.96,-880.36 -61.88,-119.22 -100.37,-256.38 -144.87,-386.27 -94.59,-276.16 -175.62,-507.52 -310.49,-752.21 -67.57,-122.63 -126,-192.76 -189.8,-341.38 -51.51,-119.96 -156.15,-216.41 -208.97,-318.26 -83.22,53.57 -234.05,301.57 -243.3,337.62z"/>
   <path class="fil5" d="M3736.38 10811.55c-20.76,119.18 -32.05,373.97 13.15,484.05 26.91,65.58 -5.19,10.88 48.29,56.99 82.45,71.1 29.3,71.55 71.8,141.97 69.64,115.35 561.93,139.19 706.82,92.51 55.65,-160.54 96.72,-333.76 146.22,-492.92 41.11,-132.17 37.9,-118.38 -17.39,-238.55 -56.04,-121.8 -0.37,-130.3 8.57,-264.08l-45 -6.54c-61.99,53.98 -205.11,70.02 -287.22,79.53 -60.38,6.99 -66.35,2.27 -97.42,24.04 24.28,35.48 75.77,74.13 108.81,105.02 -92.24,-11.62 -185.2,-88.31 -221.45,-170.67l330.63 -27.29 -369.6 -185.1c-52.91,-29.82 -65.04,-51.74 -108.45,-70.94 -13.71,17.74 -2.74,51.74 0.16,66.02 43.52,214.38 -55.23,358.76 -287.92,405.96z"/>
   <path class="fil10" d="M2478.23 4946.27l-2.15 66.31c44.25,7.3 115.72,147.83 141.06,188.14l225.19 290.6c28.86,33.35 55.79,52.53 84.47,83.23 248.41,265.81 682.35,538.51 1067.78,645.99 -12.67,-67.23 -53.07,-101.47 -98.53,-143.95 -42.08,-39.26 -63.23,-65.92 -119.74,-121.64l-400.97 -328.95c-55.17,-41.06 -313.97,-275.8 -324.98,-341.79 -7.6,-45.56 -24.85,-2.21 11.12,-39 42.45,12.8 154.34,72.38 199.46,101.53 23.31,15.06 75.91,56.74 93.69,72.64 47.89,42.81 21.08,49.62 82.29,87.2 89.94,7.53 261.17,154.5 410.1,175.55 -66.57,-177.79 -226.79,-230.61 -391.4,-332.9 -236.36,-146.88 -226.66,-141 -410.19,-303.75 -102.21,-90.64 -246.34,-271.23 -328.08,-385.77 -136.68,-191.59 -82.23,-431.15 -232.57,-483.66 22.23,232.33 123.05,513.58 189.64,724.59l-98.3 39.57c-20.58,11.65 -26.1,24.47 -47.51,27.55 -0.02,0 -22.63,8.84 -50.38,-21.49z"/>
   <path class="fil8" d="M5941.48 952.71c9.99,-5.02 59.72,-15.81 79.76,-37.61 22.16,-24.13 20.57,-56.67 38.92,-74.49l8.93 81.73c-45.96,43.35 -49.14,45.18 -127.61,30.37zm-505.99 269.44l14.74 33.17c34.79,44.85 49.58,114.82 82.03,164.47 127.13,194.55 345.24,286.79 398.02,343.92 -11.33,-62.12 -188.15,-218.05 -222.61,-433.2 -6.37,-39.68 -12.46,-120.57 11.4,-154.47 30.51,-43.33 -13.62,-7.82 41.74,-30.46 -23.08,-32.2 -46.28,-55.09 -76.16,-85.94 -68.79,2.45 -42.53,1.39 -81.36,23.52l41.15 -59.4c121.15,17.79 84.58,36.13 149.6,82.52 146.15,-7.02 164.92,64.08 229.21,165.24 -27.81,-203.96 -74.58,-206.67 -172.72,-208.96 64.06,-47.73 114.44,-68.5 166.77,21.64 56.45,97.29 185.6,547.98 176.93,701.67 -57.03,-117.44 -73.34,-363.2 -155.99,-450.33 23.05,90.61 103.21,574.86 242.29,585.74 10.1,-224.85 -202.51,-687.08 -162.98,-786.22 93.96,25.81 218.97,493.78 238.62,606.06 0.88,5.02 9.43,49.36 9.59,49.91 0.93,3.02 -11.72,7.59 30.85,63.92 16.46,-84.01 -1.68,-185.18 -5.16,-268.94 25.82,150.7 61.55,136 106.76,208.52 4.27,-116.58 -17.25,-259.58 -39.83,-384.68 -22.45,-124.27 -91.1,-254.01 -85.75,-281.34 6.81,-34.81 3.24,-20.52 22.42,-40.41 38.48,78.94 83.75,177.97 139.98,226.04l-125.94 -343.1 118.2 139.96c-30.48,-115.26 -96.94,-201.01 -181.09,-248.16 -59.63,-33.42 -78.99,-43.2 -118.2,-95.5 -28.77,-38.4 -47.83,-92.67 -58.55,-157.06 -11.26,-55.02 2.76,-22.06 -27.82,-46.26 -48.75,38.58 -5.56,183.64 13.91,230.07 25.24,60.15 65.01,139.37 95.07,184.64 -13.97,-26.21 -37.27,-40.47 -60.79,-64.85 -57.12,-59.21 -108.43,-168.48 -237.33,-171.28 -37.34,36.38 -48.64,45.2 -58.23,110.85 -143.76,-6.87 -157.75,9.54 -186.43,141.09 -110.24,-8.98 -132.2,-8.41 -150,91.27 -108.52,-16.31 -95,13.71 -116.59,116.06 -0.5,2.33 -2.43,12.3 -2.79,10.37 -0.36,-1.89 -1.26,6.92 -2.96,9.91z"/>
   <path class="fil11" d="M6726.68 6794.67l174.24 -4.35c24.17,-68.38 15.92,-70.6 73.49,-108.56 45.79,-30.17 64.61,-42.02 117.12,-51.25 4.36,103.98 -7.01,16.98 -117.8,156.44 257.94,-12.28 417.48,19.66 555.45,-106.58 -9.71,-143.19 -133.42,-174.91 -87.04,-625.63 -44.53,39.71 -10.84,17.77 -45.07,63.57 -66.46,88.94 -88.26,27.92 -104.73,150.61 -12.98,96.78 -126.07,-37.79 -262.64,-75.74 -133.24,-37.04 -229.16,-8.91 -333.46,-30.96 -2.69,5.09 -9.11,11.79 -10.09,14.03l7.46 17.97c123.41,-0.14 575.82,238.89 723.08,267.1l-213.63 -41.23c35.96,28.02 57.78,31.52 92.88,53.28 -57.55,49.77 -88.02,7.55 -204.07,-12.28l-1.2 95.88 82.59 44.42c-64.7,-1.11 -116.37,-8.98 -170.9,-33.07 -64.87,-28.67 -79.35,-54.97 -121.93,-74.55 -255.65,-31.57 -756.26,-356.38 -1224.48,-463.54 -49.39,156.8 129.43,174.57 246.52,210.71 248.07,76.59 444.65,134.92 654.42,286.68 92.65,67.03 236.73,171.14 169.79,267.05z"/>
   <path class="fil10" d="M2509.91 7427.65l112.52 165.51c60.79,76.84 50.71,3.37 150.1,124.52 92.73,113.02 138.42,285.38 174.55,353.18 100.61,-43.29 66.48,-120.71 125.03,-186.72 18.23,54.83 51.99,89.44 105.99,121.23 -40.97,-326.88 -193.89,-500.47 -252.91,-649.56 42.63,24.06 28.74,26.09 75.22,29.12 -63.91,-151.85 -30.29,-168.65 -153.22,-289.75 -30.79,-30.32 -242.91,-193.28 -63.72,-264.4 -189.14,-183.19 -136.05,-120.37 -209.99,-408.86 -30.06,45.89 -25.42,156.99 -35.15,225.96 -10.69,75.66 -31.61,153.73 -34.78,226.72 155.23,94.62 268.43,174 322.3,366.89 -61.33,-74.62 -265.38,-350.35 -384.85,-295.79 -21.71,84.97 68.73,120.74 122.95,160.31 159.28,116.26 284.97,382 358.64,565.9 -8.09,-35.4 -294.41,-506.49 -476.41,-580.28l-75.08 67.37c32.8,127.95 127.48,170.21 138.81,268.65z"/>
   <path class="fil8" d="M7377.17 1718.41c16.41,115.04 -32.89,166.08 -119.04,189.23 -128.23,34.44 -632.94,178.59 -653.16,259.82 -23.79,95.56 169.2,241.85 176.18,334.05 10.84,57.6 -1.87,-0.79 70.92,56.44 53.82,42.33 160.42,158.78 243.01,191.77 -4.54,-200.13 9.81,-133.61 119.88,-92.04l-14.03 -153.53c62.04,16.08 22.53,30.28 87.61,46 19.23,-139.48 65.76,-321.34 138.06,-420.66 5.99,-88.58 8.1,-190.16 -6.4,-277.81 -8.35,-50.45 -16.96,-53.49 -14.47,-101.5 2.58,-49.73 15.83,-64.08 -10.54,-118.33 0.02,0.31 0.48,49.13 0.45,49.34 -6.26,38.01 -3.08,15.88 -18.47,37.22z"/>
   <path class="fil6" d="M2078.07 8701.61c27.3,32.47 151.58,263.45 168.71,304.69 -53.29,-37.72 -79.59,-75.16 -117.24,-98.34 3.67,125.08 15.88,416.2 57.53,518.37 59.82,146.68 117.78,282.66 86.73,476.1l34.06 22.86c2.73,2.28 6.51,5.52 9.35,8.05 12.44,11.06 15.84,17 30.6,31.98 205.02,208.29 394.18,294.02 514.35,394.79l-200.44 -435.93c-75.83,-145.82 -145.19,-300.38 -211.96,-440.92 -40.75,-85.78 -67.75,-118.73 -92.49,-226.55 -49.33,-215.01 -85.8,-792.6 -123.59,-864.89 -29.56,44.44 -54.75,93.42 -80.03,149.2 -45.32,99.98 -25.98,125.6 -75.58,160.59z"/>
   <path class="fil8" d="M5539.79 2612.81c113.07,-34.87 294.02,-22.29 395.04,23.64 -184.57,72.56 -156.96,350.67 117.43,240.38 69.97,-28.13 73.47,-64.15 107.46,-109.63 72.82,79.89 31.6,239.19 238.01,205.35l-2.23 -40.04c-78.97,-36.41 -143.63,-214.41 -216.82,-277.14 -82.82,-71 -250.86,-89.18 -372.23,-118.88 60.78,-42.17 116.78,4.46 264.9,-9.93 1.9,-84.84 -118.32,-129.46 -200.83,-170.05 -89.78,-44.15 -165.58,-93.49 -227.16,-153.1 -260.13,-251.85 -80.67,-451.73 -131.97,-566.48 -26.64,11.51 9.63,-3.18 -59.8,-71.25 -156.03,144.43 -119.17,340.81 -67.75,531.08 46.68,172.77 114.13,349.09 155.95,516.05z"/>
   <path class="fil4" d="M4402.54 12593.95c60.28,44.94 97.71,79.7 114.13,174.42 56.06,-85.5 115.64,-238.01 122.56,-366.13 8.69,-160.86 -51.08,-300.27 -164.35,-331.35 -31.39,17.42 -44.6,33.75 -70.63,53.42l-26.46 -89.48c-0.51,-5.52 -1.83,-7.47 -3.91,-10.63 -32.47,63.93 48.1,321.82 71.31,391.33 -104.69,-104.56 -104.66,-163.32 -120.76,-282.06l-19.34 -88.33c-23.99,-65.49 -369.71,-78.27 -413.86,10.13l-52.75 233.87c-19.99,96.65 -4.26,205.24 -21.8,295.23 109.67,5.52 161.75,-65.29 268.78,-67.82 105.82,-2.49 153.62,54.18 280.55,28.42 94.32,-19.13 142.11,-86.65 167.35,-165.3 55.11,-171.64 -40.67,-187.25 13.77,-258.12 98.98,224.71 58.66,375.69 -144.59,472.4z"/>
   <path class="fil9" d="M5971.98 3634.51c256.87,25.62 511.49,46.65 769.8,20.58 -19.38,-184.48 14.5,-339.68 21.47,-520.28 -211.65,-16.01 -148.08,49.95 -233.97,173.72 -30.82,-49.95 -76.32,-166.03 -214.76,-165.37 -77.48,0.38 -50.61,11.44 -60,70.93 -19.81,125.44 -70.71,81.51 -117.27,13.82 -47.81,-69.53 -54.96,-106.8 -143.87,-131.61 -2.99,92.88 11.78,187.83 7.39,286.29 -3.55,79.46 -34.21,189.21 -28.79,251.92z"/>
   <path class="fil12" d="M2352.04 12847.59c-65.92,-114.26 -73.25,-288.71 20.85,-367.99 92.52,-77.95 300.11,-75.83 375.48,-0.71 44.05,43.88 140.5,317.71 52.94,367.46 -37.85,21.5 -406.15,12.21 -449.27,1.24zm32.2 568.54c-18.11,-126.19 -26.25,-247.55 -2.57,-380.55 52.94,3.94 113.93,21.85 185.61,24.38 79.08,2.76 152.4,-8.87 228,-7.83 67.84,110.36 14.87,121.3 185.11,377.75 98.4,-6.18 152.06,-28.36 157.42,-132.32 -73.81,-67.64 -174.79,-87.65 -215.67,-172.31 -38.26,-79.26 -34.83,-228.99 -26.17,-321.21 -2.49,41.76 47.52,231.36 67.01,280.45 26.84,67.62 120.48,163.89 182.99,193.4l15.26 -136.47c-92.53,-64.05 -139.39,-62.92 -166.89,-209 -20.15,-107.01 -50.65,-203.78 -68.85,-309.29 -23.64,-137.14 -47.61,-182.74 -138.77,-243.37 -162.91,-108.33 -421.99,-103.96 -499.97,31.56 -51.4,89.28 15.83,322.19 33.49,419.58 72.78,401.49 -133.23,520.01 64,585.23z"/>
   <path class="fil8" d="M3213.36 3662.33c182.07,30.97 534.75,147.82 680.5,13.77l41.58 -445.38c-165.28,22.79 -200.74,47.49 -376.7,22.97 -112.39,-15.67 -257.98,-27.23 -336.63,-78.74l-8.75 487.38z"/>
   <path class="fil1" d="M6862.2 12326.79c91.84,-99.83 147.26,-57.46 251.27,-99.02l15.98 -113.21 23.9 119.79c319.61,51.31 198.71,159.85 392.65,76.23 52.62,-259.79 -103.98,-155.18 -130.86,-521.34 -144.21,-26.91 -71.49,131.41 -308.96,125.89 -179.17,-4.18 -140.09,-126.5 -240.34,-206.87 -34.85,145.25 38.24,138.49 -51.04,311.39 -42.87,83 -95.59,163.48 -94.18,282.25l141.58 24.89z"/>
   <path class="fil11" d="M4768.61 3824.06c59.02,102.6 -12.62,-10.52 303.95,49.93 327.04,62.46 556.84,348.69 717.11,298.01 93.65,-29.61 85,-120.54 210.67,-80.56 219.97,69.97 638.78,124.79 867.99,84.04l70.71 -28.88c-556.7,57.15 -1133.81,-281.65 -1645.18,-398.75l28.27 34.42c-125.92,1.9 -161.53,35.77 -259.18,28.65 -135.77,-9.9 -179.03,5.32 -294.34,13.14z"/>
   <path class="fil6" d="M3153.61 10906.93c49.73,-62.16 83.5,-307.3 98.22,-401.68 25.94,-166.33 75.32,-270.69 14.6,-425.98 -77.85,-199.05 -2.37,-701.06 17.39,-941.35 -129.85,119.72 -139.95,677.49 -240.99,775.4l-27 21.47c-2.06,1.62 -6.77,4.31 -9.7,7.03 5.24,213.84 36.11,542.03 91.31,746.78 21.64,80.26 54.14,135.79 56.17,218.33z"/>
   <path class="fil6" d="M6698.61 2502.03c71.82,80.07 240.37,201.03 245.54,366.34 -158.93,-70.78 -163.42,-163.67 -226.88,-180.07 -34.62,88.26 -3.5,130.62 30.07,192.83l-42.83 7.05c-8.09,0.98 -7.7,-4.72 -32.69,2.83 39.21,40.59 38.1,26.17 61.23,79.65 -73.54,-23.11 -71.27,-29.58 -99.99,-87.63 -26.15,59.02 15.22,46.97 -31.66,47.83 -43.92,-137.9 108.56,-419.42 -163.53,-478.45 31.78,56.16 103.64,123.23 110.45,230.78 7.37,116.39 -31.7,165.85 -2.56,288.93l-78.13 15.31 75.13 152.65c178.9,-64.36 106.83,-119.13 305.28,-13.64l116.63 -59.85 -43.65 -180.38c70.37,20.85 86.05,75.61 109.16,163.64 148.3,-31.91 211.84,-348.32 258.36,-499.7 -65.08,-15.72 -25.57,-29.92 -87.61,-46l14.03 153.53c-110.07,-41.57 -124.42,-108.09 -119.88,92.04 -82.59,-32.99 -189.19,-149.44 -243.01,-191.77 -72.79,-57.23 -60.08,1.16 -70.92,-56.44 -27.99,-36.55 -69.51,-60.81 -123.94,-61.76 14.17,44.14 5.4,31.43 41.4,62.28z"/>
   <path class="fil4" d="M2302.86 11864.45l12.36 267.14c140.57,-38.99 189.83,-83.78 367.77,-27.52 110.95,35.08 199.98,114.58 238.45,217.71 38.65,103.63 49.14,261.93 73.52,381.54l67.29 266.54c21.22,63.82 3.46,45.44 50.19,67.71 -120.15,-283.3 -65.99,-502.41 -159.05,-915.43 -34.13,-151.42 15.33,-214.56 -226.34,-305.18 -213.28,-79.98 -270.67,-7.25 -424.19,47.49z"/>
   <path class="fil10" d="M4617.89 7670.75c-17.8,-203.62 -127.89,-387.63 -178.25,-573.78 -51.63,-190.91 -36.5,-504.95 -30.26,-706.84 -16.64,18 -6.19,0.04 -18.61,27.4 -10.33,22.69 -3.79,6.92 -12.07,34.72 -10.49,35.27 -6.52,40.7 -19.18,68.63l-129.87 -25.65 -11.13 193.36c-94.52,16.71 -109.94,12.75 -201.58,-7.47 -0.22,448.64 360.76,230.48 567.63,1023.62 16.87,-15.79 20.97,-13.36 33.32,-33.99z"/>
   <path class="fil3" d="M6760.55 11214.6l7.6 238.66c114.11,-21.03 353.14,74.81 527.04,46.77l220.64 -1.6c-97.37,-38.27 -171.63,-37.43 -266.89,-105.18 -52.03,-37 -144.47,-119.47 -126.16,-233.04 96.93,-29.55 268.77,19.92 359.68,59.2 33.08,14.29 21.86,10.43 25.5,16.85 -21.62,-119.92 -476.15,-292.01 -755.86,-109.36l8.45 87.7z"/>
   <path class="fil8" d="M6363.39 732.49l-2.4 21.92c62.21,40.75 66.16,-11.81 172.61,-2.76 60.45,134.23 55.45,191.67 147.47,302.37l125.48 -19.2c43.58,93.75 159.4,195.74 191.31,285 194.55,-59.81 183.85,75.46 289.93,156.19 -43.5,-147.1 -240.2,-359.9 -328.57,-466.9 -111.9,-135.53 -83.67,-70.88 -98.24,-158.17 -11.3,-67.7 -20.44,-145.59 -73.27,-188.67 -88.6,-72.27 -66.85,44.89 -159.52,-35.54 -178.44,-154.82 -197.01,-13.05 -264.8,105.76z"/>
   <path class="fil6" d="M2367.06 12614.26c15.9,-40.02 152.35,-19.27 200.54,-19.31 78.83,-0.05 145.47,-16.6 185.81,24.51 -48.91,15.07 -343.07,15 -386.35,-5.2zm-15.02 233.33c43.12,10.97 411.42,20.26 449.27,-1.24 87.56,-49.75 -8.89,-323.58 -52.94,-367.46 -75.37,-75.12 -282.96,-77.24 -375.48,0.71 -94.1,79.28 -86.77,253.73 -20.85,367.99z"/>
   <path class="fil6" d="M5539.79 2612.81c83.29,186.52 122.66,254.54 265.21,355.5 109.18,77.34 76.66,57.71 218.7,86.56 92.34,18.75 115.02,88.78 179.13,136.48 -4.57,-163.59 153.61,-102.81 255.67,-63.5l-60.77 -155.3c-206.41,33.84 -165.19,-125.46 -238.01,-205.35 -33.99,45.48 -37.49,81.5 -107.46,109.63 -274.39,110.29 -302,-167.82 -117.43,-240.38 -101.02,-45.93 -281.97,-58.51 -395.04,-23.64z"/>
   <path class="fil1" d="M5378.19 12142.09c94.62,-37.28 129.12,-88.68 270.35,-94.92 115.69,-5.09 210.56,34.76 274.12,95.89 158.84,152.77 59.8,386.13 162.98,557.56 88.56,-305.53 -27.9,-507.95 -37.24,-647.7 -5.3,-79.08 5.65,-181.48 -26.62,-236.98 -53.68,-16.03 -119.94,6.4 -157.66,41.77 -58.62,54.96 -33.93,74.72 -153.66,84.1 -205.02,16.04 -206.36,-79.5 -284.06,-179.68 -35.57,48.41 -15.33,140.52 -19.4,199.7 -4.35,63.12 -21.62,120.58 -28.81,180.26z"/>
   <path class="fil7" d="M9100.87 7205.27c-56.92,-359.47 -770.55,-1278.93 -843.46,-1438.09 -17.59,-38.38 -19.35,-2.92 -8.7,-57.89 -28.02,18.61 -60.81,62.25 -79.56,86.29 29.28,112.06 240.36,428.92 322.77,542.1l357.93 522.57c53.94,76.79 189.73,313 251.02,345.02z"/>
   <path class="fil13" d="M4516.67 12768.37c-16.42,-94.72 -53.85,-129.48 -114.13,-174.42 -171.51,21.69 -224.38,-32.76 -330.33,-23.42 -22.18,1.96 -219.38,65.15 -271.68,79.4l-2.33 179.6c114.49,33.46 263.74,35.2 393.98,25.86 94.48,-6.78 274.12,-1.76 324.49,-87.02z"/>
   <path class="fil7" d="M2285.01 4238.77c99.82,-29.73 129.94,-74.49 176.35,-159.31 291.15,30.91 628.85,197.44 892.95,294 309.9,113.3 619.46,210.77 965.21,225.15l74.67 -239.01c-45.36,19.76 -85.93,99.68 -104.63,136.14 -263.87,12.82 -752.32,-134.28 -975.55,-218.47 -249.7,-94.17 -619.39,-237.36 -898.18,-269.83 -20.46,53.36 -18.94,81.66 -51.33,127.49 -33.92,48.01 -58.5,46.04 -79.49,103.84z"/>
   <path class="fil5" d="M4452.65 10375.37l279.84 53.23c-13.09,-46.33 -37.7,-74.53 -57.1,-119.1 -44.62,-102.49 -118.67,-358.38 -122.22,-458.14 -8.01,-225.39 45.25,-547.55 22.77,-752.83l-12.15 -122.26c3.73,102.69 -71.89,534.03 -96.04,664.85 -76.55,414.69 2.2,410.58 -15.1,734.25z"/>
   <path class="fil0" d="M5302.55 7488.69l492.1 -10.34 -423.34 -55.56 12.48 -145.59c141.89,16.83 478.04,-4.93 581.11,52.92 -19.17,108.16 -43.07,192.65 -54.18,318.51 -8.77,98.96 11.33,334.69 -4.32,391.95 -111.59,17.19 -433.23,-15.22 -536.62,-51.54l-48.29 -440.83c-36.65,148.79 -14.2,330.99 3.24,485.11 126.62,49.09 499.15,76.86 634.61,45.95 22.98,-101.78 -3.28,-306.85 6.42,-430.84 6.81,-87.2 65.5,-321.79 49.55,-366.28 -85.71,-38.58 -540.76,-54.61 -672.33,-61.75l-40.43 268.29z"/>
   <path class="fil2" d="M2860.45 3733.81c186.76,129.58 1053.76,148.16 1422.27,197.85 53.15,7.17 65.79,11.08 94.89,-7.62 -208.56,-70.13 -395.24,-211.13 -486.63,-176.5 -77.76,29.48 -107.96,40.04 -200.62,41.47 -406.13,6.24 -385.41,-143.31 -829.91,-55.2z"/>
   <path class="fil8" d="M6421.66 2715.82c54.43,108.55 -27.16,134.96 45.97,271.61l78.13 -15.31c-29.14,-123.08 9.93,-172.54 2.56,-288.93 -6.81,-107.55 -78.67,-174.62 -110.45,-230.78 272.09,59.03 119.61,340.55 163.53,478.45 46.88,-0.86 5.51,11.19 31.66,-47.83 28.72,58.05 26.45,64.52 99.99,87.63 -23.13,-53.48 -22.02,-39.06 -61.23,-79.65 24.99,-7.55 24.6,-1.85 32.69,-2.83l42.83 -7.05c-33.57,-62.21 -64.69,-104.57 -30.07,-192.83 63.46,16.4 67.95,109.29 226.88,180.07 -5.17,-165.31 -173.72,-286.27 -245.54,-366.34 -2.62,1.47 -2.14,6.69 -26.55,5.36 -69.98,-3.8 -133.39,-82.97 -240.4,-58.93 -39.15,163.43 34.21,202.66 -10,267.36z"/>
   <path class="fil3" d="M7504.5 11718.66l69.66 -169.87c-258.75,14.02 -578.54,-8.15 -799.95,-91.43 3.55,169.04 -36.56,161.71 255.74,231.27 138.47,32.97 330.44,45.82 474.55,30.03z"/>
   <path class="fil14" d="M6862.2 12326.79c-47.62,28.81 -75.24,8.33 -113.63,34.87 -20.61,14.25 -22.84,14.12 -27.18,48.56 -4.25,33.74 -3.94,17.66 7.82,35.66 18.66,-6.52 300.22,47.06 376.82,50.5 144.32,6.48 391.53,-38.85 422.7,-21.53l14.97 -100.43c-127.16,-15.31 -191.36,-60.24 -315.33,-68.09 -124.08,-7.85 -245.54,8.79 -366.17,20.46z"/>
   <path class="fil8" d="M3944.2 11960.2c148.64,-12.16 225.36,-28.6 374.39,4.16l24.2 -299.88c-139.26,-5.02 -274.62,-23.05 -390.73,-62.1l-7.86 357.82z"/>
   <path class="fil11" d="M5076.83 4601.59c-138.62,21.42 -270.46,62.03 -414.19,39.28l-41.99 -85.5 -73.91 175.19 45.95 -338.76c-45.04,46.32 -30.52,77.41 -82.2,114.05 -28.87,-60.7 -42.54,-171.1 -34.39,-248.28 -25.15,61.67 -42.45,156.94 -64.5,225.91 -24.89,77.9 -57.07,147.24 -84.42,219.76 108.08,110.49 246.04,67.41 405.76,53.19 263.68,-23.47 176.78,1.51 264.52,-97.63 30.23,-34.14 40.5,-29.57 79.37,-57.21z"/>
   <path class="fil0" d="M6528.01 7311.8c-0.4,1.16 53.65,708.56 64.23,772.26 201.64,28.77 464.38,47.49 595.31,-82.54 -138.85,48.29 -396.51,81.5 -542.58,31.75 -18.45,-80.27 -28.99,-391.65 -42.11,-509.26l415.13 -30.01c-113.52,-42.22 -283.2,-12.6 -412.82,-17.75l-24.6 -125.58c149.52,-9.24 462.61,11.09 574.98,-24.44 -51.29,-36.21 -246.94,-46.7 -308.93,-48.85 -105.18,-3.66 -229.4,-2.73 -318.61,34.42z"/>
   <path class="fil0" d="M5293.86 3747.85c511.37,117.1 1088.48,455.9 1645.18,398.75 84.67,-36.43 121.24,-55.27 148.58,-150.63 -160.4,190.16 -699.54,22.5 -918.08,-39.91 -112.89,-32.23 -828.94,-217.68 -862.47,-246.88l-111.01 -3.75 97.8 42.42z"/>
   <path class="fil12" d="M5421.22 13288.45c3.05,-7.48 4,-18.02 3.39,-29.19l-18.68 -112.85c-10.78,-295.52 47.22,-52.37 -37.51,-510.6 -44.67,-241.6 91.11,-391.44 341.63,-360.03 422.58,52.96 128.26,436.29 275.7,745.64 32.89,69.02 87.02,160.36 178.81,144.06 -6.65,-76.4 16.4,-15.15 -34.62,-60.4 -43.98,-38.99 -78.36,-45.17 -121.73,-136.75 -43.71,-92.34 -47.87,-183.79 -24.99,-281.5 31.68,65.1 23.72,170.58 58.87,248.1 30.18,66.55 80.35,102.19 149.29,132.79 -0.22,-97.94 -21.05,-47.86 -70.85,-105.41 -30.7,-35.5 -121.18,-363.49 -130.52,-414.56 -38.72,-211.66 -166.6,-351.23 -394.75,-319.92 -439.61,60.3 -185.53,481.27 -211.92,757.43 -14.69,153.55 -42.12,277.71 37.88,303.19z"/>
   <path class="fil12" d="M6028.7 13175.09c-117.12,-198.08 -157.41,-186.18 -137.97,-486.02 -36.05,62.68 -30.86,54.04 -183.4,58.34 -80.25,2.26 -160.64,5.77 -240.88,5.14 -42.51,-176.01 -84.69,-327.81 105.97,-382.49 223.88,-64.2 287.33,103.12 335.41,185.66 1.35,-148.89 -78.67,-219.9 -229.4,-229.15 -425.57,-26.1 -207.57,435.05 -206.89,560.39 0.41,76.03 -10.59,148.33 -13.52,215.17 -3.28,75.01 17.48,100.02 25.48,160.02l1.59 -338.91c62.84,-3.03 133.28,6.6 201.78,0.36 66.6,-6.06 124.8,-21.1 189.98,-25.81 20.64,72.41 56.08,163.23 98.68,224.59l53.17 52.71z"/>
   <path class="fil8" d="M6374.96 6855.14l-2.32 115.17c222.95,10.15 534.57,25.92 750.32,-1.16 -2.53,-29.87 -1.63,-35.95 -8.48,-66.77l-23.58 -69.88 -715.94 22.64z"/>
   <path class="fil11" d="M5869.88 6773.11c-9.09,-18.04 -17.34,-44.81 -17.43,-45.02 63.86,0.34 54.25,13.57 93.01,-20.53 -39.06,-48.15 -78.16,-52.15 -146.07,-72.44l-207.93 -79.32c-31.86,30.32 -100.61,33.58 -155.47,29.98 -10.56,-0.7 -73.9,-6.49 -81.5,-8.16 -66.24,-14.54 -51.85,7.3 -64.38,-46.59 -3.53,12.64 -19.05,55.56 -23.29,71.85 -13.35,51.35 -11.36,62.71 2.62,83.04 75.73,76.14 459.92,77.27 600.44,87.19z"/>
   <path class="fil4" d="M8014.79 5582.9c71.39,-33.44 69.38,-6.11 116.77,-66.21 28.29,-35.89 45.25,-70.87 74.74,-107.82 64.54,-80.83 133.4,-108.46 269.58,-108.19 32.07,-21.71 37.07,-33.38 67.42,-54.97 52.12,-37.07 44.95,-11.74 78.22,-59.26 -67.77,-75.34 -71.48,-217.11 -368.58,10.84 -69.21,53.12 -214.3,247.64 -238.15,385.61z"/>
   <path class="fil6" d="M5183.91 8033.21l81.27 124.69c100.43,218.84 160,467.48 376.32,609.02 57.9,37.9 196.09,118.87 280.55,125.86 -66.64,-77.38 -89.48,-66.32 -153.57,-119.83 -130.28,-108.82 -125.6,-117.39 -227.31,-289.32 -44.08,-74.54 -74.95,-113.18 -87,-188.24 38.49,8.3 84.73,27.07 113,18.27 -19.2,-41.09 -91.63,-39.52 -204.54,-118.7 -83.44,-58.54 -110.81,-106.96 -177.16,-170.42l-1.56 8.67z"/>
   <path class="fil11" d="M7622.23 5034.17c29.85,123.05 99.8,396.45 193.38,477.75 23.35,20.28 35.93,24.73 61.16,45.74 33.5,27.91 23.14,26.05 64.14,53.28l65.83 -159.15c-4.32,-1.77 -10.4,-9.73 -12.48,-6.31l-50.28 -33.32c-154.97,-127.61 -193.8,-319.37 -211.05,-517.29 -0.11,0.16 -42.97,44.87 -55.45,60.32 -33.7,41.72 -17.69,46.74 -55.25,78.98z"/>
   <path class="fil11" d="M8014.79 5582.9c-61.74,103.14 18.22,143.85 63.9,240.52 111.24,-89.91 189.3,-266.41 285.23,-393.87 36.59,-48.64 78.47,-88.78 111.96,-128.87 -136.18,-0.27 -205.04,27.36 -269.58,108.19 -29.49,36.95 -46.45,71.93 -74.74,107.82 -47.39,60.1 -45.38,32.77 -116.77,66.21z"/>
   <path class="fil5" d="M5742 10698.95l53.12 6.56c-50.5,-136.38 -103.03,-26.11 -241.88,-213.68 -38.67,-52.21 -66.57,-61.44 -38.12,-96.92 -51.31,-32.25 -100.16,-56.13 -136.21,-91.24l-101.02 -113.93c-1.76,-1.74 -5.45,-5.52 -8.45,-7.94 -83,94.79 -108.34,155.31 28.13,264.9 132.27,106.21 298.98,175.55 444.43,252.25z"/>
   <path class="fil5" d="M5432.51 10278.45c94.7,23.18 128.02,71.94 299.04,113.59 57.98,14.13 79.72,25.44 115.95,5.31l-255.07 -169.99c-41.95,-28.74 -48.94,-40.92 -82.63,-70.84 -90.28,-80.17 -189.98,-204.52 -261.17,-309.32 -1.97,-2.89 -5.11,-7.85 -7.91,-11.58 17.71,195.75 18.92,265.54 142.62,402.44 13.41,14.84 3.87,6.51 22.98,22.46 19.52,16.28 7.64,7.73 26.19,17.93z"/>
   <path class="fil0" d="M6682.33 9511.18c167.98,15.79 435.34,-14.94 557.82,81.41 -96.75,73.09 -231.7,4.66 -283.76,136.66 19.65,98.03 202.69,144.57 303,163.93 -30.01,-20.29 -77.92,-46.91 -123.81,-71.85 -58.63,-31.86 -98.71,-31.66 -125.14,-92.08 84.8,-99.77 281.76,-38.08 325.5,-197.4 -70.82,-51.15 -200.38,-44.21 -298.43,-46.49 20.84,-39.22 71.27,-65.9 145.54,-149.53 52.66,-59.33 75.23,-104.59 120.03,-166.05 -464.42,415.03 -257.77,213.7 -620.75,341.4z"/>
   <path class="fil8" d="M5595.87 6904.96c47.46,30.11 105.02,24.98 160.63,28.55 169.65,10.82 362.13,32.34 528.8,30.58l1.78 -113c-134,-1.24 -255.71,-12.57 -382.8,-21.17 -145.39,-9.83 -260.06,-59.41 -308.41,75.04z"/>
   <path class="fil14" d="M5426.47 11698.04c28.85,61.92 -10.4,1.62 45.82,61.42 95.02,101.15 75.75,123.22 175.95,131.02 214.41,16.65 98.73,-95.22 300.54,-117l-49.59 -48.6c-128.52,-92.17 -335.64,-52.33 -472.72,-26.84z"/>
   <path class="fil0" d="M6363.39 732.49c67.79,-118.81 86.36,-260.58 264.8,-105.76 92.67,80.43 70.92,-36.73 159.52,35.54 52.83,43.08 61.97,120.97 73.27,188.67 14.57,87.29 -13.66,22.64 98.24,158.17 88.37,107 285.07,319.8 328.57,466.9 36.08,62.91 86.98,155.65 89.38,242.4 15.39,-21.34 12.21,0.79 18.47,-37.22 0.03,-0.21 -0.43,-49.03 -0.45,-49.34 -10.31,-232.47 -353.23,-576.66 -478.92,-732.06 -44.1,-54.52 -17.46,-151.4 -65.03,-239.05 -63.62,-117.28 -116.71,-30.31 -184.24,-60.54 -12.21,-5.47 -298.28,-261.35 -303.61,132.29z"/>
   <path class="fil8" d="M2359.59 11774.31c296.27,-44.75 203.28,-56.71 478.18,32.27l0.47 -132.17c-124.99,-71.76 -305.15,-110.09 -458.59,-38.13 -60.44,28.34 -35.3,57.3 -20.06,138.03z"/>
   <path class="fil12" d="M2183.18 11279.79c37.29,25.35 39.71,35.48 83.95,57.6 18.45,-231.74 -126.44,-312.45 -94.94,-560.01 9.19,-72.27 173.45,-416.32 79.9,-571.81 -12.31,92.35 -22.34,185.18 -39.8,276.52 -23.7,123.9 -46.68,144.19 -81.35,237.42 -64.13,172.5 30.01,401.74 52.24,560.28z"/>
   <path class="fil13" d="M2274.77 12339.96c106.85,-54.43 162.01,-107.58 335.41,-84.11 160.74,21.76 193.71,85.69 277.29,147.6 -19.95,-142.24 -143.46,-244.04 -282.85,-264.44 -86.71,-12.69 -266.65,1.9 -307.15,83.71 -12.53,25.33 -21.27,87.23 -22.7,117.24z"/>
   <path class="fil0" d="M5435.49 1222.15c1.7,-2.99 2.6,-11.8 2.96,-9.91 0.36,1.93 2.29,-8.04 2.79,-10.37 21.59,-102.35 8.07,-132.37 116.59,-116.06 17.8,-99.68 39.76,-100.25 150,-91.27 28.68,-131.55 42.67,-147.96 186.43,-141.09 9.59,-65.65 20.89,-74.47 58.23,-110.85 128.9,2.8 180.21,112.07 237.33,171.28 23.52,24.38 46.82,38.64 60.79,64.85 -30.06,-45.27 -69.83,-124.49 -95.07,-184.64 -19.47,-46.43 -62.66,-191.49 -13.91,-230.07 -0.2,-0.5 -3.39,-77.43 -49.9,40.39 -15.47,39.19 -14.1,77.38 -11.61,122.09 -221.57,-67.53 -173.51,32.59 -231.15,78.56 -46.32,22.11 -95.85,10.35 -129.54,35.78 -44.52,33.6 -16.28,69.78 -75.98,106.76 -58.93,36.51 -63.21,40.83 -109.23,72.9 -41.17,28.67 -76.91,34.26 -116.71,62.23 -6.74,66.38 -10.01,83.15 17.98,139.42z"/>
   <path class="fil12" d="M8340.67 5069.47l108.05 -43.17c-42.83,-78.53 -64.54,-53.36 -105.9,-132.83 -37.28,-71.66 -28.19,-101.27 -88.42,-154.54 -159.61,-141.14 -73.44,-95.79 -200.6,-272.34 4.83,38.8 30.77,167.72 45.79,199.48 63.25,133.91 23.81,64.67 54.45,205.94l153.05 54.81 14.72 107.1c15.88,46.88 -12.61,0.57 18.86,35.55z"/>
   <path class="fil0" d="M6880.43 6493.77c42.58,19.58 57.06,45.88 121.93,74.55 54.53,24.09 106.2,31.96 170.9,33.07l-82.59 -44.42c-110.74,-29.98 -268.83,-184.23 -301.4,-279.6l413.79 142.72 213.63 41.23c-147.26,-28.21 -599.67,-267.24 -723.08,-267.1 24.77,64.5 48.27,113.71 80.6,162.94 40.84,62.2 75.9,88.14 106.22,136.61z"/>
   <path class="fil12" d="M3811.14 12902.77c39.79,78.6 171.07,76.34 258.67,80.94 104.8,5.51 208.17,-2.42 307.35,-32.59 166.08,-50.54 288.94,-158.48 280.57,-365.81 -91.59,185.03 -49.25,278.27 -303.93,309.55 -339.28,41.69 -431.38,-2.94 -524.57,3.14l-18.09 4.77z"/>
   <path class="fil12" d="M7505.07 12555.76c-238.21,62.26 -582.24,50.52 -796.98,-43.53 -5.9,76.23 -11.69,65.87 47.17,88.82 23.99,9.34 78.68,20.02 108.78,26.35 123.01,25.91 359.24,34.17 485.24,28.09 110.22,-5.32 114.91,-22.62 155.79,-99.73z"/>
   <path class="fil4" d="M7090.67 6556.97l1.2 -95.88c116.05,19.83 146.52,62.05 204.07,12.28 -35.1,-21.76 -56.92,-25.26 -92.88,-53.28l-413.79 -142.72c32.57,95.37 190.66,249.62 301.4,279.6z"/>
   <path class="fil14" d="M5347.43 12308.05c123.45,-95.91 253.17,-184.87 479.49,-83.54l130.27 93.33c-43.48,-252.35 -333.24,-251.1 -507.7,-162.16 -74.2,37.83 -100.72,51.74 -102.06,152.37z"/>
   <path class="fil12" d="M5358.42 11521.72c177.39,-51.29 65.04,-265.69 31.41,-381.16l-100.38 -422.79 68.97 803.95z"/>
   <path class="fil1" d="M3257.16 12501.91c63.8,32.09 147.22,101.36 211.76,70.68 16.21,-70.94 -66.96,-165.94 -113.14,-185.19 -67.27,-28.04 -211.1,-10.52 -291.51,-7.98 31.72,36.75 86.72,69.08 192.89,122.49z"/>
   <path class="fil9" d="M7210.73 2940.19c105.6,-27.61 145.11,-88.98 195.45,-184.88 71.42,-136.1 56.65,-174.61 -42.06,-246.18l-153.39 431.06z"/>
   <path class="fil9" d="M5527.48 2958.76c145.35,-56.06 21.63,-152.82 -37.1,-343.3 -4.93,-15.99 -11.95,-47.38 -16.26,-59.34 -26.23,-72.68 -3.58,-32.99 -44.53,-56.17 -65.08,66.96 -42.45,140 -2.58,237.85 23.81,58.46 64,176.52 100.47,220.96z"/>
   <path class="fil12" d="M5639.78 13115.34c-22.23,50 -35.36,58.5 -60.12,96.09 33.83,57.78 15.76,86.58 92.17,79.22 -24.69,-46.75 -27.57,-28.5 -40.59,-86.23l93.57 -79.29c170.44,59.37 130.65,98.33 140.26,124.26 19.98,53.94 8.93,27.07 26.7,34.15 19.23,-21.34 30.67,36 19.25,-61.12 -6.61,-56.43 -49.16,-57.73 -117.48,-124.09l41.43 -141.2c-96.23,15.76 -74.76,48.04 -116.01,136.28 -17.21,-18.41 -41.14,-38.13 -62.44,-60.97 -36.59,-39.26 -19.88,-44.37 -90.34,-50.75l73.6 133.65z"/>
   <path class="fil0" d="M5760.81 1145.58c57.92,155.17 133,251.55 218.64,524.33l40.63 83.44c-22.9,-287.17 -114.87,-438.08 -226.04,-647.07 -65.02,-46.39 -28.45,-64.73 -149.6,-82.52l-41.15 59.4c38.83,-22.13 12.57,-21.07 81.36,-23.52 29.88,30.85 53.08,53.74 76.16,85.94z"/>
   <path class="fil12" d="M5614.59 9978.46c-125.37,-42.52 -120.87,-67.39 -183.46,-169.2 -27.48,-44.73 -107.51,-191.11 -150.43,-221.82 -37.95,107.8 -48.33,145.74 72.75,271 63.54,65.72 119.6,144.46 261.14,120.02z"/>
   <path class="fil0" d="M6023.25 1271.52l14.99 64.02c82.65,87.13 98.96,332.89 155.99,450.33 8.67,-153.69 -120.48,-604.38 -176.93,-701.67 -52.33,-90.14 -102.71,-69.37 -166.77,-21.64 98.14,2.29 144.91,5 172.72,208.96z"/>
   <path class="fil11" d="M4720.37 3931.18l179.62 88.81c38.56,24.44 151.09,29.58 231.57,24.69 -23.31,-107.58 -232.74,-151.42 -292.06,-154.39 -72.25,-3.64 -93.42,11.06 -119.13,40.89z"/>
   <path class="fil0" d="M6535.03 1314.14c17.52,67.05 64.31,269.18 84.66,323.58 20.19,-225.34 8.35,-352.12 -92.4,-526.72l-118.2 -139.96 125.94 343.1z"/>
   <path class="fil12" d="M5764.61 12434.64l-59.86 -21.57 -55.4 91.94c-35.57,-30.27 -32.97,-49.47 -92.88,-74.53l-54.67 34.4c28.65,34.23 78.06,63.88 112.23,88.93 -31.07,57.54 -70.31,82.18 -98.85,145.91 88.99,-6.01 88.11,-8.95 114.16,-74.29 84.5,45.91 40.16,75.62 179.94,59.89 -27.61,-32.45 -115.83,-95.05 -157.58,-115.85l112.91 -134.83z"/>
   <path class="fil8" d="M4702.28 2491.63c-80.51,-4.71 -118.83,84.86 -170.62,153.54 -59.07,78.32 -0.99,48.8 -47.63,118.73 -13.04,19.53 -73.24,65.62 -33.85,102.78 65.96,62.23 250.02,-320.85 252.1,-375.05z"/>
   <path class="fil1" d="M6411.14 12130.1l-200.62 28.06c-11.09,-14.83 -17.05,29.63 -9.91,-31.73l-28.11 58.24c-16.08,58.21 -13.81,139.14 -1.78,194.5 108.54,-91.77 195.11,-100.25 240.42,-249.07z"/>
   <path class="fil12" d="M7605.12 9730.08c-3.63,-89.32 -17.55,-179.66 -35.12,-268.71 -16.58,-83.99 -49.33,-159.39 -52.97,-245.23 -35.59,25.89 -132.7,136.9 -149.97,176.86 97.03,42.47 132.31,10.23 166.14,121.14 21.1,69.21 53.82,175.24 61.76,248.42l10.16 -32.48z"/>
   <path class="fil12" d="M7528.73 12474.85c-31.17,-17.32 -278.38,28.01 -422.7,21.53 -76.6,-3.44 -358.16,-57.02 -376.82,-50.5 119.61,120.4 651.64,127.45 799.52,28.97z"/>
   <path class="fil5" d="M4556.97 10556.98l-16.38 -19.8c-44.1,-37.97 -42.83,-19.22 -80.05,-65.79l275.5 45.46 10.92 -34.87 -411.5 -76.24c-19.2,-3.96 -47.51,-12.21 -64.65,-14.83 -8.07,-1.22 -28.63,-3.75 -37.07,-2.63 -32.13,4.21 -16.68,4.01 -33.26,13.35 92.88,45.57 226.7,141.24 356.49,155.35z"/>
   <polygon class="fil8" points="7193.14,6827 7210.32,6964.48 7430.62,6949.48 7414.39,6807.06 "/>
   <path class="fil0" d="M4592.69 4391.8l-45.95 338.76 73.91 -175.19c3.57,-97.35 42.26,-198.57 37.26,-305.36 -5.2,-111.42 -51.87,-185.04 -79.74,-270.12 11.33,153.37 23.52,246.83 14.52,411.91z"/>
   <path class="fil12" d="M2419.7 13267.19c20.27,35.08 3.67,71.39 193.42,69.25 76.7,-0.86 149.46,-11.81 222.93,-29.09l-25.37 -68.6c-62.94,10.15 -129.08,28.06 -196.68,31.27 -117.91,5.61 -153.55,-27.55 -194.3,-2.83z"/>
   <path class="fil14" d="M7278.71 11777.35c-140.62,1.33 -223.23,-29.97 -335.94,-40.03 26.76,59.77 58.37,115.35 136.95,129.26 100.89,17.87 162.04,-26.64 198.99,-89.23z"/>
   <path class="fil8" d="M2853.35 2756.25c-4.19,-56.87 -51.58,-171.52 -69.32,-208.81 -1.6,-3.37 -3.73,-7.26 -5.36,-10.63 -1.65,-3.37 -3.97,-7.1 -5.6,-10.49 -28.65,-59.68 -27.8,-93.33 -28.18,-170.08 -49.1,28.42 -9.52,-29.6 -53.12,44.93 -62.94,107.58 104.63,310.67 161.58,355.08z"/>
   <path class="fil12" d="M2536.78 13360.14c-81.58,-9.84 -65.86,-27.1 -111.43,-1.84 27.59,38.59 -22.45,15.88 40.23,42.2l177.93 15.09c73.34,-0.64 180.03,2.19 239.01,-26.92 -22.82,-60.19 -4.36,-55.06 -85.84,-45.47 -42.75,5.04 -75.88,14.31 -122.05,17.73 -44.17,3.28 -93.9,4.52 -137.85,-0.79z"/>
   <path class="fil12" d="M6200.61 12126.43c-7.14,61.36 -1.18,16.9 9.91,31.73l200.62 -28.06 -9.61 -112.59c-91.63,-23.61 -197.26,21.05 -200.92,108.92z"/>
   <path class="fil12" d="M2613.21 13182.07c-64.88,1.47 -136.16,-14.6 -187.45,-11.23 -5.56,54.32 -7.64,52.01 51.16,64.29 35.63,7.44 84.6,8.86 121.18,7.62 59.89,-2.01 169.18,-2.31 196.5,-51.49 -37.86,-57.42 -5,-13.16 -181.39,-9.19z"/>
   <path class="fil4" d="M5290.11 6531.03c12.53,53.89 -1.86,32.05 64.38,46.59 7.6,1.67 70.94,7.46 81.5,8.16 54.86,3.6 123.61,0.34 155.47,-29.98 -95.75,-76.82 -177.91,-45.84 -276.48,-71.13l-24.87 46.36z"/>
   <path class="fil8" d="M5328.3 6896.34l168.81 13.82c24.52,-35.3 43.38,-59.46 39.29,-104.62l-164.38 -19.35 -43.72 110.15z"/>
   <path class="fil12" d="M4556.97 10556.98l111.87 28 45 6.54 22.2 -74.67 -275.5 -45.46c37.22,46.57 35.95,27.82 80.05,65.79l16.38 19.8z"/>
   <path class="fil0" d="M3436.92 5506.58c-61.21,-37.58 -34.4,-44.39 -82.29,-87.2 -17.78,-15.9 -70.38,-57.58 -93.69,-72.64 -45.12,-29.15 -157.01,-88.73 -199.46,-101.53l321.57 253.75c69.95,46.81 40.82,16.41 53.87,7.62z"/>
   <path class="fil12" d="M5714.48 13294.38l99.82 -10.59 14.94 -62.16c-106.57,-100.39 -129.6,-37.23 -160.42,-17.37l45.66 90.12z"/>
   <path class="fil0" d="M5718.14 1846.63c12.33,9.14 -0.27,3.87 31.53,20.83 101.38,54.09 298.21,152.85 363.22,230.35 -67.73,-66.85 -43.37,-97.34 -149.3,-168.84 -66.68,-45.02 -149.09,-70.35 -245.45,-82.34z"/>
   <path class="fil4" d="M6900.92 6790.32l72.81 -3.37c110.79,-139.46 122.16,-52.46 117.8,-156.44 -52.51,9.23 -71.33,21.08 -117.12,51.25 -57.57,37.96 -49.32,40.18 -73.49,108.56z"/>
   <path class="fil0" d="M3722.92 5400.54c-46.5,-42.72 -315.13,-178.1 -394.32,-192.62 120.67,74.85 206.21,171.64 394.32,192.62z"/>
   <path class="fil12" d="M2703.08 13109.48c-99.28,5.54 -241.57,-8.82 -275.98,5.86 20.53,13.53 -14.97,24.88 78.74,35.39 72.73,8.16 198.39,6.36 260.29,-20.21 -21.83,-34.2 1.56,-24.65 -63.05,-21.04z"/>
   <path class="fil12" d="M2567.6 12594.95c-48.19,0.04 -184.64,-20.71 -200.54,19.31 43.28,20.2 337.44,20.27 386.35,5.2 -40.34,-41.11 -106.98,-24.56 -185.81,-24.51z"/>
   <path class="fil12" d="M6017.01 13265.84c-29.13,-55.3 -55.79,-72.87 -88.29,-126.66 -24.24,-40.1 -43.6,-97.11 -74.98,-138.74l-26.85 84.53c29.87,31.53 43.1,34.69 80.19,75.15 51.81,56.53 19.18,34.44 45.55,110.13l64.38 -4.41z"/>
   <path class="fil12" d="M5758.73 12550.26c23.84,-46.13 9.3,-2.78 36.3,-34.34l13.59 -33.97c0.27,-4.43 -1.67,-6.31 -2.51,-9.46 -17.7,-5.26 27.9,-37.81 -34.62,4.05l-72.48 86.95c43.65,36.07 98.66,76.37 140.68,104.25 21.1,-84.25 -15.15,-79.17 -80.96,-117.48z"/>
   <path class="fil12" d="M5542.66 13205.41c36.48,-31.84 35.7,-45.23 66.06,-90.07 -21.51,-45.16 -41.78,-90.77 -75.61,-117.57 -0.11,67.25 -14.88,150.74 9.55,207.64z"/>
   <path class="fil12" d="M5576.99 12551.39c-44.08,-15.69 -56.34,-29.05 -92.22,-52.78 -24.58,48.94 0.79,38 44.3,70.09 -22.64,44.72 -35.6,35.45 -42.5,91.45 43.61,-22.8 66.56,-61.74 90.42,-108.76z"/>
   <path class="fil0" d="M5941.48 952.71c78.47,14.81 81.65,12.98 127.61,-30.37l-8.93 -81.73c-18.35,17.82 -16.76,50.36 -38.92,74.49 -20.04,21.8 -69.77,32.59 -79.76,37.61z"/>
   <path class="fil12" d="M5654.01 12982.23c26.57,34.83 22.48,33.59 59.61,57.27l20.53 -66.85 -80.14 9.58z"/>
   <path class="fil12" d="M6028.7 13175.09c8.39,21.96 -19.58,11.14 29.46,47.4 39.89,29.51 11.6,9.94 52.61,18.31 -25.47,-44.61 -38.06,-43.85 -82.07,-65.71z"/>
  </g>
 </g>
</svg>
