<?xml version="1.0" encoding="UTF-8"?>
<!DOCTYPE svg PUBLIC "-//W3C//DTD SVG 1.1//EN" "http://www.w3.org/Graphics/SVG/1.1/DTD/svg11.dtd">
<!-- Creator: CorelDRAW 2018 (64-Bit) -->
<svg xmlns="http://www.w3.org/2000/svg" xml:space="preserve" width="200mm" height="140.928mm" version="1.1" style="shape-rendering:geometricPrecision; text-rendering:geometricPrecision; image-rendering:optimizeQuality; fill-rule:evenodd; clip-rule:evenodd"
viewBox="0 0 20000 14092.8"
 xmlns:xlink="http://www.w3.org/1999/xlink">
 <defs>
  <style type="text/css">
   <![CDATA[
    .fil4 {fill:#005ACA}
    .fil22 {fill:#074992}
    .fil11 {fill:#1B4652}
    .fil5 {fill:#2647B2}
    .fil17 {fill:#2E778A}
    .fil7 {fill:#3D8ED0}
    .fil3 {fill:#71BDD7}
    .fil2 {fill:#7CA521}
    .fil19 {fill:#8C8E8F}
    .fil10 {fill:#9C5213}
    .fil21 {fill:#AFB0AF}
    .fil18 {fill:#AFD715}
    .fil14 {fill:#B12431}
    .fil0 {fill:#B3CB51}
    .fil25 {fill:#B59724}
    .fil16 {fill:#D2740F}
    .fil1 {fill:#D2E6EF}
    .fil15 {fill:#D4B38F}
    .fil13 {fill:#D66357}
    .fil9 {fill:#D8171A}
    .fil23 {fill:#DCA15F}
    .fil24 {fill:#E77390}
    .fil12 {fill:#FD7A27}
    .fil6 {fill:#FDB606}
    .fil8 {fill:#FEC880}
    .fil20 {fill:white}
   ]]>
  </style>
 </defs>
 <g id="Layer_x0020_1">
  <metadata id="CorelCorpID_0Corel-Layer"/>
  <g id="_1513460505776">
   <path class="fil0" d="M7523.38 7287.17l4.05 60.09c121.5,20.27 140.34,38.34 229.32,89.2 95.17,54.4 129.78,39.53 223.81,76.05 78.13,30.34 138.46,74.41 173.32,146.58 70.63,146.25 12.64,148.1 -56.57,194.2 124.69,71 168.7,188.91 145.23,364.94 -73.85,-2.97 -112.13,-27.1 -166.24,-46.1 -68.52,92.14 -253.12,151.69 -402,178.19 -264.74,47.12 -266.25,-25.21 -474.63,-76.85 -477.71,-118.39 -598.87,160.31 -961.55,102.15 41.59,145.23 59.7,162.45 52.36,329.44 -111.69,45.25 -251.61,23.86 -375.03,14.87 -22.24,76.82 -42.88,122.38 -99.53,147.36 -66.55,29.34 40.91,-15.61 -30.17,9.36 -4.83,1.69 -10.54,2.72 -15.36,4.46 -124.55,44.86 -102.74,68.6 -168.03,165.96 -64.36,8.23 -50.12,9.1 -99.13,-16.98 -49.98,-39.48 -30.96,-28.49 -69.81,-68.51 -33.02,-34.03 -46.31,-43.85 -75.26,-84.22 -43.64,-60.83 -80.86,-128.36 -113.6,-198.27 -287.02,-3.91 -461.97,-48.11 -701.35,-144.3 -159.88,-64.27 -536.32,-158.13 -620.12,39.1 55.78,75.64 93.31,49.13 152.36,113.32 -171.01,129.93 -1005.39,74.24 -1159.64,-78.4 21.43,-41.02 38.53,-53.06 83.42,-83.35 69.85,-47.12 59.64,-3.32 73.39,-91.27 -120.42,-69.28 -471.18,-45.61 -644.13,-101.93 163.39,418.03 850.6,1314.72 1206.73,1670.39l505.46 459.43c59.24,-187.83 218.48,-493.27 330.63,-604.3 205.53,-203.48 310.42,232.65 718.75,60.46 490.32,-206.77 188.13,-715.34 898.27,-976.92 204.1,-75.18 578.69,-157.78 776.63,-32.26 179.42,113.77 114.56,553.95 93.68,803.1 -38.27,456.46 -25.38,743.53 -254.64,1141.15 -48.32,83.81 -157.64,231.72 -173,319.71 181.99,-36.51 574.83,-381.09 660.19,-471.11 205.17,-216.36 294.74,-388.33 636.29,-480.57 409.27,-110.53 837.68,202.97 660.95,859.94 -54.28,201.82 -135.92,217.67 -234.96,331.2 278.28,-71.56 1479.99,-647.78 1637.74,42.08 26.01,113.72 4.75,238.94 -48.43,322.26 -70.18,110 -178.56,85.6 -212.26,169.94 467.9,128.84 1110.82,-354.37 1263.06,472.85 1908.67,-101.02 3478.7,-625.93 4655.79,-1680.7 35.74,-32.02 51.11,-56.79 88.55,-90.09l358.21 -360.96c157.9,-209.52 489.58,-562.98 489.69,-955.74 0.11,-419.87 -429.62,-399.97 -501.95,-941.6 -36.29,-271.77 18.23,-395.32 118.05,-591.98 75.23,-148.24 242.45,-346.6 275.09,-452.16 -78.32,21.3 -131.9,39.53 -219.3,49.74 -71.02,8.3 -168.44,-4.91 -221.53,38.17 39.96,111.36 30.84,121.53 -7.75,208.8 -231.16,57.62 -119.97,-61.87 -269.43,-10.19 -67.57,23.37 -160.22,67.76 -224.79,97.25 -159.54,72.85 -308.6,137.83 -462.73,198.76 -139.93,55.31 -347.8,121.78 -470.49,186.57 -118.92,62.79 -19.44,151.91 -163.84,174.59 -143.62,22.55 -126.57,-46.41 -170.28,-132.47 -87.94,13.81 -120.51,35.71 -211.12,3.54l-1.22 -24.73 2.4 -84.94c-56.62,2.76 -695.9,12.86 -733.45,-68.13 -79.6,10.21 -157.28,26.42 -157.31,-59.91 -22.48,52.69 -43.18,-86.66 -13.83,69.6l-68.21 -9.82c-120.78,150.53 -70.98,268.69 -12.65,446.83 22.77,154.58 -28.74,167.4 -185.49,185.56 -117.68,13.62 -259.1,10.18 -379.26,10.42 -271.22,0.55 -524.79,-5.06 -795.02,-25.81 -0.35,160.86 118.04,411.1 43.65,539.95 -28.63,55.86 -5.02,34.11 -92.56,68.18 -41.39,16.11 -64.25,20.06 -107.12,42.57 44.76,238.3 -205.29,929.14 -206.91,1261.48 35.22,103.08 -59.55,394.2 -36.3,596.23 108.76,73.65 453.45,167.75 297.17,277.76 -40.76,28.7 -535.55,8.86 -611.75,-8.53 -21.33,-174.11 38.48,-292.24 32.21,-466.27 -5.05,-140.29 -36.41,-364.96 6.66,-484.54 17.36,-69.77 17.54,-140.76 38.54,-214.78 21.81,-76.83 50.13,-133.02 68.93,-223.51 -62.91,29.55 -113.59,118.09 -246.64,208.84 -97.52,66.52 -173.53,141.94 -248.45,195.3 -16.7,239.39 -524.41,260.87 -285.75,622.09 78.13,118.26 90.02,101.75 51.96,234.21 -147.5,-0.07 -200.48,-89.86 -288.26,-156.11 -85.95,-64.87 -188.83,-114.24 -248.74,-184.13 6.02,-122.09 206.59,-266.13 275.28,-377.87 65.16,-106 185.22,-350.54 296.55,-381.99 67.38,-54.03 315.15,-248.6 356.75,-320.99 90.61,-157.69 -24.13,-485.74 -33.7,-620.66 -100.43,-36.58 -110.08,-34.12 -180.01,-92.38 -34.01,-164.37 46.37,-324.9 82.68,-475.21 26.65,-110.31 35.96,-370.86 130.76,-425.29l-47.96 -40.26 112.38 -244.08c-1.97,-105.36 7.64,-43.13 60.12,-121.05 -26.03,-60.55 0.19,3.6 -39.18,-27.01 -439.02,-6.77 -735,-6.22 -1174.16,-61.27l-17.77 84.68c-103.9,61.43 -167.65,40.57 -315.92,66.69l-20.48 36.23c34.11,46.66 129.48,120.69 196.63,158.45 91.27,71.26 234.43,185.43 270.76,308.65l57.83 103.97c54.98,123.56 89.37,267.23 88.02,413.52 -1.53,165.64 -66.6,297.69 -58.07,458.72 453.89,17.64 397.18,195.42 590.27,242.08 109.03,26.34 147.03,11.34 195.76,97.65 -67.11,108.26 -197.16,78.38 -332.73,122.46 -39.45,106.52 21.45,-15.94 -6.97,109.49 -320.95,128.63 -557.39,-0.54 -867.33,72.94 -356.94,84.63 -592.21,-35.43 -911.28,-4.34 -33.18,13.7 -91.55,51.17 -125.36,43.38 -55.7,-12.84 -3.19,-0.34 -40.45,-26.43 -4.61,-3.23 -41.33,-28.17 -65.89,-39.65l-203.71 -33.97c-100.32,-45.1 -23.96,-79.31 -180,-95.21 -256.85,-26.15 -122.19,-57.6 -175.42,-146.29 -26.42,-44.02 -75.85,-53.11 -113.51,-82.22 67.05,-62.02 199.23,-48.65 290.85,-82.55 100.18,-37.07 126.92,-154.71 236.94,-103 65.6,-68.62 94.34,-105.99 202.48,-153.17 19.48,-11.9 38.62,-44.48 94.05,-13.08 40.69,23.04 34.52,61.57 30.57,107.72l18.84 -67.44 59.41 15.21 -60.7 -150.99c-89.4,-169.89 26.15,-510.63 97.56,-653.43 113.81,-227.55 198.93,-298.63 363.46,-445.2 39.39,-39.86 104.55,-75.22 148.74,-139.71 50.6,-73.85 29.17,-177.33 24.9,-278.53l5.7 -29.19c-102.45,-23 -227.08,-52.55 -297.52,-98.08 28.62,-64.03 -17.81,-25.6 65,-56.61 118.91,-44.51 588.08,-29.04 673.81,-167.05 -124.79,-211.78 -736.79,-218.13 -997.48,-176.61 -464.56,74 -606.21,89.81 -1030.31,-66.73 -32.8,-12.18 -19.67,-13.11 -19.67,27.57 32.74,49.31 29.47,133.88 34.51,206.35z"/>
   <path class="fil1" d="M4310.21 5580.22c43.42,-30.36 33.85,-31.39 103.94,-11.39 90.58,25.83 43.71,4.21 67.39,56.63 -89.5,27.39 -120.23,17.77 -171.33,-45.24zm-2511.49 563.1l-8.17 -317.22c337.44,116.07 595.16,451.39 1033.25,386.79 469.38,-69.22 652.47,-553.84 843.01,-587.94 61.44,4.72 71,148.86 336.53,177.15 2.23,0.24 8.68,1.74 10.38,1.98 78.33,10.86 0.2,176.13 -5.08,238.31 -8.17,96.27 226.02,531.31 276.75,617.97l77.79 -6.17c109.06,-24.17 110.09,-53.46 169.85,-107.61 189.79,-172 433.28,-47.34 359.63,-475.79l161.24 -24.26c43.78,-19.7 13.78,-1.66 44.09,-28.8 -77.23,-43.11 -117.54,-94.28 -166.15,-146.12 -29.88,-31.87 -103.05,-127.44 -130.49,-148.6 -26.66,-20.56 -13.98,-11.23 -53.74,-25.75 -39.54,-14.43 -139.55,-43.82 -168.94,-102.78l-12.35 -44.41c-0.83,-2.35 -3.25,-7.98 -4.11,-10.21 -15.56,-40.37 -25.6,-7.84 -17.42,-44.53 90.81,-32.91 134.3,-36.91 212.54,11.17 63.67,39.13 100.34,74.58 184.92,115.17 118.03,56.64 350.12,135.08 381.39,195.86 19.87,71.97 -42.96,13.47 58.6,61.03l260.03 66.72c62.33,54.69 -27.67,246.73 -35.99,296.58 36.52,17.01 96.04,44.97 137.09,57.82 87.8,27.49 102.31,31.23 140.73,-24.9 38.21,-116.65 17.54,-284.46 -32.34,-375.24 62.79,-36.98 202.02,-68.8 291.27,-118.43 98.97,-55.04 160.7,-121.34 266.13,-161.28 16.85,-22.64 28.76,-45.9 49.34,-81.94 1.75,-3.05 29.94,-47.03 30.47,-47.55 33.89,-33.64 -7.03,-17.57 41.99,-22.35l92.7 -51.71 -3.77 -37.04 -71.6 7.25c-101.33,25.07 -84.03,66.85 -208.08,69.52 -81.99,1.78 -151.69,-17.56 -213.4,-59.58 34.55,-46.77 73.95,-40.04 71.35,-133.52 -5.24,-188.5 -208.94,-191.11 48.31,-435.65 166.45,-158.21 66.97,-392.37 417.71,-440.23 201.54,-27.49 477.27,162.03 497.6,354.65 23.09,218.8 -18.77,156.49 55.85,379.7 99.4,297.34 -5.13,254.91 -60.91,272.87l-192.19 5.25 -7.66 12.88c114.86,18.19 216.95,169.24 274.47,255.99 80.68,121.69 115.76,213.77 149.12,381.09 406.04,9 796.48,-41.95 1188.25,-40.52 40.77,-435.92 -31.8,-869.87 -7,-1311.6 -70.61,-85.84 -57.4,-100.65 -166.13,-157.56 -415.08,-217.22 -319.86,329.74 -390.58,467.07 -161.26,15.51 -298.41,-107.74 -399.86,-192.29l-667.8 -570.55c-123.57,-97.91 -218.13,-169.99 -349.46,-268.7 -252.9,-190.1 -579.44,-360.83 -878.92,-65.22 -400.09,394.93 -485.11,1355.39 -2192.25,-156.18 -205.42,-181.89 -479.21,-501.93 -782.35,-82.91 -88.82,122.79 -145.72,263.23 -247.16,370.28 -169.97,179.36 -241.68,79.16 -427.5,80.04 -178.96,365.67 -385.93,1811.84 -260.98,2022z"/>
   <path class="fil1" d="M9396.61 2621.66l-9.97 203.32 -16.05 77.69 -50.36 367.02c202.26,9.41 221.14,120.74 271.79,314.81 30.47,116.75 95.4,337.69 93.83,447.61 49.26,145.75 127.72,236.24 171.56,402.39 46.33,175.55 137.67,257.53 37.24,409.77 84.37,210.22 22.62,403.8 38.47,616.9 8.11,109.13 37.2,156.92 74.86,243.05 39.99,91.49 47.99,174.56 70.58,259.14l424.86 -9.71c75.78,-238.83 226.91,-144.18 298.2,-164.54 42.83,-12.22 47.33,-40.91 108.54,-74.79 37.85,5.43 365.14,62.71 377.03,67.83 81.69,35.19 179.02,169.31 222.92,212.24l453.08 28.5c50,-13.86 112.68,-48.04 155.22,-56.23 89.81,-17.3 90.33,11.72 111.88,78.14 414.3,14 781.97,107.51 1172.19,158.27l16.42 -74.16 -19.32 -77.01c-119.59,30.52 -90.97,56.96 -228.61,22.85 -25.22,-148.91 23.99,-188.03 176.12,-200.47 -28.58,-151.1 23.49,-253.65 -57.72,-395.74 -32.66,-57.14 -65.67,-90.22 -101.7,-158.56 -28.06,-53.21 -50.28,-114.96 -88.22,-161.88l-47.36 -40.73c-14.34,-107.49 1.68,-84.69 30.6,-168.82l86.05 -691.89c27.05,-135.87 30.64,-232.91 135.1,-263.91 -8.94,-76.19 8.48,-23.16 -32.28,-97.03 -206.77,-20.77 -237.33,-221.85 -262.2,-429.56 -34.76,-290.41 -9.2,-352.25 -152.41,-550.53 -176.13,-16.28 -164.41,19.34 -286.23,73.14 -380.55,168.06 -528.3,-506.47 -760.71,-536.89 -336.11,-44 -456.18,314.98 -538.86,498.14 -158.4,350.89 -668.13,13.09 -865.83,-138.74 -138.93,-106.69 -254.63,-202.86 -471.78,-219.47 -214.51,-16.41 -418.52,41.33 -513.67,153.54 8.72,-59.23 13.11,-78.54 -23.26,-123.69z"/>
   <path class="fil2" d="M4140.68 10462.08c100.19,71.4 203.76,159.8 311.26,240.48 725.93,544.85 1656.96,1016.73 2527.71,1283.04 595.38,182.09 1191.62,291.62 1850.42,353.09 885.63,82.63 1236.65,58.82 2063.51,80.92 -152.24,-827.22 -795.16,-344.01 -1263.06,-472.85 33.7,-84.34 142.08,-59.94 212.26,-169.94 53.18,-83.32 74.44,-208.54 48.43,-322.26 -157.75,-689.86 -1359.46,-113.64 -1637.74,-42.08 99.04,-113.53 180.68,-129.38 234.96,-331.2 176.73,-656.97 -251.68,-970.47 -660.95,-859.94 -341.55,92.24 -431.12,264.21 -636.29,480.57 -85.36,90.02 -478.2,434.6 -660.19,471.11 15.36,-87.99 124.68,-235.9 173,-319.71 229.26,-397.62 216.37,-684.69 254.64,-1141.15 20.88,-249.15 85.74,-689.33 -93.68,-803.1 -197.94,-125.52 -572.53,-42.92 -776.63,32.26 -710.14,261.58 -407.95,770.15 -898.27,976.92 -408.33,172.19 -513.22,-263.94 -718.75,-60.46 -112.15,111.03 -271.39,416.47 -330.63,604.3z"/>
   <path class="fil1" d="M19245.09 7675.79c30.06,-425.11 -60.43,-841.26 -243.47,-1167.99 -74.95,-133.79 -205.07,-328.64 -353.54,-368.05 -162.88,-43.23 -363.08,120.26 -491.73,221.47l-381.85 337c-254.12,246.34 -643.76,646.89 -867.21,928.7 -197.93,249.62 -374.2,395.35 -265.77,761.49 90.78,306.55 378.67,654.68 671.57,768.16 1122.15,434.77 1869.01,-589.97 1932,-1480.78z"/>
   <path class="fil1" d="M14705.11 4785.04c-67.22,64.62 -100.01,171.64 -83.53,286.48 71.78,-18.53 122.29,-47.27 136.6,22.62 83,11.7 111.77,-4.68 125.39,58.68l-0.35 77.84c75.79,-49.86 98.68,-62.14 199.27,-49.44 91.38,181.51 -2.31,131.78 -93.34,214.49l216.52 672.12 179.57 536.33 50.29 131.34c234.39,17.57 463.92,42.98 695.27,73.99 225.55,30.23 468.89,87.09 446.14,326.87 105.5,-91.57 202.03,-168.2 288.23,-250.16 125.93,-119.72 737.54,-620.53 800.98,-707.25 -83.98,-264.06 -309.22,-734.69 -677.53,-651.18 -164.91,37.38 -353.6,162.72 -554.59,89.42 -149.22,-54.42 -248.59,-197.71 -309.37,-338.4 -134.48,-311.29 -139.86,-770.11 -488.97,-859.69 -371.69,-95.38 -798.04,336.43 -930.58,365.94z"/>
   <path class="fil2" d="M8898.71 6875.18l-143.72 4.62c23.94,-51.93 42.25,-69.56 98,-91.91 49.25,-221.96 103.51,-53.93 7.44,-324.81l-44.65 -136.54 -25.02 4.56 -28.15 250.94c17.98,174.02 21.05,118.84 -18.04,145.05l-469.28 80.46c-8.4,-93.81 87.06,-135.11 160.56,-91.68l58.74 -21.97c1.32,-2.44 2.09,-6.99 2.43,-7.98l13.6 -35.68c0.44,-4.8 2.93,-6.95 5.05,-10.03 67.96,11.51 27.69,-1.64 68.75,26.32 -23.03,-60.12 -31.01,-40.51 13.76,-101.24l10.37 -236.37 -53.22 -30.3 13.38 -289.68c-391.77,-1.43 -782.21,49.52 -1188.25,40.52 65.73,249.23 126.28,730.92 128.08,1003.79 424.1,156.54 565.75,140.73 1030.31,66.73 260.69,-41.52 872.69,-35.17 997.48,176.61 -85.73,138.01 -554.9,122.54 -673.81,167.05 -82.81,31.01 -36.38,-7.42 -65,56.61 70.44,45.53 195.07,75.08 297.52,98.08l30.81 -128.15c123.7,-2.46 183.03,44.24 276.53,97.22 56.02,31.75 172.33,86.33 215.48,133.49 439.16,55.05 735.14,54.5 1174.16,61.27 -45.46,-178.41 -318.35,-397.28 -286.25,-648.85 35.52,-93.23 72.93,-123.92 165.78,-156.82l33.21 -50.28c31.09,-87.06 18.09,-56.11 70.46,-100.76l9.59 -94.54c-285.82,-37.33 -138.62,-66.49 -236.12,-211.96 -129.52,-16.8 -211.76,123.79 -180.74,-196.99 -70.5,39.2 -49.47,71.31 -94.32,115.38 -40.84,-97.84 -73.28,-236.77 29.23,-289.12 158.24,-80.82 193.16,88.52 200.56,-194.57l-424.86 9.71c0.68,227.36 9,261.53 -50.22,469.61 -66.31,233.02 101.41,296.69 65.7,387.75 -100.68,37.24 -215.54,-0.51 -315.9,62.11 -206.52,128.88 -269.42,137.77 -578.99,9.1 -123.47,-51.32 -167.59,-2.34 -300.44,-16.75z"/>
   <path class="fil0" d="M1798.72 6143.32c-17.57,374.78 277.4,1621.96 465.95,1844.4 77.21,-58.55 77.49,-99.1 118.59,-118.6 49.75,-23.62 13.25,-33.93 50.4,-1.23l16.67 39.1c-18.27,-68.94 -9.73,-22.05 17.61,-38.4 -149.8,-100.06 -78.31,-794.19 254.03,-803.83l2.17 -30.07 -78.94 -68.82c-108.66,17.62 -150.16,-51.37 -172.71,-141.73 -129.07,-5.95 -195.66,-97.79 -160.68,-237.51 50.43,-219.72 79.02,-195.03 263.11,-197.3 115.13,-1.41 60.09,-34.39 143.07,-81.09 56.8,-31.97 126.72,-23.69 194.54,-33.25 16.01,-27.5 -39.65,-12.08 40.7,-29.83 62.8,-13.88 319.44,84.82 254.04,249.23l37.79 191.68 -57.81 -45.08c9.76,117.6 0.16,214.02 -40.49,316.02 -37.61,94.34 -97.18,135.7 -239.32,114.37l0 24.76 86.58 36.09c35.72,14.05 331.55,130.7 332.23,131.33 109.83,-27.4 113.08,43.03 201.09,-75.88 22.87,-86.04 2.28,-99.93 56.26,-152.58 27.81,-58.76 -0.67,-20.82 55.18,-66.59 24.66,-20.22 57.96,-38.22 78.62,-51.55l28.88 -139.27c63.84,-25.28 144.16,1.14 202.56,22.52l-23.3 153.83c35.61,140.67 29.54,127.6 -31.15,242.27l-55.42 157.49 155.08 113.25 7.32 144.57 12.43 38.1 155.2 -9.84c5.59,-155.22 -7.25,-237.56 93.88,-312.18 43.63,-116.8 -71.65,-131.6 -126,-255.09 -9.25,-89.05 70.5,-134 119.16,-184.62 43.51,-45.26 35.64,-42.52 92.74,-86.19 35.94,-27.49 67.19,-54.97 102.41,-77 -40.92,-24.56 -8.1,1.52 -55.35,-36.83 -22.92,-18.6 -14.96,-13.99 -32.66,-33.78l-77.79 6.17c-50.73,-86.66 -284.92,-521.7 -276.75,-617.97 5.28,-62.18 83.41,-227.45 5.08,-238.31 -1.7,-0.24 -8.15,-1.74 -10.38,-1.98 -265.53,-28.29 -275.09,-172.43 -336.53,-177.15 -190.54,34.1 -373.63,518.72 -843.01,587.94 -438.09,64.6 -695.81,-270.72 -1033.25,-386.79l8.17 317.22z"/>
   <path class="fil2" d="M4013.8 7649.72l7.03 87.31 -233.42 54.63c68.31,61.49 249.07,96.99 318.9,138.75 -15.75,122.33 -165.47,160.75 -299.89,156.49 -137.73,-4.36 -256.24,-58.92 -397.74,-56.1l-31.11 138.73 -213.51 2.45 -11.28 87.48c-245.71,106.96 -590.28,-157.29 -706.58,-256.07l-156.13 38.53c47.25,141 32.69,202.28 138.42,290.34 172.95,56.32 523.71,32.65 644.13,101.93 -13.75,87.95 -3.54,44.15 -73.39,91.27 -44.89,30.29 -61.99,42.33 -83.42,83.35 154.25,152.64 988.63,208.33 1159.64,78.4 -59.05,-64.19 -96.58,-37.68 -152.36,-113.32 83.8,-197.23 460.24,-103.37 620.12,-39.1 239.38,96.19 414.33,140.39 701.35,144.3l-42.92 -143.44c12.24,-128.15 54.82,-62.72 181.22,-107.68 45.52,-101.27 -3.97,-98.34 133.52,-140.09 170.89,-51.89 159.45,19.37 205.71,51.54 117.6,-65.3 176.9,-126.6 430.6,-57.01 81.08,22.24 60.01,14.38 85.43,93.21 362.68,58.16 483.84,-220.54 961.55,-102.15 208.38,51.64 209.89,123.97 474.63,76.85 148.88,-26.5 333.48,-86.05 402,-178.19l-94.39 -90.85c-1.88,-7.66 -7.4,-8.49 -10.5,-13.18 -117.26,-62.19 -224.32,-214.85 -395.36,-192.94 4.19,165.81 -92.63,165.29 -357,186.54 -343.11,27.57 -673.7,40 -1018.64,27.36 -200.85,-7.37 -300.65,-23.78 -323.1,-191.84 -114.85,-47.99 -165.46,-64.96 -135.42,-236.23l-50.43 108.93 -261.93 -35.57c-12.31,50.78 -67.51,177.74 -61.45,237.54 12.33,121.89 96.87,117.64 83.97,210.92 -97.81,16.55 -220.67,5.37 -301.5,39.16 -122.63,51.26 -109.92,87.1 -286.55,82.2 -116.3,-3.24 -205.98,-33.84 -302.52,-65.29 -120.47,-39.26 -197,-5.06 -333.05,-28.06l-20.72 -51.08c24.65,-88.78 57.95,-79.33 55.66,-142.47 -1.43,-39.75 -39.5,-84.31 -58.4,-131.79 -43.95,-74.27 -37.19,-152.8 -35.97,-245.6l-155.2 9.84z"/>
   <path class="fil3" d="M12250.67 7719.98c-59.67,28.87 -93.69,19.59 -171.71,19.03l-0.29 -133.08c52.69,1.01 116.01,-8.69 163.14,15.32 78.98,40.25 8.99,97.86 8.86,98.73zm-433.3 -138.84c68.76,13.13 152.11,13.67 213.45,-17.62 42.23,112.75 43.86,63.25 -13.8,204.66 -4.67,-3.11 -10.35,-11.07 -13.33,-12.94l-36.13 -20.34c-40.25,-16.34 -38.68,-1.7 -75.72,-24.39 -36.04,-22.07 -58.01,-87.67 -74.47,-129.37zm429.72 -168.63l112.75 28.06c1.67,4.41 9.54,24.67 11.54,30.89 40.21,124.57 3.49,85.89 -41.28,208.11l-48.77 -97.76c-32.7,-61.24 -1.03,-11.14 -32.46,-47.19l-39.79 -38.45c28.99,-38.94 23.97,-31.36 38.01,-83.66zm-294.58 -35.77c13.73,17.84 23.08,33.63 37.34,65.49 -47.72,41.15 -23.64,34.52 -58.12,78.8 -25.33,32.54 2.32,27.88 -45.95,36.3 -99.48,17.36 -84.03,-63.93 -57.38,-118.38l59.52 -84.54 64.59 22.33zm294.58 35.77l-55.25 3.7c-33.8,-94.36 -76.55,-102.92 -41.52,-201.91 106.29,-4 124.84,61.89 157.37,142.17l-60.6 56.04zm-294.58 -35.77c-26.29,-49.36 -26.71,-66.12 -58.47,-100.11 145.06,-109.44 111.22,-94.12 243.36,-88.13 -69.23,115.76 -103.76,127.55 -54.99,185.45l-129.9 2.79zm-142.15 -722.49c-131.76,74.7 -246.8,208.77 -324.49,362.61l-7.35 129.2c79.4,283.71 113.99,440.36 311.52,667.72 34.87,40.14 43.91,40.98 72.18,83.82l100.73 -14.23c-41.16,87.54 -54.36,-25.1 -68.11,119.05l240.11 32.91c-5,5.5 -10.07,6.93 -14.16,14.19l-73.14 13.46c148.74,50.05 370.15,73.4 542.33,16.45 171.01,-56.56 290.43,-148.02 423.14,-197.71l12.26 -113.54 -15.3 -215.24c-53.58,-198.31 -106.7,-372.99 -210.36,-528.76 -80.4,-120.83 -247.89,-327.73 -353.22,-387.24 -9.91,46.51 5.34,22.37 -19.82,42.86 -118.62,-140.52 -199.97,-111.11 -279.36,57.54 -33.91,-78.16 3.37,-150.55 -59.86,-225.34 -60.79,42.28 -189.06,256.39 -277.1,142.25z"/>
   <path class="fil3" d="M14840.36 6938.25c112.22,-42.61 375.45,-180.07 427.29,-260.35 -32.31,-196.52 -150.09,-423.21 -122.17,-578.78l60.19 -31.29 -216.52 -672.12c-128.69,34.29 -657.68,270.37 -834.16,341.75l-492.73 202c80.52,154.38 137.18,331.86 217.6,484.12 90.64,171.6 177.29,285.73 262.88,421.07 112.42,-55.33 249.18,-85.19 311.13,-116.78 3.89,-1.98 8.62,-5.15 12.63,-7.15l184.47 -76.66c49.99,-15.8 32.5,-12.51 92.68,-12.9l96.71 307.09z"/>
   <path class="fil3" d="M9070.42 8934.61c18.04,-29.79 -44.46,-46.59 162.02,-42.7l-1.87 111.67c-41.77,-0.32 -91.39,6.62 -124.95,-6.33 -61.62,-23.77 -31.7,-51.05 -35.2,-62.64zm205.97 84.58c-35.72,-101.11 -33.7,-68.11 4.14,-166 49.29,29.67 102.83,28.47 175.67,15.64 -50.42,143.81 -65.44,96.52 -179.81,150.36zm-252.91 -71.57c-64.25,-90.43 -65.87,-107.06 -35.21,-178.52 2.24,-5.23 5.62,-10.52 7.91,-15.17l18.34 -30.1c92.1,14.81 85.2,24.98 115.12,89.55 -90.89,44.19 -35.37,21.03 -106.16,134.24zm290.64 -214.07l96.1 -62.13c33.91,76.49 65.67,100.31 38.71,180.42 -91.57,-6.31 -101.07,-49.64 -134.81,-118.29zm-140.29 -180.51c25.02,85.25 -4.83,132.77 -64.25,178.33l-74.04 -53.43 64.57 -115.72 73.72 -9.18zm0 0c27.26,-28.61 90.12,-32.02 131.74,-11.03 49.86,25.15 4.12,27.13 83.48,71.8l-43.57 71.68 -110.25 8.39c4.91,-9.83 60.08,-66.99 -61.4,-140.84zm-258.13 -487.28c-164.53,146.57 -249.65,217.65 -363.46,445.2 -71.41,142.8 -186.96,483.54 -97.56,653.43 -14.26,-71.38 -10.2,-12.3 26.7,-36.72 60.11,70.55 288.23,167.91 406.31,188.56 338.42,59.21 616.38,-217.09 743.34,-465.56 100.38,-196.43 104.22,-250.29 100.05,-475.08 -36.33,-123.22 -179.49,-237.39 -270.76,-308.65 -74.56,133.29 -134.08,-73.46 -252.31,-112.72l-23.45 199.21c-0.04,-0.05 -111.86,-252.03 -230.21,-56.48 -69.99,2.96 -18.86,8.74 -38.65,-31.19z"/>
   <path class="fil4" d="M14840.36 6938.25c-127.91,23.7 -57.92,33.2 -174.69,65.14 -196.94,53.87 -424.59,44.55 -542.89,-117.72 -69.65,-0.9 -202.68,57.86 -255.78,85.21 53.76,211.18 300.14,514.97 331.86,729.44 314.74,309.31 -2.99,486.84 655.91,205.29 144.69,-61.83 724.99,-274.33 789.44,-349.57 51.06,-127.15 -33.28,-219.08 -58.48,-358.09l-150.2 -462.45 -50.29 -131.34c-27.34,26.19 -53.51,48.03 -79.12,73.74 25.32,196.12 162.48,431.06 177.34,630.17 -119.49,77 -283.58,167.92 -468.14,177.56 -35.42,-138.6 -175.82,-442.84 -174.96,-547.38z"/>
   <path class="fil5" d="M6637.46 7120.7c16.52,65.68 45.24,76.64 67.45,155.93 -95.55,103.55 -344.63,165.91 -483.03,240.39 -197.91,106.51 -286.63,139.11 -344.57,380.2 22.45,168.06 122.25,184.47 323.1,191.84 344.94,12.64 675.53,0.21 1018.64,-27.36 264.37,-21.25 361.19,-20.73 357,-186.54l-7.7 -186.04 -31.74 -59.51 -112.17 23.54c-258.91,61.96 -882.51,302.77 -1255.03,230.21 211.19,-39.09 548.16,-120.92 779.15,-179.47 306.72,-77.74 408.95,-211.36 541.53,-379.15 18.13,-22.94 18.45,-23.18 33.29,-37.57 -5.04,-72.47 -1.77,-157.04 -34.51,-206.35 -92.54,52.66 -236.09,65.1 -369.19,74.76 -221.01,16.03 -312.23,24.66 -369.64,-92.67l-112.58 57.79z"/>
   <path class="fil3" d="M9288.79 6266.3l-14.82 134.1 -167.02 -6.13c-2.01,-149.25 45.69,-123.8 181.84,-127.97zm32.78 166.21l-38.59 -113.13 59.06 -96.49c21.95,22.89 15.16,23 55.15,32.22 15.9,3.66 39.96,2.79 55.47,6.09 43.58,9.27 39.95,11.15 51.64,17.54 -95.25,190.97 -102.29,51.21 -182.73,153.77zm90.93 -375.79l83.72 -28.68c11.03,61.32 17.73,50.3 28.97,101.15 20.48,92.62 1.14,89.16 -31.77,103.69 -84.23,4.24 -76.74,-51.11 -112.21,-133.76l21.52 -30.8c1.23,-1.56 6.41,-7.82 9.77,-11.6zm-318.16 26.07c120.67,20.77 36.15,-24.9 96.72,73.16l-31.99 46.38c-2.54,2.95 -7.46,6.74 -10.1,9.83 -2.66,3.1 -7.26,6.91 -9.87,10.15 -2.62,3.25 -6.48,7.66 -8.95,11.1 -36.67,50.97 -29.8,46.58 -39.19,101.77 -67.14,-53.18 -12.8,59.87 -63.78,-74.42 -16.65,-43.87 21.1,-132.12 35.28,-150.49 1.85,-2.39 6.59,-7.12 8.51,-9.22 3.05,-3.34 19.01,-13.24 23.37,-18.26zm174.76 -186.11c21.06,77.44 5.37,138.53 -75.82,198.1l-82.31 -44.34 61.31 -112.81c27.88,-32.02 43.42,-43.09 96.82,-40.95zm143.4 160.04l-108.4 1.29c20.1,-31.93 34.7,-38.8 21.06,-86.87l-56.06 -74.46c59.93,-40.22 118.44,-48.26 175.4,32.02 3.59,5.05 15.41,24.49 18.03,28.63l20.55 33.87c-38.27,20.73 -52.71,44.49 -70.58,65.52zm-373.08 -1065.48c-28.82,87.81 -54.06,90.56 -127.17,143.43 -45.4,99.52 -106.22,110.05 -127.81,220.47 144.79,250.39 317.96,274.52 681.47,214.16 -47.98,131.81 -353.41,187.3 -531.21,158.51 -12.53,-80.8 13.62,-56.78 -29.48,-147.49 -67.31,66.78 -25.96,26.17 -44.83,178.61 -8.72,70.36 -29.87,92.03 -39.64,166.43 -15.78,120.27 -5.36,277.86 -4.97,401.18l44.65 136.54c89.66,41.1 109.82,128.97 274.3,155.07 132.09,20.97 267.3,-20.3 374.08,-65.07 199.37,-83.59 319.47,-306.19 441.62,-444.88 118.45,-390.62 -228.54,-423.21 -234.87,-567.62 -9.33,-212.61 264.96,-292.29 157.96,-687.01l-87.43 28.78c38.62,78.68 34.44,74.8 27.98,165.17 -24.79,137.82 -79.3,262.24 -191.48,307.14 -29.36,70.55 -107.59,97.59 -191.45,121.2 -175.27,49.34 -62.79,-49.1 -241.6,-24.96 -14.81,44.3 -10.35,27.98 -36.28,56.03l-202.66 -45.8c7.48,-99.73 -13.7,-63.93 37.06,-110.77l-44.19 -4.75 -28.72 82.24c-19.15,-14.16 -43.59,0.27 -65.63,-90.85 -7.81,-48.67 89.92,-166.53 121.04,-200.43 59.36,-64.66 112.95,-99.66 185.99,-153.5 126.19,-93.03 303.86,-193.17 506.55,-201.47 -8.14,-59.19 -9.68,-21.16 17.29,-40.91 -65.54,-46.42 -141.64,-5.73 -222.8,18.65 -6.79,-75.09 4.96,-172.22 -27.23,-227.77l4.12 230.37c-69.85,46.98 -143.71,67.32 -210.94,108.35 -69.17,42.22 -119.2,101.12 -183.72,120.95z"/>
   <path class="fil6" d="M13921.42 3939.73c-32.99,122.75 -82.9,249.73 -117.56,383.51 -30.86,119.11 -66.27,289.96 -140.02,362.11 -128.74,-65.17 -283.73,-384.57 -271.72,-581.7l63.68 -8.65 -84.46 2.97c-26.89,-65.91 -32.94,-36.5 -67.5,-105.22 -104.46,31 -108.05,128.04 -135.1,263.91 38.46,77.61 57.78,203.43 90.34,291.79 33.31,90.39 80.07,168.28 109.9,260.13 157.38,215.98 169.03,405.25 190.69,698.92 109.35,-33.51 324.88,-90.93 354.8,-196.61 3.88,71.4 12.86,30.57 28.73,43.68l425.49 -169.75 -3.11 -66.94c-40.78,31.29 -42.19,54.39 -99.37,67.06 25.62,-236.18 147.61,-166.11 193.73,-285.58l-128.24 -275.42c-83.15,28.63 -90.75,15.23 -125.96,-45.11 -162.14,-138.3 -81.67,-435.53 -76.67,-615.68 -75.95,-38.02 -125.1,-48.53 -207.65,-23.42z"/>
   <path class="fil2" d="M12242.17 6146.28c8.33,121.14 -33.27,215.09 27.2,308.68 37.82,58.53 119.39,123.46 177.13,181.98 105.33,59.51 272.82,266.41 353.22,387.24 103.66,155.77 156.78,330.45 210.36,528.76 79.88,43.87 124.9,47.7 132.7,142.81 -42.21,43 -56.85,42.6 -117.4,72.43l-12.26 113.54 -28.99 101.49 68.21 9.82c-29.35,-156.26 -8.65,-16.91 13.83,-69.6 57.71,-76.24 137.97,-164.82 238.49,-87.33l0 -70.17 90.48 33.51 -39.25 -67.45c91.68,2.86 74.5,0.4 132.21,38.92 -15.52,-47.44 -1.23,-19.98 -25.68,-67.08l-96.91 0.21 -40.34 -907.42c-185.41,-13.85 -456.47,-89.74 -516.22,-238.47 51.03,-150.79 373.92,-187.46 542.02,-215.77l51.51 -139.31c-390.22,-50.76 -757.89,-144.27 -1172.19,-158.27l11.88 101.48z"/>
   <path class="fil7" d="M13614.19 5703.43l19.25 36.57c-97.89,-30.3 -70.22,-13.26 -90.3,-1.27 62.62,52.37 71.22,53.22 75.42,160.71 -108.83,-14.03 -55.3,27.38 -114.33,94.25l-90.99 -3.11c-25.63,-38.11 -46.4,-66.52 -66.15,-116.3 -152.13,12.44 -201.34,51.56 -176.12,200.47 137.64,34.11 109.02,7.67 228.61,-22.85l19.32 77.01c24.39,22.09 12.91,3.43 35.77,38.71l173.2 347c62.56,127.38 129.84,269.21 198.9,398.81l40.23 57.45c53.1,-27.35 186.13,-86.11 255.78,-85.21 118.3,162.27 345.95,171.59 542.89,117.72 116.77,-31.94 46.78,-41.44 174.69,-65.14l-96.71 -307.09c-60.18,0.39 -42.69,-2.9 -92.68,12.9l-184.47 76.66c-4.01,2 -8.74,5.17 -12.63,7.15 -61.95,31.59 -198.71,61.45 -311.13,116.78 -85.59,-135.34 -172.24,-249.47 -262.88,-421.07 -80.42,-152.26 -137.08,-329.74 -217.6,-484.12l492.73 -202c176.48,-71.38 705.47,-307.46 834.16,-341.75 91.03,-82.71 184.72,-32.98 93.34,-214.49 -100.59,-12.7 -123.48,-0.42 -199.27,49.44l0.35 -77.84c-89.83,-1.43 -101.1,11.85 -193.14,49.94l-792.37 325.36c-54.51,22.19 -101.49,40.44 -154.03,66.88 -120.5,60.64 -100.37,54.22 -129.84,108.43z"/>
   <path class="fil3" d="M11211.67 8128.39l-63.18 153.22 -441.83 -67.05c-94.8,54.43 -104.11,314.98 -130.76,425.29 -36.31,150.31 -116.69,310.84 -82.68,475.21 69.93,58.26 79.58,55.8 180.01,92.38 323.59,158.49 502.21,105.19 566.46,-246.54l41.9 298.26 174.09 -8.25c42.87,-22.51 65.73,-26.46 107.12,-42.57 87.54,-34.07 63.93,-12.32 92.56,-68.18 74.39,-128.85 -44,-379.09 -43.65,-539.95 -98.02,-16.88 -292.67,-9.89 -397.7,-86.19 -11.02,-119.37 106.95,-138.43 141.65,-247.22l-62.75 -179.88 -78.48 -7.32 -2.76 48.79z"/>
   <path class="fil5" d="M8650.96 4349.76c-10.68,84.29 -72.99,200.9 -89.25,347.58 -24.8,441.73 47.77,875.68 7,1311.6l-13.38 289.68 53.22 30.3 182.21 2.18 25.02 -4.56c-0.39,-123.32 -10.81,-280.91 4.97,-401.18 9.77,-74.4 30.92,-96.07 39.64,-166.43 18.87,-152.44 -22.48,-111.83 44.83,-178.61 -65.51,-18.19 -50.24,-24.54 -84.23,-86.83 -27.77,-50.89 -40.63,-71.28 -36.55,-138.35 21.59,-110.42 82.41,-120.95 127.81,-220.47 21.34,-135.59 30.1,-323.08 102.27,-432.05 29.6,62.76 28.12,200.61 24.9,288.62 64.52,-19.83 114.55,-78.73 183.72,-120.95 67.23,-41.03 141.09,-61.37 210.94,-108.35l-4.12 -230.37c-5.13,-81.36 -26.76,-144.21 -53.78,-210.93 -11.91,-29.42 -27.06,-67.95 -43.74,-97.05l-52.32 -64.14c-147.49,94.52 -355.25,66.24 -487.21,-15.34l-141.95 205.65z"/>
   <path class="fil6" d="M6530.96 5467.99c-49.02,4.78 -8.1,-11.29 -41.99,22.35 -0.53,0.52 -28.72,44.5 -30.47,47.55 -20.58,36.04 -32.49,59.3 -49.34,81.94 -58.65,203.4 -68.01,262.84 -71.5,490.47l20.51 344.69c33.87,-20.41 47.76,-30.3 105.11,-37.32 35.35,-38.31 73.2,-65.56 107.41,-108.29 29,-36.21 45.05,-64.37 83.55,-115.93 46.48,-62.24 117.95,-196.12 140.72,-269.98 29.66,-165.08 46.59,-291.05 224.15,-293.8 151.19,-2.33 248.9,96.57 273.96,235.53 37.89,210.07 41.91,776 -254.25,676.06l-28.7 0c-131.49,181.58 -247.48,349.49 -568.09,395.18 8.76,103.89 11.23,151.1 71.78,220.52l123.65 -36.26 112.58 -57.79c57.41,117.33 148.63,108.7 369.64,92.67 133.1,-9.66 276.65,-22.1 369.19,-74.76 0,-40.68 -13.13,-39.75 19.67,-27.57 -1.8,-272.87 -62.35,-754.56 -128.08,-1003.79 -33.36,-167.32 -68.44,-259.4 -149.12,-381.09 -57.52,-86.75 -159.61,-237.8 -274.47,-255.99 -51.36,81.67 -92.07,128.95 -143.58,201.16l-112.71 146.81c-2.56,3.09 -6.85,8.24 -9.23,10.97 -2.38,2.74 -7.97,8.2 -9.96,10.39l-21.46 19.59c-83.15,-87.42 -117.79,-184.48 -128.97,-333.31z"/>
   <path class="fil3" d="M4451.19 6724.8c-35.22,22.03 -66.47,49.51 -102.41,77 -57.1,43.67 -49.23,40.93 -92.74,86.19 -48.66,50.62 -128.41,95.57 -119.16,184.62 52.54,-29.43 -12.76,-15.97 34.68,1.25l102.41 75.65c102.53,65.95 249.32,81.05 371.74,70.94 49.46,-4.08 133.64,-27.52 173.5,-3.69 -168.98,126.56 -340.76,115.5 -556.33,110.94 -101.13,74.62 -88.29,156.96 -93.88,312.18 -1.22,92.8 -7.98,171.33 35.97,245.6 237.36,124.94 274.18,202.53 639.94,89.46 146.02,-45.15 243.14,-147.81 344.45,-253.31l111.32 -99.74c44.38,-84.14 25.48,-201.55 -33.63,-268.8 -73.38,-83.46 -131.84,-64.27 -197.95,-156.29 10.92,-132.1 109.69,-208.46 148.46,-304.12l-94.86 1.95c-143.57,345.14 -792.89,313.84 -929.05,141.49 43.78,-167.16 648.07,-580.94 936.05,-394.54 42.07,-15.23 20.64,0.01 69.7,-37.38 -29.52,-54.09 -12.92,-54.38 -95.79,-72.15 -172.57,-37 -519.58,103.85 -652.42,192.75z"/>
   <path class="fil8" d="M10673.23 9207.44c9.57,134.92 124.31,462.97 33.7,620.66 -41.6,72.39 -289.37,266.96 -356.75,320.99 24.82,133.29 86.16,209.62 198.96,243.8 74.92,-53.36 150.93,-128.78 248.45,-195.3 133.05,-90.75 183.73,-179.29 246.64,-208.84 -18.8,90.49 -47.12,146.68 -68.93,223.51 -21,74.02 -21.18,145.01 -38.54,214.78 128.74,58.9 106.24,124.72 312.01,85.35 1.62,-332.34 251.67,-1023.18 206.91,-1261.48l-174.09 8.25 -41.9 -298.26c-64.25,351.73 -242.87,405.03 -566.46,246.54z"/>
   <path class="fil9" d="M8686.22 3256.68c22.35,91.13 68.34,146.02 32.37,254.96 -22.7,68.77 -72.98,125.68 -6.05,227.71l21.59 25.94c87.84,50.49 87.28,14.69 87.6,157.19 0.22,100.74 -21.62,136.09 -28.82,221.63 131.96,81.58 339.72,109.86 487.21,15.34 3.25,-190.25 -58.45,-332.76 53.67,-514.96 130.59,69.34 89.8,330.99 161.46,451.17 46.51,-95.64 14.5,-90.5 146.27,-110.73 23.54,19.85 25.42,21.79 44.33,47.18 1.57,-109.92 -63.36,-330.86 -93.83,-447.61 -50.65,-194.07 -69.53,-305.4 -271.79,-314.81l-98.24 -9.16 -2.21 38.29c-49.07,31.47 -94.68,53.74 -166.17,52.88 -94.27,-1.13 -103.37,-16.34 -105.36,-93.37l10.06 -17.58c-98.99,-16.24 -187.5,-7.93 -272.09,15.93z"/>
   <path class="fil2" d="M4363.18 6654.19c17.7,19.79 9.74,15.18 32.66,33.78 47.25,38.35 14.43,12.27 55.35,36.83 132.84,-88.9 479.85,-229.75 652.42,-192.75 82.87,17.77 66.27,18.06 95.79,72.15 66.59,-63.62 241.21,-11.28 343.1,-13.95 135.68,-3.56 262.41,-24.97 399.08,-17.51l16.97 49.58c139.94,1.39 262.32,7.39 361.08,-62.85 11.64,-81.15 8.22,-35.3 38.54,-104.48l-20.51 -344.69c-152.35,69.03 -265.7,130.4 -453.56,164.48 -38.42,56.13 -52.93,52.39 -140.73,24.9 -41.05,-12.85 -100.57,-40.81 -137.09,-57.82 -160.02,-60.41 -285.78,-135.33 -415.76,-205.47 -51.5,16.51 -59.87,25.08 -92.53,-18.66 -30.31,27.14 -0.31,9.1 -44.09,28.8l-161.24 24.26c73.65,428.45 -169.84,303.79 -359.63,475.79 -59.76,54.15 -60.79,83.44 -169.85,107.61z"/>
   <path class="fil10" d="M10503.42 5953.65c-7.4,283.09 -42.32,113.75 -200.56,194.57 -102.51,52.35 -70.07,191.28 -29.23,289.12 44.85,-44.07 23.82,-76.18 94.32,-115.38 -31.02,320.78 51.22,180.19 180.74,196.99 97.5,145.47 -49.7,174.63 236.12,211.96l42.52 -0.25 -181.93 -230.47c-36.04,-18.33 -10.61,-0.21 -45.03,-14.55 -136.09,-56.71 -84.82,-292.12 62.76,-115.62 28.39,-304.36 25.21,-192.6 181.04,-350.73l-35.02 -147.83c112.51,231.82 405.17,-83.67 529.86,377.59 37.24,137.77 20.95,54.94 85.85,82.88 49.05,21.11 62.36,48.9 30.98,111.45 -26.94,53.69 -58.62,33.78 -106.46,54.9 -24.5,142.43 -53.38,172.09 -124.58,239.1 131.86,-0.35 273.24,48.49 373.1,11.24l-3.37 -55.88c-9.21,-57.49 -14.72,18.35 -12.3,-62.37 49.83,21.16 42.26,105.32 144.76,31.98 45.79,-32.76 72.87,-105.48 68.87,-184.03 -78.33,-25.2 -160.06,29.7 -110.63,-115.28l-55.47 -113.62c-162.24,-23.26 -77.6,-120.36 -119.65,-255.03 -43.9,-42.93 -141.23,-177.05 -222.92,-212.24 -11.89,-5.12 -339.18,-62.4 -377.03,-67.83 -61.21,33.88 -65.71,62.57 -108.54,74.79 -71.29,20.36 -222.42,-74.29 -298.2,164.54z"/>
   <path class="fil2" d="M8716.22 9753.24c-37.98,42.52 -71.55,95.33 -106.91,131.97 -43.81,45.39 -76.73,52.74 -122.73,106.87 319.07,-31.09 554.34,88.97 911.28,4.34 309.94,-73.48 546.38,55.69 867.33,-72.94 28.42,-125.43 -32.48,-2.97 6.97,-109.49 135.57,-44.08 265.62,-14.2 332.73,-122.46 -48.73,-86.31 -86.73,-71.31 -195.76,-97.65 -193.09,-46.66 -136.38,-224.44 -590.27,-242.08 42.36,174.93 161.46,217.07 164.49,304.64 -42.72,131.53 -1206.99,111.9 -1267.13,96.8z"/>
   <path class="fil11" d="M13402.48 6203.07l-51.51 139.31c-30.28,181.09 -36.25,265.49 -25.8,454.24l40.34 907.42 96.91 -0.21 41.78 -73.46c156.38,49.36 17.03,75.46 225,19.4l-2.88 69.59 60.7 -15.69 24.77 -743.47c12.7,-64.15 2.67,-23.86 14.98,-46.77 -69.06,-129.6 -136.34,-271.43 -198.9,-398.81l-173.2 -347c-22.86,-35.28 -11.38,-16.62 -35.77,-38.71l-16.42 74.16z"/>
   <path class="fil0" d="M5296.77 7010.81c-41.79,156.42 30.79,219.4 81.57,330.4 52.76,115.33 64.21,253.79 51.19,393.14l261.93 35.57 50.43 -108.93c44.43,-153.11 177.74,-247.66 323.06,-320.6 73.44,-36.87 382.42,-175.36 448.86,-183.43 -60.55,-69.42 -63.02,-116.63 -71.78,-220.52l-14.75 -56.25c-235.85,26.44 -346.06,51.85 -558.3,123.17 -154.62,51.96 -415.9,75.23 -572.21,7.45z"/>
   <path class="fil7" d="M12047.65 8062.98l93.48 51.8 -139.62 28.38 105.45 28.34c-106.03,22.18 -101.6,13.09 -191.68,-15.03 33.41,25.2 30.88,16.58 57.36,29.89l58.12 31.49c-93.6,19.14 -142.84,-34.21 -225.28,-72.9 -62.04,68.86 -239.49,173.67 -121.65,313.46 71.84,85.21 261.39,94.65 403.06,93.3 328.05,-3.12 612.12,-14.85 884.59,-121.67 -58.33,-178.14 -108.13,-296.3 12.65,-446.83l28.99 -101.49c-132.71,49.69 -252.13,141.15 -423.14,197.71 -172.18,56.95 -393.59,33.6 -542.33,-16.45z"/>
   <path class="fil8" d="M10505.77 7133.31c-32.1,251.57 240.79,470.44 286.25,648.85 39.37,30.61 13.15,-33.54 39.18,27.01 -52.48,77.92 -62.09,15.69 -60.12,121.05l90.71 19c11.47,2.7 334.22,119.87 352.64,130.38l78.48 7.32 106.79 10.7c145.64,0.62 309.04,-37.63 405.78,47.33 82.44,38.69 131.68,92.04 225.28,72.9l-58.12 -31.49c-26.48,-13.31 -23.95,-4.69 -57.36,-29.89 90.08,28.12 85.65,37.21 191.68,15.03l-105.45 -28.34 139.62 -28.38 -93.48 -51.8 73.14 -13.46c4.09,-7.26 9.16,-8.69 14.16,-14.19l-240.11 -32.91c13.75,-144.15 26.95,-31.51 68.11,-119.05l-100.73 14.23c-33.31,38.6 -38.31,27.04 -88.58,67.83 -101.04,34.44 -152.84,-19.18 -229.96,-64.81 -58.02,-34.34 -182.32,-61.47 -201.38,-144.9 -74.04,0.58 -212.94,32.43 -203.88,-63.14 -46.89,-34.21 -173.84,-256.85 -218.97,-325.12 -67.78,-102.58 -124.37,-231.69 -208.83,-314.63 -125.05,-14.27 -133,25.01 -204.85,80.48z"/>
   <path class="fil12" d="M6548.29 5386.49l70.25 -35.51c-91.72,-48.28 -140.95,-106.18 -172.52,-232.86 -40.08,-160.86 14.57,-192.99 -6.48,-377.82 124.13,15.04 379.49,-84.29 423.42,-192.54 42.73,125.29 -64.81,48.13 75.85,193.22 62.24,64.22 77.31,110.96 103.18,221.05 0.22,-0.19 33.5,-50.21 87.49,-26.59 41.68,158.64 -63.2,105.78 -149.43,244.27l67.43 133.23c48.37,57.3 68.67,34.91 109.24,81.31 55.78,-17.96 160.31,24.47 60.91,-272.87 -74.62,-223.21 -32.76,-160.9 -55.85,-379.7 -20.33,-192.62 -296.06,-382.14 -497.6,-354.65 -350.74,47.86 -251.26,282.02 -417.71,440.23 -257.25,244.54 -53.55,247.15 -48.31,435.65 2.6,93.48 -36.8,86.75 -71.35,133.52 61.71,42.02 131.41,61.36 213.4,59.58 124.05,-2.67 106.75,-44.45 208.08,-69.52z"/>
   <path class="fil2" d="M15585.73 7197.95c58.71,-39.97 131.46,-143.13 230.49,-19.31 48.78,61 76.47,182.77 119.96,255.65 53.09,-43.08 150.51,-29.87 221.53,-38.17 87.4,-10.21 140.98,-28.44 219.3,-49.74 105.11,-60.68 122.61,-118.87 199.93,-210.02 22.75,-239.78 -220.59,-296.64 -446.14,-326.87 -231.35,-31.01 -460.88,-56.42 -695.27,-73.99l150.2 462.45z"/>
   <path class="fil8" d="M10827.33 6730.66c94.01,46.19 167.86,59.21 270.7,50.96l126.77 -44.24c71.2,-67.01 100.08,-96.67 124.58,-239.1 47.84,-21.12 79.52,-1.21 106.46,-54.9 31.38,-62.55 18.07,-90.34 -30.98,-111.45 -64.9,-27.94 -48.61,54.89 -85.85,-82.88 -124.69,-461.26 -417.35,-145.77 -529.86,-377.59l35.02 147.83c-155.83,158.13 -152.65,46.37 -181.04,350.73 -147.58,-176.5 -198.85,58.91 -62.76,115.62 34.42,14.34 8.99,-3.78 45.03,14.55l181.93 230.47z"/>
   <path class="fil1" d="M5201.64 8535.65c25.38,-20.27 30.87,-22.52 61.5,-37.48 145.99,62.95 296.79,348.35 312.94,494.83l-72.85 37.09c49.01,26.08 34.77,25.21 99.13,16.98 65.29,-97.36 43.48,-121.1 168.03,-165.96 4.82,-1.74 10.53,-2.77 15.36,-4.46 71.08,-24.97 -36.38,19.98 30.17,-9.36 56.65,-24.98 77.29,-70.54 99.53,-147.36 123.42,8.99 263.34,30.38 375.03,-14.87 7.34,-166.99 -10.77,-184.21 -52.36,-329.44 -25.42,-78.83 -4.35,-70.97 -85.43,-93.21 -253.7,-69.59 -313,-8.29 -430.6,57.01 -46.26,-32.17 -34.82,-103.43 -205.71,-51.54 -137.49,41.75 -88,38.82 -133.52,140.09 -126.4,44.96 -168.98,-20.47 -181.22,107.68z"/>
   <path class="fil4" d="M9950.43 6108.2c-53.1,419.13 -252.32,352.06 -292.4,575.03 -22.69,126.21 -85.61,204.69 -241.31,174.96 -150.42,-28.72 -113.52,-141.16 -222.61,-207.05 -140.59,13.38 -111.06,136.8 -344.05,142.32 12.11,54.3 11.4,61.14 48.65,81.72 132.85,14.41 176.97,-34.57 300.44,16.75 309.57,128.67 372.47,119.78 578.99,-9.1 100.36,-62.62 215.22,-24.87 315.9,-62.11 35.71,-91.06 -132.01,-154.73 -65.7,-387.75 59.22,-208.08 50.9,-242.25 50.22,-469.61 -22.59,-84.58 -30.59,-167.65 -70.58,-259.14 -37.66,-86.13 -66.75,-133.92 -74.86,-243.05 -15.85,-213.1 45.9,-406.68 -38.47,-616.9l-21.13 9.3c107,394.72 -167.29,474.4 -157.96,687.01 6.33,144.41 353.32,177 234.87,567.62z"/>
   <path class="fil7" d="M8454.68 9164.39l60.7 150.99c92.46,73 -32.78,24.87 123.13,116.78 59.41,35.03 30.13,28.77 65.51,44.58 27.77,12.4 25.03,-2.37 68.96,10.76l-17.77 190.01c197.26,1.46 765.73,92.37 835.16,-93.24 48,-128.33 -57.5,-154.27 -101.94,-207.54 -91.15,-109.28 79.19,-337.77 135.99,-431.69 73.15,-120.95 133.15,-192.6 139.36,-335.35 4.75,-109.11 -9.34,-95.78 25.13,-130.13l-57.83 -103.97c4.17,224.79 0.33,278.65 -100.05,475.08 -126.96,248.47 -404.92,524.77 -743.34,465.56 -118.08,-20.65 -346.2,-118.01 -406.31,-188.56 -36.9,24.42 -40.96,-34.66 -26.7,36.72z"/>
   <path class="fil7" d="M14840.36 6938.25c-0.86,104.54 139.54,408.78 174.96,547.38 184.56,-9.64 348.65,-100.56 468.14,-177.56 -14.86,-199.11 -152.02,-434.05 -177.34,-630.17 25.61,-25.71 51.78,-47.55 79.12,-73.74l-179.57 -536.33 -60.19 31.29c-27.92,155.57 89.86,382.26 122.17,578.78 -51.84,80.28 -315.07,217.74 -427.29,260.35z"/>
   <path class="fil1" d="M6794.96 5923.47c-22.77,73.86 -94.24,207.74 -140.72,269.98 -38.5,51.56 -54.55,79.72 -83.55,115.93 -34.21,42.73 -72.06,69.98 -107.41,108.29 92.09,83.93 195.53,188.21 189.14,356.58l269.32 -293.4c99.72,-117.56 266.55,-388.46 299.05,-587.46 5.4,-141.06 -64.32,-247.32 -218.9,-215.38 -110.33,22.79 -180.61,264.41 -195.3,234.35 -1.67,-3.41 -7.51,7.68 -11.63,11.11z"/>
   <path class="fil4" d="M8755.21 9677.51l-38.99 75.73c60.14,15.1 1224.41,34.73 1267.13,-96.8 -3.03,-87.57 -122.13,-129.71 -164.49,-304.64 -8.53,-161.03 56.54,-293.08 58.07,-458.72 1.35,-146.29 -33.04,-289.96 -88.02,-413.52 -34.47,34.35 -20.38,21.02 -25.13,130.13 -6.21,142.75 -66.21,214.4 -139.36,335.35 -56.8,93.92 -227.14,322.41 -135.99,431.69 44.44,53.27 149.94,79.21 101.94,207.54 -69.43,185.61 -637.9,94.7 -835.16,93.24z"/>
   <path class="fil0" d="M3039.69 7398.45c-8.38,165.2 45.53,273.76 39.33,377.13 152.27,61.54 275.96,129.56 329.66,255.22 141.5,-2.82 260.01,51.74 397.74,56.1 134.42,4.26 284.14,-34.16 299.89,-156.49 -69.83,-41.76 -250.59,-77.26 -318.9,-138.75 -92.43,13.87 -119.69,34.76 -168.14,-26.42 -25.39,-32.06 -73.32,-120.27 -97.23,-168.64l-21.76 -217.32 -207.42 -3.29 -46.14 68.51 -207.03 -46.05z"/>
   <path class="fil4" d="M5217.56 6892.68c-38.77,95.66 -137.54,172.02 -148.46,304.12 66.11,92.02 124.57,72.83 197.95,156.29 59.11,67.25 78.01,184.66 33.63,268.8 -54.58,338.13 -208.98,216.03 -296.23,471.35 -30.44,89.07 -124.05,143.01 -250.15,109.81 -112.47,-29.61 -110.93,-115.78 -209.51,-157.25 -127.87,9 -122.5,93.14 -337.08,113.94l20.72 51.08c136.05,23 212.58,-11.2 333.05,28.06 96.54,31.45 186.22,62.05 302.52,65.29 176.63,4.9 163.92,-30.94 286.55,-82.2 80.83,-33.79 203.69,-22.61 301.5,-39.16 12.9,-93.28 -71.64,-89.03 -83.97,-210.92 -6.06,-59.8 49.14,-186.76 61.45,-237.54 13.02,-139.35 1.57,-277.81 -51.19,-393.14 -50.78,-111 -123.36,-173.98 -81.57,-330.4l6.04 -128.4 -85.25 10.27z"/>
   <path class="fil2" d="M13726.32 7719.36l16.47 109.01c-5.71,67.05 1.88,70.62 -99.53,76.65 -60.16,3.58 -98.92,-6.19 -158.98,5.04 -82.76,15.48 -159.14,69.77 -260.8,73.28 37.55,80.99 676.83,70.89 733.45,68.13 70.75,-28.54 60.99,-43.19 153.85,-62.24 -37.21,-51.24 -62.4,-107.3 -26.01,-169.87 65.61,-112.8 109.17,-9.31 114.09,-119.04 -31.72,-214.47 -278.1,-518.26 -331.86,-729.44l-40.23 -57.45c-12.31,22.91 -2.28,-17.38 -14.98,46.77l-24.77 743.47 -60.7 15.69z"/>
   <path class="fil8" d="M6618.54 5350.98c115.73,21.64 97.66,10.58 197.06,-30.11 80.95,-14.81 131.33,-78.56 164.45,-141.16 86.23,-138.49 191.11,-85.63 149.43,-244.27 -53.99,-23.62 -87.27,26.4 -87.49,26.59 -25.87,-110.09 -40.94,-156.83 -103.18,-221.05 -140.66,-145.09 -33.12,-67.93 -75.85,-193.22 -43.93,108.25 -299.29,207.58 -423.42,192.54 21.05,184.83 -33.6,216.96 6.48,377.82 31.57,126.68 80.8,184.58 172.52,232.86z"/>
   <path class="fil4" d="M5122.7 6894.63c-42.95,-2.09 -152.99,-23.63 -161.15,-49.87 -1.72,-5.51 -8.04,-4.35 -11.58,-7.2 69.63,-74.36 138.18,-28.01 220.73,-115.73 -2.21,-71 -41.38,0.8 -53.81,-38.82 -1.91,-6.1 -10.11,-2.65 -14.67,-5.11 43.23,-20.87 10.52,-8.09 27.48,-36.32 -287.98,-186.4 -892.27,227.38 -936.05,394.54 136.16,172.35 785.48,203.65 929.05,-141.49z"/>
   <path class="fil11" d="M15585.73 7197.95c25.2,139.01 109.54,230.94 58.48,358.09 -64.45,75.24 -644.75,287.74 -789.44,349.57 -658.9,281.55 -341.17,104.02 -655.91,-205.29 -4.92,109.73 -48.48,6.24 -114.09,119.04 -36.39,62.57 -11.2,118.63 26.01,169.87l44.36 130.29 11.73 38.08c43.71,86.06 26.66,155.02 170.28,132.47 144.4,-22.68 44.92,-111.8 163.84,-174.59 122.69,-64.79 330.56,-131.26 470.49,-186.57 154.13,-60.93 303.19,-125.91 462.73,-198.76 64.57,-29.49 157.22,-73.88 224.79,-97.25 149.46,-51.68 38.27,67.81 269.43,10.19 38.59,-87.27 47.71,-97.44 7.75,-208.8 -43.49,-72.88 -71.18,-194.65 -119.96,-255.65 -99.03,-123.82 -171.78,-20.66 -230.49,19.31z"/>
   <path class="fil6" d="M10549.14 10392.89c-112.8,-34.18 -174.14,-110.51 -198.96,-243.8 -111.33,31.45 -231.39,275.99 -296.55,381.99 -68.69,111.74 -269.26,255.78 -275.28,377.87 59.91,69.89 162.79,119.26 248.74,184.13 87.78,66.25 140.76,156.04 288.26,156.11 38.06,-132.46 26.17,-115.95 -51.96,-234.21 -238.66,-361.22 269.05,-382.7 285.75,-622.09z"/>
   <path class="fil6" d="M11248.77 10512.39c-205.77,39.37 -183.27,-26.45 -312.01,-85.35 -43.07,119.58 -11.71,344.25 -6.66,484.54 6.27,174.03 -53.54,292.16 -32.21,466.27 76.2,17.39 570.99,37.23 611.75,8.53 156.28,-110.01 -188.41,-204.11 -297.17,-277.76 -23.25,-202.03 71.52,-493.15 36.3,-596.23z"/>
   <path class="fil13" d="M8649.66 3263.52l36.56 -6.84c84.59,-23.86 173.1,-32.17 272.09,-15.93l-8.5 -90.41c-115.77,-105.52 -123.63,-140.4 -162.98,-324.3l127.88 -40.58c69.04,-29.58 219.87,-207.75 257.91,-259.54 32,52.23 26.17,126.98 58.94,200.41 43.85,98.24 63.03,69.91 155.08,98.65l9.97 -203.32c-55.23,-162.28 -82.75,-163.09 -237.44,-241.4 -263.69,-133.49 -472.34,84.69 -509.24,424.01 -13.2,121.48 -34.04,367.04 -0.27,459.25z"/>
   <path class="fil14" d="M7747.41 3970.42c39.44,109 30.81,153.63 -20.92,231.4 11.17,21.34 12.41,22.34 26.33,38.03 225.89,17.66 468.64,-74.86 668.54,-68.02 84.99,-92.38 39.93,31.29 160.41,-201.75 37.34,-72.23 73.25,-187.46 152.36,-204.79l-21.59 -25.94c-66.93,-102.03 -16.65,-158.94 6.05,-227.71 35.97,-108.94 -10.02,-163.83 -32.37,-254.96l-36.56 6.84c-81.27,157.82 -37.6,-30.57 -108.56,288.97 -24.9,112.15 -67.11,197.04 -111.12,286.68 -64.5,131.38 -125.24,96.07 -294.09,108.35 -128.5,9.34 -262.68,31.33 -388.48,22.9z"/>
   <path class="fil4" d="M11355.66 8266.8c-34.7,108.79 -152.67,127.85 -141.65,247.22 105.03,76.3 299.68,69.31 397.7,86.19 270.23,20.75 523.8,26.36 795.02,25.81 120.16,-0.24 261.58,3.2 379.26,-10.42 156.75,-18.16 208.26,-30.98 185.49,-185.56 -272.47,106.82 -556.54,118.55 -884.59,121.67 -141.67,1.35 -331.22,-8.09 -403.06,-93.3 -117.84,-139.79 59.61,-244.6 121.65,-313.46 -96.74,-84.96 -260.14,-46.71 -405.78,-47.33 -0.53,46.52 3.43,46.98 -8.28,94.5 -3.7,15.02 -11.59,32.58 -18.11,47.3l-17.65 27.38z"/>
   <path class="fil8" d="M13187.77 3462.75l83.79 432.97c40.76,73.87 23.34,20.84 32.28,97.03 34.56,68.72 40.61,39.31 67.5,105.22l84.46 -2.97 34.57 -16.29 161.57 -85.56c56.16,-38.67 71.67,-97.2 133.01,-128.08 8.1,-13.77 7.18,-20.51 20.09,-35.44 -79.13,-145.41 48.19,-307.92 -121.25,-337.12 -60.05,46.31 -24.86,28.6 -59.86,109.92 -51.2,-52.43 -37.77,-86.09 -59.82,-140.16 -46.09,-113.04 -283.82,-129.1 -376.34,0.48z"/>
   <path class="fil3" d="M2467.94 7868.59l279.56 -3.29c-234.52,-153.58 -66.86,-144.3 -233.88,-234.45 -3.75,-2.02 -10.67,-5.48 -15.68,-8.73l-16.01 -217c12.23,-87.51 -10.13,-2.82 51.07,-109.69 33.44,-58.39 36.8,-81.44 96.2,-103.46 78.92,60.07 75.16,54.97 88.06,184.14 8.19,82.05 56.71,167.14 24.81,211.32 19.63,81.8 50.7,107.84 100.11,154.66 44.03,41.72 72.49,82.86 144.4,88.91l92.44 -55.42c6.2,-103.37 -47.71,-211.93 -39.33,-377.13 4.7,-133.62 7.27,-178.17 -45.67,-266.22l-86.58 -36.09 -18.84 74.81c-76.67,25.01 -98.47,9.62 -162.06,-16.56l-4.57 -89.63c-332.34,9.64 -403.83,703.77 -254.03,803.83z"/>
   <path class="fil1" d="M9280.12 4159.45l52.32 64.14c16.68,29.1 31.83,67.63 43.74,97.05 27.02,66.72 48.65,129.57 53.78,210.93 32.19,55.55 20.44,152.68 27.23,227.77 81.16,-24.38 157.26,-65.07 222.8,-18.65 45.76,-55.87 112.49,-86.99 150.65,-118.19 -14.26,-63.85 -121.36,-185.97 -171.17,-265.59 -51.86,-82.92 -120.33,-191.59 -164.22,-261.25 -71.66,-120.18 -30.87,-381.83 -161.46,-451.17 -112.12,182.2 -50.42,324.71 -53.67,514.96z"/>
   <path class="fil11" d="M6513.81 7156.96c-66.44,8.07 -375.42,146.56 -448.86,183.43 -145.32,72.94 -278.63,167.49 -323.06,320.6 -30.04,171.27 20.57,188.24 135.42,236.23 57.94,-241.09 146.66,-273.69 344.57,-380.2 138.4,-74.48 387.48,-136.84 483.03,-240.39 -22.21,-79.29 -50.93,-90.25 -67.45,-155.93l-123.65 36.26z"/>
   <path class="fil9" d="M8291.21 9957.29c22.02,-113.39 17.31,-119.42 103.35,-164.05 -9.48,133.27 41.44,140.94 -103.35,164.05zm-116.98 -98.5c24.54,-90.56 5.89,-28.86 69.59,-92.76 79.78,26.45 17.76,-4.93 81.35,37.48 -61.72,24.73 -26.29,54.31 -150.94,55.28zm262.9 -491.18c-29.38,110.77 -89.08,182.87 -155.58,249.46 -81.29,81.39 -89.24,118.84 -225.29,165.79 146.67,134.23 129.46,106.08 197.94,98.11l0.68 88.41c24.56,11.48 61.28,36.42 65.89,39.65 37.26,26.09 -15.25,13.59 40.45,26.43 33.81,7.79 92.18,-29.68 125.36,-43.38 46,-54.13 78.92,-61.48 122.73,-106.87 35.36,-36.64 68.93,-89.45 106.91,-131.97l38.99 -75.73 17.77 -190.01c-43.93,-13.13 -41.19,1.64 -68.96,-10.76 -35.38,-15.81 -6.1,-9.55 -65.51,-44.58 -155.91,-91.91 -30.67,-43.78 -123.13,-116.78l-59.41 -15.21 -18.84 67.44z"/>
   <path class="fil15" d="M14579.88 4426.47c-19.78,91.03 16.68,87.63 -65.7,78.56l50.43 38.93c-58.75,130.13 13.93,277.91 -104.67,355.4 -46.12,119.47 -168.11,49.4 -193.73,285.58 57.18,-12.67 58.59,-35.77 99.37,-67.06l3.11 66.94 1.18 91.66 9.19 33.68c71.86,-57.92 71.59,-34.44 140.45,-69.23 97.28,-49.15 82.01,-32.5 104.43,-148.11l-2.36 -21.3c-16.48,-114.84 16.31,-221.86 83.53,-286.48 19.57,-53.84 54.3,-100.22 84.85,-155.13 55.98,-100.6 68.38,-82.3 116.18,-142.99 -26.87,-69.87 116.38,-241.89 -182.14,-231.91l-144.12 171.46z"/>
   <path class="fil8" d="M2595.47 6730.93l-6.09 33.44c44.76,102.57 47.06,43.98 104.83,133.07 -20.83,36.2 -35.74,52.99 -49.01,68.43l78.94 68.82c70.39,22.38 100.37,35.25 183.3,36.69 142.14,21.33 201.71,-20.03 239.32,-114.37 40.65,-102 50.25,-198.42 40.49,-316.02 -23.53,-30.56 -40.7,-60.98 -80.66,-78.17 -38.42,-16.54 -15.91,-1.55 -37.13,-1.63 -69.85,-0.28 -299.31,-220.83 -342.96,197.22 -82.72,-33.87 -32.64,-30.69 -131.03,-27.48z"/>
   <path class="fil16" d="M2311.81 6586.63c44.89,78.63 27.85,135.94 157.79,96.89 49.38,-14.83 72.49,-30.69 99.94,-65.65 37.55,-47.83 10.59,-46.05 62.91,-92.51l-36.98 205.57c98.39,-3.21 48.31,-6.39 131.03,27.48 43.65,-418.05 273.11,-197.5 342.96,-197.22 21.22,0.08 -1.29,-14.91 37.13,1.63 39.96,17.19 57.13,47.61 80.66,78.17l57.81 45.08 -37.79 -191.68c-36.65,-34.7 -21.99,-34.01 -56.64,-77.15 -26.09,-32.47 -29.44,-34.04 -65.16,-58.9 -59.51,-41.44 -92.71,-53.22 -172.94,-83.35 -67.82,9.56 -137.74,1.28 -194.54,33.25 -82.98,46.7 -27.94,79.68 -143.07,81.09 -184.09,2.27 -212.68,-22.42 -263.11,197.3z"/>
   <path class="fil10" d="M13187.77 3462.75c92.52,-129.58 330.25,-113.52 376.34,-0.48 22.05,54.07 8.62,87.73 59.82,140.16 35,-81.32 -0.19,-63.61 59.86,-109.92 169.44,29.2 42.12,191.71 121.25,337.12 55.02,-257.9 153.23,-421.26 -59.88,-606.23 -253.44,-219.96 -389.63,56.23 -657.32,-55.62l22.47 109.32c-5.58,-14.5 -5.6,-18.99 -21.03,-34.81 -41.18,-42.25 -2.41,-11.65 -52.36,-43.06 2.82,138.28 48.06,228.72 150.85,263.52z"/>
   <path class="fil6" d="M10671.55 6976.49c-92.85,32.9 -130.26,63.59 -165.78,156.82 71.85,-55.47 79.8,-94.75 204.85,-80.48 84.46,82.94 141.05,212.05 208.83,314.63 45.13,68.27 172.08,290.91 218.97,325.12l193.67 0.2c-20.7,-183.71 18.83,-263.78 41.62,-427.21 -9.78,-134.76 -66.72,-318.5 -146.44,-369 3.91,66.47 5.28,127.26 -4.6,193.55 -55.42,371.91 -470.4,2.61 -551.12,-113.63z"/>
   <path class="fil6" d="M5199.4 6604.2c-49.06,37.39 -27.63,22.15 -69.7,37.38 -16.96,28.23 15.75,15.45 -27.48,36.32 4.56,2.46 12.76,-0.99 14.67,5.11 12.43,39.62 51.6,-32.18 53.81,38.82 -82.55,87.72 -151.1,41.37 -220.73,115.73 3.54,2.85 9.86,1.69 11.58,7.2 8.16,26.24 118.2,47.78 161.15,49.87l94.86 -1.95 85.25 -10.27c46.22,-55.05 75.61,-105.87 119.97,-146.75 112.82,46.77 411.98,179.23 531.5,115.8l4.27 -229.14 -16.97 -49.58c-136.67,-7.46 -263.4,13.95 -399.08,17.51 -101.89,2.67 -276.51,-49.67 -343.1,13.95z"/>
   <path class="fil8" d="M13099.45 5158.1c37.94,46.92 60.16,108.67 88.22,161.88 36.03,68.34 69.04,101.42 101.7,158.56 81.21,142.09 29.14,244.64 57.72,395.74 19.75,49.78 40.52,78.19 66.15,116.3l90.99 3.11c59.03,-66.87 5.5,-108.28 114.33,-94.25 -4.2,-107.49 -12.8,-108.34 -75.42,-160.71 20.08,-11.99 -7.59,-29.03 90.3,1.27l-19.25 -36.57c-47.33,-40.93 -68.63,-43.69 -123.48,-83.01 -61.87,-25.74 -32.84,12.13 -54.64,-59.18 -2.1,-4.45 -3.66,-10.82 -4.4,-14.07l-22.05 -233.09c-14.09,-96.3 -31.9,-143.96 -32.37,-240.43 -30.94,-92.95 -115.22,-112.43 -232.22,-86.22 -39.44,50.59 -56.37,84.1 -45.58,170.67z"/>
   <path class="fil1" d="M3963.04 7713.71c-121.09,64.09 -212.03,-2.64 -226.65,-7.07 -71.61,-21.68 -93.45,43.77 -133.83,-139.6 228.96,66.19 61.45,97.43 365.01,69.12l-4.53 77.55zm-379.44 -678.61l83.21 -37.2 125.52 59.2c-17.96,80.03 -67.01,138.41 -122,176.96l-31.86 -165.27 -49.52 27 -5.35 -60.69zm0 0c-53.98,52.65 -33.39,66.54 -56.26,152.58l55.9 5.5c-46.67,111.38 -43.24,27.03 -55.47,182.24 -6.53,82.81 -14.18,137.04 -5.73,221.18 23.91,48.37 71.84,136.58 97.23,168.64 48.45,61.18 75.71,40.29 168.14,26.42l233.42 -54.63 -7.03 -87.31 -12.43 -38.1c-71.89,-124.11 -13.17,-73.72 -141.24,-154.3l-86.51 142.29c-84,-17.06 -127.23,-63.68 -146.28,-143.36 11.19,-75.89 102.47,-83.93 142.83,-116.66 32.67,-26.48 32.94,-45.45 57.83,-79.63 0.49,-0.69 26.41,-31.99 28.39,-33.99 26.88,-27.23 5.88,-9.76 38,-29.66 60.69,-114.67 66.76,-101.6 31.15,-242.27l-208.14 -37.08c-20.66,13.33 -53.96,31.33 -78.62,51.55 -55.85,45.77 -27.37,7.83 -55.18,66.59z"/>
   <path class="fil7" d="M8860.43 6463.08c96.07,270.88 41.81,102.85 -7.44,324.81l-2.93 5.57c232.99,-5.52 203.46,-128.94 344.05,-142.32 109.09,65.89 72.19,178.33 222.61,207.05 155.7,29.73 218.62,-48.75 241.31,-174.96 40.08,-222.97 239.3,-155.9 292.4,-575.03 -122.15,138.69 -242.25,361.29 -441.62,444.88 -106.78,44.77 -241.99,86.04 -374.08,65.07 -164.48,-26.1 -184.64,-113.97 -274.3,-155.07z"/>
   <path class="fil3" d="M5884.1 6274.78c187.86,-34.08 301.21,-95.45 453.56,-164.48 3.49,-227.63 12.85,-287.07 71.5,-490.47 -105.43,39.94 -167.16,106.24 -266.13,161.28 -89.25,49.63 -228.48,81.45 -291.27,118.43 49.88,90.78 70.55,258.59 32.34,375.24z"/>
   <path class="fil9" d="M2467.94 7868.59c-27.34,16.35 -35.88,-30.54 -17.61,38.4 -14.59,46.43 -17.45,47.63 -4.13,96.4 116.3,98.78 460.87,363.03 706.58,256.07l11.28 -87.48c7.67,-58.77 11.42,-53.1 -23.87,-106.43 -26.33,-39.78 -30.43,-36.32 -74.89,-64.2 -19.28,0.54 -14.63,0.87 -34.3,-30.7l-22.68 66.17c-52.48,-52.47 -27.16,-24.06 -53.76,-29.94 -64.27,-14.22 -29.3,44.34 -99.88,-147.56l-107.18 5.98 -279.56 3.29z"/>
   <path class="fil8" d="M8949.81 3150.34c152.85,24.17 189.38,-57.19 267.33,-132.01 89.87,-137.64 70.65,-4.86 153.45,-115.66l16.05 -77.69c-92.05,-28.74 -111.23,-0.41 -155.08,-98.65 -32.77,-73.43 -26.94,-148.18 -58.94,-200.41 -38.04,51.79 -188.87,229.96 -257.91,259.54l-127.88 40.58c39.35,183.9 47.21,218.78 162.98,324.3z"/>
   <path class="fil9" d="M13490.37 4078.71l-34.57 16.29 -63.68 8.65c-12.01,197.13 142.98,516.53 271.72,581.7 73.75,-72.15 109.16,-243 140.02,-362.11 34.66,-133.78 84.57,-260.76 117.56,-383.51l-17.62 4.8c-65.19,30.1 -38.78,30.43 -85.68,94.91 -20.24,27.83 -54.38,68.13 -87.66,89.53 -104.16,66.99 -190.29,23.96 -240.09,-50.26z"/>
   <path class="fil6" d="M5097.99 6017.73c32.66,43.74 41.03,35.17 92.53,18.66 79.15,-85.65 73.19,-114.78 108.89,-179.92l24.23 -38.94c-31.27,-60.78 -263.36,-139.22 -381.39,-195.86 -84.58,-40.59 -121.25,-76.04 -184.92,-115.17 -78.24,-48.08 -121.73,-44.08 -212.54,-11.17 -8.18,36.69 1.86,4.16 17.42,44.53 0.86,2.23 3.28,7.86 4.11,10.21l12.35 44.41c29.39,58.96 129.4,88.35 168.94,102.78 39.76,14.52 27.08,5.19 53.74,25.75 27.44,21.16 100.61,116.73 130.49,148.6 48.61,51.84 88.92,103.01 166.15,146.12z"/>
   <path class="fil2" d="M5302.81 6882.41l-6.04 128.4c156.31,67.78 417.59,44.51 572.21,-7.45 212.24,-71.32 322.45,-96.73 558.3,-123.17l-1.57 -37.05 -471.43 8.32c-119.52,63.43 -418.68,-69.03 -531.5,-115.8 -44.36,40.88 -73.75,91.7 -119.97,146.75z"/>
   <path class="fil3" d="M11963.19 6022.89c-90.28,97.51 -259.31,120.36 -333.43,226.53l55.47 113.62 318.83 45.32c79.08,-64.26 51.98,-117.62 -17.31,-186.39 113.69,49.61 97.74,87.88 182.16,157.36 -0.45,-119.19 15.05,-163.55 73.26,-233.05l-11.88 -101.48c-21.55,-66.42 -22.07,-95.44 -111.88,-78.14 -42.54,8.19 -105.22,42.37 -155.22,56.23z"/>
   <path class="fil1" d="M13325.17 6796.62c-10.45,-188.75 -4.48,-273.15 25.8,-454.24 -168.1,28.31 -490.99,64.98 -542.02,215.77 59.75,148.73 330.81,224.62 516.22,238.47z"/>
   <path class="fil4" d="M11448.85 7064.62l-75.14 200.95c-22.79,163.43 -62.32,243.5 -41.62,427.21l10.63 62.82 -0.42 0.12c19.06,83.43 143.36,110.56 201.38,144.9 77.12,45.63 128.92,99.25 229.96,64.81 -46.89,-176.56 -435.24,-625.57 -295.12,-819.37l7.35 -129.2 -37.02 47.76z"/>
   <path class="fil7" d="M4204.97 7885.48c18.9,47.48 56.97,92.04 58.4,131.79 2.29,63.14 -31.01,53.69 -55.66,142.47 214.58,-20.8 209.21,-104.94 337.08,-113.94 98.58,41.47 97.04,127.64 209.51,157.25 126.1,33.2 219.71,-20.74 250.15,-109.81 87.25,-255.32 241.65,-133.22 296.23,-471.35l-111.32 99.74c-101.31,105.5 -198.43,208.16 -344.45,253.31 -365.76,113.07 -402.58,35.48 -639.94,-89.46z"/>
   <path class="fil2" d="M11224.8 6737.38l-126.77 44.24 -16.38 37.2 67.45 6.97c15.89,19.35 6.63,2.86 20.57,32.32l34.7 -6.95 71.93 2.41c33.01,45.31 38.84,59.79 83.53,111.74 45.38,52.76 21.53,48.5 89.02,99.31l37.02 -47.76c77.69,-153.84 192.73,-287.91 324.49,-362.61 70.91,-67.57 149.01,-111.97 233.53,-188.56 -22.21,-59 19,-19.1 -39.83,-57.33l-318.83 -45.32c-49.43,144.98 32.3,90.08 110.63,115.28 4,78.55 -23.08,151.27 -68.87,184.03 -102.5,73.34 -94.93,-10.82 -144.76,-31.98 -2.42,80.72 3.09,4.88 12.3,62.37l3.37 55.88c-99.86,37.25 -241.24,-11.59 -373.1,-11.24z"/>
   <path class="fil8" d="M9495.25 4095.66c43.89,69.66 112.36,178.33 164.22,261.25 49.81,79.62 156.91,201.74 171.17,265.59 -38.16,31.2 -104.89,62.32 -150.65,118.19 -26.97,19.75 -25.43,-18.28 -17.29,40.91 68.97,-7.71 62.89,-14.81 103.78,-51.3 -24.93,88.56 -51.8,28.44 -65.96,98.11 -14.09,69.28 33.83,70.01 85.57,53.94l87.43 -28.78 21.13 -9.3c100.43,-152.24 9.09,-234.22 -37.24,-409.77 -43.84,-166.15 -122.3,-256.64 -171.56,-402.39 -18.91,-25.39 -20.79,-27.33 -44.33,-47.18 -131.77,20.23 -99.76,15.09 -146.27,110.73z"/>
   <path class="fil2" d="M8254.88 9969.38l-0.68 -88.41c-68.48,7.97 -51.27,36.12 -197.94,-98.11 -157.59,-11.34 -78.41,-137.03 -35.87,-227.43 25.4,-61.69 52.07,-74.51 89.64,-129.29 -110.02,-51.71 -136.76,65.93 -236.94,103 -91.62,33.9 -223.8,20.53 -290.85,82.55 37.66,29.11 87.09,38.2 113.51,82.22 53.23,88.69 -81.43,120.14 175.42,146.29 156.04,15.9 79.68,50.11 180,95.21l203.71 33.97z"/>
   <path class="fil9" d="M14205.74 4578.83c-30.71,-136.91 -94.34,-283.81 -51.42,-440.85 66.98,-13.95 113.36,52.22 192.09,99.75 73.96,44.65 157.26,77.05 259.47,85.72 84.66,-104.11 69,-74.05 182.43,-139.85 -215.53,-52.62 -484.93,-207.87 -659.24,-220.45 -5,180.15 -85.47,477.38 76.67,615.68z"/>
   <path class="fil11" d="M7424.44 7653.15c-11.7,-116.11 26.59,-90.94 75.66,-200.97l27.33 -104.92 -4.05 -60.09c-14.84,14.39 -15.16,14.63 -33.29,37.57 -132.58,167.79 -234.81,301.41 -541.53,379.15 -230.99,58.55 -567.96,140.38 -779.15,179.47 372.52,72.56 996.12,-168.25 1255.03,-230.21z"/>
   <path class="fil4" d="M9662.7 4781.6c-202.69,8.3 -380.36,108.44 -506.55,201.47 -73.04,53.84 -126.63,88.84 -185.99,153.5 -31.12,33.9 -128.85,151.76 -121.04,200.43l94.35 8.61c55.58,-41.2 46.82,-7.95 46.39,-87.43l-26.12 -66.77c67.2,-27.35 52.55,-19.12 81.91,-69.19l121.33 -91.56c1.83,-3.2 4.28,-10.24 7.17,-14.96 69.1,5.71 25.03,-1 73.66,-6.81 73.4,-8.77 126.34,12.79 173.06,68.38l20.83 30.58 3.15 -21.85c48.03,-72.56 151.76,-150.34 271.66,-166.12 25.74,14.76 7.44,12.24 27.32,48.15l60.33 65.24c2.3,3.24 6.28,9.75 9.91,14.25 6.46,-90.37 10.64,-86.49 -27.98,-165.17 -51.74,16.07 -99.66,15.34 -85.57,-53.94 14.16,-69.67 41.03,-9.55 65.96,-98.11 -40.89,36.49 -34.81,43.59 -103.78,51.3z"/>
   <path class="fil3" d="M9095.04 7618.33l-5.7 29.19c34.5,27.07 10.28,-4.17 35.78,34.55 28.13,42.74 24.17,74.83 35.45,110.47l20.51 47.91c22.9,-57.35 33.63,-65.35 65.29,-109.6 2.72,3.66 5.36,5.92 5.88,12.33l12.17 53.77c7.71,48.73 -2.71,26.04 19.75,75.31 148.27,-26.12 212.02,-5.26 315.92,-66.69l17.77 -84.68c-43.15,-47.16 -159.46,-101.74 -215.48,-133.49 -93.5,-52.98 -152.83,-99.68 -276.53,-97.22l-30.81 128.15z"/>
   <path class="fil1" d="M8421.36 4171.83c46.22,29.53 65.25,45.51 112.67,74.23 64.75,39.2 70.57,47.09 116.93,103.7l141.95 -205.65c7.2,-85.54 29.04,-120.89 28.82,-221.63 -0.32,-142.5 0.24,-106.7 -87.6,-157.19 -79.11,17.33 -115.02,132.56 -152.36,204.79 -120.48,233.04 -75.42,109.37 -160.41,201.75z"/>
   <path class="fil1" d="M9383.47 5431.61c-43.28,-12.85 -97.43,-60.84 -85.96,-107.84 16.96,-69.5 224.9,-93.05 233.3,76.68 -37.45,26.92 -80.49,51.03 -147.34,31.16zm61.38 -345.61l-3.15 21.85 -107.74 55.62 -39.27 -20.24c-97.76,1.08 -16.93,-6.76 -46.97,14 -3.57,2.47 -12.78,14.49 -15.13,16.76l-18.53 17.98c-21.38,-3.3 -92.8,-12.28 -109.42,-18.59 -65.28,-24.8 -31.42,-4.44 -58.99,-51.16 -29.36,50.07 -14.71,41.84 -81.91,69.19l26.12 66.77c71.49,-77.41 131.99,-22.5 176.82,51.73 86.48,143.19 -53.18,24.83 22.86,140.99 178.81,-24.14 66.33,74.3 241.6,24.96 83.86,-23.61 162.09,-50.65 191.45,-121.2l26.71 -95.67c-74.93,-28.63 -92.38,-1.55 -152.6,-79.04 116.79,-52.32 116.47,-62.18 195.94,-142.6 -3.15,-2.22 -9.01,-4.4 -10.7,-4.4l-39.24 14.6c-39.11,32.79 10.78,5.23 -52.94,49.94 -44.39,31.15 -87.27,48.93 -154.91,50.78l10 -62.27z"/>
   <path class="fil3" d="M6794.96 5923.47c4.12,-3.43 9.96,-14.52 11.63,-11.11 14.69,30.06 84.97,-211.56 195.3,-234.35 154.58,-31.94 224.3,74.32 218.9,215.38 2.4,5.06 5.2,7.3 5.83,15.74 0.64,8.42 4.4,11.99 5.13,15.95 4.33,23.81 6.15,19.71 6.55,50.54 2.55,198.01 -156.7,454.26 -199.48,565.64 296.16,99.94 292.14,-465.99 254.25,-676.06 -25.06,-138.96 -122.77,-237.86 -273.96,-235.53 -177.56,2.75 -194.49,128.72 -224.15,293.8z"/>
   <path class="fil14" d="M14205.74 4578.83c35.21,60.34 42.81,73.74 125.96,45.11l-96.06 -229.93 278.54 111.02c82.38,9.07 45.92,12.47 65.7,-78.56l26 -103.02c-102.21,-8.67 -185.51,-41.07 -259.47,-85.72 -78.73,-47.53 -125.11,-113.7 -192.09,-99.75 -42.92,157.04 20.71,303.94 51.42,440.85z"/>
   <path class="fil15" d="M5190.52 6036.39c129.98,70.14 255.74,145.06 415.76,205.47 8.32,-49.85 98.32,-241.89 35.99,-296.58l-260.03 -66.72c-101.56,-47.56 -38.73,10.94 -58.6,-61.03l-24.23 38.94c-35.7,65.14 -29.74,94.27 -108.89,179.92z"/>
   <path class="fil4" d="M12004.06 6408.36c58.83,38.23 17.62,-1.67 39.83,57.33 -84.52,76.59 -162.62,120.99 -233.53,188.56 88.04,114.14 216.31,-99.97 277.1,-142.25 63.23,74.79 25.95,147.18 59.86,225.34 79.39,-168.65 160.74,-198.06 279.36,-57.54 25.16,-20.49 9.91,3.65 19.82,-42.86 -57.74,-58.52 -139.31,-123.45 -177.13,-181.98 -60.47,-93.59 -18.87,-187.54 -27.2,-308.68 -58.21,69.5 -73.71,113.86 -73.26,233.05 -84.42,-69.48 -68.47,-107.75 -182.16,-157.36 69.29,68.77 96.39,122.13 17.31,186.39z"/>
   <path class="fil14" d="M13082.69 4948.55c150.57,-44.86 116.82,-34.79 269.06,5.69l21.7 -119.67 -4.47 -25.99c-29.83,-91.85 -76.59,-169.74 -109.9,-260.13 -32.56,-88.36 -51.88,-214.18 -90.34,-291.79l-86.05 691.89z"/>
   <path class="fil17" d="M7500.1 7452.18c146.34,-12.59 178.35,60.52 276.56,104.55 97.2,43.57 229.27,39.21 167.79,173.36 26.19,76.2 -17.05,25.52 57.71,81.6 28.64,21.49 66.49,33.5 95.15,41.6 69.21,-46.1 127.2,-47.95 56.57,-194.2 -34.86,-72.17 -95.19,-116.24 -173.32,-146.58 -94.03,-36.52 -128.64,-21.65 -223.81,-76.05 -88.98,-50.86 -107.82,-68.93 -229.32,-89.2l-27.33 104.92z"/>
   <path class="fil9" d="M13462.42 7703.83c24.45,47.1 10.16,19.64 25.68,67.08 -57.71,-38.52 -40.53,-36.06 -132.21,-38.92l39.25 67.45 -90.48 -33.51 0 70.17c-100.52,-77.49 -180.78,11.09 -238.49,87.33 85.5,58.36 218.98,12.31 326.4,-21 119.37,-37.01 247.56,-24.06 350.22,-74.06l-16.47 -109.01 2.88 -69.59c-207.97,56.06 -68.62,29.96 -225,-19.4l-41.78 73.46z"/>
   <path class="fil8" d="M5958.55 6622.32l-4.27 229.14 471.43 -8.32 103.69 -23.7 -128.87 -0.53c-38.7,-96.55 -8.58,-169.58 -80.9,-259.44 -98.76,70.24 -221.14,64.24 -361.08,62.85z"/>
   <path class="fil6" d="M10706.66 8214.56l441.83 67.05 63.18 -153.22c-201.28,-16.08 -270.1,-38.5 -349.88,-179.17l-90.71 -19 -112.38 244.08 47.96 40.26z"/>
   <path class="fil7" d="M7649.35 7648.19c60.13,29.72 110.08,48.62 155.59,80.25l243.84 237.54c45.98,87.64 11.58,105.02 -77.37,102.12 3.1,4.69 8.62,5.52 10.5,13.18l94.39 90.85c54.11,19 92.39,43.13 166.24,46.1 23.47,-176.03 -20.54,-293.94 -145.23,-364.94 -28.66,-8.1 -66.51,-20.11 -95.15,-41.6 -74.76,-56.08 -31.52,-5.4 -57.71,-81.6 -78.53,-44.31 -171.73,-207.16 -295.1,-81.9z"/>
   <path class="fil14" d="M2986.58 7831l59.16 41.54 -48.13 15.38 67.69 113.43c44.46,27.88 48.56,24.42 74.89,64.2 35.29,53.33 31.54,47.66 23.87,106.43l213.51 -2.45 31.11 -138.73c-53.7,-125.66 -177.39,-193.68 -329.66,-255.22l-92.44 55.42z"/>
   <path class="fil18" d="M7395.96 4299.71c6.62,-0.52 42.04,-5.91 47.32,-5.85 64.72,0.72 33.84,0.48 57.34,10.22 -88.13,29.01 -16.06,0.31 -51.62,48.69 23.86,76.02 18.39,35.04 79.93,89.85l-82.03 79.63 134.99 -6.64c-32.02,-49.57 -51.79,14.66 3.71,-43.51 21.5,-22.54 -1.11,4.68 39.7,-20.85 33.61,-21.02 57.57,-41.2 64.88,-74.43 9.37,-42.67 -43.44,-130.77 -52.35,-213.67l-96.91 0.06c-13.5,-78.4 -12.19,-132.56 -53.84,-183.18 -32.32,69.65 -65.47,120.95 -106.93,166.46 -38.2,41.91 -54.18,37.6 -56.37,77.31 -4.16,75.39 31.04,61.14 72.18,75.91z"/>
   <path class="fil19" d="M8110.03 9426.14c-37.57,54.78 -64.24,67.6 -89.64,129.29 -21.87,77.44 -48.95,53.96 -18.79,174.42 117.35,18.52 156.35,-72.03 255.56,-157.22 65.83,-56.53 172.72,-199.1 122.99,-288.13l-67.64 -11.53c-108.14,47.18 -136.88,84.55 -202.48,153.17z"/>
   <path class="fil8" d="M7568.35 7689.12l7.7 186.04c171.04,-21.91 278.1,130.75 395.36,192.94 88.95,2.9 123.35,-14.48 77.37,-102.12l-243.84 -237.54c-45.51,-31.63 -95.46,-50.53 -155.59,-80.25 -27.51,16.95 -43.32,23.6 -81,40.93z"/>
   <path class="fil20" d="M6358.17 6454.99c-30.32,69.18 -26.9,23.33 -38.54,104.48 72.32,89.86 42.2,162.89 80.9,259.44l128.87 0.53c70.97,-3 87.14,-4.83 123.02,-45.19 6.39,-168.37 -97.05,-272.65 -189.14,-356.58 -57.35,7.02 -71.24,16.91 -105.11,37.32z"/>
   <path class="fil21" d="M5201.64 8535.65l42.92 143.44c32.74,69.91 69.96,137.44 113.6,198.27 28.95,40.37 42.24,50.19 75.26,84.22 38.85,40.02 19.83,29.03 69.81,68.51l72.85 -37.09c-16.15,-146.48 -166.95,-431.88 -312.94,-494.83 -30.63,14.96 -36.12,17.21 -61.5,37.48z"/>
   <path class="fil3" d="M10704.76 6926.21l-33.21 50.28c80.72,116.24 495.7,485.54 551.12,113.63 9.88,-66.29 8.51,-127.08 4.6,-193.55l-22.9 -45.41 -34.7 6.95c12.15,147.56 5.19,113.98 -20.05,226.46 -76.75,-43.72 73.68,71.28 -37.11,-43.99 -3.39,-3.53 -6.44,-8.16 -10.42,-11.83 -4.55,-4.2 -8.18,-8.02 -13.25,-12.16 -5.76,-4.71 -10.68,-7.76 -16.5,-12.04l-39.93 -23.75 -37.05 159.31c-66.19,-21.92 -150.82,-97.63 -200.67,-145.62l-89.93 -68.28z"/>
   <path class="fil22" d="M13559.67 5507.5l-123.6 53.74c21.8,71.31 -7.23,33.44 54.64,59.18 211.52,-26.28 636.5,-287.27 879.16,-343.94l-1.18 -91.66 -425.49 169.75c-15.87,-13.11 -24.85,27.72 -28.73,-43.68 -29.92,105.68 -245.45,163.1 -354.8,196.61z"/>
   <path class="fil3" d="M14369.87 5276.48c-242.66,56.67 -667.64,317.66 -879.16,343.94 54.85,39.32 76.15,42.08 123.48,83.01 29.47,-54.21 9.34,-47.79 129.84,-108.43 52.54,-26.44 99.52,-44.69 154.03,-66.88l792.37 -325.36c92.04,-38.09 103.31,-51.37 193.14,-49.94 -13.62,-63.36 -42.39,-46.98 -125.39,-58.68l-146.81 68.21 12.57 -69.53c-22.42,115.61 -7.15,98.96 -104.43,148.11 -68.86,34.79 -68.59,11.31 -140.45,69.23l-9.19 -33.68z"/>
   <path class="fil1" d="M13377.25 5073.65c0.47,96.47 18.28,144.13 32.37,240.43l22.05 233.09c0.74,3.25 2.3,9.62 4.4,14.07l123.6 -53.74c-21.66,-293.67 -33.31,-482.94 -190.69,-698.92l4.47 25.99 3.8 239.08z"/>
   <path class="fil7" d="M2481.93 7405.12c34.47,41.21 22.51,9.09 43.7,98.53 10.22,43.11 18.71,67.12 29.47,106.44l55.12 18.14c31.78,-42.67 70.45,-34.13 131.85,-40.8 31.9,-44.18 -16.62,-129.27 -24.81,-211.32 -12.9,-129.17 -9.14,-124.07 -88.06,-184.14 -59.4,22.02 -62.76,45.07 -96.2,103.46 -61.2,106.87 -38.84,22.18 -51.07,109.69z"/>
   <path class="fil20" d="M14331.7 4623.94l128.24 275.42c118.6,-77.49 45.92,-225.27 104.67,-355.4l-50.43 -38.93 -278.54 -111.02 96.06 229.93z"/>
   <path class="fil4" d="M8905.22 5580.32c43.1,90.71 16.95,66.69 29.48,147.49 177.8,28.79 483.23,-26.7 531.21,-158.51 -363.51,60.36 -536.68,36.23 -681.47,-214.16 -4.08,67.07 8.78,87.46 36.55,138.35 33.99,62.29 18.72,68.64 84.23,86.83z"/>
   <path class="fil4" d="M8915.7 8065.76c19.79,39.93 -31.34,34.15 38.65,31.19 118.35,-195.55 230.17,56.43 230.21,56.48l23.45 -199.21c118.23,39.26 177.75,246.01 252.31,112.72 -67.15,-37.76 -162.52,-111.79 -196.63,-158.45l20.48 -36.23c-22.46,-49.27 -12.04,-26.58 -19.75,-75.31l-12.17 -53.77c-0.52,-6.41 -3.16,-8.67 -5.88,-12.33 -31.66,44.25 -42.39,52.25 -65.29,109.6l-20.51 -47.91c-11.28,-35.64 -7.32,-67.73 -35.45,-110.47 -25.5,-38.72 -1.28,-7.48 -35.78,-34.55 4.27,101.2 25.7,204.68 -24.9,278.53 -44.19,64.49 -109.35,99.85 -148.74,139.71z"/>
   <path class="fil16" d="M6652.42 6774.25c-35.88,40.36 -52.05,42.19 -123.02,45.19l-103.69 23.7 1.57 37.05 14.75 56.25c320.61,-45.69 436.6,-213.6 568.09,-395.18l-88.38 -60.41 -269.32 293.4z"/>
   <path class="fil3" d="M6623.66 5416.28l-92.7 51.71c11.18,148.83 45.82,245.89 128.97,333.31l21.46 -19.59c1.99,-2.19 7.58,-7.65 9.96,-10.39 2.38,-2.73 6.67,-7.88 9.23,-10.97l112.71 -146.81c51.51,-72.21 92.22,-119.49 143.58,-201.16l7.66 -12.88 -141.38 -16.65c9.06,163.21 -33.23,227.41 -216.04,157.05l16.55 -123.62z"/>
   <path class="fil23" d="M7424.44 7653.15l112.17 -23.54 31.74 59.51c37.68,-17.33 53.49,-23.98 81,-40.93 123.37,-125.26 216.57,37.59 295.1,81.9 61.48,-134.15 -70.59,-129.79 -167.79,-173.36 -98.21,-44.03 -130.22,-117.14 -276.56,-104.55 -49.07,110.03 -87.36,84.86 -75.66,200.97z"/>
   <path class="fil2" d="M11629.76 6249.42c74.12,-106.17 243.15,-129.02 333.43,-226.53l-453.08 -28.5c42.05,134.67 -42.59,231.77 119.65,255.03z"/>
   <path class="fil7" d="M10704.76 6926.21l89.93 68.28c49.85,47.99 134.48,123.7 200.67,145.62l37.05 -159.31 39.93 23.75c5.82,4.28 10.74,7.33 16.5,12.04 5.07,4.14 8.7,7.96 13.25,12.16 3.98,3.67 7.03,8.3 10.42,11.83 110.79,115.27 -39.64,0.27 37.11,43.99 25.24,-112.48 32.2,-78.9 20.05,-226.46 -13.94,-29.46 -4.68,-12.97 -20.57,-32.32l-67.45 -6.97 -14.99 156.78c-162.53,6.86 -216.05,-59.42 -291.44,-150.15 -52.37,44.65 -39.37,13.7 -70.46,100.76z"/>
   <path class="fil7" d="M4262.88 7327.7c215.57,4.56 387.35,15.62 556.33,-110.94 -39.86,-23.83 -124.04,-0.39 -173.5,3.69 -122.42,10.11 -269.21,-4.99 -371.74,-70.94l-102.41 -75.65c-47.44,-17.22 17.86,-30.68 -34.68,-1.25 54.35,123.49 169.63,138.29 126,255.09z"/>
   <path class="fil8" d="M2610.22 7628.23c92.39,186.25 84.59,121.98 244.46,231.09 70.58,191.9 35.61,133.34 99.88,147.56 26.6,5.88 1.28,-22.53 53.76,29.94l22.68 -66.17c19.67,31.57 15.02,31.24 34.3,30.7l-67.69 -113.43 48.13 -15.38 -59.16 -41.54c-71.91,-6.05 -100.37,-47.19 -144.4,-88.91 -49.41,-46.82 -80.48,-72.86 -100.11,-154.66 -61.4,6.67 -100.07,-1.87 -131.85,40.8z"/>
   <path class="fil3" d="M4001.37 7611.62l-7.32 -144.57 -155.08 -113.25 55.42 -157.49c-32.12,19.9 -11.12,2.43 -38,29.66 -1.98,2 -27.9,33.3 -28.39,33.99 -24.89,34.18 -25.16,53.15 -57.83,79.63 -40.36,32.73 -131.64,40.77 -142.83,116.66 19.05,79.68 62.28,126.3 146.28,143.36l86.51 -142.29c128.07,80.58 69.35,30.19 141.24,154.3z"/>
   <path class="fil7" d="M3039.69 7398.45l207.03 46.05 46.14 -68.51 33.39 -112.43c-0.68,-0.63 -296.51,-117.28 -332.23,-131.33 52.94,88.05 50.37,132.6 45.67,266.22z"/>
   <path class="fil9" d="M8762.61 6582.04c-113.67,38.25 -72.56,20.19 -164.43,-16.75 -44.77,60.73 -36.79,41.12 -13.76,101.24 -41.06,-27.96 -0.79,-14.81 -68.75,-26.32 -2.12,3.08 -4.61,5.23 -5.05,10.03l-13.6 35.68c-0.34,0.99 -1.11,5.54 -2.43,7.98l-58.74 21.97c-73.5,-43.43 -168.96,-2.13 -160.56,91.68l469.28 -80.46c39.09,-26.21 36.02,28.97 18.04,-145.05z"/>
   <path class="fil7" d="M11773.64 7965.43c50.27,-40.79 55.27,-29.23 88.58,-67.83 -28.27,-42.84 -37.31,-43.68 -72.18,-83.82 -197.53,-227.36 -232.12,-384.01 -311.52,-667.72 -140.12,193.8 248.23,642.81 295.12,819.37z"/>
   <path class="fil15" d="M13490.37 4078.71c49.8,74.22 135.93,117.25 240.09,50.26 33.28,-21.4 67.42,-61.7 87.66,-89.53 46.9,-64.48 20.49,-64.81 85.68,-94.91 -88.53,-50.77 -66.38,11.44 -118.85,-79.46 -61.34,30.88 -76.85,89.41 -133.01,128.08l-161.57 85.56z"/>
   <path class="fil19" d="M6921.74 6480.85l88.38 60.41 28.7 0c42.78,-111.38 202.03,-367.63 199.48,-565.64 -0.4,-30.83 -2.22,-26.73 -6.55,-50.54 -0.73,-3.96 -4.49,-7.53 -5.13,-15.95 -0.63,-8.44 -3.43,-10.68 -5.83,-15.74 -32.5,199 -199.33,469.9 -299.05,587.46z"/>
   <path class="fil23" d="M10775.22 6825.45c75.39,90.73 128.91,157.01 291.44,150.15l14.99 -156.78 16.38 -37.2c-102.84,8.25 -176.69,-4.77 -270.7,-50.96l-42.52 0.25 -9.59 94.54z"/>
   <path class="fil9" d="M9692.64 5037.35c-79.47,80.42 -79.15,90.28 -195.94,142.6 60.22,77.49 77.67,50.41 152.6,79.04l-26.71 95.67c112.18,-44.9 166.69,-169.32 191.48,-307.14 -3.63,-4.5 -7.61,-11.01 -9.91,-14.25l-60.33 -65.24c-20.46,65.99 2.81,36.73 -51.19,69.32z"/>
   <path class="fil9" d="M8989.86 5258.18c0.43,79.48 9.19,46.23 -46.39,87.43l44.19 4.75c-50.76,46.84 -29.58,11.04 -37.06,110.77l202.66 45.8c25.93,-28.05 21.47,-11.73 36.28,-56.03 -76.04,-116.16 63.62,2.2 -22.86,-140.99 -44.83,-74.23 -105.33,-129.14 -176.82,-51.73z"/>
   <path class="fil8" d="M8598.18 6565.29c91.87,36.94 50.76,55 164.43,16.75l28.15 -250.94 -182.21 -2.18 -10.37 236.37z"/>
   <path class="fil15" d="M6618.54 5350.98l-70.25 35.51 71.6 -7.25 3.77 37.04 -16.55 123.62c182.81,70.36 225.1,6.16 216.04,-157.05l-7.55 -61.98c-99.4,40.69 -81.33,51.75 -197.06,30.11z"/>
   <path class="fil10" d="M2311.81 6586.63c-34.98,139.72 31.61,231.56 160.68,237.51 15.3,-5.97 30.83,-12.73 44.3,-19.8 4.91,-2.58 20.85,-11.86 26.3,-14.84l30.34 -16.52c3.89,-2.13 10.59,-5.82 15.95,-8.61l6.09 -33.44 36.98 -205.57c-52.32,46.46 -25.36,44.68 -62.91,92.51 -27.45,34.96 -50.56,50.82 -99.94,65.65 -129.94,39.05 -112.9,-18.26 -157.79,-96.89z"/>
   <path class="fil19" d="M9045.65 5122.22c27.57,46.72 -6.29,26.36 58.99,51.16 16.62,6.31 88.04,15.29 109.42,18.59l18.53 -17.98c2.35,-2.27 11.56,-14.29 15.13,-16.76 30.04,-20.76 -50.79,-12.92 46.97,-14l-60.95 -42c51.95,-24.65 72.21,-10.47 112.24,7.05l-12.02 55.19 107.74 -55.62 -20.83 -30.58c-46.72,-55.59 -99.66,-77.15 -173.06,-68.38 -48.63,5.81 -4.56,12.52 -73.66,6.81 -2.89,4.72 -5.34,11.76 -7.17,14.96l-121.33 91.56z"/>
   <path class="fil2" d="M7487.08 3980.03c41.65,50.62 40.34,104.78 53.84,183.18l96.91 -0.06c8.91,82.9 61.72,171 52.35,213.67 -7.31,33.23 -31.27,53.41 -64.88,74.43 -40.81,25.53 -18.2,-1.69 -39.7,20.85 -55.5,58.17 -35.73,-6.06 -3.71,43.51 140.36,-55.39 181.75,-102.34 170.93,-275.76 -64.88,-58.17 -40.75,-24.07 -89.69,-98.74 -44.6,-68.04 -57.56,-51.73 -100.77,-96.5 -5.9,-63.31 -27.94,-135.69 -75.28,-64.58z"/>
   <path class="fil1" d="M8020.39 9555.43c-42.54,90.4 -121.72,216.09 35.87,227.43 136.05,-46.95 144,-84.4 225.29,-165.79 66.5,-66.59 126.2,-138.69 155.58,-249.46 3.95,-46.15 10.12,-84.68 -30.57,-107.72 -55.43,-31.4 -74.57,1.18 -94.05,13.08l67.64 11.53c49.73,89.03 -57.16,231.6 -122.99,288.13 -99.21,85.19 -138.21,175.74 -255.56,157.22 -30.16,-120.46 -3.08,-96.98 18.79,-174.42z"/>
   <path class="fil10" d="M9217.14 3018.33l-1.38 160.4 4.02 120.09 2.21 -38.29 98.24 9.16 50.36 -367.02c-82.8,110.8 -63.58,-21.98 -153.45,115.66z"/>
   <path class="fil8" d="M8948.25 3258.33c1.99,77.03 11.09,92.24 105.36,93.37 71.49,0.86 117.1,-21.41 166.17,-52.88l-4.02 -120.09c-20.22,-28.38 -15.6,40.23 -35.46,-71.54 -18.22,87.74 -125.23,148.88 -232.05,151.14z"/>
   <path class="fil19" d="M9444.85 5086l-10 62.27c67.64,-1.85 110.52,-19.63 154.91,-50.78 63.72,-44.71 13.83,-17.15 52.94,-49.94l39.24 -14.6c1.69,0 7.55,2.18 10.7,4.4 54,-32.59 30.73,-3.33 51.19,-69.32 -19.88,-35.91 -1.58,-33.39 -27.32,-48.15 -119.9,15.78 -223.63,93.56 -271.66,166.12z"/>
   <path class="fil10" d="M6815.6 5320.87l7.55 61.98 141.38 16.65 192.19 -5.25c-40.57,-46.4 -60.87,-24.01 -109.24,-81.31l-67.43 -133.23c-33.12,62.6 -83.5,126.35 -164.45,141.16z"/>
   <path class="fil15" d="M3326.25 7263.56l-33.39 112.43 207.42 3.29 21.76 217.32c-8.45,-84.14 -0.8,-138.37 5.73,-221.18 12.23,-155.21 8.8,-70.86 55.47,-182.24l-55.9 -5.5c-88.01,118.91 -91.26,48.48 -201.09,75.88z"/>
   <path class="fil22" d="M3717.4 6916.96l208.14 37.08 23.3 -153.83c-58.4,-21.38 -138.72,-47.8 -202.56,-22.52l-28.88 139.27z"/>
   <path class="fil3" d="M3963.04 7713.71l4.53 -77.55c-303.56,28.31 -136.05,-2.93 -365.01,-69.12 40.38,183.37 62.22,117.92 133.83,139.6 14.62,4.43 105.56,71.16 226.65,7.07z"/>
   <path class="fil8" d="M7562.36 4044.61c43.21,44.77 56.17,28.46 100.77,96.5 48.94,74.67 24.81,40.57 89.69,98.74 -13.92,-15.69 -15.16,-16.69 -26.33,-38.03 51.73,-77.77 60.36,-122.4 20.92,-231.4 -62.51,-1.57 -75.97,-36.89 -199.96,-33.6l54.3 41.86c0.19,0.11 34.83,1.71 54.06,44.83l-93.45 21.1z"/>
   <path class="fil1" d="M8912.25 5134.67c73.11,-52.87 98.35,-55.62 127.17,-143.43 3.22,-88.01 4.7,-225.86 -24.9,-288.62 -72.17,108.97 -80.93,296.46 -102.27,432.05z"/>
   <path class="fil4" d="M9530.81 5400.45c-8.4,-169.73 -216.34,-146.18 -233.3,-76.68 -11.47,47 42.68,94.99 85.96,107.84 66.85,19.87 109.89,-4.24 147.34,-31.16z"/>
   <path class="fil20" d="M11817.37 7581.14c16.46,41.7 38.43,107.3 74.47,129.37 37.04,22.69 35.47,8.05 75.72,24.39l36.13 20.34c2.98,1.87 8.66,9.83 13.33,12.94 57.66,-141.41 56.03,-91.91 13.8,-204.66 -61.34,31.29 -144.69,30.75 -213.45,17.62z"/>
   <path class="fil24" d="M14605.88 4323.45l-26 103.02 144.12 -171.46c298.52,-9.98 155.27,162.04 182.14,231.91 43.56,-52.87 67.12,-113.97 45.6,-194.26 -20.89,-77.92 -80.61,-93.54 -163.43,-109.06 -113.43,65.8 -97.77,35.74 -182.43,139.85z"/>
   <path class="fil20" d="M11952.51 7376.74l129.9 -2.79c-48.77,-57.9 -14.24,-69.69 54.99,-185.45 -132.14,-5.99 -98.3,-21.31 -243.36,88.13 31.76,33.99 32.18,50.75 58.47,100.11z"/>
   <path class="fil23" d="M11227.27 6896.57c79.72,50.5 136.66,234.24 146.44,369l75.14 -200.95c-67.49,-50.81 -43.64,-46.55 -89.02,-99.31 -44.69,-51.95 -50.52,-66.43 -83.53,-111.74l-71.93 -2.41 22.9 45.41z"/>
   <path class="fil11" d="M2747.5 7865.3l107.18 -5.98c-159.87,-109.11 -152.07,-44.84 -244.46,-231.09l-55.12 -18.14c-10.76,-39.32 -19.25,-63.33 -29.47,-106.44 -21.19,-89.44 -9.23,-57.32 -43.7,-98.53l16.01 217c5.01,3.25 11.93,6.71 15.68,8.73 167.02,90.15 -0.64,80.87 233.88,234.45z"/>
   <path class="fil16" d="M2472.49 6824.14c22.55,90.36 64.05,159.35 172.71,141.73 13.27,-15.44 28.18,-32.23 49.01,-68.43 -57.77,-89.09 -60.07,-30.5 -104.83,-133.07 -5.36,2.79 -12.06,6.48 -15.95,8.61l-30.34 16.52c-5.45,2.98 -21.39,12.26 -26.3,14.84 -13.47,7.07 -29,13.83 -44.3,19.8z"/>
   <path class="fil19" d="M13082.69 4948.55c-28.92,84.13 -44.94,61.33 -30.6,168.82l47.36 40.73c-10.79,-86.57 6.14,-120.08 45.58,-170.67 117,-26.21 201.28,-6.73 232.22,86.22l-3.8 -239.08 -21.7 119.67c-152.24,-40.48 -118.49,-50.55 -269.06,-5.69z"/>
   <path class="fil20" d="M13066.17 7923.43c0.03,86.33 77.71,70.12 157.31,59.91 101.66,-3.51 178.04,-57.8 260.8,-73.28 60.06,-11.23 98.82,-1.46 158.98,-5.04 101.41,-6.03 93.82,-9.6 99.53,-76.65 -102.66,50 -230.85,37.05 -350.22,74.06 -107.42,33.31 -240.9,79.36 -326.4,21z"/>
   <path class="fil20" d="M12247.09 7412.51c-14.04,52.3 -9.02,44.72 -38.01,83.66l39.79 38.45c31.43,36.05 -0.24,-14.05 32.46,47.19l48.77 97.76c44.77,-122.22 81.49,-83.54 41.28,-208.11 -2,-6.22 -9.87,-26.48 -11.54,-30.89l-112.75 -28.06z"/>
   <path class="fil1" d="M9321.57 6432.51c80.44,-102.56 87.48,37.2 182.73,-153.77 -11.69,-6.39 -8.06,-8.27 -51.64,-17.54 -15.51,-3.3 -39.57,-2.43 -55.47,-6.09 -39.99,-9.22 -33.2,-9.33 -55.15,-32.22l-59.06 96.49 38.59 113.13z"/>
   <path class="fil3" d="M3583.6 7035.1l5.35 60.69 49.52 -27 31.86 165.27c54.99,-38.55 104.04,-96.93 122,-176.96l-125.52 -59.2 -83.21 37.2z"/>
   <path class="fil1" d="M9412.5 6056.72c17.87,-21.03 32.31,-44.79 70.58,-65.52l-20.55 -33.87c-2.62,-4.14 -14.44,-23.58 -18.03,-28.63 -56.96,-80.28 -115.47,-72.24 -175.4,-32.02l56.06 74.46c13.64,48.07 -0.96,54.94 -21.06,86.87l108.4 -1.29z"/>
   <path class="fil25" d="M11211.67 8128.39l2.76 -48.79c-18.42,-10.51 -341.17,-127.68 -352.64,-130.38 79.78,140.67 148.6,163.09 349.88,179.17z"/>
   <path class="fil1" d="M9094.34 6082.79c-4.36,5.02 -20.32,14.92 -23.37,18.26 -1.92,2.1 -6.66,6.83 -8.51,9.22 -14.18,18.37 -51.93,106.62 -35.28,150.49 50.98,134.29 -3.36,21.24 63.78,74.42 9.39,-55.19 2.52,-50.8 39.19,-101.77 2.47,-3.44 6.33,-7.85 8.95,-11.1 2.61,-3.24 7.21,-7.05 9.87,-10.15 2.64,-3.09 7.56,-6.88 10.1,-9.83l31.99 -46.38c-60.57,-98.06 23.95,-52.39 -96.72,-73.16z"/>
   <path class="fil23" d="M8949.81 3150.34l8.5 90.41 -10.06 17.58c106.82,-2.26 213.83,-63.4 232.05,-151.14 19.86,111.77 15.24,43.16 35.46,71.54l1.38 -160.4c-77.95,74.82 -114.48,156.18 -267.33,132.01z"/>
   <path class="fil20" d="M11952.51 7376.74l-64.59 -22.33 -59.52 84.54c-26.65,54.45 -42.1,135.74 57.38,118.38 48.27,-8.42 20.62,-3.76 45.95,-36.3 34.48,-44.28 10.4,-37.65 58.12,-78.8 -14.26,-31.86 -23.61,-47.65 -37.34,-65.49z"/>
   <path class="fil20" d="M12250.67 7719.98c0.13,-0.87 70.12,-58.48 -8.86,-98.73 -47.13,-24.01 -110.45,-14.31 -163.14,-15.32l0.29 133.08c78.02,0.56 112.04,9.84 171.71,-19.03z"/>
   <path class="fil20" d="M12247.09 7412.51l60.6 -56.04c-32.53,-80.28 -51.08,-146.17 -157.37,-142.17 -35.03,98.99 7.72,107.55 41.52,201.91l55.25 -3.7z"/>
   <path class="fil19" d="M7258.56 4156.92c94.95,-33.81 150.12,-108.09 167.22,-225.05 -79.03,4.1 -100.84,14.46 -143.16,76.16 -83.05,121.08 -24.27,148.43 -24.06,148.89z"/>
   <path class="fil10" d="M2912.53 6274.99c80.23,30.13 113.43,41.91 172.94,83.35 35.72,24.86 39.07,26.43 65.16,58.9 34.65,43.14 19.99,42.45 56.64,77.15 65.4,-164.41 -191.24,-263.11 -254.04,-249.23 -80.35,17.75 -24.69,2.33 -40.7,29.83z"/>
   <path class="fil1" d="M9412.5 6056.72c-3.36,3.78 -8.54,10.04 -9.77,11.6l-21.52 30.8c35.47,82.65 27.98,138 112.21,133.76 32.91,-14.53 52.25,-11.07 31.77,-103.69 -11.24,-50.85 -17.94,-39.83 -28.97,-101.15l-83.72 28.68z"/>
   <path class="fil1" d="M9288.79 6266.3c-136.15,4.17 -183.85,-21.28 -181.84,127.97l167.02 6.13 14.82 -134.1z"/>
   <path class="fil20" d="M9276.39 9019.19c114.37,-53.84 129.39,-6.55 179.81,-150.36 -72.84,12.83 -126.38,14.03 -175.67,-15.64 -37.84,97.89 -39.86,64.89 -4.14,166z"/>
   <path class="fil9" d="M13956.93 8051.47l-2.4 84.94 200.61 -16.89 -44.36 -130.29c-92.86,19.05 -83.1,33.7 -153.85,62.24z"/>
   <path class="fil15" d="M2907.44 7096.14l0 -24.76c-82.93,-1.44 -112.91,-14.31 -183.3,-36.69l-2.17 30.07 4.57 89.63c63.59,26.18 85.39,41.57 162.06,16.56l18.84 -74.81z"/>
   <path class="fil1" d="M9269.1 5896.68c-53.4,-2.14 -68.94,8.93 -96.82,40.95l-61.31 112.81 82.31 44.34c81.19,-59.57 96.88,-120.66 75.82,-198.1z"/>
   <path class="fil20" d="M9023.48 8947.62c70.79,-113.21 15.27,-90.05 106.16,-134.24 -29.92,-64.57 -23.02,-74.74 -115.12,-89.55l-18.34 30.1c-2.29,4.65 -5.67,9.94 -7.91,15.17 -30.66,71.46 -29.04,88.09 35.21,178.52z"/>
   <path class="fil20" d="M9173.83 8553.04c121.48,73.85 66.31,131.01 61.4,140.84l110.25 -8.39 43.57 -71.68c-79.36,-44.67 -33.62,-46.65 -83.48,-71.8 -41.62,-20.99 -104.48,-17.58 -131.74,11.03z"/>
   <path class="fil0" d="M13025.38 7768.18c60.55,-29.83 75.19,-29.43 117.4,-72.43 -7.8,-95.11 -52.82,-98.94 -132.7,-142.81l15.3 215.24z"/>
   <path class="fil20" d="M9232.44 8891.91c-206.48,-3.89 -143.98,12.91 -162.02,42.7 3.5,11.59 -26.42,38.87 35.2,62.64 33.56,12.95 83.18,6.01 124.95,6.33l1.87 -111.67z"/>
   <path class="fil20" d="M9173.83 8553.04l-73.72 9.18 -64.57 115.72 74.04 53.43c59.42,-45.56 89.27,-93.08 64.25,-178.33z"/>
   <path class="fil20" d="M9314.12 8733.55c33.74,68.65 43.24,111.98 134.81,118.29 26.96,-80.11 -4.8,-103.93 -38.71,-180.42l-96.1 62.13z"/>
   <path class="fil1" d="M2290.07 8041.92l156.13 -38.53c-13.32,-48.77 -10.46,-49.97 4.13,-96.4l-16.67 -39.1 -62.81 7.57c-14.85,66.58 -0.07,30.6 -36.32,84.62 -46.7,69.61 -11.06,-16.22 -44.46,81.84z"/>
   <path class="fil2" d="M7395.96 4299.71c30.83,150.41 -41.41,106.14 -7.2,194.99 44.13,5.6 85.54,-28.08 116.04,-62.39l-55.8 -79.54c35.56,-48.38 -36.51,-19.68 51.62,-48.69 -23.5,-9.74 7.38,-9.5 -57.34,-10.22 -5.28,-0.06 -40.7,5.33 -47.32,5.85z"/>
   <path class="fil1" d="M11342.3 7755.72l0.42 -0.12 -10.63 -62.82 -193.67 -0.2c-9.06,95.57 129.84,63.72 203.88,63.14z"/>
   <path class="fil24" d="M8291.21 9957.29c144.79,-23.11 93.87,-30.78 103.35,-164.05 -86.04,44.63 -81.33,50.66 -103.35,164.05z"/>
   <path class="fil25" d="M11355.66 8266.8l17.65 -27.38c6.52,-14.72 14.41,-32.28 18.11,-47.3 11.71,-47.52 7.75,-47.98 8.28,-94.5l-106.79 -10.7 62.75 179.88z"/>
   <path class="fil6" d="M4310.21 5580.22c51.1,63.01 81.83,72.63 171.33,45.24 -23.68,-52.42 23.19,-30.8 -67.39,-56.63 -70.09,-20 -60.52,-18.97 -103.94,11.39z"/>
   <path class="fil22" d="M14621.58 5071.52l2.36 21.3 -12.57 69.53 146.81 -68.21c-14.31,-69.89 -64.82,-41.15 -136.6,-22.62z"/>
   <path class="fil20" d="M13954.53 8136.41l1.22 24.73c90.61,32.17 123.18,10.27 211.12,-3.54l-11.73 -38.08 -200.61 16.89z"/>
   <path class="fil13" d="M8174.23 9858.79c124.65,-0.97 89.22,-30.55 150.94,-55.28 -63.59,-42.41 -1.57,-11.03 -81.35,-37.48 -63.7,63.9 -45.05,2.2 -69.59,92.76z"/>
   <path class="fil9" d="M8898.71 6875.18c-37.25,-20.58 -36.54,-27.42 -48.65,-81.72l2.93 -5.57c-55.75,22.35 -74.06,39.98 -98,91.91l143.72 -4.62z"/>
   <path class="fil14" d="M8943.47 5345.61l-94.35 -8.61c22.04,91.12 46.48,76.69 65.63,90.85l28.72 -82.24z"/>
   <path class="fil4" d="M9294.69 5143.23l39.27 20.24 12.02 -55.19c-40.03,-17.52 -60.29,-31.7 -112.24,-7.05l60.95 42z"/>
  </g>
 </g>
</svg>
