<?xml version="1.0" encoding="UTF-8"?>
<!DOCTYPE svg PUBLIC "-//W3C//DTD SVG 1.1//EN" "http://www.w3.org/Graphics/SVG/1.1/DTD/svg11.dtd">
<!-- Creator: CorelDRAW 2018 (64-Bit) -->
<svg xmlns="http://www.w3.org/2000/svg" xml:space="preserve" width="74.475mm" height="51.76mm" version="1.1" style="shape-rendering:geometricPrecision; text-rendering:geometricPrecision; image-rendering:optimizeQuality; fill-rule:evenodd; clip-rule:evenodd"
viewBox="0 0 7447.5 5176"
 xmlns:xlink="http://www.w3.org/1999/xlink">
 <defs>
  <style type="text/css">
   <![CDATA[
    .fil5 {fill:#312D2C}
    .fil2 {fill:#4C6E84}
    .fil3 {fill:#7B553E}
    .fil8 {fill:#A57857}
    .fil7 {fill:#BC9A6A}
    .fil9 {fill:#D1D9DE}
    .fil4 {fill:#DEBB9D}
    .fil1 {fill:#E7CE96}
    .fil10 {fill:#F47854}
    .fil0 {fill:#FCFDFF}
    .fil6 {fill:#FEFEFE}
   ]]>
  </style>
 </defs>
 <g id="Layer_x0020_1">
  <metadata id="CorelCorpID_0Corel-Layer"/>
  <g id="_3110089237664">
   <rect class="fil0" x="138.35" y="260.1" width="7247.5" height="4826"/>
   <g>
    <path class="fil1" d="M1823.04 3062.13l-500.92 -16.71 38.82 -214.83 504.96 50.2 -42.86 181.34zm174.85 -295.11l-585.68 -70.42 35 -123.21 581.21 49.52 -30.53 144.11zm741.06 -198.58l-252.65 -26.37 24.75 -127.06 250.34 33.03 -22.44 120.4zm-317.83 -33.49l-521.64 -56.97 56.59 -145.08 488.47 69.28 -23.42 132.77zm-578.29 -64.43l-405.51 -43.39 37.18 -165.63 399.09 56.88 -30.76 152.14zm972.02 -135.05l-497.32 -73.51 55.11 -180.08 495.06 42.93 -52.85 210.66zm-596.15 -91.71c-94.01,-6.08 -707.07,-92.46 -749.45,-120.15l35.27 -114.09c1.23,-2.19 3.56,-6.08 5.9,-8.87l746.92 68.34 -38.64 174.77zm684.51 -247.87l-582.52 -48.43 59.38 -175.71 556.07 59.81 -32.93 164.33zm-644.12 -54.17l-357.07 -30.24 49.95 -183.51 335.85 30.5 -28.73 183.25zm-413.72 -37.88l-325.21 -24.84 19.3 -201.61 330.44 34.81 -24.53 191.64zm356.06 1367.21l59.88 -190.11 -319.97 -11.44 21.72 -176.47c124.32,6.29 287.05,39.73 400.59,31.67 29.46,-29.5 56.62,-55.51 76.17,-81.8 -20.34,-16.89 4.61,-4.85 -27.94,-15.64 -15.13,-5.03 -29.66,-6.91 -48.13,-9.28 -82.64,-10.63 -247.14,-22.31 -306.54,-46.18l87.62 -132.42c74.31,-7.41 407.95,38.56 521.49,39.93 81.58,-42.37 174.55,-73.65 274.61,-108.87 1.33,-38.45 14.43,-68.58 4.02,-101.57 -14.76,-46.73 -43.1,-22.93 -26.26,-94.71l55.82 12.82c-6.71,-145.49 112.97,-605.8 82.81,-691.89 -266.97,-24.53 -579.27,-80.91 -849.99,-118.24l-752.46 -107.46c-50.81,-7.91 -76.79,-16.22 -119.45,1.72 -11.32,161.56 -206.18,1685.55 -191.3,1767.29l1057.31 32.65z"/>
    <path class="fil2" d="M4198.05 1864.92c7.12,10.4 13.49,19.71 19.21,28.04 1.35,-2.25 3.03,-5.07 5.08,-8.65l1530.07 -4.26c-18.69,-312.48 -156.67,-651.4 -501.46,-816.73 -46.74,-22.41 -109.6,-36.85 -151.28,-59.31l-274.7 0c-117.37,62.26 -181.68,41.97 -345.7,181.19 -242.78,206.07 -235.7,487.17 -280.49,678.01 -0.09,0.39 -0.34,0.96 -0.73,1.71zm-187.88 307.41l0.76 -3.6c-0.02,0.03 -0.03,0.06 -0.04,0.09l-0.72 3.51z"/>
    <path class="fil3" d="M4198.05 1864.92c7.12,10.4 13.49,19.71 19.21,28.04 -8.51,14.19 -3.75,6.16 6.47,27.76 11.92,25.25 21.57,-10.05 23.69,49.76 -76.64,198.16 -168.32,93.56 -153.87,259.1 11.38,130.19 60.82,213.87 80,316.23l-224.17 -28.92 1.74 -54.56 59.05 -290 0.76 -3.6c53.47,-124.47 176.3,-283.03 187.12,-303.81z"/>
    <path class="fil4" d="M4591.58 2246.58l193.1 -5.02 107.74 -3.35c28.99,382.98 -467.74,296.53 -402.78,11.71l101.94 -3.34zm566.35 -5.82l198.35 11.35 94.99 -3.42c90.85,260.36 -415.81,390.44 -401.03,-8.33l107.69 0.4zm-1208.55 276.13l-3.09 172.13c51.68,35.38 99.72,76.8 158.71,101.14 296.08,61.67 655.73,77.47 967.52,73.15 58.43,-0.81 117.41,9.7 135.94,-23.53 -23.31,-60.42 -50.57,-77.85 -78.55,-117.43 -75.92,-25.38 -226.18,-40.55 -320.59,-4.99 -70.72,26.61 -39.27,39.27 -91.46,71.43 -49.25,30.36 -87.44,12.43 -112.59,-14.07l4.16 -35.81 19.56 17.91c26.56,-2.04 18.29,2.09 35.01,-8.15 0.14,-47.89 -25.2,-110.34 4.03,-154.21 31,-46.52 114.1,-29.69 165.94,-44.78l17.48 -45.96c11.6,18.47 -25.61,116.58 116.55,125.04 105.25,6.25 145.16,-55.93 119.63,-128.38 30.33,23.38 22.4,9.01 34.84,52.25 80.94,6.65 105.76,-9.06 147.62,42.56 34.23,52.38 2.73,90.98 8.95,153.04 28.48,11.2 24.26,28.36 55.49,-7.7 5.82,56.62 -15.71,60.32 -84.64,64.55l11.22 52.57c276.46,-19.51 500.21,-48.33 760.65,-86.82l-8.46 -259.34 -223.4 34.84c40.68,-151.61 78.76,-214.05 84.26,-394.3 -155.26,-33.48 -194.57,-124.45 -237.72,-147.81 -2.46,-0.11 -288.77,62.74 -338.46,71.5 33.49,1.87 -1.62,-3.45 14.42,13.06l100.9 3.88c-86.07,29.31 -308.74,73.3 -370.98,-1.62l-136.56 -0.25c-56.1,78.07 -296.68,29.68 -369.84,1.94l132.21 -16.31c-67.04,-5.96 -155.9,-23.61 -218.71,-37.72 -49.87,-11.21 -62.94,-14.68 -106.13,-33.76 -50.06,-22.12 -48.07,-26.96 -95.87,-34.46 -76.64,198.16 -168.32,93.55 -153.87,259.1 11.38,130.2 60.82,213.88 80,316.22l-224.17 -28.91z"/>
    <path class="fil1" d="M2736.69 2966.22c24.73,27.47 -51.32,268.28 -57.34,304.06 -59.75,-4.42 -155.7,-9.98 -192.21,-35.82 -67.58,67.7 -77.62,214.32 -68.19,314.36l851.52 121.7 -78.55 334.64c-135.84,13.98 -494.77,-71.92 -559.9,-42.28 154.59,106.72 290.08,170.24 513.22,197.5 151.97,18.57 508.88,-4.39 595.06,-81.84l-397.18 -51.17 93.86 -325.47c196.78,6.31 495.46,92.26 662.33,83.5l-9.03 61.01c148.29,-170.9 189.65,-297.31 177.22,-543.35 -33.09,33.35 -26.24,62.84 -35.82,111.39 -2.69,-3.23 -4.97,-7.57 -6.46,-10.39l-24.31 -59.85c-4.58,143.1 0.73,248.56 -84.62,359.75 15.22,-73.91 74.06,-225.25 25.78,-292.34l10.25 87.55 -1193.06 -185.45c-27.52,-6.87 -22.63,-6.53 -36.83,-11.86l68.94 -203.1c-2.09,-1.96 -5.52,-4.45 -6.81,-5.5 -102.64,-83.34 -110.19,-128.92 -38.32,-226.69 -71.13,11.92 -163.14,63.14 -209.55,99.65z"/>
    <path class="fil5" d="M2343.15 3218.86c35.66,-110.03 121.45,-256.31 215.22,-328.94l118.74 -85.43c151.22,-117.34 457.72,-199.77 744.23,-170.87 274.95,27.74 544.39,166.99 628.51,283.62 48.04,21.54 107.65,112.49 137.99,162.2 39.89,65.37 64.98,144.51 79.66,223.62 12.43,246.04 -28.93,372.45 -177.22,543.35 -73.92,85.55 -208.02,196.62 -349.98,232.13 -86.18,77.45 -443.09,100.41 -595.06,81.84 -223.14,-27.26 -358.63,-90.78 -513.22,-197.5 -53.11,-28.18 -147.11,-121.43 -188.46,-181.84 -53.39,-77.98 -91.85,-150.21 -111.77,-247.16 -25.6,-114.28 -15.56,-206.73 11.36,-315.02zm778.79 -678.31l-77.74 12.57 -103.27 17.32c-100.06,35.22 -193.03,66.5 -274.61,108.87 -40.47,25.47 -76.54,43.42 -114.67,75.84 -31.54,26.81 -79.43,58.32 -111.83,87.75 -19.55,26.29 -46.71,52.3 -76.17,81.8 -29.33,47.79 -62.85,103.22 -102.34,156.24l-59.88 190.11c-89.44,463.78 294.04,822.99 697.44,941.42 257.86,75.7 554.83,78.49 807.52,-5.17 260.7,-86.32 401.12,-189.24 529.38,-350.27l118.25 -192.58c52.28,1.53 70.72,-1.07 104.54,24.37l21.4 19.95c30.87,21.13 436.29,96.46 505.4,91.44 -4.85,-62.05 15.37,-116.44 53.79,-158.03l-26.48 -14.39c-110.65,-20.53 -210.83,-38.62 -321.94,-60.9 -97.79,-19.62 -115.17,-31.31 -183.68,-14.87 -50.78,12.18 -63.36,10.34 -117.28,-14.17l6.75 -198.68c-9.15,-114.73 -38.81,-214.09 -101.27,-309.8 -32.87,-50.35 -49.27,-79.14 -85.82,-121.12 -39.74,-45.64 -77.93,-73.87 -104.43,-118.09 -58.99,-24.34 -107.03,-65.76 -158.71,-101.14 -221.19,-102.8 -496.17,-204.11 -824.35,-148.47z"/>
    <path class="fil2" d="M5261.11 2857.65l35.83 107.26 22.21 -35.6c14.31,-26.27 -2.63,-11.73 22.34,-41.23l279.73 0.2c31.1,139.57 9.78,316.31 -213.78,268.9 -176.44,-37.41 -131.15,-198.32 -198.98,-317.4 -18.53,33.23 -77.51,22.72 -135.94,23.53 -311.79,4.32 -671.44,-11.48 -967.52,-73.15 26.5,44.22 64.69,72.45 104.43,118.09 36.55,41.98 52.95,70.77 85.82,121.12 62.46,95.71 92.12,195.07 101.27,309.8l271.08 17.08c43.28,-45.04 117.77,-165.45 152.62,-216.6 32.39,-47.56 109.69,-180.12 147.14,-210.65l108.91 429.13 418.88 -20.12c4.9,-0.73 16.12,-1.12 17.53,-0.76 27.35,6.83 -23.79,-38.3 7.14,4.06 33.88,-17.19 63.16,-22.24 117.84,-31.3 16.06,-2.66 47.87,-9.62 63.38,-11.23 75.89,-7.91 36.85,-9.64 42.07,9.35l47.75 -25.54c79.85,-23.99 168.78,-41.09 225.82,-62.12l131.58 -43.71c-31.29,-134.33 -106.18,-243.41 -126.5,-405.93 -260.44,38.49 -484.19,67.31 -760.65,86.82z"/>
    <path class="fil6" d="M2733.97 2820.09c-35.9,37.79 -65.56,43.45 -105.25,78.31 -35.67,31.32 -67.89,60.05 -98.65,98.44 -69.4,86.65 -79.5,130.75 -133.64,232.06 -14.97,121.92 -41.41,187.24 0.65,315.16 6.64,40.52 2.58,37.48 27.49,67.95l-5.62 -63.19c-9.43,-100.04 0.61,-246.66 68.19,-314.36 18.44,-86.22 178.26,-238.52 249.55,-268.24 46.41,-36.51 138.42,-87.73 209.55,-99.65 -71.87,97.77 -64.32,143.35 38.32,226.69 1.29,1.05 4.72,3.54 6.81,5.5 150.99,50.45 242.07,97.31 444.84,57.39 168.08,-33.1 241.88,-107.58 189.2,-246.2 -42.39,-24.74 -70.29,-49.61 -108,-74.81 38.6,7.48 71.85,14.27 107.65,26.93l86.57 40.93c165.83,38.42 432.29,301.5 430.44,508.62 48.28,67.09 -10.56,218.43 -25.78,292.34 85.35,-111.19 80.04,-216.65 84.62,-359.75 -1.43,-86.34 -33.86,-170.15 -74.01,-240.74 -44.19,-77.69 -92.63,-114.66 -133.38,-174.62 -35.12,-20.41 -76.63,-58.17 -118.48,-86.36 -229.46,-154.59 -556.41,-204.18 -847.15,-136.55 -60.18,14 -106.77,31.14 -158.81,51.79 -53.99,21.42 -90.83,47.1 -135.11,62.36z"/>
    <path class="fil7" d="M3625.41 2909.95c52.68,138.62 -21.12,213.1 -189.2,246.2 -202.77,39.92 -293.85,-6.94 -444.84,-57.39l-68.94 203.1c14.2,5.33 9.31,4.99 36.83,11.86l1193.06 185.45 -10.25 -87.55c1.85,-207.12 -264.61,-470.2 -430.44,-508.62l-73.12 -11.04c-22.27,9.75 -30.03,-15.47 -13.1,17.99z"/>
    <path class="fil8" d="M4396.52 3339.17l-6.75 198.68c53.92,24.51 66.5,26.35 117.28,14.17 68.51,-16.44 85.89,-4.75 183.68,14.87 111.11,22.28 211.29,40.37 321.94,60.9 40.32,-34.72 51.13,-32.55 121.74,-41.28l42.47 -25.03c42.63,-38.15 263.71,-150.85 318.27,-223.47l-418.88 20.12 -108.91 -429.13c-37.45,30.53 -114.75,163.09 -147.14,210.65 -34.85,51.15 -109.34,171.56 -152.62,216.6l-271.08 -17.08z"/>
    <path class="fil9" d="M3816.98 4497.68l-56.04 26.46c47.68,110.68 401.7,114.38 541.75,124.87 224.01,16.76 453.99,22.86 679.64,23.19 214.06,0.31 451.95,-5.38 661.78,-22.08 111.52,-8.87 515.49,-26.31 545.39,-122.31l-53.84 -35.3 4.39 45.86c-191.27,3.87 -352.96,2.76 -543.38,-12.36 -113.24,-8.99 -212.94,-32.49 -266.22,-8.79 -72.54,32.27 -35.05,20.97 -198.47,19.63 -84.85,-1.36 -56.57,12.97 -58.41,-35.71 -30.23,-29.46 -19.23,-53.91 -17.63,-98.78l-165.44 -4.3 -10.25 138.98c-216.6,-1.36 -216.88,19.73 -272.05,-36.23 -263.18,35.9 -527.31,44.03 -797.83,37l6.61 -40.13z"/>
    <path class="fil7" d="M2632.02 3962.88c65.13,-29.64 424.06,56.26 559.9,42.28l78.55 -334.64 -851.52 -121.7 5.62 63.19c-24.91,-30.47 -20.85,-27.43 -27.49,-67.95l-65.29 -10.18c19.92,96.95 58.38,169.18 111.77,247.16 41.35,60.41 135.35,153.66 188.46,181.84z"/>
    <path class="fil3" d="M4247.42 1970.48c47.8,7.5 45.81,12.34 95.87,34.46 43.19,19.08 56.26,22.55 106.13,33.76 62.81,14.11 151.67,31.76 218.71,37.72l237.63 14.37 136.56 0.25c107.54,-21.87 176.53,-13.35 270.08,-2.26 -16.04,-16.51 19.07,-11.19 -14.42,-13.06 49.69,-8.76 336,-71.61 338.46,-71.5 25.08,-44.52 13.43,-20.11 62.8,-59.64 40.32,-32.27 21.12,-29.16 62.36,-51.14l-9.19 -13.39 -1530.07 4.27c-14.97,26.14 -10.45,11.37 1.39,36.41 11.92,25.24 21.57,-10.06 23.69,49.75z"/>
    <path class="fil5" d="M5073.57 4501.14c1.84,48.68 -26.44,34.35 58.41,35.71 163.42,1.34 125.93,12.64 198.47,-19.63 53.28,-23.7 152.98,-0.2 266.22,8.79 190.42,15.12 352.11,16.23 543.38,12.36l-4.39 -45.86c-47.37,-50.34 -47.26,-66.71 -115.41,-98.75 -191.46,-90.06 -482.52,-24.93 -673.61,-0.04 -69.46,-133.23 -135.62,-284.12 -154.07,-445.72 -34.64,-33.06 -49.84,-18.18 -122.02,-18.4 -14.56,73.29 -18.94,512.52 3.02,571.54z"/>
    <path class="fil5" d="M4760.42 3956.66c-21.29,133.12 -83.43,333.65 -155.01,437.57 -311.35,-44.49 -631.84,-114.83 -788.43,103.45l-6.61 40.13c270.52,7.03 534.65,-1.1 797.83,-37 55.17,55.96 55.45,34.87 272.05,36.23l10.25 -138.98 1.78 -466.31 -110.57 -8.91 -21.29 33.82z"/>
    <path class="fil8" d="M5790.86 3282.59c-86.93,186.93 -274.44,299.94 -405.7,408.47l270.46 57.53 -22.89 122.69c168.63,-16.57 273.09,-77.84 378.32,-133.62l5.63 -517.19c-57.04,21.03 -145.97,38.13 -225.82,62.12z"/>
    <path class="fil7" d="M3740.3 4078.54c141.96,-35.51 276.06,-146.58 349.98,-232.13l9.03 -61.01c-166.87,8.76 -465.55,-77.19 -662.33,-83.5l-93.86 325.47 397.18 51.17z"/>
    <path class="fil8" d="M4235.77 3857.03c107.65,8.98 241.75,46.48 403.29,57.38 7.06,0.47 67.67,4.03 67.73,4.04 89.14,17.97 39.52,-17.26 53.63,38.21l21.29 -33.82 110.57 8.91 160.42 -0.77 3.24 471.38c-1.6,44.87 -12.6,69.32 17.63,98.78 -21.96,-59.02 -17.58,-498.25 -3.02,-571.54 72.18,0.22 87.38,-14.66 122.02,18.4 -0.27,-35.55 69.62,-26.15 121.46,-29.55 48.92,-3.21 94.89,-7.1 141.91,-13.25 -28.07,-13.33 -38.4,-11.92 -76.76,-18.83 -5.63,-1.02 -45.73,-9.56 -47.36,-10.27 -48.52,-21.09 -9.29,7.34 -39.68,-28.87 -39.85,35.22 4.28,26.38 -71.37,34.1 -49.92,5.09 -217.14,-11.1 -235.41,-81.12 -69.11,5.02 -474.53,-70.31 -505.4,-91.44l-21.4 -19.95c-33.82,-25.44 -52.26,-22.84 -104.54,-24.37l-118.25 192.58z"/>
    <path class="fil7" d="M2257.34 2068.99l-746.92 -68.34c-2.34,2.79 -4.67,6.68 -5.9,8.87l-35.27 114.09c42.38,27.69 655.44,114.07 749.45,120.15l38.64 -174.77z"/>
    <polygon class="fil7" points="1865.9,2880.79 1360.94,2830.59 1322.12,3045.42 1823.04,3062.13 "/>
    <polygon class="fil7" points="2867.7,2124.81 2372.64,2081.88 2317.53,2261.96 2814.85,2335.47 "/>
    <polygon class="fil7" points="2936.14,1831.56 2380.07,1771.75 2320.69,1947.46 2903.21,1995.89 "/>
    <path class="fil5" d="M5208.46 2839.78c67.83,119.08 22.54,279.99 198.98,317.4 223.56,47.41 244.88,-129.33 213.78,-268.9l-279.73 -0.2c-24.97,29.5 -8.03,14.96 -22.34,41.23l-22.21 35.6 -35.83 -107.26 -11.22 -52.57c-41.1,-60.8 -48.88,-45.98 -95.41,-92.6 -30.48,-2.15 -21.92,-6.9 -24.57,9.87 27.98,39.58 55.24,57.01 78.55,117.43z"/>
    <path class="fil3" d="M5636.44 2004.22c43.15,23.36 82.46,114.33 237.72,147.81 -5.5,180.25 -43.58,242.69 -84.26,394.3l223.4 -34.84 -14.23 -103.66 -57.99 -237.5c-27.28,-84.99 -121.49,-238.42 -179.48,-276.89 -41.24,21.98 -22.04,18.87 -62.36,51.14 -49.37,39.53 -37.72,15.12 -62.8,59.64z"/>
    <path class="fil3" d="M4628.99 2756.82c-34.98,-5.4 -26.26,-10.64 -23.72,17.9 25.15,26.5 63.34,44.43 112.59,14.07 52.19,-32.16 20.74,-44.82 91.46,-71.43 94.41,-35.56 244.67,-20.39 320.59,4.99 2.65,-16.77 -5.91,-12.02 24.57,-9.87 46.53,46.62 54.31,31.8 95.41,92.6 68.93,-4.23 90.46,-7.93 84.64,-64.55 -31.23,36.06 -27.01,18.9 -55.49,7.7 -6.22,-62.06 25.28,-100.66 -8.95,-153.04 -41.86,-51.62 -66.68,-35.91 -147.62,-42.56 -14.78,72.34 -42.89,107.9 -155.04,103.77 -86.64,-3.19 -146.39,-39.71 -133.46,-106.72 -51.84,15.09 -134.94,-1.74 -165.94,44.78 -29.23,43.87 -3.89,106.32 -4.03,154.21 -16.72,10.24 -8.45,6.11 -35.01,8.15z"/>
    <path class="fil8" d="M5519.82 3341.31c-61.97,60 -88.32,69.21 -156.86,119.15 -40.98,29.88 -49.4,28.67 -92.99,56.4 -34.5,21.95 -46.87,31.26 -93.09,44.62 -3,4.55 -2.22,10.7 -15.62,22.89 46.4,69.95 92.36,51.69 163.53,97.13 54.49,-27.41 194.27,-125.54 233.09,-161.87 56.81,-53.16 148.53,-133.17 185.23,-211.5 -5.22,-18.99 33.82,-17.26 -42.07,-9.35 -15.51,1.61 -47.32,8.57 -63.38,11.23 -54.68,9.06 -83.96,14.11 -117.84,31.3z"/>
    <polygon class="fil7" points="2028.42,2622.91 1447.21,2573.39 1412.21,2696.6 1997.89,2767.02 "/>
    <path class="fil4" d="M5012.67 3627.79l26.48 14.39c-38.42,41.59 -58.64,95.98 -53.79,158.03 18.27,70.02 185.49,86.21 235.41,81.12 75.65,-7.72 31.52,1.12 71.37,-34.1 33.35,-43.85 46.71,-112.74 32.65,-165.73 -71.17,-45.44 -117.13,-27.18 -163.53,-97.13l-26.85 2.14c-70.61,8.73 -81.42,6.56 -121.74,41.28z"/>
    <path class="fil5" d="M5743.11 3308.13c-36.7,78.33 -128.42,158.34 -185.23,211.5 -38.82,36.33 -178.6,134.46 -233.09,161.87 14.06,52.99 0.7,121.88 -32.65,165.73 30.39,36.21 -8.84,7.78 39.68,28.87 1.63,0.71 41.73,9.25 47.36,10.27 38.36,6.91 48.69,5.5 76.76,18.83l130.16 19.16c39.05,-17.97 9.43,4.38 33.59,-25.5 1.96,-2.41 12.56,-26.62 13.04,-27.58l22.89 -122.69 -270.46 -57.53c131.26,-108.53 318.77,-221.54 405.7,-408.47l-47.75 25.54z"/>
    <polygon class="fil6" points="4890.5,4398.06 5055.94,4402.36 5052.7,3930.98 4892.28,3931.75 "/>
    <path class="fil7" d="M2439.82 2842.9c32.4,-29.43 80.29,-60.94 111.83,-87.75 38.13,-32.42 74.2,-50.37 114.67,-75.84 -113.54,-1.37 -447.18,-47.34 -521.49,-39.93l-87.62 132.42c59.4,23.87 223.9,35.55 306.54,46.18 18.47,2.37 33,4.25 48.13,9.28 32.55,10.79 7.6,-1.25 27.94,15.64z"/>
    <polygon class="fil7" points="2444.54,2402.18 1956.07,2332.9 1899.48,2477.98 2421.12,2534.95 "/>
    <path class="fil1" d="M2677.11 2804.49l56.86 15.6c44.28,-15.26 81.12,-40.94 135.11,-62.36 52.04,-20.65 98.63,-37.79 158.81,-51.79 290.74,-67.63 617.69,-18.04 847.15,136.55 41.85,28.19 83.36,65.95 118.48,86.36 74.41,6.14 43.85,13.34 56.33,-11.61 -84.12,-116.63 -353.56,-255.88 -628.51,-283.62 -286.51,-28.9 -593.01,53.53 -744.23,170.87z"/>
    <polygon class="fil7" points="1873.59,2318.38 1474.5,2261.5 1437.32,2427.13 1842.83,2470.52 "/>
    <polygon class="fil7" points="1869.9,1712.2 1539.46,1677.39 1520.16,1879 1845.37,1903.84 "/>
    <polygon class="fil7" points="2287.82,1758.47 1951.97,1727.97 1902.02,1911.48 2259.09,1941.72 "/>
    <path class="fil6" d="M4784.68 2241.56l7.11 70.61c-27.76,13.15 -19.74,11.36 -73.87,2.56 13.51,26.85 40.62,43.05 27.42,61.11 -24.04,32.88 -191.71,38.06 -153.76,-129.26l-101.94 3.34c-64.96,284.82 431.77,371.27 402.78,-11.71l-107.74 3.35z"/>
    <path class="fil6" d="M5356.28 2252.11l0.05 60.06c-21.65,11.5 -17.68,14.03 -73.03,1.54 13.51,24.3 40.67,44.44 28.1,61.25 -17.07,22.82 -62.01,22.33 -93.05,11.74 -69.29,-23.65 -71.44,-89.01 -60.42,-145.94l-107.69 -0.4c-14.78,398.77 491.88,268.69 401.03,8.33l-94.99 3.42z"/>
    <path class="fil7" d="M2261.31 3080.94c39.49,-53.02 73.01,-108.45 102.34,-156.24 -113.54,8.06 -276.27,-25.38 -400.59,-31.67l-21.72 176.47 319.97 11.44z"/>
    <path class="fil7" d="M2487.14 3234.46c36.51,25.84 132.46,31.4 192.21,35.82 6.02,-35.78 82.07,-276.59 57.34,-304.06 -71.29,29.72 -231.11,182.02 -249.55,268.24z"/>
    <path class="fil4" d="M5941.08 2170.33l57.99 237.5c112.66,-1.43 173.55,-56.58 148.11,-151.29 -21.96,-81.75 -98.23,-108.42 -206.1,-86.21z"/>
    <path class="fil4" d="M3951.12 2462.33l59.77 -293.51c-195.48,-37.56 -243.06,125.97 -177.14,199.57 34.61,38.63 90.16,37.55 119.22,49.85l-1.85 44.09z"/>
    <polygon class="fil7" points="2761.39,2448.04 2511.05,2415.01 2486.3,2542.07 2738.95,2568.44 "/>
    <path class="fil7" d="M3993.52 2928.85c40.75,59.96 89.19,96.93 133.38,174.62 40.15,70.59 72.58,154.4 74.01,240.74l24.31 59.85c1.49,2.82 3.77,7.16 6.46,10.39 9.58,-48.55 2.73,-78.04 35.82,-111.39 -14.68,-79.11 -39.77,-158.25 -79.66,-223.62 -30.34,-49.71 -89.95,-140.66 -137.99,-162.2 -12.48,24.95 18.08,17.75 -56.33,11.61z"/>
    <path class="fil7" d="M2343.15 3218.86l53.28 10.04c54.14,-101.31 64.24,-145.41 133.64,-232.06 30.76,-38.39 62.98,-67.12 98.65,-98.44 39.69,-34.86 69.35,-40.52 105.25,-78.31l-56.86 -15.6 -118.74 85.43c-93.77,72.63 -179.56,218.91 -215.22,328.94z"/>
    <path class="fil5" d="M4784.68 2241.56l-193.1 5.02c-37.95,167.32 129.72,162.14 153.76,129.26 13.2,-18.06 -13.91,-34.26 -27.42,-61.11 54.13,8.8 46.11,10.59 73.87,-2.56l-7.11 -70.61z"/>
    <path class="fil5" d="M5356.28 2252.11l-198.35 -11.35c-11.02,56.93 -8.87,122.29 60.42,145.94 31.04,10.59 75.98,11.08 93.05,-11.74 12.57,-16.81 -14.59,-36.95 -28.1,-61.25 55.35,12.49 51.38,9.96 73.03,-1.54l-0.05 -60.06z"/>
    <path class="fil10" d="M2940.93 2570.44l103.27 -17.32c11.7,-24.69 21.9,-32.31 38.89,-51.52 -47.48,-60.77 -36.27,-82.08 -108.58,-114.62l-55.82 -12.82c-16.84,71.78 11.5,47.98 26.26,94.71 10.41,32.99 -2.69,63.12 -4.02,101.57z"/>
    <path class="fil1" d="M2331.79 3533.88l65.29 10.18c-42.06,-127.92 -15.62,-193.24 -0.65,-315.16l-53.28 -10.04c-26.92,108.29 -36.96,200.74 -11.36,315.02z"/>
    <path class="fil3" d="M4905.76 2090.79l-237.63 -14.37 -132.21 16.31c73.16,27.74 313.74,76.13 369.84,-1.94z"/>
    <path class="fil3" d="M5042.32 2091.04c62.24,74.92 284.91,30.93 370.98,1.62l-100.9 -3.88c-93.55,-11.09 -162.54,-19.61 -270.08,2.26z"/>
    <path class="fil5" d="M4833.97 2549.68c-12.93,67.01 46.82,103.53 133.46,106.72 112.15,4.13 140.26,-31.43 155.04,-103.77 -12.44,-43.24 -4.51,-28.87 -34.84,-52.25 25.53,72.45 -14.38,134.63 -119.63,128.38 -142.16,-8.46 -104.95,-106.57 -116.55,-125.04l-17.48 45.96z"/>
    <path class="fil5" d="M5495.15 3338.01c-54.56,72.62 -275.64,185.32 -318.27,223.47 46.22,-13.36 58.59,-22.67 93.09,-44.62 43.59,-27.73 52.01,-26.52 92.99,-56.4 68.54,-49.94 94.89,-59.15 156.86,-119.15 -30.93,-42.36 20.21,2.77 -7.14,-4.06 -1.41,-0.36 -12.63,0.03 -17.53,0.76z"/>
    <path class="fil1" d="M3625.41 2909.95c-16.93,-33.46 -9.17,-8.24 13.1,-17.99l73.12 11.04 -86.57 -40.93c-35.8,-12.66 -69.05,-19.45 -107.65,-26.93 37.71,25.2 65.61,50.07 108,74.81z"/>
    <path class="fil4" d="M3044.2 2553.12l77.74 -12.57c-23.18,-34.49 -3.32,-12.75 -38.85,-38.95 -16.99,19.21 -27.19,26.83 -38.89,51.52z"/>
    <path class="fil5" d="M5134.41 3586.51l26.85 -2.14c13.4,-12.19 12.62,-18.34 15.62,-22.89l-42.47 25.03z"/>
    <path class="fil8" d="M4605.27 2774.72c-2.54,-28.54 -11.26,-23.3 23.72,-17.9l-19.56 -17.91 -4.16 35.81z"/>
   </g>
  </g>
 </g>
</svg>
