<?xml version="1.0" encoding="UTF-8"?>
<!DOCTYPE svg PUBLIC "-//W3C//DTD SVG 1.1//EN" "http://www.w3.org/Graphics/SVG/1.1/DTD/svg11.dtd">
<!-- Creator: CorelDRAW 2018 (64-Bit) -->
<svg xmlns="http://www.w3.org/2000/svg" xml:space="preserve" width="74.475mm" height="51.76mm" version="1.1" style="shape-rendering:geometricPrecision; text-rendering:geometricPrecision; image-rendering:optimizeQuality; fill-rule:evenodd; clip-rule:evenodd"
viewBox="0 0 7447.5 5176"
 xmlns:xlink="http://www.w3.org/1999/xlink">
 <defs>
  <style type="text/css">
   <![CDATA[
    .fil12 {fill:#211B17}
    .fil8 {fill:#2D494E}
    .fil1 {fill:#323645}
    .fil3 {fill:#4C6E84}
    .fil4 {fill:#7B553E}
    .fil6 {fill:#AEA37D}
    .fil11 {fill:#CCBDD0}
    .fil5 {fill:#DEBB9D}
    .fil10 {fill:#E4E5DE}
    .fil7 {fill:#FBCD1A}
    .fil0 {fill:#FCFDFF}
    .fil9 {fill:#FD867A}
    .fil2 {fill:#FDFDFD}
   ]]>
  </style>
 </defs>
 <g id="Layer_x0020_1">
  <metadata id="CorelCorpID_0Corel-Layer"/>
  <g id="_3110084841296">
   <path class="fil0" d="M4710.92 584.63c26.37,-85.14 66.29,-140.5 129.38,-176.4 116.3,-66.19 151.85,-11.39 237,3.99 44.96,8.1 222.93,-185.06 421.24,-16.09 110.42,94.08 82.23,147.62 133.24,171.18 38.46,17.76 106.84,12.78 174.88,116.08 108.34,164.44 15.2,356.71 -107.44,420.12 -20.69,472.75 -334.74,301.62 -399.74,325.91 -48.24,18.03 -51.96,36.9 -123.93,38.25 -112.73,2.11 -146.98,-49.24 -208.43,-100.43 -225.78,90.06 -346.44,-5.54 -388.27,-240.87 -267.88,-160.24 -190.11,-536.64 132.07,-541.74zm-4594.76 4482.12l2705.59 0 0.59 -300.29c-128.07,-47.94 -733.71,10.28 -929.9,-14.8l-3.47 -988.52 146.16 -3.51c30.14,-137.21 89.21,-150.34 206.21,-198.82 -81.96,-331.62 -67.02,-622.4 210.39,-717.78l0.07 -87.21c73.1,-26.89 637.49,-149.41 692.73,-134.72 20.24,43.11 27.46,67.22 27.49,122.49 -44.76,28.31 -449.2,160.81 -552.25,195.7 -96.35,32.62 -123.53,66.04 -149.87,-43.14 -355.85,71.58 -180.5,654.14 -178.84,656.05 8.23,4.4 143.56,43.22 166.77,50.78 87.8,-248.57 151.78,-343.35 337.9,-481.46 61.04,-45.31 154.75,-128.69 230.41,-168.06 64.9,-33.77 231.06,-81.53 308.47,-99.32l119.6 -33.97c25.18,-39.44 50.94,-74.93 51.26,-142.75 -57.24,-75.12 -157.12,-117.89 -230.81,-353.69 -18.49,-59.12 -19.42,-114.74 -44.52,-157.78l-44.87 -1.36c-26.79,-44.37 -47.49,-78.74 -51.21,-152.33 -4.4,-87.29 7.74,-122.73 59.88,-151.65 19.39,-271.11 -61.27,-251.59 63.94,-349.19 -122.7,-210.99 282.45,-446.73 615.42,-351.1 291.22,83.66 440.23,332.85 384.64,715.7l47.1 9.99c33.06,105.88 41.28,274.86 -77.06,298.07 -13.66,34.77 -27.32,102.07 -40.75,145.07 -14.44,46.19 -31.65,88.77 -54.02,131.76 -52.33,100.52 -93.22,136.48 -160,202.8l-0.58 151.57c47.33,-16.77 113.42,11.62 141.06,51.2 118.83,8.92 320.04,171.22 706.55,-53.63 159.16,-92.58 308.16,-269.88 351.43,-459.94 15.04,-66.08 -0.08,-58.61 40.9,-85.91 -3.08,-68.93 -25.11,-91.33 -34.09,-155.27 -8.4,-59.72 -5.02,-128.83 -4.58,-189.58 16.74,-11.29 31.63,4.92 54.35,-10.4 1.25,-0.85 4.08,-2.93 5.14,-4.11 30.31,-33.59 17.44,-264.66 89.61,-202.74 37.72,32.35 7.62,94.89 -0.83,165.91 2.57,1.95 6.63,1.2 7.85,5.57 6.2,22.18 139.65,73.22 167.11,99.07 5.85,138.66 -44.58,227.13 -76.23,302.45 -21.75,407.6 -355.88,731.32 -646.58,932.47 -146.53,101.4 -162.28,99.83 -298.79,157.4 -123.94,52.26 -19.65,204.36 -77.63,377.75 169.03,40.05 1085.58,-20.68 1202.05,16.89 11.44,106.4 2.72,583.95 2.43,752.43l0.63 192.91c-12.02,72.27 7.62,26.41 -22.22,44.91 -120.46,14.99 -321.21,2.04 -451.58,2.08 -103.4,0.05 -383.34,-14.43 -465.2,10.26l0.14 301.75 2699.51 0 0 -4826 -7247.5 0 0 4826z"/>
   <path class="fil1" d="M3597.71 3758.75l-595.88 0.05 -299.07 2 -158.44 -1.11 -509.19 -0.06 -146.16 3.51 3.47 988.52c196.19,25.08 801.83,-33.14 929.9,14.8l-0.59 300.29 1842.4 0 -0.14 -301.75c81.86,-24.69 361.8,-10.21 465.2,-10.26 130.37,-0.04 331.12,12.91 451.58,-2.08l4.72 -979 -1741.17 -14.36 -61.44 -11.49c-31.98,23.04 -59.14,13.75 -100.87,13.57 -9.63,-10.57 -14.51,-5.5 -19.99,-26.08 -15.74,38.15 -16.93,25.64 -64.33,23.45z"/>
   <path class="fil2" d="M5229.09 1114.84c23.38,52.95 0.95,-11.26 16.42,117.69 -58.87,12.16 -34.43,12.42 -58.42,57.25l-104.19 2.18c-33.07,-55.4 8.38,-45.51 -59.24,-60.05l9.79 -38.4c4.1,-30.97 -20.81,-25.28 10.15,-81.75 -74.92,-203.68 -141.48,-232.11 -142.68,-370.05 -3.05,-348 480.74,-335.65 468.66,11.39 -2.64,75.74 -36.24,139.45 -68.4,191.53 -49.8,80.64 -50.99,76.68 -72.09,170.21zm-518.17 -530.21c-322.18,5.1 -399.95,381.5 -132.07,541.74 41.83,235.33 162.49,330.93 388.27,240.87 61.45,51.19 95.7,102.54 208.43,100.43 71.97,-1.35 75.69,-20.22 123.93,-38.25 65,-24.29 379.05,146.84 399.74,-325.91 122.64,-63.41 215.78,-255.68 107.44,-420.12 -68.04,-103.3 -136.42,-98.32 -174.88,-116.08 -51.01,-23.56 -22.82,-77.1 -133.24,-171.18 -198.31,-168.97 -376.28,24.19 -421.24,16.09 -85.15,-15.38 -120.7,-70.18 -237,-3.99 -63.09,35.9 -103.01,91.26 -129.38,176.4z"/>
   <path class="fil3" d="M4113.69 2866.48c-32.44,71.49 -35.93,306.7 -41.4,406.5l-125.19 -6.2c22.06,65.92 47.33,52.15 22.04,127.61 -30.76,91.81 -116.65,296.31 -124.8,364.91l1741.17 14.36 -4.72 979c29.84,-18.5 10.2,27.36 22.22,-44.91l-0.63 -192.91c0.29,-168.48 9.01,-646.03 -2.43,-752.43 -116.47,-37.57 -1033.02,23.16 -1202.05,-16.89 57.98,-173.39 -46.31,-325.49 77.63,-377.75 136.51,-57.57 152.26,-56 298.79,-157.4 290.7,-201.15 624.83,-524.87 646.58,-932.47 -28.32,27.52 14.91,13.18 -47.39,17.14 -11.1,0.7 -39.27,-2.4 -52.01,-3.82 -37.77,-4.22 -81.32,-5.77 -108.93,-24.22 -40.98,27.3 -25.86,19.83 -40.9,85.91 -43.27,190.06 -192.27,367.36 -351.43,459.94 -386.51,224.85 -587.72,62.55 -706.55,53.63z"/>
   <path class="fil4" d="M3582.49 2391.98l296.19 0.26c-33.56,218.39 -272.96,200.22 -296.19,-0.26zm-97.29 -25.35c-133.82,-62.8 -232.46,-215.22 -246.71,-354.28 -8.19,-79.98 11.66,-210.59 20.78,-290.51 11.9,-104.29 20.38,-170.18 87.51,-209.77 258.22,-152.31 456.52,93.04 605.07,160.97 130.2,59.55 140.96,4.38 225.47,-23.82 12.35,119.49 62.1,363.16 26,464.94 -39.14,110.37 -130.43,234.25 -235.39,256.08 -54.48,-105.18 -132.46,-88.78 -237.47,-94.92 -181.44,-10.58 -170.91,33.51 -245.26,91.31zm-291.26 -506.02l36.2 305.34c25.1,43.04 26.03,98.66 44.52,157.78 73.69,235.8 173.57,278.57 230.81,353.69 85.87,33.24 122.86,65.67 234.63,59.43 114.07,-6.36 149.11,-41.75 233.11,-73.14 66.78,-66.32 107.67,-102.28 160,-202.8 22.37,-42.99 39.58,-85.57 54.02,-131.76 13.43,-43 27.09,-110.3 40.75,-145.07l29.96 -308.06c55.59,-382.85 -93.42,-632.04 -384.64,-715.7 -332.97,-95.63 -738.12,140.11 -615.42,351.1 -125.21,97.6 -44.55,78.08 -63.94,349.19z"/>
   <path class="fil5" d="M3955.14 1925.73c96.91,-89.51 93.33,115.98 15.59,61.74 -19.76,-13.8 -20.65,-29.72 -15.59,-61.74zm-461.28 -22.14c51.75,-1.64 66.97,11.59 91.22,44.23 -6.85,7.5 -21.09,23.98 -29.74,27.85 -61.42,27.45 -23.78,5.51 -37.58,-7.72 -99.22,83.24 -109.78,-70 -23.9,-64.36zm299.38 -96.96c11.42,-31.42 16.29,-31.87 57.77,-41.06 34.86,-7.71 73.69,-10.9 109.23,-9.53l136.5 28.16c38.01,25.23 13.07,-3.52 21.41,35.26 -39.22,19 -108.6,-20.72 -158.14,-23.32 -50.8,-2.65 -126.65,34.66 -166.77,10.49zm-490.06 12.83c11.33,-56.2 92.44,-63.3 158.51,-65.85 65.42,-2.54 158.01,-4.01 171.83,53.02 -38.3,26.63 -117.81,-8.7 -171.85,-6.15 -48.85,2.3 -126.91,39.58 -158.49,18.98zm182.02 547.17c74.35,-57.8 63.82,-101.89 245.26,-91.31 105.01,6.14 182.99,-10.26 237.47,94.92 104.96,-21.83 196.25,-145.71 235.39,-256.08 36.1,-101.78 -13.65,-345.45 -26,-464.94 -84.51,28.2 -95.27,83.37 -225.47,23.82 -148.55,-67.93 -346.85,-313.28 -605.07,-160.97 -67.13,39.59 -75.61,105.48 -87.51,209.77 -9.12,79.92 -28.97,210.53 -20.78,290.51 14.25,139.06 112.89,291.48 246.71,354.28z"/>
   <path class="fil3" d="M2457.83 3602.98c39.52,57.76 78.87,54.17 86.49,156.71l158.44 1.11c-20.09,-160.92 124.67,-299.27 282.67,-285.44 7.79,87.01 27.94,217.44 16.4,283.44l595.88 -0.05c-4.5,-54.48 -62.49,-191.64 -82.52,-241.46 -80.87,-201.15 -53.02,-154.15 -19.46,-231.22l-123.36 -1.19 -37.76 -430.74c-77.41,17.79 -243.57,65.55 -308.47,99.32 -75.66,39.37 -169.37,122.75 -230.41,168.06 -186.12,138.11 -250.1,232.89 -337.9,481.46z"/>
   <path class="fil6" d="M2035.13 3759.63l509.19 0.06c-7.62,-102.54 -46.97,-98.95 -86.49,-156.71 -23.21,-7.56 -158.54,-46.38 -166.77,-50.78 -1.66,-1.91 -177.01,-584.47 178.84,-656.05 26.34,109.18 53.52,75.76 149.87,43.14 103.05,-34.89 507.49,-167.39 552.25,-195.7 -0.03,-55.27 -7.25,-79.38 -27.49,-122.49 -55.24,-14.69 -619.63,107.83 -692.73,134.72l-0.07 87.21c-277.41,95.38 -292.35,386.16 -210.39,717.78 -117,48.48 -176.07,61.61 -206.21,198.82z"/>
   <path class="fil7" d="M5043.6 1111.76l185.49 3.08c21.1,-93.53 22.29,-89.57 72.09,-170.21 32.16,-52.08 65.76,-115.79 68.4,-191.53 12.08,-347.04 -471.71,-359.39 -468.66,-11.39 1.2,137.94 67.76,166.37 142.68,370.05z"/>
   <path class="fil8" d="M3334.61 2854.14l37.76 430.74 123.36 1.19c-33.56,77.07 -61.41,30.07 19.46,231.22 20.03,49.82 78.02,186.98 82.52,241.46 47.4,2.19 48.59,14.7 64.33,-23.45l-50.02 -273.78 -103.11 -563.81c-33.8,-58.88 5.7,-52.87 -54.7,-77.54l-119.6 33.97z"/>
   <path class="fil8" d="M3972.63 2815.28l-22.56 16.29 -130.75 714.35 -36.42 201.89 61.44 11.49c8.15,-68.6 94.04,-273.1 124.8,-364.91 25.29,-75.46 0.02,-61.69 -22.04,-127.61l125.19 6.2c5.47,-99.8 8.96,-335.01 41.4,-406.5 -27.64,-39.58 -93.73,-67.97 -141.06,-51.2z"/>
   <path class="fil5" d="M5212.57 2267c27.61,18.45 71.16,20 108.93,24.22 12.74,1.42 40.91,4.52 52.01,3.82 62.3,-3.96 19.07,10.38 47.39,-17.14 31.65,-75.32 82.08,-163.79 76.23,-302.45 -27.46,-25.85 -160.91,-76.89 -167.11,-99.07 -1.22,-4.37 -5.28,-3.62 -7.85,-5.57 8.45,-71.02 38.55,-133.56 0.83,-165.91 -72.17,-61.92 -59.3,169.15 -89.61,202.74 -1.06,1.18 -3.89,3.26 -5.14,4.11 -22.72,15.32 -37.61,-0.89 -54.35,10.4 -0.44,60.75 -3.82,129.86 4.58,189.58 8.98,63.94 31.01,86.34 34.09,155.27z"/>
   <path class="fil2" d="M3508.91 2897.71l103.11 563.81c29.65,-60.74 26.59,-176.82 36.87,-253.2 17.14,-127.28 -28,-123.93 67.87,-195.78l69.74 63.77c-9.51,102.09 -5.39,128.74 5.71,241.82 5.35,54.49 10.49,186.94 27.11,227.79l130.75 -714.35c-74.1,24.49 -155.09,117.16 -234.71,157.64l-189.64 -134.55c-22.39,24.96 -25.57,-34.47 -16.81,43.05z"/>
   <path class="fil9" d="M3612.02 3461.52l50.02 273.78c5.48,20.58 10.36,15.51 19.99,26.08 41.73,0.18 68.89,9.47 100.87,-13.57l36.42 -201.89c-16.62,-40.85 -21.76,-173.3 -27.11,-227.79 -11.1,-113.08 -15.22,-139.73 -5.71,-241.82l-69.74 -63.77c-95.87,71.85 -50.73,68.5 -67.87,195.78 -10.28,76.38 -7.22,192.46 -36.87,253.2z"/>
   <path class="fil5" d="M3505.47 2677.42c-0.32,67.82 -26.08,103.31 -51.26,142.75 60.4,24.67 20.9,18.66 54.7,77.54 -8.76,-77.52 -5.58,-18.09 16.81,-43.05l189.64 134.55c79.62,-40.48 160.61,-133.15 234.71,-157.64l22.56 -16.29 0.58 -151.57c-84,31.39 -119.04,66.78 -233.11,73.14 -111.77,6.24 -148.76,-26.19 -234.63,-59.43z"/>
   <path class="fil10" d="M2702.76 3760.8l299.07 -2c11.54,-66 -8.61,-196.43 -16.4,-283.44 -158,-13.83 -302.76,124.52 -282.67,285.44z"/>
   <path class="fil5" d="M3878.68 2392.24l-296.19 -0.26c23.23,200.48 262.63,218.65 296.19,0.26z"/>
   <path class="fil11" d="M5229.09 1114.84l-185.49 -3.08c-30.96,56.47 -6.05,50.78 -10.15,81.75l-9.79 38.4c67.62,14.54 26.17,4.65 59.24,60.05l104.19 -2.18c23.99,-44.83 -0.45,-45.09 58.42,-57.25 -15.47,-128.95 6.96,-64.74 -16.42,-117.69z"/>
   <path class="fil5" d="M4227.98 2184.08c118.34,-23.21 110.12,-192.19 77.06,-298.07l-47.1 -9.99 -29.96 308.06z"/>
   <path class="fil5" d="M3230.14 2165.95l-36.2 -305.34c-52.14,28.92 -64.28,64.36 -59.88,151.65 3.72,73.59 24.42,107.96 51.21,152.33l44.87 1.36z"/>
   <path class="fil4" d="M3303.18 1819.46c31.58,20.6 109.64,-16.68 158.49,-18.98 54.04,-2.55 133.55,32.78 171.85,6.15 -13.82,-57.03 -106.41,-55.56 -171.83,-53.02 -66.07,2.55 -147.18,9.65 -158.51,65.85z"/>
   <path class="fil4" d="M3793.24 1806.63c40.12,24.17 115.97,-13.14 166.77,-10.49 49.54,2.6 118.92,42.32 158.14,23.32 -8.34,-38.78 16.6,-10.03 -21.41,-35.26l-136.5 -28.16c-35.54,-1.37 -74.37,1.82 -109.23,9.53 -41.48,9.19 -46.35,9.64 -57.77,41.06z"/>
   <path class="fil12" d="M3517.76 1967.95l-0.69 -45.15c-4.81,-3.87 -19.56,-15.98 -23.21,-19.21 -85.88,-5.64 -75.32,147.6 23.9,64.36z"/>
   <path class="fil12" d="M3955.14 1925.73c-5.06,32.02 -4.17,47.94 15.59,61.74 77.74,54.24 81.32,-151.25 -15.59,-61.74z"/>
   <path class="fil2" d="M3517.76 1967.95c13.8,13.23 -23.84,35.17 37.58,7.72 8.65,-3.87 22.89,-20.35 29.74,-27.85 -24.25,-32.64 -39.47,-45.87 -91.22,-44.23 3.65,3.23 18.4,15.34 23.21,19.21l0.69 45.15z"/>
   <path class="fil2" d="M4025.43 1966.85c13.8,13.23 -23.84,35.17 37.58,7.72 8.65,-3.87 22.89,-20.35 29.74,-27.85 -24.25,-32.64 -39.47,-45.87 -91.22,-44.23 3.65,3.23 18.4,15.34 23.21,19.21l0.69 45.15z"/>
  </g>
 </g>
</svg>
