<?xml version="1.0" encoding="UTF-8"?>
<!DOCTYPE svg PUBLIC "-//W3C//DTD SVG 1.1//EN" "http://www.w3.org/Graphics/SVG/1.1/DTD/svg11.dtd">
<!-- Creator: CorelDRAW 2018 (64-Bit) -->
<svg xmlns="http://www.w3.org/2000/svg" xml:space="preserve" width="355.6mm" height="215.9mm" version="1.1" style="shape-rendering:geometricPrecision; text-rendering:geometricPrecision; image-rendering:optimizeQuality; fill-rule:evenodd; clip-rule:evenodd"
viewBox="0 0 35560 21590"
 xmlns:xlink="http://www.w3.org/1999/xlink">
 <defs>
  <style type="text/css">
   <![CDATA[
    .fil0 {fill:none}
    .fil5 {fill:#ED6A3E}
    .fil7 {fill:#729E3C}
    .fil1 {fill:#A4C77A}
    .fil8 {fill:#F69453}
    .fil6 {fill:#729E3C;fill-opacity:0.360784}
    .fil3 {fill:#F69453;fill-opacity:0.478431}
    .fil2 {fill:#729E3C;fill-opacity:0.521569}
    .fil4 {fill:#F69453;fill-opacity:0.549020}
   ]]>
  </style>
 </defs>
 <g id="Layer_x0020_1">
  <metadata id="CorelCorpID_0Corel-Layer"/>
  <polygon class="fil0" points="18157.21,-26219.35 53724.51,-26219.35 53724.51,-4629.25 18157.21,-4629.25 "/>
  <rect class="fil1" transform="matrix(0.00277732 1.22833 -1.81907 0.00187539 28045.4 20747.7)" width="95.25" height="6170.09"/>
  <polygon class="fil0" points="38.53,27.33 35605.83,27.33 35605.83,21617.43 38.53,21617.43 "/>
  <path class="fil2" d="M2345.9 395.54c-1368.01,-3.49 -1358.09,33.84 -1166.65,312.12 191.45,278.3 564.42,797.57 804.41,1192.28 239.99,394.71 347,664.86 487.34,972.01 140.33,307.15 313.99,651.29 561.11,891.29 247.09,240.01 567.64,375.89 1004.88,481.95 437.22,106.07 991.12,182.32 1417.01,152.69 425.88,-29.63 723.72,-165.14 1215.02,-528.35 491.29,-363.2 1176.03,-954.08 1660.73,-1448.36 484.69,-494.28 769.36,-891.96 994.29,-1209.11 224.93,-317.16 390.14,-553.8 360.47,-661.12 -29.67,-107.32 -254.23,-85.3 -1739.46,-96.46 -1485.23,-11.14 -4231.15,-55.45 -5599.15,-58.94z"/>
  <path class="fil3" d="M27685.35 971.52c26.31,399.85 415.63,1167.99 826.01,1751.97 410.37,583.99 841.78,983.85 1383.69,1462.61 541.9,478.77 1194.28,1036.46 1909.81,1562.57 715.52,526.12 1494.17,1020.68 2120.26,1394.23 626.07,373.54 1099.58,626.08 1331.07,652.37 231.48,26.31 220.97,-173.6 226.23,-1415.25 5.25,-1241.64 26.31,-3524.99 15.8,-4650.89 -10.53,-1125.88 -52.63,-1094.33 -1252.18,-1104.86 -1199.55,-10.51 -3556.56,-63.11 -4903.42,-73.64 -1346.87,-10.51 -1683.58,21.04 -1657.27,420.89z"/>
  <path class="fil4" d="M800.67 16074.08c519.51,-658.05 1544.69,-214.75 2770.75,304.76 1226.04,519.53 2652.99,1115.24 3678.16,1981.09 1025.17,865.88 1648.59,2001.87 1800.98,2569.88 152.39,568.01 -166.23,568.01 -1710.91,568.01 -1544.7,0 -4315.47,0 -5700.83,-207.82 -1385.38,-207.8 -1385.38,-623.4 -1378.45,-1710.94 6.93,-1087.51 20.78,-2846.92 540.3,-3504.98z"/>
  <path class="fil5" d="M4251.74 20883.59c63.5,-210.89 211.66,-472.68 575.03,-712.67 363.36,-239.97 941.91,-458.13 1739.19,-749.02 797.28,-290.88 1813.28,-654.49 2719.92,-887.2 906.64,-232.71 1703.92,-334.51 2437.7,-159.98 733.78,174.53 1404.05,625.4 1788.58,1090.81 384.53,465.42 483.31,945.37 564.45,1276.25 81.14,330.88 144.64,512.68 -211.66,614.5 -356.31,101.81 -1132.43,123.62 -2808.12,119.98 -1675.7,-3.63 -4250.98,-32.73 -5549.2,-127.26 -1298.23,-94.54 -1319.39,-254.52 -1255.89,-465.41z"/>
  <path class="fil6" d="M31474.41 20357.65c-227.78,-881.12 -179.81,-2583.43 6,-3548.48 185.82,-965.04 509.49,-1192.8 761.25,-1300.69 251.74,-107.9 431.57,-95.92 599.41,887.11 167.82,983.03 323.67,2937.08 299.7,3926.09 -23.99,989.03 -227.78,1013 -581.43,995.01 -353.65,-17.98 -857.16,-77.91 -1084.93,-959.04z"/>
  <path class="fil7" d="M31024.86 20068.9c-227.78,-881.12 -179.81,-2583.43 6,-3548.48 185.82,-965.04 509.49,-1192.8 761.25,-1300.69 251.74,-107.9 431.57,-95.92 599.41,887.11 167.82,983.03 323.67,2937.08 299.7,3926.09 -23.99,989.03 -227.78,1013 -581.43,995.01 -353.65,-17.98 -857.16,-77.91 -1084.93,-959.04z"/>
  <path class="fil8" d="M27526.59 548.19c26.31,399.85 415.63,1167.99 826.01,1751.97 410.37,583.99 841.78,983.85 1383.69,1462.61 541.9,478.77 1194.28,1036.46 1909.81,1562.57 715.52,526.12 1494.17,1020.68 2120.26,1394.23 626.07,373.54 1099.58,626.08 1331.07,652.37 231.48,26.31 220.97,-173.6 226.23,-1415.25 5.25,-1241.64 26.31,-3524.99 15.8,-4650.89 -10.53,-1125.88 -52.63,-1094.33 -1252.18,-1104.86 -1199.55,-10.51 -3556.56,-63.11 -4903.42,-73.64 -1346.87,-10.51 -1683.58,21.04 -1657.27,420.89z"/>
  <path class="fil7" d="M2142.23 141.53c-1330.68,-3.39 -1321.04,32.92 -1134.82,303.61 186.22,270.71 549.02,775.81 782.46,1159.74 233.44,383.94 337.53,646.72 474.04,945.49 136.5,298.77 305.43,633.52 545.8,866.97 240.35,233.46 552.15,365.63 977.46,468.79 425.29,103.18 964.08,177.35 1378.34,148.53 414.27,-28.83 703.98,-160.63 1181.87,-513.93 477.88,-353.29 1143.94,-928.05 1615.42,-1408.84 471.46,-480.79 748.36,-867.62 967.15,-1176.12 218.8,-308.5 379.49,-538.69 350.64,-643.08 -28.87,-104.39 -247.3,-82.97 -1692,-93.82 -1444.7,-10.84 -4115.69,-53.94 -5446.36,-57.34z"/>
  <rect class="fil1" transform="matrix(-1.22833 2.29745E-09 0.00223764 -1.81907 34433.2 19193.8)" width="95.25" height="6170.09"/>
  <rect class="fil1" transform="matrix(0.00277732 1.22833 -1.81907 0.00187539 24767.6 815.335)" width="95.25" height="6170.09"/>
  <rect class="fil1" transform="matrix(-1.22833 2.29745E-09 0.00223764 -1.81907 1197.54 14918.1)" width="95.25" height="6170.09"/>
 </g>
</svg>
