<?xml version="1.0" encoding="UTF-8"?>
<!DOCTYPE svg PUBLIC "-//W3C//DTD SVG 1.1//EN" "http://www.w3.org/Graphics/SVG/1.1/DTD/svg11.dtd">
<!-- Creator: CorelDRAW 2018 (64-Bit) -->
<svg xmlns="http://www.w3.org/2000/svg" xml:space="preserve" width="24.421mm" height="20.09mm" version="1.1" style="shape-rendering:geometricPrecision; text-rendering:geometricPrecision; image-rendering:optimizeQuality; fill-rule:evenodd; clip-rule:evenodd"
viewBox="0 0 2442.1 2009"
 xmlns:xlink="http://www.w3.org/1999/xlink">
 <defs>
  <style type="text/css">
   <![CDATA[
    .str0 {stroke:#302323;stroke-width:33.87;stroke-miterlimit:22.9256}
    .fil0 {fill:#A52023}
    .fil2 {fill:#C1C1C1}
    .fil1 {fill:#FCEAD4}
   ]]>
  </style>
 </defs>
 <g id="Layer_x0020_1">
  <metadata id="CorelCorpID_0Corel-Layer"/>
  <path class="fil0" d="M240.3 215.48l-6.85 -56.89 35.64 -3.81c80.43,2.21 62.4,-0.64 71.81,-15.18 -10.63,-23.87 2.81,-8.85 -19.57,-17.62l-234.86 1 104 1441.79c160.46,0.52 318.39,-25.26 490.21,-19.92 156.83,4.87 299.86,24.83 449.22,52.34l18.31 353.42c25.49,-8.93 412.19,-309.08 443.03,-333.1 42.24,-32.91 66.98,-66.09 130.17,-70.4 154.23,-10.53 530.15,19.67 555.26,14.06l101.9 -1436.73c-46.94,-3.04 -93.03,-4.59 -140.06,-4.82 -119.48,-0.57 -109.66,-9.61 -113.08,31.65l103.3 8.14c9.24,57.02 -86.54,1257.03 -93.1,1302.36 -168.33,-5.31 -293.07,-17.58 -466.99,-0.01 -159.96,16.17 -277.6,57.55 -438.13,57.57 -259.74,0.04 -446.58,-111.78 -901.55,-55.61l-88.66 -1248.24z"/>
  <g id="_1477545882096">
   <path class="fil1 str0" d="M672.77 1130.25c319.82,46.44 459.57,181.39 545.99,212.75l-3.07 -1011.68c-91.25,-83.48 -444.83,-227.65 -602.29,-237.93l59.37 1036.86z"/>
   <path class="fil1 str0" d="M1854.93 91.62c-208.19,34.53 -462.12,137.24 -598.97,237.02l-2.3 1014.44c41.95,-17.53 82.09,-49.1 124.67,-71.88 114.78,-61.42 288.57,-127.77 420.12,-139.84l56.48 -1039.74z"/>
   <path class="fil1 str0" d="M1367.06 1357.44l1.28 9.96c181.09,-64.65 356.28,-108.48 565.87,-115.57 19.63,-61.22 72.7,-925.74 70.13,-1030.19l6.09 -75.72 -40.69 1.53 -41.15 0.72 -61.91 1035.58c-221.79,44.43 -321.83,77.07 -499.62,173.69z"/>
   <path class="fil1 str0" d="M1119.7 1372.48l-0.67 -6.93c-73.14,-37.79 -151.2,-82.21 -235.41,-112.52 -123.11,-44.32 -241.51,-57.71 -278.58,-71.48l-62.12 -1028.53 -82.99 -11.03 72.79 1109.91c109.75,4.71 212.05,17.79 313.15,39.11 104.21,21.98 182.01,55.43 273.83,81.47z"/>
   <path class="fil1 str0" d="M2046.91 1378.99c4.17,-6.75 4.98,-7.37 9.25,-21.97 13.58,-46.56 83.75,-1130.97 83.83,-1135.77l-63.75 -0.44 -71.24 1086.97c-233.33,6.73 -372.08,41.04 -572.94,104.36 85.84,-4 194.2,-28.81 290.08,-35.98 115.17,-8.62 210.7,-2.85 324.77,2.83z"/>
   <path class="fil1 str0" d="M1006.57 1407.69l0.57 -10.22c-79.72,-14.32 -165.55,-46.17 -256.1,-62.97 -94.07,-17.45 -192.87,-14.74 -283.25,-29.16l-72.41 -1083.11 -64 -0.8 83.91 1157.43c381.12,-8.78 232.58,-9.17 591.28,28.83z"/>
  </g>
  <path class="fil2" d="M240.3 215.48l-1.65 -42.63c8.91,-7.5 -2.46,-0.52 16.21,-10.91 24.11,-13.41 -2.54,3.16 14.23,-7.16l-35.64 3.81 6.85 56.89z"/>
 </g>
</svg>
