<?xml version="1.0" encoding="UTF-8"?>
<!DOCTYPE svg PUBLIC "-//W3C//DTD SVG 1.1//EN" "http://www.w3.org/Graphics/SVG/1.1/DTD/svg11.dtd">
<!-- Creator: CorelDRAW 2018 (64-Bit) -->
<svg xmlns="http://www.w3.org/2000/svg" xml:space="preserve" width="74.475mm" height="51.76mm" version="1.1" style="shape-rendering:geometricPrecision; text-rendering:geometricPrecision; image-rendering:optimizeQuality; fill-rule:evenodd; clip-rule:evenodd"
viewBox="0 0 7447.5 5176"
 xmlns:xlink="http://www.w3.org/1999/xlink">
 <defs>
  <style type="text/css">
   <![CDATA[
    .fil1 {fill:#FEFEFE}
    .fil3 {fill:#03DEC0}
    .fil7 {fill:#18272A}
    .fil4 {fill:#29454E}
    .fil9 {fill:#46C8B6}
    .fil6 {fill:lightgrey}
    .fil2 {fill:lightgrey}
    .fil0 {fill:#E08569}
    .fil5 {fill:#F9A8A8}
    .fil8 {fill:#FBFBFB}
   ]]>
  </style>
 </defs>
 <g id="Layer_x0020_1">
  <metadata id="CorelCorpID_0Corel-Layer"/>
  <rect class="fil0" x="117.51" y="166.73" width="7247.5" height="4826"/>
  <g id="_1478002498432">
   <path class="fil1" d="M1963.38 996.71c-15.84,-4.2 -33.34,3.35 -47.44,7.07 -14.1,3.7 -24.83,3.58 -36.12,37.66 -11.3,34.08 -23.18,102.39 -26.15,155.1 -2.97,52.71 2.97,89.85 4.08,122.88 1.12,33.04 -2.58,62.01 -7.31,100.86 -4.73,38.85 -10.47,87.58 -14.28,114.76 -3.84,27.15 -5.78,32.75 3.41,40.67 9.17,7.92 29.46,18.18 53.7,25.92 24.25,7.72 52.47,12.93 95.53,16.65 43.05,3.69 100.97,5.92 143.3,2.2 42.31,-3.72 69.04,-13.36 90.53,-20.21 21.5,-6.87 37.76,-10.91 44.94,-19.57 7.17,-8.69 5.25,-21.99 5.27,-48.8 0.02,-26.81 1.96,-67.15 4.44,-99.68 2.49,-32.53 5.48,-57.26 7.74,-88.17 2.25,-30.93 3.72,-68.07 -1.71,-107.1 -5.46,-39.03 -17.84,-79.97 -28.17,-107.56 -10.32,-27.62 -18.57,-41.87 -37.23,-69.65 -18.69,-27.8 -47.81,-69.11 -66.11,-92.13 -18.31,-23.03 -25.82,-27.78 -26.57,-11.43 -0.75,16.32 5.29,53.74 3.56,79.5 -1.74,25.76 -11.24,39.86 -30.53,43.22 -19.32,3.33 -48.43,-4.1 -65.18,-13.58 -16.75,-9.5 -21.15,-21.03 -30.42,-34.77 -9.28,-13.74 -23.46,-29.66 -39.28,-33.84z"/>
   <path class="fil2" d="M2420.59 939.53c28.57,-12.26 78.69,-30.81 114.9,-43.8 36.18,-12.99 58.45,-20.43 76.09,-1.86 17.63,18.57 30.62,63.12 24.5,91.14 -6.12,28.02 -31.37,39.54 -63.48,47.88 -32.1,8.35 -71.09,13.56 -94.53,16.49 -23.46,2.91 -31.4,3.56 -45.5,-11.11 -14.1,-14.67 -34.41,-44.63 -41.01,-62.59 -6.63,-17.97 0.44,-23.9 29.03,-36.15z"/>
   <path class="fil2" d="M2457.34 1095.44c28.57,-12.26 78.69,-30.81 114.9,-43.8 36.18,-12.99 58.45,-20.42 76.09,-1.86 17.63,18.57 30.62,63.12 24.5,91.14 -6.12,28.02 -31.37,39.54 -63.48,47.89 -32.1,8.34 -71.09,13.55 -94.53,16.48 -23.46,2.91 -31.4,3.56 -45.5,-11.11 -14.1,-14.67 -34.41,-44.63 -41.01,-62.59 -6.63,-17.96 0.44,-23.9 29.03,-36.15z"/>
   <path class="fil1" d="M3025.19 3043.08c-217.72,108.78 -633.45,339.57 -832.94,458.91 -199.51,119.34 -182.81,127.24 91.4,283.23 274.18,156 805.82,460.04 1083.73,608.24 277.9,148.21 302.02,140.56 497.35,37.05 195.33,-103.48 561.83,-302.79 741.13,-417.31 179.31,-114.49 171.39,-144.17 -59.76,-287.74 -231.15,-143.55 -685.55,-400.98 -933.41,-547.42 -247.84,-146.41 -289.12,-181.85 -319.62,-206.18 -30.49,-24.32 -50.17,-37.53 -267.88,71.22z"/>
   <path class="fil1" d="M5125.66 1579.52c-21.75,41.91 -24.16,181.31 -14.54,259.7 9.64,78.39 31.31,95.81 65.82,116.6 34.53,20.79 81.91,44.95 150.88,60.29 68.98,15.33 159.57,21.82 264.25,18.85 104.69,-2.97 223.49,-15.4 299.52,-34.65 76.04,-19.26 109.3,-45.32 125.71,-72.15 16.4,-26.83 15.92,-54.43 14.97,-119.63 -0.95,-65.19 -2.41,-167.99 0.5,-219.49 2.91,-51.5 10.14,-51.7 -65.3,-34.35 -75.44,17.36 -233.59,52.27 -370.33,70.86 -136.74,18.59 -252.08,20.89 -330.33,-5.74 -78.23,-26.65 -119.37,-82.21 -141.15,-40.29z"/>
   <path class="fil1" d="M5173.91 2313.06c-21.76,41.9 -43.82,165.35 -44.04,235.76 -0.2,70.41 21.47,87.82 55.98,108.61 34.53,20.79 81.91,44.96 150.88,60.29 68.98,15.34 159.57,21.82 264.25,18.85 104.69,-2.97 223.49,-15.39 299.52,-34.65 76.04,-19.25 109.3,-45.32 125.71,-72.15 16.4,-26.83 15.92,-54.42 14.97,-119.62 -0.95,-65.2 -2.41,-168 -13.3,-216.57 -10.87,-48.59 -31.17,-42.93 -106.63,-25.57 -75.44,17.35 -206.02,46.4 -328.98,62.08 -122.96,15.66 -238.3,17.96 -306.71,-0.68 -68.39,-18.67 -89.87,-58.27 -111.65,-16.35z"/>
   <g>
    <path class="fil3" d="M3303.2 2902.35c27.18,27.63 50.36,58.28 36.26,107.99 1.96,2.8 6.27,9.94 7.35,11.69 0.89,1.44 3.61,8.98 4.29,7.28 0.75,-1.84 3,5.36 4.62,7.98 27.57,-24.48 51.68,-47.8 109.77,-40.06 26.51,24.49 45.91,52.11 36.76,107.17 6.6,7.61 11.58,16.18 14.88,21.08 30.84,-19.1 48.44,-39.82 105.44,-37.27 34.57,33.48 43.96,47.04 41.76,111.18l18.92 11.03c34.81,-17.77 53.14,-34.27 105.03,-29.83 32.81,34.07 52.35,61.87 34.53,110.48 17.67,17.18 8.68,10.52 16.31,21.03 24.08,-20.46 63.43,-56.7 110.82,-31.71 23.95,13.07 27.38,8.88 36.11,49.6 5.61,26.12 4.35,35.04 -1.87,54.76l17.35 18.38c28.71,-18.49 51.18,-38.93 103.69,-34.5 40.26,34.76 42.6,41.86 43.8,112.39l12.79 8.73c44.7,-16.85 45.15,-38.87 102.21,-29.36 37.55,19.19 62.38,65.52 39.4,110.04 17.66,12.88 11.37,10.72 21.1,22.69 22.61,-16.37 63.73,-58.65 110.14,-33.58 29.3,15.83 45.14,64.49 30.92,102.32l19.27 21.08c28.15,-19.27 50.61,-38.35 103.66,-37.42 29.65,26.61 59.34,61.01 36.15,108.27l25.53 14.29c32.86,-16.59 51.59,-35.71 101.51,-29.22 40.76,29.11 44.89,46.47 40.46,114.92l1.84 149.23 -1005.74 578.74c-40.18,24.12 -99.77,64.5 -145.22,78.18 -26.36,17.81 -39.53,11.87 -67.85,-1.98l-1540.82 -890.11c-109.31,-61.56 -34.71,-59.7 -78.78,-78.62 -19.64,30.94 -13.43,41.85 -13.24,84.71 165.76,90.21 357.36,207.68 529.92,307.15 309.74,178.55 771.73,432.07 1056.93,610.91 55.17,34.6 81.29,54.83 149.6,16.8 292.65,-162.92 624.83,-370.74 919.97,-531.25 51.45,-27.98 91.82,-52.02 137.35,-79.43l195.59 -113.03c26.76,-14.69 39.84,-23.39 65.24,-37.8l919.79 -531.76c180.7,-110.93 217.68,-90.34 141.84,-183.14l-864.31 -494.14 -50.96 -33.59c-61.79,-21.82 -155.07,-89.56 -229.48,-128.61 -83.08,-43.59 -145.47,-84.97 -227.38,-131.6 -327.73,-186.61 -251.43,-198.11 -466.15,-66.61 -79.06,48.41 -150.58,88.29 -228.98,131.25l-456.78 264.33c-49.97,29.16 -195.16,120.19 -231.34,128.94z"/>
    <path class="fil3" d="M5708.97 1120.4c16.05,-51.92 55.65,-51.77 85.33,-30.88 -16,29.71 -42.9,50.27 -85.33,30.88zm-675.58 329.42c27.84,236.62 787.13,289.04 1027.19,92.32 60.02,-49.19 64.01,-64.09 63.45,-164.28 -0.49,-86.7 13.39,-138.36 -36.43,-191.24 -36.07,-38.3 -116.76,-64.91 -135.72,-100.84 -36.32,-68.86 -27.7,-77.75 -115.14,-110.88 -110.78,-41.97 -271.51,-48.15 -404.53,-29.88 -87.07,11.96 -188.38,35.88 -220.16,119.19 -18.76,49.16 -5.68,33.49 -54.78,58.49 -57.2,29.13 -102.08,56.56 -118.04,106.9 -12,37.85 -10.88,177.37 -5.84,220.22z"/>
    <path class="fil4" d="M2243.89 1555.21c-175.39,84.92 -246.9,44.71 -409.66,1.4 -90.01,242.74 35.38,687.58 -1.16,822.86 -23.82,88.2 -17.5,186.67 -11.47,279.01l8.34 304.11 87.02 -1.1c28.08,-30.83 8.78,-28.69 30.84,-57.48 -0.47,-5.53 131.05,-952.39 133.56,-959.44 12.36,75.65 24.05,154.79 35.03,228.11 18.84,125.81 19.98,93.25 -4.86,207.64 -12.7,58.5 -6.92,459.76 8.71,507.4l86.64 -1.34c26.78,-33.7 99.64,-516.29 104.23,-592.98 12.63,-210.96 -40.19,-463.02 -28.71,-668.23l-11.5 -79.76 -27.01 9.8z"/>
    <path class="fil3" d="M2378.87 1251.7l37.93 135.19 32.65 115.02c76.97,32.47 123.17,-21.91 193.98,-26.78 12.18,22.15 2.39,26.94 20.61,53.08l75.73 -5.75c-3.64,46.49 11.63,51.28 -20.78,85.74 -73.97,78.65 -176.96,25.5 -228.14,17.44 2.77,66.98 58.34,230.48 77.8,299.97 39.01,139.25 207.46,807.42 262.71,876.1 60.77,2.12 114.12,4.45 160.87,-14.47 18.57,-7.51 47.13,-23.41 59.92,-32.42 16.65,-11.73 30.41,-29.19 51.39,-42.13 8.81,-85.61 -143.56,-560.21 -173.71,-673.88 -29.03,-109.46 -62.28,-218.86 -91.41,-330.42 -24.13,-92.41 -60.05,-242.69 -93.36,-331.57 -29.18,-54.64 -26.54,-38.31 -81.53,-59.31 -61.86,-23.63 -34.32,-29.7 -67.54,-62.47 -32.03,-20.81 -18.5,-29.32 -7,-67.71l-48.95 9.45 -20.73 -8.83c-15.27,14.43 -15.64,18.21 -61.5,23.41 -30.33,3.44 -52.39,1.71 -82.47,1.84l3.53 38.5z"/>
    <path class="fil4" d="M5546.46 2314.59c-128.37,5.73 -215.62,-84.25 -185.4,-195.7 67.62,-19.18 129.2,123.43 146.36,150.96 17.78,28.52 36.78,40.17 39.04,44.74zm-44.86 -160.21c-39.59,-57.15 -127.99,-70.08 -89.07,-76.66 40.18,-56.25 255.31,52.23 175.05,197.1 -47.37,-23.6 -54.34,-74.78 -85.98,-120.44zm-339.74 -237.6c-68.56,-45.27 -18.35,-56.26 -47.81,-110.62 -15.21,29.98 16.22,451.73 36.55,482.38 106.35,160.31 719.91,163.83 848.92,5.75 35.87,-43.96 28.73,-173.54 32.72,-237.37l3.64 -241.74c-8.73,77.24 0.27,74.8 -57.1,108.7 -175.78,103.88 -514,104.62 -703.82,44.28 -44.17,-14.04 -75.63,-26.64 -113.1,-51.38z"/>
    <path class="fil5" d="M2198.45 557.6c49.4,66.06 95.45,111.61 53.96,233.45 -25.19,-53.93 19.49,-42.49 -39.55,-72.48 25.41,-17.29 32.41,-2.78 19.73,-49.36 -7.75,-28.47 -18.71,-40.73 -31.81,-54.28 -9.89,15.52 -68.13,168.39 -194.96,157.41 -24.38,-2.11 -130.88,-75.95 -87.96,86.41 30.24,10.91 52.9,7.72 69.47,14.61l-2.09 40.9c6.17,83.26 -4.15,110.88 67.69,158.05 12.71,8.34 149.1,63.97 74.74,-76.41 70.71,23.95 138.44,101.97 144.5,196.76 5.22,81.6 9.83,80.17 55,120.45 33.42,29.8 53.01,45.63 89.63,73.78l-37.93 -135.19c-21.34,-36.6 -1.14,-45.95 -22.07,-91.73 -12,-26.24 -22.91,-34.26 -33.5,-69.55 -90.07,-93.47 -74.2,-84.16 -182.31,-106.64 -17.45,-3.63 -8.21,14.34 -16.99,-4.73 -1.49,-3.23 -5.64,-1.34 -9,-2.82l3.46 -41.12c42.49,-19.85 60.08,19.96 97.44,-26.13 21.01,-25.93 25.83,-87.16 38.08,-98.19l46.06 156.97c96.28,23.04 112.01,-2.67 192.97,-18.89 21.04,-9.88 42.39,-16.59 62.67,-27.81 30.1,-16.64 23.17,-17.8 50.07,-38.2 -11.27,-66.86 -31.31,-129.9 -51.42,-197.74 -18.26,-61.57 -31.6,-132.8 -54.3,-192.55 -48.06,-126.51 -308.42,-26.89 -301.58,65.03z"/>
    <path class="fil6" d="M1942.35 3773.93l-11.27 36.86c21.87,22.19 5.28,12.62 35.22,34.93 12.12,9.03 31.07,19.48 45.3,26.36 137.15,66.4 106.32,59.75 210.13,119.79 41.11,23.77 33.22,22.21 71.7,22.16 5.62,14.67 -9.55,8.7 0,19.13l190.33 108.52c23.84,14.07 36.98,19.49 60.03,33.32l655.41 373.86c30.72,17.5 34.56,12.88 33.48,59.75 62.34,-26.95 31.22,-14.04 91.85,19.44 16.61,9.17 30.58,14.17 48.1,25.12l122.77 71.89c57.78,27.93 49.98,36.66 93.98,49.87 57.5,17.26 108.83,-31.21 192.01,-76.97 20.44,-11.24 26.69,-10.24 48.35,-23.75l268.26 -155.94c7.75,-6.77 32.16,-22.56 41.98,-27.95l518.65 -302.74c26.64,6.38 19.83,1.95 33.36,17.3 11.67,-24.46 -15.53,-14.28 12.43,-23.41 17.71,-5.78 3.7,1.14 34.94,2.95 3.9,-50.8 25.44,-54.93 66.84,-77.62l181.33 -106.92c151.71,-87.14 309.53,-165.63 453.66,-256.99 98.05,-62.15 87.71,-42.39 116.71,-59.09 41.28,-23.79 17.61,-33.39 203.51,-125.15 92.4,-45.6 213.13,-149.51 310.9,-168.49 29,-5.63 4.52,0.03 15.18,-12.58 23,-27.21 20.1,-15.82 44.54,-33.62 1.49,-32.94 -19.16,-90.54 -29.76,-109.16l-43.69 -2.42c75.84,92.8 38.86,72.21 -141.84,183.14l-919.79 531.76c-25.4,14.41 -38.48,23.11 -65.24,37.8l-195.59 113.03c-45.53,27.41 -85.9,51.45 -137.35,79.43 -295.14,160.51 -627.32,368.33 -919.97,531.25 -68.31,38.03 -94.43,17.8 -149.6,-16.8 -285.2,-178.84 -747.19,-432.36 -1056.93,-610.91 -172.56,-99.47 -364.16,-216.94 -529.92,-307.15z"/>
    <path class="fil6" d="M1955.59 3689.22c44.07,18.92 -30.53,17.06 78.78,78.62l1540.82 890.11c28.32,13.85 41.49,19.79 67.85,1.98 -44.24,-15.98 -22.53,12.05 -21.91,-110.6 -58.69,-9.75 -201.03,-108.81 -265.14,-146.34l-827.41 -470.28c-31.28,-16.93 -22.74,-14.5 -48.4,-34.32l-301.34 -172.07c-37.17,-20.88 -72.09,-38.17 -106.13,-58.39 -33.91,-20.14 -61.29,-45.92 -96.7,-54.53 -18.13,41.3 13.77,22.73 -20.42,75.82z"/>
    <path class="fil3" d="M1748.49 2982.81l67.32 53.37 15 -33.22 -0.87 -40.37 -8.34 -304.11 -144.46 -190.85c-205.17,-186.52 -431.85,-49.55 -279.99,94.18 26.92,25.47 68.55,45.94 99.95,64.97 79.81,48.38 70.35,28.1 92.6,74.08 -58.89,-7.03 -132.13,-10.49 -159.39,37.62 -31.47,55.53 21.73,92.18 61.9,110.06 91.26,40.62 195.97,68.46 256.28,134.27z"/>
    <path class="fil6" d="M1916.96 2961.49c5.13,91.27 74.07,145.72 121.76,201.01 27.94,13.96 30.28,16.68 43.34,47.63 -49,47.31 -121.38,48.22 -165.77,-23.94 -32.15,-52.26 -19.53,-33.29 -69.38,-65.36 -38.7,-24.9 -30.19,-26.39 -31.1,-84.65l-67.32 -53.37 2.76 34.32 -62.54 -0.19 31.57 24.93c1.06,-2.1 5.04,2.68 7.14,4.58 -63.66,29.07 -51.6,147.12 129.79,219.19 2.26,0.9 4.89,2.11 7.16,3 207.78,81.7 636.42,9.03 610.64,-168.6 -7.27,-50.15 -36.25,-65.59 -73.72,-90.35 -76.22,-50.34 -111.29,-43.68 -188.17,-74.46 18.92,44.64 43.44,76.75 77.82,111.97 8.97,9.18 6.76,6.45 16.06,15.53l11.7 11.57c0.98,-1.89 4.12,3.95 6.03,6.07 34.15,19.33 25.44,4.68 41.61,37.12 -22.25,44.54 -117.67,75.39 -172.85,-23.26 -59.12,-105.68 -116.28,-1.9 -86.05,-172.28 -2.56,2.28 -10.81,7.47 -13.25,8.42 -41.66,16.23 -54.55,-15.73 -150.37,19.04l3.98 -45.4c-22.06,28.79 -2.76,26.65 -30.84,57.48z"/>
    <path class="fil5" d="M2243.89 1555.21l27.01 -9.8 11.5 79.76 -2.39 -71.19 210.84 71.66c51.18,8.06 154.17,61.21 228.14,-17.44 32.41,-34.46 17.14,-39.25 20.78,-85.74l-75.73 5.75c-18.22,-26.14 -8.43,-30.93 -20.61,-53.08 -70.81,4.87 -117.01,59.25 -193.98,26.78 -131.02,-33.43 -256.27,-127.83 -317.36,-199.66 -96.3,-113.21 -171.11,-296.92 -219.55,-294.64 -72.71,26.3 -81.9,117.74 -48.29,181.67 38.12,72.52 160.65,215.13 229,265.37 26.5,19.48 54.65,36.23 76.42,47.56 108.46,56.43 59.62,19.31 74.22,53z"/>
    <path class="fil7" d="M1985.24 914.26l2.09 -40.9c-16.57,-6.89 -39.23,-3.7 -69.47,-14.61 -42.92,-162.36 63.58,-88.52 87.96,-86.41 126.83,10.98 185.07,-141.89 194.96,-157.41 13.1,13.55 24.06,25.81 31.81,54.28 12.68,46.58 5.68,32.07 -19.73,49.36 59.04,29.99 14.36,18.55 39.55,72.48 41.49,-121.84 -4.56,-167.39 -53.96,-233.45 -119.07,-56.03 -273.37,-53.79 -327.96,47.55 -24.78,45.98 -5.6,38.31 -51.51,62.07 -26.93,13.94 -45.82,18.96 -57.89,55.02 -12.59,37.61 -6.94,178.75 -6.64,226.66 93.36,-14.18 97.32,-53.71 96.58,-151.33 12.94,14.03 -3.63,-8.06 14.77,18.59l40.59 53.1c21.77,19.46 49.8,35.53 78.85,45z"/>
    <path class="fil8" d="M1947.8 2904.01l-3.98 45.4c95.82,-34.77 108.71,-2.81 150.37,-19.04 2.44,-0.95 10.69,-6.14 13.25,-8.42l-0.49 1.01 7.03 -17.89c0.81,-2.18 2.42,-6.58 3.23,-8.76 0.78,-2.12 1.97,-5.74 3.03,-8.59 -15.63,-47.64 -21.41,-448.9 -8.71,-507.4 24.84,-114.39 23.7,-81.83 4.86,-207.64 -10.98,-73.32 -22.67,-152.46 -35.03,-228.11 -2.51,7.05 -134.03,953.91 -133.56,959.44z"/>
    <path class="fil6" d="M5143.31 2704.65l50.96 33.59 6.88 -34.06c121.34,15.85 208.09,100.68 559.64,50.6 352.74,-50.26 331.55,-239.47 238.56,-263.19 -20.19,54.26 24.3,111.36 -139.53,179.84 -77.16,32.25 -177.19,43.63 -282.53,43.6 -121.61,-0.03 -187.88,-9.62 -280.94,-44.47 -161.45,-60.45 -120.18,-116.78 -141.12,-180.13 -28.67,8.87 -39.34,26.56 -49.37,53.02 -40.83,107.78 81.67,120.63 83.66,154.53l-46.21 6.67z"/>
    <path class="fil5" d="M2831.36 2801.71c7.93,42.44 14.96,39.28 40.3,76.82 15.85,23.5 28.39,45.01 45.22,67.77 31.09,42.06 64.67,98.63 98.93,130.73 33.05,-4.14 49.4,-13.15 72.07,-24.02l-1.82 63.43c39.24,4.18 25.33,7.26 61.78,17.91l-48.77 -24.54c-17.14,-134.04 15.46,-260.5 4.47,-397.12 -20.98,12.94 -34.74,30.4 -51.39,42.13 -12.79,9.01 -41.35,24.91 -59.92,32.42 -46.75,18.92 -100.1,16.59 -160.87,14.47z"/>
    <path class="fil3" d="M2487.41 1032.73c-31.91,31.75 -109.66,29.79 -151.63,28.64 -1.55,40.94 7.56,54.34 26.11,86.84l129.3 -10.78c45.44,-25.23 45.69,-1.93 153.29,-77.01l-8.8 -88.64c-48.28,5.36 -72.58,59.44 -148.27,60.95z"/>
    <path class="fil6" d="M2300.04 967.76c20.97,50.43 16.75,72.25 23.26,122.66 10.59,35.29 21.5,43.31 33.5,69.55 20.93,45.78 0.73,55.13 22.07,91.73l-3.53 -38.5c30.08,-0.13 52.14,1.6 82.47,-1.84 45.86,-5.2 46.23,-8.98 61.5,-23.41 -29.5,-15.84 -6.43,-10.7 -28.12,-50.52l-129.3 10.78c-18.55,-32.5 -27.66,-45.9 -26.11,-86.84 41.97,1.15 119.72,3.11 151.63,-28.64l-23.42 -4.69 -14.08 -62.31 43.1 -16.86c-80.96,16.22 -96.69,41.93 -192.97,18.89z"/>
    <path class="fil8" d="M2323.3 1090.42c-6.51,-50.41 -2.29,-72.23 -23.26,-122.66l-46.06 -156.97c-12.25,11.03 -17.07,72.26 -38.08,98.19 -37.36,46.09 -54.95,6.28 -97.44,26.13l-3.46 41.12c3.36,1.48 7.51,-0.41 9,2.82 8.78,19.07 -0.46,1.1 16.99,4.73 108.11,22.48 92.24,13.17 182.31,106.64z"/>
    <path class="fil5" d="M2595.99 1255.04c33.22,32.77 5.68,38.84 67.54,62.47 54.99,21 52.35,4.67 81.53,59.31 34.26,-69.54 23.34,-102.79 -33.55,-180.46l-30.85 -40.22c-0.65,-3.17 -3.15,-3.55 -4.77,-5.29l-5.29 49.04 -73.1 8.4 -1.51 46.75z"/>
    <path class="fil5" d="M1830.81 3002.96c39.28,78.14 40.55,49.91 80.5,105.54 31.38,43.72 39.52,75.82 114.47,76.45l12.94 -22.45c-47.69,-55.29 -116.63,-109.74 -121.76,-201.01l-87.02 1.1 0.87 40.37z"/>
    <path class="fil5" d="M2106.95 2922.96c22.42,24.89 19.01,33.68 44.29,58.69 24.23,23.95 26.79,28.09 49.48,53.61 23.41,26.32 81.94,103.16 124.01,45.11 -1.91,-2.12 -5.05,-7.96 -6.03,-6.07l-11.7 -11.57c-9.3,-9.08 -7.09,-6.35 -16.06,-15.53 -34.38,-35.22 -58.9,-67.33 -77.82,-111.97l-6.24 -48.85 -86.64 1.34c-1.06,2.85 -2.25,6.47 -3.03,8.59 -0.81,2.18 -2.42,6.58 -3.23,8.76l-7.03 17.89z"/>
    <path class="fil7" d="M5546.46 2314.59c-2.26,-4.57 -21.26,-16.22 -39.04,-44.74 -17.16,-27.53 -78.74,-170.14 -146.36,-150.96 -30.22,111.45 57.03,201.43 185.4,195.7z"/>
    <path class="fil7" d="M1815.81 3036.18c0.91,58.26 -7.6,59.75 31.1,84.65 49.85,32.07 37.23,13.1 69.38,65.36 44.39,72.16 116.77,71.25 165.77,23.94 -13.06,-30.95 -15.4,-33.67 -43.34,-47.63l-12.94 22.45c-74.95,-0.63 -83.09,-32.73 -114.47,-76.45 -39.95,-55.63 -41.22,-27.4 -80.5,-105.54l-15 33.22z"/>
    <path class="fil7" d="M2324.73 3080.37c-42.07,58.05 -100.6,-18.79 -124.01,-45.11 -22.69,-25.52 -25.25,-29.66 -49.48,-53.61 -25.28,-25.01 -21.87,-33.8 -44.29,-58.69l0.49 -1.01c-30.23,170.38 26.93,66.6 86.05,172.28 55.18,98.65 150.6,67.8 172.85,23.26 -16.17,-32.44 -7.46,-17.79 -41.61,-37.12z"/>
    <path class="fil7" d="M5412.53 2077.72c-38.92,6.58 49.48,19.51 89.07,76.66 31.64,45.66 38.61,96.84 85.98,120.44 80.26,-144.87 -134.87,-253.35 -175.05,-197.1z"/>
    <path class="fil4" d="M4650.19 3768.08c-25.14,29.13 -46.5,68.96 -58.04,116.12 44.55,-19.46 20.7,-2.26 45.11,-50.09 15.2,-29.78 17.34,-26.6 41,-45.95 16.53,-16.6 28.88,-27.83 62.98,-27.9 27.23,24.37 28.79,27.96 28.11,79.09 12.82,15.81 -15.45,8.19 22.81,14.43 4.43,-68.45 0.3,-85.81 -40.46,-114.92 -49.92,-6.49 -68.65,12.63 -101.51,29.22z"/>
    <path class="fil4" d="M3839.12 3312.1c-21.45,33.05 -40.44,56.36 -51.18,101.54 41.06,-2.79 11.63,17.63 32.35,-15.85 8.35,-13.49 1.01,-38.2 49.16,-74.3 47.75,-46.87 96.38,-44.15 92.54,43.19 7.43,25.28 -0.57,11.14 22.19,18.07 6.22,-19.72 7.48,-28.64 1.87,-54.76 -8.73,-40.72 -12.16,-36.53 -36.11,-49.6 -47.39,-24.99 -86.74,11.25 -110.82,31.71z"/>
    <path class="fil4" d="M3683.25 3210.42c-25.43,31.32 -47.95,64.85 -56.61,116.16 41.82,-18.33 22,-5.32 42.69,-48.55 15.18,-31.7 15.57,-24.52 39.55,-47.43 59.14,-57.64 91.67,-33.88 96.37,49.89l17.56 10.58c17.82,-48.61 -1.72,-76.41 -34.53,-110.48 -51.89,-4.44 -70.22,12.06 -105.03,29.83z"/>
    <path class="fil4" d="M4161.81 3489.75c-19.8,31.45 -41.06,68.41 -52.25,116.41 43.22,-20.78 21.98,-5.9 43.88,-50.18 15.48,-31.32 15.51,-24.42 40.46,-45.75 13.7,-21.41 37.43,-41.59 68.89,-25.23 24.56,12.77 23.51,41.01 25.9,76.41l14.73 9.02c22.98,-44.52 -1.85,-90.85 -39.4,-110.04 -57.06,-9.51 -57.51,12.51 -102.21,29.36z"/>
    <path class="fil9" d="M2540.04 1196.78l48.95 -9.45c-11.5,38.39 -25.03,46.9 7,67.71l1.51 -46.75 73.1 -8.4 5.29 -49.04c-4.29,-32.03 6.56,-10.77 -11.87,-27.66l-97.46 53.24c-27.93,15.07 -13.58,7.47 -26.52,20.35z"/>
    <path class="fil7" d="M3269.45 2919.99c52.93,10.87 50.79,25.03 54.95,81.6l15.06 8.75c14.1,-49.71 -9.08,-80.36 -36.26,-107.99 -107.41,-12.22 -153.88,112.28 -154.32,122.54 -1.17,27.17 -0.64,5.23 9.26,18.49 54.15,-60.84 21.82,-82.44 111.31,-123.39z"/>
    <path class="fil7" d="M4001.53 3403.13c-10.88,19.16 -20.99,30.61 -32.93,52.13 -34.84,62.82 -10.36,48.3 -7.5,54.11 24.64,-24.06 12.89,-15.45 31.43,-52.02 14.16,-27.92 8.63,-22.2 30.24,-41.39 62,-50.75 102.98,-43.98 105.88,48.9l20.37 16.16c-1.2,-70.53 -3.54,-77.63 -43.8,-112.39 -52.51,-4.43 -74.98,16.01 -103.69,34.5z"/>
    <path class="fil7" d="M4324.52 3593.12c-17.05,25.73 -57.42,68.99 -44.3,101.48 35.5,-23.15 23.31,-60.43 70.5,-92.95 4.96,-5.88 1.76,-10.77 21.91,-21.65 10.25,-5.53 25.32,-9.76 39.64,-7.57 36.3,5.53 37.27,31.71 34.62,72.68 12.85,34.97 -0.78,9.2 18.69,16.75 14.22,-37.83 -1.62,-86.49 -30.92,-102.32 -46.41,-25.07 -87.53,17.21 -110.14,33.58z"/>
    <path class="fil7" d="M3517.13 3125.48c-11.07,20.33 -21.17,30.04 -32.74,51.84 -32.09,60.42 -9.39,47.64 -7.12,52.06 13.43,-11.86 4.37,2.34 18.93,-22.61 15.92,-27.26 8.58,-36.37 42.59,-69.01 64.07,-54.38 103.44,-45.21 106.42,51.2l19.12 10.43c2.2,-64.14 -7.19,-77.7 -41.76,-111.18 -57,-2.55 -74.6,18.17 -105.44,37.27z"/>
    <path class="fil7" d="M4484.85 3682.94l-46.07 78.06c-10.54,52.56 -4.88,6.97 6.14,26.93 42.43,-41.83 11.12,-56.35 67.48,-91.12 17.8,-28.75 33.37,-34.11 73.75,-29.99 27.43,36.28 22.39,26.97 25.62,75.53l12.89 11.44c23.19,-47.26 -6.5,-81.66 -36.15,-108.27 -53.05,-0.93 -75.51,18.15 -103.66,37.42z"/>
    <path class="fil7" d="M3355.72 3037.29c-22.22,31.81 -41.3,53.91 -47.95,101.07 32.75,-16.55 39.9,-59.71 68.99,-92.32 70.82,-61.39 103.99,-40.63 108.61,52.94l16.88 5.42c9.15,-55.06 -10.25,-82.68 -36.76,-107.17 -58.09,-7.74 -82.2,15.58 -109.77,40.06z"/>
    <path class="fil3" d="M3376.76 3046.04c27.87,3.2 28.56,6.14 56.34,23.07 18.9,11.52 34.45,20.46 52.27,29.87 -4.62,-93.57 -37.79,-114.33 -108.61,-52.94z"/>
    <path class="fil3" d="M3538.79 3137.76c41.41,10.72 67.47,35.45 106.42,51.2 -2.98,-96.41 -42.35,-105.58 -106.42,-51.2z"/>
    <path class="fil3" d="M4022.77 3415.96c46.29,10.05 55.98,35.86 105.88,48.9 -2.9,-92.88 -43.88,-99.65 -105.88,-48.9z"/>
    <path class="fil3" d="M4512.4 3696.81c17.33,6.34 31.55,12.54 49.79,24.06 26.2,16.55 13.15,13.89 49.58,21.48 -3.23,-48.56 1.81,-39.25 -25.62,-75.53 -40.38,-4.12 -55.95,1.24 -73.75,29.99z"/>
    <path class="fil3" d="M4193.9 3510.23c29.84,15.27 57.52,37.32 94.79,51.18 -2.39,-35.4 -1.34,-63.64 -25.9,-76.41 -31.46,-16.36 -55.19,3.82 -68.89,25.23z"/>
    <path class="fil3" d="M4350.72 3601.65l96.17 43.46c2.65,-40.97 1.68,-67.15 -34.62,-72.68 -14.32,-2.19 -29.39,2.04 -39.64,7.57 -20.15,10.88 -16.95,15.77 -21.91,21.65z"/>
    <path class="fil3" d="M3708.88 3230.6c29.58,9.93 58.75,35.4 96.37,49.89 -4.7,-83.77 -37.23,-107.53 -96.37,-49.89z"/>
    <path class="fil3" d="M3869.45 3323.49c43.38,17.21 40.89,33.59 92.54,43.19 3.84,-87.34 -44.79,-90.06 -92.54,-43.19z"/>
    <path class="fil7" d="M3015.81 3077.03c14,30.91 31.19,57.52 64.26,75.12l5.99 -35.71 1.82 -63.43c-22.67,10.87 -39.02,19.88 -72.07,24.02z"/>
    <path class="fil3" d="M3324.4 3001.59c-4.16,-56.57 -2.02,-70.73 -54.95,-81.6l-29.27 32.79c23.31,22.18 50.72,38.11 84.22,48.81z"/>
    <path class="fil3" d="M4678.26 3788.16c25.57,15.73 64.16,34.85 91.09,51.19 0.68,-51.13 -0.88,-54.72 -28.11,-79.09 -34.1,0.07 -46.45,11.3 -62.98,27.9z"/>
    <path class="fil4" d="M5708.97 1120.4c42.43,19.39 69.33,-1.17 85.33,-30.88 -29.68,-20.89 -69.28,-21.04 -85.33,30.88z"/>
   </g>
  </g>
 </g>
</svg>
