<?xml version="1.0" encoding="UTF-8"?>
<!DOCTYPE svg PUBLIC "-//W3C//DTD SVG 1.1//EN" "http://www.w3.org/Graphics/SVG/1.1/DTD/svg11.dtd">
<!-- Creator: CorelDRAW 2018 (64-Bit) -->
<svg xmlns="http://www.w3.org/2000/svg" xml:space="preserve" width="74.475mm" height="51.76mm" version="1.1" style="shape-rendering:geometricPrecision; text-rendering:geometricPrecision; image-rendering:optimizeQuality; fill-rule:evenodd; clip-rule:evenodd"
viewBox="0 0 7447.5 5176"
 xmlns:xlink="http://www.w3.org/1999/xlink">
 <defs>
  <style type="text/css">
   <![CDATA[
    .fil7 {fill:#0B2D4D}
    .fil6 {fill:#1B9EB2}
    .fil12 {fill:#371D77}
    .fil3 {fill:#3BC5E5}
    .fil15 {fill:#4EACB6}
    .fil17 {fill:#6FCDEC}
    .fil16 {fill:#7470E8}
    .fil11 {fill:#8A0389}
    .fil4 {fill:#9B86FE}
    .fil13 {fill:#AFB1B4}
    .fil2 {fill:#DBCCF9}
    .fil1 {fill:#DBCCF9}
    .fil14 {fill:#DD7A67}
    .fil0 {fill:#E08569}
    .fil8 {fill:#EBB22A}
    .fil18 {fill:#F5EAD4}
    .fil9 {fill:#F8C757}
    .fil5 {fill:#F9A17B}
    .fil10 {fill:#FDFDFF}
   ]]>
  </style>
 </defs>
 <g id="Layer_x0020_1">
  <metadata id="CorelCorpID_0Corel-Layer"/>
  <g id="_1478000762800">
   <rect class="fil0" x="117.51" y="122.64" width="7247.5" height="4826"/>
   <path class="fil1" d="M2704.14 4186.61c-287.42,-81.74 -535.29,-229.41 -659.23,-392.9 -123.93,-163.49 -123.93,-342.79 -152.93,-564.29 -29.01,-221.5 -87.03,-485.2 -102.84,-780.53 -15.83,-295.33 10.54,-622.3 84.37,-922.91 73.84,-300.6 195.14,-574.84 361.26,-714.6 166.12,-139.75 377.07,-145.02 590.66,-89.65 213.59,55.37 429.82,171.4 590.67,316.43 160.85,145.03 266.32,319.06 419.26,403.44 152.94,84.38 353.35,79.11 738.33,68.56 384.99,-10.55 954.56,-26.37 1276.26,34.28 321.7,60.65 395.53,197.77 432.45,390.26 36.92,192.49 36.92,440.36 -26.37,688.23 -63.28,247.87 -189.85,495.73 -514.19,733.06 -324.34,237.32 -846.44,464.09 -1110.13,611.75 -263.69,147.67 -268.97,216.23 -390.27,258.42 -121.29,42.19 -358.61,58.01 -640.76,58.01 -282.15,0 -609.12,-15.82 -896.54,-97.56z"/>
   <path class="fil2" d="M2261.57 4079.67l-235.26 3.97 -175.84 -0.7 -299.09 3.84 -262.57 0.72 -222.78 -4.41c-114.17,-0.71 -200.69,-22.32 -251.14,63.15 -26.09,169.12 161.55,127.88 298.71,127.73l1245.93 0.28c553.71,-1.6 1107.57,1.94 1661.25,0.11l2088.42 -0.13c111.35,0.06 313.45,34.26 316.89,-92.08 3.77,-138.56 -207.74,-97.95 -316.89,-98.8 -135.85,-1.05 -277.07,4.41 -411.32,-2.33 -109.5,16.48 -1186.17,14.43 -1238.92,-5.82 -28.79,13.49 -155.44,15.62 -186.89,-1.46 -70.67,20.7 -1029.34,24.51 -1132.85,7.41l-34.61 2.66c-84.99,0.96 -112.99,-8.23 -200.55,0.71 -59.8,6.1 -138.03,-3.16 -206.44,-1.54 -111.63,2.66 -335.16,12.29 -436.05,-3.31z"/>
   <path class="fil3" d="M4332.76 2898.56l785.93 -2.04 70.45 -0.65 13.31 -0.16 138.54 1.34 -0.4 133.26 -3.8 6.7 112.41 7.42c19.27,-36.53 39.17,-96.87 108.89,-123.97 3.25,-52.46 -4.43,-141.83 2.56,-182.69 9.19,-53.65 56.43,-71.64 85.13,-102.38 -80.53,-49.09 35.84,-163.19 13.35,-291.71 -17.2,-98.3 -106.65,-48.13 -120.36,-250.32 -14.63,-215.74 -118.05,-102.34 -211.55,-155.46 -44.56,-25.31 -127.95,-188.93 -227.07,-82.23 -41.98,45.2 -11.07,99.8 -43.15,146.9 -28.55,41.94 -69.38,29.19 -96.8,81.56 -50.15,95.77 73.74,183.86 79.96,260.69 7.47,92.14 -134.11,96.88 -13.58,261.61 107.1,146.39 36.03,109.19 55.36,287.86l-749.18 4.27z"/>
   <path class="fil4" d="M3306.75 3290.75c-102.22,11.42 -153.88,41.76 -213.41,95 30.31,50.21 -25.34,-12.75 -34.96,154.74 -4.97,86.55 6.68,127.29 6.38,143.66 -0.53,28.53 12.53,-5.24 -6.7,23.21 108.96,115.67 61.24,1.14 155.83,194.53 142.66,-19.96 384.64,-109.92 525.35,-36.86l-160.51 56.67 64.45 23.59c62.66,10.15 112.15,-3.18 179.54,-24.15l192.22 -33.76c9.79,-72.31 -110.49,-85.97 -13.6,-151.69 38,-25.77 134.47,-97.63 161.48,-101.42 12.78,-33.31 12.86,-21.98 37.14,-45.73 -37.08,-67.18 -164.69,-216.07 -215.41,-260.4 -115.65,-101.07 -229.05,-112.03 -387.61,-84.8 73.74,172.01 -313.41,278.71 -290.19,47.41z"/>
   <path class="fil5" d="M2910.25 2890.64c3.88,64.06 25.63,21.56 -4.18,83.29 -20.16,-6.01 -15.17,-5.33 -26.48,-11.43 -12.78,-6.9 -2.84,-2.85 -20.98,-15.1 -152.93,114.83 -7.21,256.39 -2.41,322.88 2.32,32.21 -98.33,270.78 -111.27,361.4 95.72,-13 119.23,-63.85 219.42,23.65l14.8 -176.04c2.3,-105.99 5.82,-151.15 37.63,-242.19 3.48,-9.95 8.2,-25.61 12.06,-34.64l18.92 -34.97c73.28,3.27 80.32,34.68 136.32,59.76 34.01,15.24 123.98,29.05 144.78,43.69l-22.11 19.81c-23.22,231.3 363.93,124.6 290.19,-47.41 -39.05,-13.05 -24.06,-4.6 -42.06,-31.46 -3.17,-4.74 -9.75,-19.91 -12,-24.43l-8.29 -17.05 -4.78 40.19c-44.04,19.4 -67.4,36.5 -132.3,38.45l37.85 -32.48c106.79,-72.72 37.46,-108.99 97.94,-68.52 -1.01,-79.69 23.45,-125.35 30.22,-210.59 47.41,-31.83 79.41,-25.73 86.9,-110.49 6.26,-70.82 -17.6,-95.08 -42.41,-140.15 -24.38,-10.83 -40.71,-15.61 -77.15,-12.53 -24.69,32.2 -26.62,35.65 -37.08,92.8l-28.5 -31.06c-61.65,-33.74 -159.46,-177.78 -334.75,-120.98 -266.98,86.5 -202.18,186.15 -220.28,275.6z"/>
   <path class="fil6" d="M5645.78 2635.39c-28.7,30.74 -75.94,48.73 -85.13,102.38 -6.99,40.86 0.69,130.23 -2.56,182.69 -69.72,27.1 -89.62,87.44 -108.89,123.97l-7.99 213.76c13.17,18.06 -5.36,-0.51 23.84,25.16 4.87,4.28 26.07,19.54 32.07,23.73 4.48,45.2 14.5,109.57 -25.2,123.97l226.66 -8.05c56.74,-42.06 76.7,-31.34 82.13,-118.94 5.38,-86.61 36.08,-64.24 95.76,-103.25 70.05,-45.78 26.9,-77.27 51.91,-150.61 15.89,-46.61 62.23,-63.46 88.63,-99.85 51.83,-71.44 -12.16,-89.84 -3.33,-154.82 6.82,-50.18 57.74,-70.43 80.46,-112.38 46.77,-86.38 -15.7,-91.16 -38.21,-134.39 -38.09,-73.18 26.14,-69 -41.35,-145.68 -95.15,-15.32 -81.06,13.21 -134.34,43.08 -45.51,25.51 -89.44,1.73 -147.03,7.17 -43.91,62.17 -50.16,124.9 -87.43,182.06z"/>
   <path class="fil7" d="M2799.84 2391.2c23.18,-42.55 67.85,-95.81 126.81,-105.77 -34.03,40.35 -57.85,88.3 -126.81,105.77zm390.47 -162.3c85.88,-162.23 283.91,-58.65 322.58,79.7l-29.51 -33.91c-113.61,-154.55 -185.4,-70.13 -293.07,-45.79zm-331.7 718.5c18.14,12.25 8.2,8.2 20.98,15.1 11.31,6.1 6.32,5.42 26.48,11.43 29.81,-61.73 8.06,-19.23 4.18,-83.29 -18.16,-13.47 -7.16,-1.35 -21.17,-20.29 -5.33,-7.22 -8.26,-10.89 -14.07,-23.92 -64.65,-145.09 98.37,-223.36 212.65,-261.64 199.18,-66.73 314.8,16.87 377.62,151.23l28.5 31.06c10.46,-57.15 12.39,-60.6 37.08,-92.8 36.44,-3.08 52.77,1.7 77.15,12.53 -6.57,-173.59 -50.92,-385.16 -138.72,-481.06 -38.41,-41.94 -131.21,-98.03 -215,-59.89 -103.09,46.92 -14.45,86.43 -206.52,98.57 -104.46,6.6 -168.51,35.91 -220.37,91.57 -61.83,66.35 -125.86,105.5 -134.18,174.85 -19.93,166.34 126.09,358.74 165.39,436.55z"/>
   <path class="fil8" d="M5361.64 3914.9l21.03 64.41c1.15,18.63 -2.48,54.42 -3.27,74.94l-682.29 2.32c-79.79,0.51 -169.31,15.1 -168.9,-76.27 0.39,-86.72 83.81,-74.7 156.99,-74.17 134.32,0.98 621.46,-14.04 676.44,8.77zm68.2 -309.77l-64.34 3.69c-5.74,40.88 3.72,20.41 -17.06,34.56l1.27 194.97c14.09,18.23 14.42,-26.91 12.8,34.98 -153.09,2.49 -776.84,17.71 -876.83,-10.43l-26.71 22.68c-90.4,65.52 -83.16,117.09 -0.01,189.62 52.75,20.25 1129.42,22.3 1238.92,5.82l81.48 -463.29c1.36,-64.54 0.24,-31.21 -14.28,-50.48l-308.52 -0.58 -20.74 26.57c-1.5,2.11 -4.37,8.28 -5.98,11.89z"/>
   <path class="fil5" d="M3822.72 3921.14c-99.21,28.2 -237.52,58.07 -348.6,23.74 -54.46,-16.83 -120.3,-38.58 -183.1,-18.2 -56.08,18.2 -68.54,58.81 -128.93,69.83 -33.56,50.6 -22.12,4.56 -22.87,84.64 103.51,17.1 1062.18,13.29 1132.85,-7.41 106.69,-66.93 67.93,-133.08 25.73,-227.49 -33.68,-75.38 -72.91,-155.06 -134.98,-211.98 -27.01,3.79 -123.48,75.65 -161.48,101.42 -96.89,65.72 23.39,79.38 13.6,151.69l-192.22 33.76z"/>
   <path class="fil3" d="M1774.25 1774.62c23.34,21.54 15.74,-0.8 10.11,30.11 22.04,-13.21 77.73,-48.5 109.97,-56.17 -33.01,84.57 -130.51,251.72 -146.36,344.83l701.35 -146.29c-18.09,-38.47 -2.04,-11.46 -24.33,-37.21l-139.8 -109.91c-109.25,-84.32 -109.91,-69 -146.46,-151.04l2.72 41.04c-17.65,10.25 6.7,0.93 -27.96,15.01 -2.35,0.95 -29.36,9.06 -29.62,9.1 -40.39,6.96 -64.22,-5.21 -67.85,-5.69l-7.11 -42.15c13.79,-15.41 7.53,-19.89 60.41,-30.86 33.7,-6.99 39.92,-8.14 70.33,-4.68l-52.17 -227.49c-68.75,-2.3 -191.83,32.28 -253.09,47.61l43.42 251.02 -83.34 52.98c-13.78,11.09 -10.33,8.9 -20.22,19.79z"/>
   <path class="fil9" d="M4524.63 3217.11c-8.56,-35.45 -9.09,-120.39 6.38,-148.91 46.38,11.66 33.37,24.47 32.73,81.69 -0.6,53.14 9.83,63.87 -39.11,67.22zm812.28 -31.4c-0.25,-0.82 -1.88,-48.23 -1.88,-48.37 -0.13,-53.02 -10.85,-52.52 26.61,-65.95 27.36,42.49 5.79,135.57 4.8,131.74 -0.36,-1.39 -3.16,4.35 -4.8,6.47 -28.32,-10.51 -14.65,8.93 -24.73,-23.89zm-46.47 27.15c-37.28,-22.26 -43.31,-121.72 0,-143.56 21.99,33.81 21.38,107.56 0,143.56zm-654.9 -125.56c3.84,-2.92 -1.53,-30.71 53.76,-12.39 5.22,1.73 33.08,19.46 40.13,30.02 73.47,109.96 -160.87,166.38 -129.04,21.32 9.13,-41.64 24.25,-30.64 35.15,-38.95zm-143.22 174.33l948.89 -3.44 7.99 -213.76 -112.41 -7.42 -909.89 0.32 0.16 216.34 65.26 7.96z"/>
   <path class="fil10" d="M5349.71 3838.35l-1.27 -194.97c-138.23,-8.04 -297.19,-1.13 -437.71,-1.08 -104.87,0.04 -360.04,-24.03 -418.6,24.56 -13.18,52.21 -9.45,116.31 1.98,160.81 101.33,28.53 700.19,11.88 855.6,10.68z"/>
   <path class="fil3" d="M793.35 2627.45c17.65,119.42 57.58,253.91 86.71,375.13l167.77 710.44c65.73,289.99 28.51,121.43 18.01,266.76 -2.09,28.98 -0.72,73.53 0.19,103.31l222.78 4.41c-7.34,-64.54 -8.27,-371.36 6.68,-423.87 -31.83,49.7 -9.05,173.17 -11.78,239.28 -96.94,-4.21 -75.41,-22.2 -97.05,-115.68 -13.26,-57.3 -24.74,-106.14 -37.4,-162.63 -34.58,-154.33 -211.13,-917.67 -236.76,-967.31 -13.87,-20.46 -6.8,-13.18 -36.32,-17.3 21.6,140.13 207.96,892.25 267.37,1132.38 26.54,107.26 40.27,117.19 5.65,132.82 -31.33,-16.39 -79.74,-274.61 -90.56,-321.77 -23.63,-103.06 -235.94,-932.73 -218.21,-962.52 -18,-24.09 22.19,-12.81 -23.48,-23.05l-23.6 29.6z"/>
   <path class="fil10" d="M4685.2 3906.13c-73.18,-0.53 -156.6,-12.55 -156.99,74.17 -0.41,91.37 89.11,76.78 168.9,76.27l682.29 -2.32c0.79,-20.52 4.42,-56.31 3.27,-74.94l-21.03 -64.41c-54.98,-22.81 -542.12,-7.79 -676.44,-8.77z"/>
   <path class="fil11" d="M4426.9 3037.33l909.89 -0.32 3.8 -6.7c-8.05,-14.73 -4.66,3.04 -9.02,-24.09l-3.21 -70.5c-5.74,-30.29 -1.83,-11.09 -14.21,-31.91l-67.66 1.74c13.23,153.53 7.11,113.4 -15.38,132.6 -56.15,-40.66 1.43,1.78 -28.66,-142.44l-13.31 0.16 -1.33 141.61 -51.63 -6.31 -5.98 -60.41c6.15,-71.9 -7.48,-15.12 23.59,-52.53 -67.69,-5.47 -12.42,1.64 -35.1,-21.71l-785.93 2.04 1.1 139.12 93.04 -0.35z"/>
   <path class="fil12" d="M1288.81 4087.5l262.57 -0.72 -1.35 -187.76 2.33 -228.72 -186.32 -9.74 -60.72 1.96 -9.83 1.11c-14.95,52.51 -14.02,359.33 -6.68,423.87z"/>
   <path class="fil3" d="M4720.87 3491.04c22.89,16.2 21.97,0.45 24.3,49.83l-7.69 41.2c-0.41,-1.51 -3.14,5.31 -4.74,7.94 -39.78,-22.12 -41.64,-58.87 -11.87,-98.97zm-37.47 -22.57l-1.09 139.97 683.19 0.38 64.34 -3.69 -3.35 -146.87c-34.46,18.33 -191.71,7.85 -242.84,5.72 -2.61,2.41 -5.37,6.22 -7.11,7.95 -44.41,44.08 -64.03,18.19 -68.75,0.21 -3.65,-13.89 -382.54,-4.04 -424.39,-3.67z"/>
   <path class="fil9" d="M1744.81 3901.31c41.76,8.18 49.78,-2.28 94.43,17.41 15.9,47.41 11.77,104.56 11.23,164.22l175.84 0.7 0 -15.09 -74.93 3.72c51.09,-66.52 42.14,-67.71 38.37,-115.47l-3.77 -308.93 64.59 -17.66c11.59,38.58 3.09,34.3 6.45,53.46 0.13,0.74 -11.27,17.09 19.06,45.78l-3.65 -110.73 -327.9 4.62 0.28 277.97z"/>
   <path class="fil12" d="M5116.85 3431.15c-10.54,4.07 6.07,3.16 -29.05,6.81l-597.67 -2.55c15.68,20.89 -3.95,34.75 100.45,33.5 31.52,-0.38 61.79,-1.9 92.82,-0.44 41.85,-0.37 420.74,-10.22 424.39,3.67 4.72,17.98 24.34,43.87 68.75,-0.21 1.74,-1.73 4.5,-5.54 7.11,-7.95 51.13,2.13 208.38,12.61 242.84,-5.72l45.43 -27.21c39.7,-14.4 29.68,-78.77 25.2,-123.97 -6,-4.19 -27.2,-19.45 -32.07,-23.73 -29.2,-25.67 -10.67,-7.1 -23.84,-25.16l-948.89 3.44c9.86,38.73 -10.87,23.02 60.76,26.13l547.5 -1.42c86.99,-0.1 240.68,-25.88 266.52,48.48 41.39,119.13 -115.66,104.98 -198.19,102.15l-9.02 -83.55 -38.98 1.75 -4.06 75.98z"/>
   <path class="fil12" d="M4485.68 3862.9c99.99,28.14 723.74,12.92 876.83,10.43 1.62,-61.89 1.29,-16.75 -12.8,-34.98 -155.41,1.2 -754.27,17.85 -855.6,-10.68 -11.43,-44.5 -15.16,-108.6 -1.98,-160.81 58.56,-48.59 313.73,-24.52 418.6,-24.56 140.52,-0.05 299.48,-6.96 437.71,1.08 20.78,-14.15 11.32,6.32 17.06,-34.56l-683.19 -0.38 -107.69 -0.92 -88.09 8.24c-46.45,59.13 -61.16,189.63 -0.85,247.14z"/>
   <path class="fil9" d="M1388.07 3444.56c-3.11,55.87 -5.75,97.88 -19.05,116.7l-2.98 99.3 186.32 9.74c2.55,-41.65 68.66,-186.28 84.09,-203.59l7.53 -32.43c-10.89,-12.17 -2.02,-5.44 -17.42,-17.1 -36.05,-27.28 -47.6,-22.39 -73.52,-13.46 -3.24,40.33 -14.34,46.99 -30.73,83.72 -18.19,40.79 -16.36,47.2 -46.24,70.61l9.05 -277.86 -84.36 -3.54c-9.32,66.78 -9.47,96.11 -12.69,167.91z"/>
   <path class="fil9" d="M5471.92 3431.05l-45.43 27.21 3.35 146.87c1.61,-3.61 4.48,-9.78 5.98,-11.89l20.74 -26.57 308.52 0.58c14.52,19.27 15.64,-14.06 14.28,50.48 19.02,-33.72 3.31,-22.34 29.66,-40.34l34.79 -18.57c1.82,-4.85 7.18,-3.24 10.29,-5.88l-1.33 -126.5 -154.19 -3.44 -226.66 8.05z"/>
   <path class="fil13" d="M2496.35 3977.72l-176.76 -0.07 -25.83 80.44 531.35 -19.61c18.81,-17.47 12.87,-15.32 44.66,-31.38l48.05 29.58 193.63 8.52c9.49,43.73 9.75,13.83 -6.84,38.61l34.61 -2.66c0.75,-80.08 -10.69,-34.04 22.87,-84.64 -61.06,-0.88 -124.74,-1.79 -185.68,-0.85 -88.41,1.35 -76.44,14.4 -132.55,-28.48 -139.26,-11.1 -219.08,1.48 -347.51,10.54z"/>
   <path class="fil3" d="M1551.38 4086.78l299.09 -3.84c0.54,-59.66 4.67,-116.81 -11.23,-164.22 -44.65,-19.69 -52.67,-9.23 -94.43,-17.41l-194.78 -2.29 1.35 187.76z"/>
   <path class="fil10" d="M876.18 2639.99l-35.75 -19.09c-17.73,29.79 194.58,859.46 218.21,962.52 10.82,47.16 59.23,305.38 90.56,321.77 34.62,-15.63 20.89,-25.56 -5.65,-132.82 -59.41,-240.13 -245.77,-992.25 -267.37,-1132.38z"/>
   <path class="fil3" d="M826.82 2450.55l49.4 10.87c3.38,-3.4 9.73,-12.11 10.71,-8.99l11.05 -14.39c0.38,-0.7 -0.06,-3.72 0.32,-5.53 14.7,32.32 11.19,18.82 26.64,31.17 24.14,-58.21 425.03,-402.67 510.25,-475.68 54.8,-46.94 123.68,-126.54 181.67,-156.63 -1.21,-50.96 8.11,-16.53 -15.84,-48.16 -38.47,26.21 -67.24,56.09 -101.92,90.04l-374.31 337.99c-33.35,28.1 -63.5,52.99 -94.36,83.66 -195.86,194.63 -156.51,79 -203.61,155.65z"/>
   <path class="fil3" d="M924.06 2471.81c20.23,30.98 -19.12,14.38 27.71,30.33l-26.69 61.57c52.59,-2.95 41.5,19.47 55.07,-19.44 0.63,-75.47 28.88,-67.52 73.43,-107.58 37.16,-33.4 45.46,-45.86 80.18,-73.89 57.19,-46.17 105.06,-98.88 162.6,-146.15 59.76,-49.09 276.34,-278.03 345.72,-289.51l13.84 -7.77c59.36,-44.19 -26.9,52.94 27.19,-27.67l-32.38 -8.61c-2.24,0.06 -6.21,1.04 -8.11,1.37 -2.75,0.49 -13.04,12.11 -15.85,14.89l-9.91 -67.98 -2.43 48.24c-70.11,45.42 -175.68,155.21 -245.99,219.48l-379.74 343.13c-28.94,25.23 -18.44,23.06 -64.64,29.59z"/>
   <path class="fil2" d="M2496.35 3977.72c128.43,-9.06 208.25,-21.64 347.51,-10.54 -54.82,-63.66 -167.04,-70.79 -251.55,-89.29 -112.78,-24.68 -153.44,-49.45 -252.94,19.17 49.03,60.72 122.15,44.25 156.98,80.66z"/>
   <path class="fil8" d="M2026.31 4068.55c50.62,-7.31 13.26,-6.15 43.88,-39.9 15.58,-17.18 42.88,-19.51 47.49,-21.48 -22.34,-18.7 23.82,-17.76 -41.65,-8.6l-6.58 -44.19 4.52 -170.76c13.68,-53.9 12.51,-4.59 2.11,-54.17 -30.33,-28.69 -18.93,-45.04 -19.06,-45.78 -3.36,-19.16 5.14,-14.88 -6.45,-53.46l-64.59 17.66 3.77 308.93c3.77,47.76 12.72,48.95 -38.37,115.47l74.93 -3.72z"/>
   <path class="fil10" d="M924.94 2463.68l-0.88 8.13c46.2,-6.53 35.7,-4.36 64.64,-29.59l379.74 -343.13c70.31,-64.27 175.88,-174.06 245.99,-219.48l2.43 -48.24c-57.99,30.09 -126.87,109.69 -181.67,156.63 -85.22,73.01 -486.11,417.47 -510.25,475.68z"/>
   <path class="fil14" d="M2910.25 2890.64c18.1,-89.45 -46.7,-189.1 220.28,-275.6 175.29,-56.8 273.1,87.24 334.75,120.98 -62.82,-134.36 -178.44,-217.96 -377.62,-151.23 -114.28,38.28 -277.3,116.55 -212.65,261.64 5.81,13.03 8.74,16.7 14.07,23.92 14.01,18.94 3.01,6.82 21.17,20.29z"/>
   <path class="fil15" d="M2293.76 4058.09c-47.65,18.43 -13.88,-1.22 -32.19,21.58 100.89,15.6 324.42,5.97 436.05,3.31 68.41,-1.62 146.64,7.64 206.44,1.54 87.56,-8.94 115.56,0.25 200.55,-0.71 16.59,-24.78 16.33,5.12 6.84,-38.61l-193.63 -8.52c-11.5,16.17 -7.95,28.7 -48.19,28.23 -35.65,-0.42 -33.02,-6.51 -44.52,-26.43l-531.35 19.61z"/>
   <path class="fil6" d="M826.82 2450.55l-69.55 105.65c16.96,39.07 24.42,22.03 36.08,71.25l23.6 -29.6c45.67,10.24 5.48,-1.04 23.48,23.05l35.75 19.09c29.52,4.12 22.45,-3.16 36.32,17.3 9.86,-44.61 45.37,-70.84 67.65,-113.02 -13.57,38.91 -2.48,16.49 -55.07,19.44l26.69 -61.57c-46.83,-15.95 -7.48,0.65 -27.71,-30.33l0.88 -8.13c-15.45,-12.35 -11.94,1.15 -26.64,-31.17 -0.38,1.81 0.06,4.83 -0.32,5.53l-11.05 14.39c-0.98,-3.12 -7.33,5.59 -10.71,8.99l-49.4 -10.87z"/>
   <path class="fil16" d="M2979.15 3479.29l-14.8 176.04 93.71 52.03c19.23,-28.45 6.17,5.32 6.7,-23.21 0.3,-16.37 -11.35,-57.11 -6.38,-143.66 9.62,-167.49 65.27,-104.53 34.96,-154.74 -43.04,16.93 -83.41,66.48 -114.19,93.54z"/>
   <path class="fil9" d="M2073.97 3783.62c147.73,-6.12 144.19,181.96 -4.52,170.76l6.58 44.19c65.47,-9.16 19.31,-10.1 41.65,8.6 85.62,-10.93 131.93,-77.38 116.31,-164.69 -14.18,-79.28 -67.8,-118.06 -157.91,-113.03 10.4,49.58 11.57,0.27 -2.11,54.17z"/>
   <path class="fil17" d="M1298.56 3609.85c-13.82,-34.22 -9.08,-10.95 -2.09,-37.95l72.55 -10.64c13.3,-18.82 15.94,-60.83 19.05,-116.7 -6.43,-30.76 -12.84,-39.32 -17.77,-77.74 -52,26.49 -31.2,43 -53.86,11.03 -21,-29.61 -5.9,-36.4 -48.58,-45.86l12.83 253.7c14.18,35.15 -9.48,1.73 17.87,24.16z"/>
   <path class="fil6" d="M1601.02 1783.21c23.95,31.63 14.63,-2.8 15.84,48.16l9.91 67.98c2.81,-2.78 13.1,-14.4 15.85,-14.89 1.9,-0.33 5.87,-1.31 8.11,-1.37l32.38 8.61c-54.09,80.61 32.17,-16.52 -27.19,27.67l-13.84 7.77 16.27 8.02c24.37,-31.35 67.77,-63.07 98.11,-94.47 -1.86,-3.85 -4.57,-8.13 -5.73,-11.46l-7.55 -23.39c-11.8,-42.23 -0.19,34.66 -1.38,-23.79 43.84,8.41 10.32,-9.54 42.56,22.68 5.63,-30.91 13.23,-8.57 -10.11,-30.11l-183.91 -46.15 10.68 54.74z"/>
   <path class="fil3" d="M4531.01 3489.79c2.83,3.34 25.33,-5.63 22.32,51.2 -4.11,77.92 -2.14,18.36 -22.32,42.36 -8.46,-10.86 -25.67,23.7 -19.17,-54.04 5.15,-61.79 10.14,-26.94 19.17,-39.52zm-44.48 125.97l88.09 -8.24 2.29 -143.81 106.49 4.76c-31.03,-1.46 -61.3,0.06 -92.82,0.44 -104.4,1.25 -84.77,-12.61 -100.45,-33.5l597.67 2.55c35.12,-3.65 18.51,-2.74 29.05,-6.81 -113.45,11.84 -256.14,5.71 -372.25,4.58 -104.17,-1 -203.82,-14.2 -262.98,18.02l-40.64 19.2c-2.04,0.92 -7.33,6.89 -8.82,4.29 -1.5,-2.61 -6.19,2.48 -9.37,4.5l0.75 128.18 62.99 5.84z"/>
   <path class="fil6" d="M4635.54 3087.3c-10.9,8.31 -26.02,-2.69 -35.15,38.95 -31.83,145.06 202.51,88.64 129.04,-21.32 -7.05,-10.56 -34.91,-28.29 -40.13,-30.02 -55.29,-18.32 -49.92,9.47 -53.76,12.39z"/>
   <path class="fil10" d="M2069.45 3954.38c148.71,11.2 152.25,-176.88 4.52,-170.76l-4.52 170.76z"/>
   <polygon class="fil9" points="4574.62,3607.52 4682.31,3608.44 4683.4,3468.47 4576.91,3463.71 "/>
   <path class="fil10" d="M3190.31 2228.9c107.67,-24.34 179.46,-108.76 293.07,45.79l29.51 33.91c-38.67,-138.35 -236.7,-241.93 -322.58,-79.7z"/>
   <path class="fil6" d="M2138.73 1648.94l0.92 -18.23c-30.41,-3.46 -36.63,-2.31 -70.33,4.68 -52.88,10.97 -46.62,15.45 -60.41,30.86l7.11 42.15c3.63,0.48 27.46,12.65 67.85,5.69 0.26,-0.04 27.27,-8.15 29.62,-9.1 34.66,-14.08 10.31,-4.76 27.96,-15.01l-2.72 -41.04z"/>
   <path class="fil18" d="M1638.27 3294.76c33.96,33.94 31.69,-48.59 26.4,54.35 -68.94,-16.75 -23.05,-1.08 -37.18,-32.5l-14.13 20.74c-30.13,38.11 -20.68,26.83 -55.23,29.96l-5.09 36.41c25.92,-8.93 37.47,-13.82 73.52,13.46 15.4,11.66 6.53,4.93 17.42,17.1l-7.53 32.43c47.96,-41.13 6.64,-65.31 24.7,-92.63l18.09 -31.2c6.54,-24.02 3.81,-49.91 3.87,-74.66 -47.79,11.48 -32.29,-8.09 -44.84,26.54z"/>
   <path class="fil12" d="M5340.59 3030.31l0.4 -133.26 -138.54 -1.34c30.09,144.22 -27.49,101.78 28.66,142.44 22.49,-19.2 28.61,20.93 15.38,-132.6l67.66 -1.74c12.38,20.82 8.47,1.62 14.21,31.91l3.21 70.5c4.36,27.13 0.97,9.36 9.02,24.09z"/>
   <path class="fil12" d="M5189.14 2895.87l-70.45 0.65c22.68,23.35 -32.59,16.24 35.1,21.71 -31.07,37.41 -17.44,-19.37 -23.59,52.53l5.98 60.41 51.63 6.31 1.33 -141.61z"/>
   <path class="fil3" d="M1298.56 3609.85l6.76 52.67 60.72 -1.96 2.98 -99.3 -72.55 10.64c-6.99,27 -11.73,3.73 2.09,37.95z"/>
   <path class="fil14" d="M3534.59 3170.4l-1.29 -22.36c-60.48,-40.47 8.85,-4.2 -97.94,68.52l-37.85 32.48c64.9,-1.95 88.26,-19.05 132.3,-38.45l4.78 -40.19z"/>
   <path class="fil15" d="M4524.63 3217.11c48.94,-3.35 38.51,-14.08 39.11,-67.22 0.64,-57.22 13.65,-70.03 -32.73,-81.69 -15.47,28.52 -14.94,113.46 -6.38,148.91z"/>
   <path class="fil6" d="M5290.44 3212.86c21.38,-36 21.99,-109.75 0,-143.56 -43.31,21.84 -37.28,121.3 0,143.56z"/>
   <path class="fil6" d="M5361.64 3209.6c1.64,-2.12 4.44,-7.86 4.8,-6.47 0.99,3.83 22.56,-89.25 -4.8,-131.74 -37.46,13.43 -26.74,12.93 -26.61,65.95 0,0.14 1.63,47.55 1.88,48.37 10.08,32.82 -3.59,13.38 24.73,23.89z"/>
   <path class="fil2" d="M2799.84 2391.2c68.96,-17.47 92.78,-65.42 126.81,-105.77 -58.96,9.96 -103.63,63.22 -126.81,105.77z"/>
   <path class="fil12" d="M2825.11 4038.48c11.5,19.92 8.87,26.01 44.52,26.43 40.24,0.47 36.69,-12.06 48.19,-28.23l-48.05 -29.58c-31.79,16.06 -25.85,13.91 -44.66,31.38z"/>
   <path class="fil9" d="M4531.01 3583.35c20.18,-24 18.21,35.56 22.32,-42.36 3.01,-56.83 -19.49,-47.86 -22.32,-51.2 -9.03,12.58 -14.02,-22.27 -19.17,39.52 -6.5,77.74 10.71,43.18 19.17,54.04z"/>
   <polygon class="fil7" points="1400.76,3276.65 1485.12,3280.19 1484.54,3236.96 1401.08,3237.7 "/>
   <polygon class="fil4" points="1401.08,3237.7 1484.54,3236.96 1483.19,3195.39 1406.74,3196.38 "/>
   <path class="fil9" d="M4732.74 3590.01c1.6,-2.63 4.33,-9.45 4.74,-7.94l7.69 -41.2c-2.33,-49.38 -1.41,-33.63 -24.3,-49.83 -29.77,40.1 -27.91,76.85 11.87,98.97z"/>
   <path class="fil7" d="M1627.49 3316.61c14.13,31.42 -31.76,15.75 37.18,32.5 5.29,-102.94 7.56,-20.41 -26.4,-54.35l-10.78 21.85z"/>
   <path class="fil17" d="M1756.46 1840.69c16.72,-13.82 8.1,-5.48 20.28,-20.32 1.14,-1.39 3.39,-3.7 4.2,-7.71 0.81,-3.94 2.21,-5.31 3.42,-7.93 -32.24,-32.22 1.28,-14.27 -42.56,-22.68 1.19,58.45 -10.42,-18.44 1.38,23.79l7.55 23.39c1.16,3.33 3.87,7.61 5.73,11.46z"/>
  </g>
 </g>
</svg>
