<?xml version="1.0" encoding="UTF-8"?>
<!DOCTYPE svg PUBLIC "-//W3C//DTD SVG 1.1//EN" "http://www.w3.org/Graphics/SVG/1.1/DTD/svg11.dtd">
<!-- Creator: CorelDRAW 2018 (64-Bit) -->
<svg xmlns="http://www.w3.org/2000/svg" xml:space="preserve" width="74.475mm" height="51.76mm" version="1.1" style="shape-rendering:geometricPrecision; text-rendering:geometricPrecision; image-rendering:optimizeQuality; fill-rule:evenodd; clip-rule:evenodd"
viewBox="0 0 7447.5 5176"
 xmlns:xlink="http://www.w3.org/1999/xlink">
 <defs>
  <style type="text/css">
   <![CDATA[
    .fil1 {fill:#FEFEFE}
    .fil2 {fill:#040E63}
    .fil7 {fill:#145ACC}
    .fil4 {fill:#84A8FE}
    .fil3 {fill:#DBCCF9}
    .fil5 {fill:#DBE6E8}
    .fil0 {fill:#E08569}
    .fil11 {fill:#E98297}
    .fil8 {fill:#F5BDC7}
    .fil10 {fill:#FE644E}
    .fil6 {fill:#FEC931}
    .fil9 {fill:#FEFEFE}
   ]]>
  </style>
 </defs>
 <g id="Layer_x0020_1">
  <metadata id="CorelCorpID_0Corel-Layer"/>
  <rect class="fil0" x="117.51" y="166.73" width="7247.5" height="4826"/>
  <path class="fil1" d="M2608.72 1632.95c-28.53,-357.84 -16.43,-473.67 29.39,-561.83 45.81,-88.17 125.32,-148.67 245.48,-230.35 120.15,-81.69 280.92,-184.56 469.79,-258.88 188.87,-74.34 405.84,-120.16 584.76,-68.72 178.91,51.43 319.79,200.09 484.44,294.32 164.65,94.22 353.08,133.97 500.88,150.4 147.81,16.41 254.99,9.5 291.29,77.78 36.3,68.28 1.74,211.78 -31.11,322.42 -32.85,110.63 -63.97,188.42 -98.54,302.52 -34.58,114.09 -72.6,264.49 -84.7,393.28 -12.11,128.79 1.72,235.96 2.99,408.69 1.29,172.73 -9.98,411 -20.41,637.58 -10.42,226.58 -19.98,441.48 -19.54,656.7 0.45,215.23 10.92,430.78 -9.78,538.56 -20.69,107.8 -72.55,107.83 -158.99,107.86 -86.43,0.05 -207.44,0.11 -546.22,-7.46 -338.77,-7.56 -895.32,-22.74 -1165,-71.91 -269.68,-49.16 -252.49,-132.3 -255.99,-224.87 -3.52,-92.56 -27.72,-194.56 -50.93,-250.93 -23.2,-56.37 -45.4,-67.11 -45.4,-169.11 0,-101.99 22.2,-295.24 -1.27,-691.79 -23.48,-396.55 -92.62,-996.42 -121.14,-1354.26z"/>
  <path class="fil2" d="M2801.24 2934.31c-24.77,7.74 -84.91,103.42 -92.51,124.82l0.19 711.12c-1.47,268.23 -51.45,501.45 193.34,576.78 105.81,17.09 1043.38,7.12 1230.38,7.12 109.9,0 312.31,11.17 409,-7.7 91.34,-19.52 157.35,-86.13 184.48,-171.63 20.45,-64.45 12.33,-265.85 11.54,-346.63l-132.56 1.04c5.27,212.23 11.63,196.12 -192.2,196.17l-1145.78 -0.05c-444.19,0.01 -426.08,38.22 -425.87,-147.45l-0.13 -958.33 -39.88 14.74z"/>
  <path class="fil1" d="M2230.87 2561.52c38.08,26.47 27.4,15.8 47.9,62.59 31.49,71.91 9.68,34.47 -2.65,91.42 9.57,8.45 10.12,-11.25 7.03,12.72 -29.07,-10.77 -9.74,-4.88 -21.23,10.23l-15.35 25.6c43.19,10.93 74.14,10.49 115,24.48 36.66,12.54 70.73,25.76 108.21,34.14l-8.38 32.08c36.85,19.88 83.36,34.59 129.87,41.24 22.05,-25.68 104.42,-143.78 118.2,-175.05l-0.74 -1399.52c-118.36,77.48 -131.54,166.31 -408.79,270.99 -182.57,68.93 -346.45,113.31 -429.9,252.92 -44.72,74.84 -58.99,192.29 -1.71,266.4 108.64,140.57 341.15,73.93 446.56,229.53 87.32,128.9 -68.42,201.69 -84.02,220.23z"/>
  <path class="fil3" d="M2837.82 2868.68c29.91,-6.01 41.12,-17.5 66.83,-4.68 2.16,32.84 3.69,26.09 -26.94,39.63 -15.79,6.97 -23.49,7.98 -36.59,15.94l0.13 958.33c-0.21,185.67 -18.32,147.46 425.87,147.45l1145.78 0.05c203.83,-0.05 197.47,16.06 192.2,-196.17 -316.94,-12.62 -787.36,-0.97 -1131.9,-0.8 -79.25,0.04 -305.04,9.82 -366.64,-4.47l-2.35 -1335.51c-23.23,15.84 -116.66,159.05 -137.53,190.73 -37.97,57.64 -102.02,132.87 -128.86,189.5z"/>
  <path class="fil4" d="M3714.86 1874.12c-0.27,-50.17 7.45,-107.86 -6.49,-155.27 -135.74,-243.95 23.92,-504.89 275.95,-505.39 137.18,-0.27 237.25,83.16 283.87,163.06 69.65,119.37 48.7,228.21 -7.73,342.67 -15.13,46.84 -6.39,104.99 -7.29,154.98l406.75 0.43 0.49 -707.84 -1351.66 0.3 -0.91 707.32 407.02 -0.26z"/>
  <path class="fil1" d="M4963.36 3539.32c21.91,-41.09 15.76,-351.72 18.77,-427.47 9.91,-250.12 44.52,-507.37 164.67,-725.84 49.16,-89.38 135.54,-211.29 205.25,-248.86 -18.62,71.53 -97.72,340.68 -56.23,409.79 19.91,-19.95 38.05,-52.14 54.34,-72.82 24.93,-31.64 39.77,-47.55 60.67,-79.93 -17.13,-7.29 -7.26,2.1 -5.18,-20.98l24.4 -98.05c85.04,-438.7 -189.6,-445.73 -430.23,-491.54 -41.16,-7.84 -89.52,-25.26 -122.49,-30.04l-0.13 1730.47 87.7 -9.63 -1.54 64.9z"/>
  <path class="fil3" d="M4963.36 3539.32c11.56,72.35 -15.26,199.18 -11.82,287.14l136.27 0.21c-1.61,-229.72 76.82,-407.73 102.5,-623.6 28.5,-239.49 -57.87,-419.9 2.63,-657.46 4.61,133.14 -19.24,122.32 6.19,341.2 58.28,501.41 -93.81,563.39 -92.7,940.02l90.53 0.39c20.77,-167.38 207.38,-271.7 126.11,-942.57 -10.36,-85.46 -39.02,-257.8 -27.25,-337.71 -41.49,-69.11 37.61,-338.26 56.23,-409.79 -69.71,37.57 -156.09,159.48 -205.25,248.86 -120.15,218.47 -154.76,475.72 -164.67,725.84 -3.01,75.75 3.14,386.38 -18.77,427.47z"/>
  <path class="fil2" d="M2708.73 1321.45l0.74 1399.52c37.9,-48.18 102.76,-133.04 130.92,-187.65l0.93 -1178.32 263.53 -0.14 -2.17 -261.83c-64.99,-143.36 -204.3,-100.03 -243.08,-29.66 -20.28,36.8 -0.09,37.85 -39.29,59.77 -67.95,38 -110.94,62.33 -111.58,198.31z"/>
  <path class="fil3" d="M2840.39 2533.32c19.66,-19.65 62.81,-85.56 81.37,-113.32 26.36,-39.44 50.79,-73.74 80.8,-117.06 18.05,-23.04 41.27,-39.35 63.26,-60.92 40.18,-39.42 40.07,-32.34 39.7,-94.84l-0.67 -792.32 -263.53 0.14 -0.93 1178.32z"/>
  <path class="fil1" d="M2402.03 3500.84l21.17 101.34c39.93,133 13.48,202.31 -14.72,347.87 -12.45,64.25 -69.63,311.14 -56.37,354.64 23.71,22.31 44.94,18.14 74.14,28.09 21.16,22.6 8.92,-24.94 16.58,22.56 24.57,1.1 433.09,11.81 459.43,-8.31 -244.79,-75.33 -194.81,-308.55 -193.34,-576.78 -38.49,-35.8 -85.09,-132.24 -113.48,-192.27 -30.03,-63.51 -81.02,-142.68 -136.79,-160.78 -21.47,21.11 -44.18,57.38 -56.62,83.64z"/>
  <path class="fil5" d="M5260.52 4354.47l-315.42 1.84 -13.74 -23.52 -7.4 23.89c-65.47,-2.1 -131.99,-0.21 -197.83,-0.32 -32.97,-0.06 -65.97,-0.49 -98.95,-0.26 -12.04,0.08 -39.57,1.26 -49.77,0.34 -17.12,-1.54 -10.14,-1.28 -22.42,-4.31l-13.35 -5.68c-96.69,18.87 -299.1,7.7 -409,7.7 -187,0 -1124.57,9.97 -1230.38,-7.12 -26.34,20.12 -434.86,9.41 -459.43,8.31 -7.66,-47.5 4.58,0.04 -16.58,-22.56l-8.16 21.46 -120.2 -3.81 -3.19 -30.46 -16.74 36.22 -84.46 -1.36 -132.82 -0.71 0.68 -39.32 -14.2 41.38 -557.84 1.9 -0.12 46.83 4461.79 -2.18 1.02 -46.2 -691.49 -2.06z"/>
  <path class="fil6" d="M4931.36 4332.79l13.74 23.52 315.42 -1.84 57.1 -427.13c1.93,-1.4 5.05,-2.1 6.56,-2.86 41.33,-21.1 28.95,-12.85 31.67,-97.43l-141.55 -0.16 -17.34 0.33 -90.53 -0.39 -18.62 -0.16 -136.27 -0.21 -108.42 3.73 1.3 80.67c33.48,17.33 32.68,-22.32 45.62,83.02 10.16,82.73 43.51,281.4 41.32,338.91z"/>
  <path class="fil6" d="M2840.39 2533.32c-28.16,54.61 -93.02,139.47 -130.92,187.65 -13.78,31.27 -96.15,149.37 -118.2,175.05 -12.69,20.63 -49.13,76.41 -63.5,90.81 -20.34,35.54 -93.09,143.36 -118.59,168.55 -5.08,33.51 -4.61,18.23 26.08,38.18 9.47,6.15 27.26,15.41 41.58,23.89 29.39,17.43 59.32,34.73 92.03,41.79l139.86 -200.11c7.6,-21.4 67.74,-117.08 92.51,-124.82 -0.34,-1.75 -0.69,-6.41 -0.55,-5.33 0.13,1.06 -0.27,-4.26 0,-5.2 0.27,-0.97 0.6,-4.08 1.03,-5.28l36.1 -49.82c26.84,-56.63 90.89,-131.86 128.86,-189.5 20.87,-31.68 114.3,-174.89 137.53,-190.73 9.84,-26.83 30.22,-55.42 47.24,-76.92 -6.98,-24.88 5.01,-9.15 -25.85,-32.32 -12.96,-9.74 -26.05,-18.11 -39.07,-26.89 -22.66,-15.28 -54.22,-43.46 -83.97,-49.38 -30.01,43.32 -54.44,77.62 -80.8,117.06 -18.56,27.76 -61.71,93.67 -81.37,113.32z"/>
  <path class="fil4" d="M3247.76 3695.42c-7.59,-8.47 -9.08,5.67 -11.56,-39.5 -0.73,-13.26 0.66,-35.61 0.77,-50.01 1.6,-204.68 5.19,-1301.15 -3.49,-1377.14 -17.55,27.21 -22.29,35.48 -23.92,72.74l3.4 1424.47 1557.98 -0.48c11.76,-72.45 2.36,-1957.69 1.89,-2122.68 -0.21,-74.5 8.26,-469.46 -9.18,-523.84 -23.05,-71.87 -50.15,-81.8 -97.29,-78.87 92.41,84.83 76.58,119.45 76.85,272.99l0.63 1038.62c-0.02,458.01 -9.91,928.25 1.03,1384.82l-1497.11 -1.12z"/>
  <path class="fil3" d="M3708.37 1718.85c1.8,-1.4 4.03,-6.32 4.77,-4.88l33.13 -36.17c34.18,-25.3 150.3,-53.52 155.71,-83.22 -7.38,-45.89 -9.96,-23.97 -20,-34.91 -19.26,-20.97 -42.54,-89.25 -34.4,-143.31 10.5,-69.73 62.56,-129.06 136.73,-129.65 71.58,-0.57 122.94,58.23 135.26,123 22.32,117.37 -52.91,124.7 -53.37,204.88 40.43,12.22 141.04,47.98 171.42,80.78l22.84 23.82c56.43,-114.46 77.38,-223.3 7.73,-342.67 -46.62,-79.9 -146.69,-163.33 -283.87,-163.06 -252.03,0.5 -411.69,261.44 -275.95,505.39z"/>
  <path class="fil7" d="M2060.8 3158.01l5.76 126.34c31.61,-5.66 73.59,10.53 112.16,11.21 45.02,0.79 91.4,-3.17 136.33,-3.28l42.6 -58.97c-42.2,-41.2 -132.5,-81.2 -172.84,-171.48 22.41,-16.75 56.2,-42.51 84.91,-51.06 34.73,47.71 47.41,97.87 95.48,122.78l13.59 -163.15c34.48,3.87 39.49,18.68 49.85,-12.74l32.76 -102.88 8.38 -32.08c-37.48,-8.38 -71.55,-21.6 -108.21,-34.14 -40.86,-13.99 -71.81,-13.55 -115,-24.48l-6.31 46.41c-32.93,15.73 -33.56,12.7 -70.1,1.58l-0.02 -56.49 -20.71 -6.94c-15.63,21.88 -19.3,18.6 -43.36,35.03 -107.9,73.69 -57.5,215.32 -45.27,374.34z"/>
  <path class="fil7" d="M3889.64 1531.76c-7.98,-31.76 -6.54,-27.8 2.48,-57.25 3.24,4.23 19.61,-9.7 11.38,36.49 -3.6,20.19 -4.88,10.3 -13.86,20.76zm61.65 -134.53c74.66,-14.18 101.64,-18.39 145,2.43 13.58,94.3 -25.03,102.82 -34.82,179.84 -7.6,59.77 9.92,138.19 -84.88,131.06 -72.97,-5.49 -74.49,-85.58 -73.09,-151.51 0.72,-34.38 19.44,-29.54 31.49,-71.02 7.89,-27.14 7.54,-61.49 16.3,-90.8zm-242.92 321.62c13.94,47.41 6.22,105.1 6.49,155.27l538.31 0.05c0.9,-49.99 -7.84,-108.14 7.29,-154.98l-22.84 -23.82c-30.38,-32.8 -130.99,-68.56 -171.42,-80.78 0.46,-80.18 75.69,-87.51 53.37,-204.88 -12.32,-64.77 -63.68,-123.57 -135.26,-123 -74.17,0.59 -126.23,59.92 -136.73,129.65 -8.14,54.06 15.14,122.34 34.4,143.31 10.04,10.94 12.62,-10.98 20,34.91 -5.41,29.7 -121.53,57.92 -155.71,83.22l-33.13 36.17c-0.74,-1.44 -2.97,3.48 -4.77,4.88z"/>
  <path class="fil7" d="M5410.83 2394.19c-20.9,32.38 -35.74,48.29 -60.67,79.93 -16.29,20.68 -34.43,52.87 -54.34,72.82 -11.77,79.91 16.89,252.25 27.25,337.71 81.27,670.87 -105.34,775.19 -126.11,942.57l17.34 -0.33c130.28,-234.44 208.62,-395.82 221.73,-723.84 6.12,-153.13 -2.35,-302.92 14.34,-454.88 24.71,-224.92 58.88,-221.64 107.91,-362.75 -87.39,37.33 -120.41,106.6 -147.45,108.77z"/>
  <path class="fil4" d="M4242.72 2084.01c-72.1,49.85 -85.9,-73.68 -21.41,-64.99 57.22,7.72 21.47,64.69 21.41,64.99zm-146.5 272.82c0.28,-87.99 -3.59,-157.72 94.2,-164.16 82.72,-5.45 105.69,76.93 179.69,67.55 92.77,-11.76 59.64,-183.06 206.36,-162.34 51.01,7.21 52.58,27.01 85.89,45.34l-2.57 -168.43 -564.65 0.61 -7.17 336.81c0.29,8.01 0.78,15.87 2.17,23.75l6.08 20.87z"/>
  <path class="fil6" d="M2315.05 3292.28c-18.44,36.46 -37.87,56.43 -61.05,91.62 -19.28,29.25 -34.85,51.28 -57.36,82.81 -26.52,37.16 -86.08,136.24 -114.69,162.51 -11.98,25.97 -23.09,42.46 -43.56,59.54 12.38,29.03 43.59,40.45 71.45,60.49 28.79,20.72 50.16,43.46 88.98,49.42 8.13,-35.74 42.88,-68.9 63.03,-101.63 16.58,-23.78 24.47,-41.65 48.71,-64.73 11.1,-25.23 70.93,-114.39 91.47,-131.47 12.44,-26.26 35.15,-62.53 56.62,-83.64 15.4,-31.02 50.59,-79.43 72.81,-108.94 -9.08,-22.19 -10.77,-15.14 -38.75,-24.38 -16.39,-5.43 -28.91,-9.08 -43.29,-14.38 -35.05,-12.92 -57.57,-27.29 -91.77,-36.19l-42.6 58.97z"/>
  <path class="fil3" d="M4096.22 2356.83l564.5 -1.6 1.64 -212.01c-33.31,-18.33 -34.88,-38.13 -85.89,-45.34 -146.72,-20.72 -113.59,150.58 -206.36,162.34 -74,9.38 -96.97,-73 -179.69,-67.55 -97.79,6.44 -93.92,76.17 -94.2,164.16z"/>
  <path class="fil1" d="M2198.82 3798.67c-6.61,8.91 -11.38,21.65 -17.69,37.71l-70.28 472.53c41.15,18.33 75.21,6.44 82.65,45.92l84.46 1.36 16.74 -36.22 -0.2 -12.98c23.95,-62.04 6.41,-253.05 5.34,-330.51 -0.72,-51.79 -1.86,-103.52 -2.29,-156.33 -0.38,-46.09 3.91,-105.48 -35.7,-123.11 -20.15,32.73 -54.9,65.89 -63.03,101.63z"/>
  <path class="fil1" d="M2568.87 3259.24c32.53,22.49 33.37,7.79 37.02,41.63 -33.5,24.07 -36.05,-4.92 -74.43,7.39 -22.22,29.51 -57.41,77.92 -72.81,108.94 55.77,18.1 106.76,97.27 136.79,160.78 28.39,60.03 74.99,156.47 113.48,192.27l-0.19 -711.12 -139.86 200.11z"/>
  <polygon class="fil4" points="3310.72,3051.18 3874.49,3049.14 3873.9,2906.53 3308.01,2906.3 "/>
  <path class="fil8" d="M2310.56 3632.31c-24.24,23.08 -32.13,40.95 -48.71,64.73 39.61,17.63 35.32,77.02 35.7,123.11 0.43,52.81 1.57,104.54 2.29,156.33 1.07,77.46 18.61,268.47 -5.34,330.51l57.61 -2.3c-13.26,-43.5 43.92,-290.39 56.37,-354.64 28.2,-145.56 54.65,-214.87 14.72,-347.87l-112.64 30.13z"/>
  <path class="fil3" d="M2022.47 3622.8l17.92 2 41.56 4.42c28.61,-26.27 88.17,-125.35 114.69,-162.51 22.51,-31.53 38.08,-53.56 57.36,-82.81 23.18,-35.19 42.61,-55.16 61.05,-91.62 -44.93,0.11 -91.31,4.07 -136.33,3.28 -38.57,-0.68 -80.55,-16.87 -112.16,-11.21 -49.17,37.68 -70.56,278.53 -44.09,338.45z"/>
  <path class="fil1" d="M3104.85 1354.86l0.67 792.32c0.37,62.5 0.48,55.42 -39.7,94.84 -21.99,21.57 -45.21,37.88 -63.26,60.92 29.75,5.92 61.31,34.1 83.97,49.38 13.02,8.78 26.11,17.15 39.07,26.89 30.86,23.17 18.87,7.44 25.85,32.32l14.48 -28.38c18.34,-43.06 13.75,-65.24 43.63,-81.64 1.63,-37.26 6.37,-45.53 23.92,-72.74 8.68,75.99 5.09,1172.46 3.49,1377.14 -0.11,14.4 -1.5,36.75 -0.77,50.01 2.48,45.17 3.97,31.03 11.56,39.5 -11.73,-264.14 -1.24,-548.33 -2.46,-814.94 -0.63,-137.36 -1.55,-274.78 -0.88,-412.15 0.82,-168.86 -19.81,-250.51 36.83,-364.94l-38.32 -22.56c-14.12,6.85 -0.65,-0.39 -16.75,9.14 -0.32,0.19 -12.45,8.32 -15.27,10.06 1.08,-168.16 -0.09,-337.17 -0.41,-505.45 -0.14,-68.78 12.31,-460.96 -11.25,-493.74 18.77,170.33 7.01,413.63 7,592.65 0,98.92 0.17,197.85 0.16,296.75 -0.02,190.93 -11.68,110.35 -89.52,205.61 -20.2,-190.56 2.39,-775.37 2.72,-1038.26l-16.93 -64.56 2.17 261.83z"/>
  <path class="fil9" d="M3951.29 1397.23c-8.76,29.31 -8.41,63.66 -16.3,90.8 -12.05,41.48 -30.77,36.64 -31.49,71.02 -1.4,65.93 0.12,146.02 73.09,151.51 94.8,7.13 77.28,-71.29 84.88,-131.06 9.79,-77.02 48.4,-85.54 34.82,-179.84 -43.36,-20.82 -70.34,-16.61 -145,-2.43z"/>
  <path class="fil5" d="M2060.8 3158.01c-12.23,-159.02 -62.63,-300.65 45.27,-374.34 24.06,-16.43 27.73,-13.15 43.36,-35.03l-21.66 -37.88 -11.49 -31.66c-2.69,-22.32 -1.25,-15.28 5.94,-30.65l1.63 -26.03c-66.85,41.26 -130.28,149.22 -146.46,245.13 -18.62,110.33 13.36,246.85 83.41,290.46z"/>
  <path class="fil8" d="M2357.65 3233.31c34.2,8.9 56.72,23.27 91.77,36.19 14.38,5.3 26.9,8.95 43.29,14.38 27.98,9.24 29.67,2.19 38.75,24.38 38.38,-12.31 40.93,16.68 74.43,-7.39 -3.65,-33.84 -4.49,-19.14 -37.02,-41.63 -32.71,-7.06 -62.64,-24.36 -92.03,-41.79 -14.32,-8.48 -32.11,-17.74 -41.58,-23.89 -30.69,-19.95 -31.16,-4.67 -26.08,-38.18 -2.06,1.31 -5.35,3.4 -6.27,3.83 -27.98,13.19 20.65,36.32 -37.71,-25.66 -48.07,-24.91 -60.75,-75.07 -95.48,-122.78 -28.71,8.55 -62.5,34.31 -84.91,51.06 40.34,90.28 130.64,130.28 172.84,171.48z"/>
  <path class="fil8" d="M2114.34 3892.02c2.04,25.66 -11.16,35.51 -27.55,58.39 -16.69,23.3 -30.68,40.11 -41.86,59.67 7.07,9.23 1.07,-7.41 8.28,17.84l15.05 282.97 42.59 -1.98 70.28 -472.53c-17.58,-11.58 3.35,-7.59 -13.79,-0.93 -39.96,15.52 20.3,-21.15 -7.94,5.33 -18.8,17.63 -10.43,41.85 -45.06,51.24z"/>
  <path class="fil4" d="M3199.25 1100.84c23.56,32.78 11.11,424.96 11.25,493.74 0.32,168.28 1.49,337.29 0.41,505.45 2.82,-1.74 14.95,-9.87 15.27,-10.06 16.1,-9.53 2.63,-2.29 16.75,-9.14l0 -9.42c-37.47,-82.15 25.74,-905.24 -21.22,-1008.45 -18.97,-41.71 -33.88,-64.78 -89.95,-64.16l9.6 10.46c27.65,28.28 55.76,46.25 57.89,91.58z"/>
  <path class="fil10" d="M2044.93 4010.08c11.18,-19.56 25.17,-36.37 41.86,-59.67 16.39,-22.88 29.59,-32.73 27.55,-58.39 -56.94,-22.54 -88.93,-73.5 -155.58,-91.92 -8.14,39.18 -47.9,70.81 -65.04,108.32 22.83,17.97 126.54,93.29 151.21,101.66z"/>
  <path class="fil5" d="M1958.76 3800.1c66.65,18.42 98.64,69.38 155.58,91.92 34.63,-9.39 26.26,-33.61 45.06,-51.24 28.24,-26.48 -32.02,10.19 7.94,-5.33 17.14,-6.66 -3.79,-10.65 13.79,0.93 6.31,-16.06 11.08,-28.8 17.69,-37.71 -38.82,-5.96 -60.19,-28.7 -88.98,-49.42 -27.86,-20.04 -59.07,-31.46 -71.45,-60.49l2 -63.96 -17.92 -2c28.64,65.85 2.43,110.8 -49.59,163.78 -2.92,2.97 -8.33,10.78 -9.25,8.94 -0.75,-1.49 -3.37,2.94 -4.87,4.58z"/>
  <path class="fil9" d="M5087.81 3826.67l18.62 0.16c-1.11,-376.63 150.98,-438.61 92.7,-940.02 -25.43,-218.88 -1.58,-208.06 -6.19,-341.2 -60.5,237.56 25.87,417.97 -2.63,657.46 -25.68,215.87 -104.11,393.88 -102.5,623.6z"/>
  <path class="fil8" d="M2122.22 2648.45c-7.19,15.37 -8.63,8.33 -5.94,30.65l11.49 31.66c16.87,-17.25 -25.21,-16.77 21.22,-13.58l21.15 58.4 0.02 56.49c36.54,11.12 37.17,14.15 70.1,-1.58l6.31 -46.41 15.35 -25.6c11.49,-15.11 -7.84,-21 21.23,-10.23 3.09,-23.97 2.54,-4.27 -7.03,-12.72 -7.36,-19.79 1.48,-31.18 6.3,-49.37 -33.4,-51.92 -34.92,-42.77 -111.61,-49.58 -0.66,1.65 -6.02,16.42 -6.05,16.47 -7.28,14.25 -3.43,10.88 -42.54,15.4z"/>
  <path class="fil5" d="M2365.2 3133.55c58.36,61.98 9.73,38.85 37.71,25.66 0.92,-0.43 4.21,-2.52 6.27,-3.83 25.5,-25.19 98.25,-133.01 118.59,-168.55 -10.39,-8.75 7.23,-1.74 -22.61,-12.41 -6.32,-2.26 -18.59,-4.23 -26.68,-5.83 -16.77,-3.31 -37.28,-7.49 -49.84,-10.93 -10.36,31.42 -15.37,16.61 -49.85,12.74l-13.59 163.15z"/>
  <path class="fil4" d="M3365.44 2788.24c-62.06,-0.84 -52.65,5.77 -58.19,18.05 18.41,14.5 -22.9,6.04 25.85,14.59l412.12 -0.19c46.31,0.01 128.75,11.07 129.86,-14.4 0.86,-19.64 -7.89,-18.54 -63.47,-17.8l-446.17 -0.25z"/>
  <path class="fil4" d="M3365.43 3136.15c-60.44,-0.74 -51.94,4.05 -57.94,16.35 19.71,19.89 -15.95,8.13 25.42,16.21l412.31 -0.2c55.08,0.01 129.69,12.06 129.68,-15.96 -0.02,-25.15 -37.14,-16.63 -63.25,-16.2l-446.22 -0.2z"/>
  <path class="fil4" d="M3440.23 3254.25c-63.89,0.07 -116.65,-11.37 -132.87,13.65 14.44,17.53 -2.52,11.87 25.48,18.05l487.38 0.58c27.15,0.11 54.63,7.82 54.28,-17.74 -0.36,-27.07 -112.01,-14.6 -137.53,-14.58l-296.74 0.04z"/>
  <path class="fil4" d="M3440.23 3484.34c-30.19,0 -116.24,-14.7 -132.69,14.37 14.64,16.43 -2.55,11.6 25.33,17.54l412.35 -0.17c78.69,0.02 118.5,13.39 130.02,-17.37 -11.07,-23.28 -30.25,-15.17 -63.61,-14.71l-371.4 0.34z"/>
  <path class="fil4" d="M4223.31 3367.11c-75.27,-0.02 -119.05,-13.01 -129.81,16.19 14.37,14.29 -22.29,6.19 22.84,15.33 3.9,0.79 34.51,0.57 40.55,0.48l446.21 0.21c58.28,0.69 51.14,-3.24 57.76,-16.02 -8.54,-18.23 -4.31,-17.72 -66.25,-16.57l-371.3 0.38z"/>
  <path class="fil4" d="M3307.47 2575.49c6.95,12.79 -0.23,16.17 57.96,15.4l371.54 -0.56c26.54,0 137.61,12.55 137.87,-15.36 0.26,-28.79 -71.42,-16.23 -129.62,-16.22l-412.42 -0.19c-42.97,8.78 -5.47,-4.79 -25.33,16.93z"/>
  <path class="fil4" d="M3307.63 2336.45c4.65,11.82 -5.81,19.95 57.8,19.25 25.01,-0.28 49.71,-0.63 74.8,-0.56l412.09 -0.43c33.55,-8.45 13.99,7.69 22.44,-18.26 -13.53,-26.56 -239.42,-13.14 -277.92,-13.13l-222.96 -0.16c-6.37,-0.1 -36.5,-0.7 -40.6,-0.06 -37.34,5.8 -5.39,-1.33 -25.65,13.35z"/>
  <path class="fil10" d="M4223.31 2788.99c-79.21,-0.02 -119.25,-13.44 -129.51,17.3 16.63,14.13 -22.98,5.7 22.56,14.31l486.76 0.67c36.73,0.48 44.51,8.29 57.57,-14.98 -9.03,-22.19 0.28,-12.15 -24.99,-17.52 -1.14,-0.24 -37.19,-0.26 -41.09,-0.19l-371.3 0.41z"/>
  <path class="fil4" d="M4148.39 3018.38c-38.91,-0.17 -45.39,-8.11 -54.82,18.72 17.68,14.57 -22.16,5.78 22.87,13.72l411.86 -0.06c65.07,0.01 116.73,11.61 132.35,-13.66 -9.14,-22.31 -0.09,-12.54 -25.01,-18.12l-487.25 -0.6z"/>
  <path class="fil4" d="M4223.31 3136.76c-72.05,-0.01 -118.82,-12.75 -129.42,15.74 13.22,14.91 -23.53,6.16 22.35,15.86 3.58,0.76 34.88,0.63 40.65,0.54l371.41 -0.39c25.04,0 49.81,0.33 74.8,0.61 60.18,0.67 51.83,-4.28 57.78,-16.62 -9.69,-20.14 -1.15,-11.44 -25.3,-16.07l-412.27 0.33z"/>
  <path class="fil4" d="M4094.01 2460.09c17.94,12.7 18.63,13.4 63.18,13.2l478.55 -0.58c26.93,-6.95 16.01,5.7 24.62,-20.86l-11.8 -6.28c-35.61,-10.77 -362.42,-4.58 -417.01,-4.58l-107.88 -0.07c-28.15,6.22 -14.63,4.27 -29.66,19.17z"/>
  <path class="fil4" d="M4139.93 3483.59c-34.87,0.32 -35.39,-7.21 -46.67,15.12 16.3,20.44 -16.42,8.23 22.88,17.18l486.97 0.87c64.62,1.02 52.82,-6.48 57.35,-18.05 -10.65,-20.02 14.26,-11.89 -25,-14.39l-420.39 0.02c-24.81,-0.01 -50.62,-0.97 -75.14,-0.75z"/>
  <path class="fil4" d="M4594.53 2670.8c-73.14,0.93 -463.47,-12.09 -500.44,11.85 13.31,14.84 1.45,21.89 62.87,21.14l485.41 -2.84c21.67,-8.46 9.22,5.78 18.28,-18.3 -15.33,-12.82 4.67,-2.55 -18.46,-9.08 -20.31,-5.73 7.5,-0.02 -14.66,-2.71 -4.15,-0.51 -27.32,-0.13 -33,-0.06z"/>
  <path class="fil4" d="M4223.31 3254.28c-62.75,-0.02 -117.05,-11.59 -129.63,13.62 8.77,11.32 -19.34,17.95 38.96,17.95l478.09 0c56.64,0 44.32,-4.06 49.57,-17.95 -13.15,-22.62 -31.12,-14.54 -65.64,-14 -24.9,0.38 -49.71,0.29 -74.6,0.32l-296.75 0.06z"/>
  <path class="fil4" d="M3326.16 3368.43c-21.97,6.73 -8.61,-5.93 -18.79,14.87 19.95,19.76 -16.37,7.96 25.51,15.74l412.34 -0.3c56.71,0 129.64,12.3 129.71,-15.45 0.06,-25.42 -36.89,-17.01 -63.29,-16.6l-485.48 1.74z"/>
  <path class="fil7" d="M3309.62 2016.16l8.15 -1.29c33.64,-16.91 410.69,-7.84 502.37,-7.16 37.81,0.29 45.62,8.31 54.55,-17.47 -0.74,-26.95 -66.12,-14.97 -121.23,-14.95l-444.27 -0.1 0.43 40.97z"/>
  <path class="fil4" d="M4093.38 2575.49c11.95,27.03 61.51,14.88 129.93,14.83l412.09 0.2c34.09,-6.2 12.16,8.76 25.55,-15.03 -9.57,-21.47 4.06,-8.45 -18.59,-15.29l-509.72 -1.45c-59,-0.01 -29.7,5.5 -39.26,16.74z"/>
  <path class="fil4" d="M3307.64 2221.04c8.88,25.83 -4.1,10.09 18.33,19.22l518.96 2.01c29.01,-7.2 17.47,4.28 29.16,-21.23l-14.46 -6.12c-41.77,-10.82 -408.7,-3.93 -485.62,-4.82 -28.65,-0.33 -48.11,-2.93 -66.37,10.94z"/>
  <path class="fil4" d="M4223.31 2906.58c-69.51,0.05 -117.94,-12.42 -129.79,15.12 9.79,11.45 -20.42,16.31 39.12,16.32l509.68 -1.39c22.48,-6.64 9,5.98 18.53,-14.93 -12.77,-24.56 10.16,-8.87 -25.36,-15.4l-412.18 0.28z"/>
  <path class="fil4" d="M3313.46 2679.19c-1.14,-1.88 -4.19,2 -5.96,3.46 14.3,21.57 -3.6,13.15 25.32,20.49l404.15 -0.05c25.01,0.05 49.67,0.48 74.6,0.81 65.05,0.86 56.61,-8.52 62.66,-21.25 -9.19,-5.94 -5.53,-4.94 -22.06,-9.11l-532.53 2.51c-1.64,0.51 -5.03,5.02 -6.18,3.14z"/>
  <path class="fil4" d="M3307.4 2113.88c1.79,1.42 4.85,0.64 5.98,3.32l538.84 5.42c15.89,-3.84 13.86,-3.64 22.24,-8.74 -13.75,-28.31 -29.05,-21.06 -96.27,-20.95l-429.69 -1.14c-66.85,3.64 -25.96,-1.85 -41.1,22.09z"/>
  <path class="fil4" d="M3307.69 2451.85c4.27,12.17 -6.22,22.67 57.74,21.66l446.13 -0.11c63.11,0.95 54.5,-3.93 62.75,-21.55l-533.29 -11.39c-44.64,5.09 -16.97,-1.89 -33.33,11.39z"/>
  <path class="fil2" d="M2123.85 2622.42l-1.63 26.03c39.11,-4.52 35.26,-1.15 42.54,-15.4 0.03,-0.05 5.39,-14.82 6.05,-16.47 76.69,6.81 78.21,-2.34 111.61,49.58 -4.82,18.19 -13.66,29.58 -6.3,49.37 12.33,-56.95 34.14,-19.51 2.65,-91.42 -20.5,-46.79 -9.82,-36.12 -47.9,-62.59 -50.47,-8.4 -28.35,8.08 -62.19,-16.93 -58.78,-43.44 -79.5,10.19 -78.43,30.31 1.45,27.16 25.05,37.21 33.6,47.52z"/>
  <path class="fil11" d="M2428.64 2957.66c12.56,3.44 33.07,7.62 49.84,10.93 8.09,1.6 20.36,3.57 26.68,5.83 29.84,10.67 12.22,3.66 22.61,12.41 14.37,-14.4 50.81,-70.18 63.5,-90.81 -46.51,-6.65 -93.02,-21.36 -129.87,-41.24l-32.76 102.88z"/>
  <path class="fil3" d="M2310.56 3632.31l112.64 -30.13 -21.17 -101.34c-20.54,17.08 -80.37,106.24 -91.47,131.47z"/>
  <path class="fil2" d="M2061.36 4314.8l-0.68 39.32 132.82 0.71c-7.44,-39.48 -41.5,-27.59 -82.65,-45.92l-42.59 1.98 -6.9 3.91z"/>
  <path class="fil2" d="M2294.7 4319.97l3.19 30.46 120.2 3.81 8.16 -21.46c-29.2,-9.95 -50.43,-5.78 -74.14,-28.09l-57.61 2.3 0.2 12.98z"/>
  <path class="fil6" d="M4242.72 2084.01c0.06,-0.3 35.81,-57.27 -21.41,-64.99 -64.49,-8.69 -50.69,114.84 21.41,64.99z"/>
  <path class="fil11" d="M2837.82 2868.68l-36.1 49.82c-0.43,1.2 -0.76,4.31 -1.03,5.28 -0.27,0.94 0.13,6.26 0,5.2 -0.14,-1.08 0.21,3.58 0.55,5.33l39.88 -14.74c13.1,-7.96 20.8,-8.97 36.59,-15.94 30.63,-13.54 29.1,-6.79 26.94,-39.63 -25.71,-12.82 -36.92,-1.33 -66.83,4.68z"/>
  <polygon class="fil2" points="3242.93,2071.41 3242.93,2080.83 3281.25,2103.39 3317.77,2014.87 3309.62,2016.16 "/>
  <path class="fil8" d="M2038.39 3688.76c20.47,-17.08 31.58,-33.57 43.56,-59.54l-41.56 -4.42 -2 63.96z"/>
  <path class="fil2" d="M2149.43 2748.64l20.71 6.94 -21.15 -58.4c-46.43,-3.19 -4.35,-3.67 -21.22,13.58l21.66 37.88z"/>
  <path class="fil5" d="M3889.64 1531.76c8.98,-10.46 10.26,-0.57 13.86,-20.76 8.23,-46.19 -8.14,-32.26 -11.38,-36.49 -9.02,29.45 -10.46,25.49 -2.48,57.25z"/>
 </g>
</svg>
