<?xml version="1.0" encoding="UTF-8"?>
<!DOCTYPE svg PUBLIC "-//W3C//DTD SVG 1.1//EN" "http://www.w3.org/Graphics/SVG/1.1/DTD/svg11.dtd">
<!-- Creator: CorelDRAW 2018 (64-Bit) -->
<svg xmlns="http://www.w3.org/2000/svg" xml:space="preserve" width="74.475mm" height="51.76mm" version="1.1" style="shape-rendering:geometricPrecision; text-rendering:geometricPrecision; image-rendering:optimizeQuality; fill-rule:evenodd; clip-rule:evenodd"
viewBox="0 0 7447.5 5176"
 xmlns:xlink="http://www.w3.org/1999/xlink">
 <defs>
  <style type="text/css">
   <![CDATA[
    .fil17 {fill:black}
    .fil2 {fill:#062440}
    .fil15 {fill:#0E6A41}
    .fil13 {fill:#2C2958}
    .fil8 {fill:#3E954F}
    .fil10 {fill:#4364CD}
    .fil4 {fill:#494C7F}
    .fil7 {fill:#748FD9}
    .fil11 {fill:#A1193D}
    .fil1 {fill:#DBCCF9}
    .fil0 {fill:#E08569}
    .fil3 {fill:#E52552}
    .fil12 {fill:#F37191}
    .fil16 {fill:#F37950}
    .fil9 {fill:#F3DBD1}
    .fil6 {fill:#F5A4B6}
    .fil5 {fill:#F9A17B}
    .fil14 {fill:white}
   ]]>
  </style>
 </defs>
 <g id="Layer_x0020_1">
  <metadata id="CorelCorpID_0Corel-Layer"/>
  <rect class="fil0" x="117.51" y="166.73" width="7247.5" height="4826"/>
  <g id="_1477909091168">
   <path class="fil1" d="M1385.64 3913.72c-43.2,-75.92 -82.46,-191.1 -95.55,-314.14 -13.09,-123.03 0,-253.92 35.34,-373.04 35.34,-119.1 92.93,-226.43 92.93,-348.16 0,-121.73 -57.59,-257.85 -81.15,-397.91 -23.56,-140.05 -13.09,-284.03 22.25,-404.45 35.34,-120.41 95.55,-217.27 244.76,-308.9 149.22,-91.62 387.44,-178 582.46,-246.07 195.03,-68.06 346.86,-117.8 446.34,-195.02 99.48,-77.23 146.6,-181.94 239.53,-265.71 92.93,-83.77 231.67,-146.6 366.49,-183.25 134.81,-36.65 265.71,-47.12 431.94,-53.66 166.23,-6.55 367.8,-9.16 579.84,32.72 212.04,41.89 434.55,128.27 637.43,226.44 202.88,98.17 386.13,208.12 541.89,299.74 155.76,91.62 284.03,164.92 366.49,272.25 82.46,107.33 119.11,248.69 113.87,390.05 -5.23,141.36 -52.35,282.72 -71.99,426.7 -19.63,143.98 -11.78,290.58 49.74,388.74 61.52,98.17 176.7,147.91 260.47,246.08 83.77,98.17 136.13,244.76 146.6,391.36 10.47,146.6 -20.95,293.19 -39.27,376.96 -18.32,83.77 -23.56,104.71 -77.22,119.11 -53.67,14.4 -155.76,22.25 -939.79,32.72 -784.04,10.47 -2250,23.56 -3006.55,11.78 -756.54,-11.78 -803.66,-48.42 -846.85,-124.34z"/>
   <path class="fil2" d="M3605.22 2923.59l148.3 -108.41c159.67,-110.99 330.01,-199.98 535.44,-235.76l2.34 -13.99c-75.17,-21.62 -102.25,-20.93 -164.01,-61.84 -127.86,-84.68 -233.81,-255.77 -251.55,-414.28 55.7,-37.17 156.43,-173.08 191.62,-250.75 7.23,-15.97 15.41,-34.94 21.44,-52.47 4.47,-13 12.25,-45.32 17.33,-54.83l95.28 72.52c34.76,23.81 68.93,43.13 108.78,60.58 96.2,42.12 233.86,81.21 348,77.92 29.81,-0.86 33.24,-16.68 62.81,-23.5 154.21,-35.59 137.08,248.85 -36.73,257.73 -7.28,58.68 -25.11,117.76 -48.97,164.74 -20.52,40.39 -12.98,140.45 -15.89,193.63 4.41,-11.57 4.02,-7.21 8.06,-12.18 60.37,-1.67 170.86,35.51 228.21,60.74 36.29,15.96 36.18,1.97 80.38,6.6 228.28,23.88 227.75,366.19 174.46,535.59 -42.77,135.92 -85.22,192.47 -114.53,272.47 -28.9,-3.03 -54.45,-22.06 -80.81,-21.2 -5.85,12.48 -9.15,16.01 -14.15,28.96 -28.79,119.95 -62.22,219.03 -62.63,352.86 -0.2,65.88 5.91,131.41 15.04,195.04 5.13,35.82 44.58,91.01 68.04,137.37l313.07 -0.81c-25.36,-16.73 -15.88,-65.26 -15.89,-96.97 0,-18.81 -0.49,-38.1 -0.26,-56.82 0.29,-24.74 3.23,-25.64 17.53,-38.36 -127.06,-7.55 -116.79,27.81 -116.45,-109.05 0.12,-47.73 -10.27,-70.71 42.13,-70.65 37.74,0.05 75.78,1.58 113.53,0.73l-0.46 -17.37c7.47,-3.41 4.94,-1.3 11.99,-4.29l15.69 -8.35 0 -117.32c-1.03,-0.75 -2.78,-2.78 -3.38,-1.77 -0.58,0.98 -2.54,-1.33 -3.35,-1.68l-6.58 -2.78c-6.55,-2.61 -6.52,-1.1 -14.31,-5.36 0.05,-11.77 0.96,-15.19 5.07,-22.29l-17.01 -0.55c-145.26,-6.7 -137.84,35.77 -137.87,-108.95 -0.01,-52.02 -8.08,-71.83 17.41,-83.83 18.49,-7.75 162.96,-3.86 197.63,-4.06 36.9,-0.2 174.35,6.92 195.78,-3.32 -21.53,-48.75 -50.63,-70.41 -54.11,-156.42 -2.58,-63.98 13.16,-128.96 29.79,-185.2 16,-54.12 33.73,-106.23 53.26,-159.49 18.24,-49.71 43.49,-105.87 54.43,-158.06 53.17,-253.7 -248.18,-334.08 -425.84,-415.37 -307.11,-140.52 -115.69,-441.87 -111.79,-611.39 5.29,-229.26 -249.41,-397.08 -492.8,-330.11 -125.23,34.46 -192.74,73.33 -350.79,15.65 -108.88,-39.73 -190.69,-92.1 -321.29,-105.2 -132.71,-13.31 -229.53,67.49 -278.44,138.47 -61.06,88.62 -94.83,209.68 -77.78,343.86 16.6,130.72 71.88,204.04 101.33,320.84 33.04,131.03 -37.35,160.85 -115.08,290.95 -51.83,86.75 -113.08,199.5 -96.01,329.16 7.96,60.43 30.91,111.17 57.46,155.04 35.79,59.12 58.24,70.21 97.13,113.58z"/>
   <path class="fil3" d="M4619.41 2534.88c-22.16,76.12 -101.04,158.1 -161.49,189.06 -123.4,63.2 -155.7,-39.94 -168.96,-144.52 -205.43,35.78 -375.77,124.77 -535.44,235.76l-148.3 108.41 -7.4 9.55c4.08,8.84 -0.07,0.9 6.52,10.86 4.4,6.66 0.55,0.04 5.48,7.47 26.33,24.15 88.8,112.4 113.69,147 15.34,21.32 101.04,140.57 106.62,156.48 19.93,3.29 69.26,-19.93 86.55,-19.65 11.23,93.84 24.74,179.28 37.68,270.93 12.37,87.58 26.77,195.33 15.85,284.4 81.14,-10.44 165.74,-31.43 246.11,-47.93 42.16,-8.66 28.47,-9.92 65.52,-82.12l148.85 -289.8c18.61,-35.77 82.21,-171.71 101.21,-192.09 71.21,41.69 88.97,60.14 181.44,107.73l201.84 90.48c26.36,-0.86 51.91,18.17 80.81,21.2 29.31,-80 71.76,-136.55 114.53,-272.47 53.29,-169.4 53.82,-511.71 -174.46,-535.59 -44.2,-4.63 -44.09,9.36 -80.38,-6.6 -57.35,-25.23 -167.84,-62.41 -228.21,-60.74 -4.04,4.97 -3.65,0.61 -8.06,12.18z"/>
   <path class="fil4" d="M4921.48 4091.13l-1045.25 0.4c-75.63,10.61 -209.69,2.74 -291.44,2.74l-1438.03 -2.56c-191.6,0 -385.19,2.74 -576.54,-0.23l-454.09 0.97c-91.26,11.3 -107.1,126.94 -35.21,167.42 26.61,14.99 51.48,11.67 83.97,11.62l5052.68 0c64.19,0 345.42,9.16 382.24,-8.71 41.62,-20.21 72.2,-81.91 33.97,-133.92 -44.7,-60.81 -91.13,-24.64 -150.25,-39.01l-4.9 -0.96c-4.89,2.22 -1178.95,11.87 -1244.08,1.43l-313.07 0.81z"/>
   <path class="fil5" d="M3970.21 3790.63c-24.02,6.49 -116.25,22.33 -138.58,20.5 -10.14,6.29 -28.79,7.28 -43.6,8.78 -9.27,5.48 -65.45,9.63 -81.91,11.76 -69.9,4.56 -140.97,14 -212.43,18.48 -44.9,2.81 -60.22,2.28 -96.95,-16.25 -22.81,-11.51 -53.35,-28.55 -68.57,-42.59l-74.27 -50.08c-20.73,-7.9 -42.73,-23.73 -64.19,-34.86 -21.31,-11.06 -46.24,-21.7 -70.38,-29.6 -26.01,-8.52 -138.64,-35.31 -159.94,-27.35 -11.11,8.17 -20.9,52.4 35.43,73.67 42.43,16.03 75.42,8.03 77.18,45.74 -25.82,22.31 -69.04,17.14 -108.95,11.66l-99.92 -29.94c-58.4,-25.32 -120.57,-46.75 -174.4,-5.42 -4.12,19.88 0.08,25.55 11.56,37.83 65.12,69.67 138.3,117.27 232.02,149.33 62.82,20.78 127.15,37.59 197.66,45.87 67.52,7.92 163.5,9.09 224.72,22.08 41.18,8.15 84.78,10.09 125.8,19.48 37.47,8.59 76.27,19.52 115.72,27.75l240.6 40.9 39.42 3.53c116.74,2.37 492.98,18.7 577.54,-63.79 127,-123.88 261.71,-335.28 362.74,-488.83 15.44,-23.47 27.81,-43.28 41.98,-66.62 10.18,-16.79 32.83,-57.63 42.54,-66.8 5,-12.95 8.3,-16.48 14.15,-28.96l-201.84 -90.48c-92.47,-47.59 -110.23,-66.04 -181.44,-107.73 -19,20.38 -82.6,156.32 -101.21,192.09l-148.85 289.8c-37.05,72.2 -23.36,73.46 -65.52,82.12 -80.37,16.5 -164.97,37.49 -246.11,47.93z"/>
   <path class="fil5" d="M4171.52 2385.66c13.54,-8.1 87.04,-14.47 110.39,-19.95 23.91,-5.61 83.82,-29.62 99.1,-24.92 15.1,12.49 -20.74,85.71 -82.72,102.27 -49.45,13.22 -129.53,-19.48 -126.77,-57.4zm-132.53 -291.27c54.51,-19.6 75.58,65.97 26.31,81.41 -52.77,16.55 -87.88,-59.27 -26.31,-81.41zm314.12 -53.95c56.16,-16.61 77.49,72.54 21.23,83.77 -58.26,11.64 -74.45,-68.03 -21.23,-83.77zm-414 54.34c-9.8,-17.24 -14.43,-21.6 -0.83,-37.39 21.35,-24.79 86.55,-67.86 113.95,-60.66 18.74,4.92 20.25,29.14 8.14,38.85 -2.16,1.74 -34.9,13.12 -43.41,17.5 -29.66,15.26 -46.06,44.6 -77.85,41.7zm427.3 -107.92c-14.56,-0.72 -37.52,3.15 -49.41,-3.17 -19.36,-10.29 -26.17,-64.16 91.61,-35.24 30.74,7.54 60.23,13.84 45.6,50.92 -28.27,10 -49.81,-10.64 -87.8,-12.51zm-77.45 592.56c13.26,104.58 45.56,207.72 168.96,144.52 60.45,-30.96 139.33,-112.94 161.49,-189.06 2.91,-53.18 -4.63,-153.24 15.89,-193.63 23.86,-46.98 41.69,-106.06 48.97,-164.74 173.81,-8.88 190.94,-293.32 36.73,-257.73 -29.57,6.82 -33,22.64 -62.81,23.5 -114.14,3.29 -251.8,-35.8 -348,-77.92 -39.85,-17.45 -74.02,-36.77 -108.78,-60.58l-95.28 -72.52c-5.08,9.51 -12.86,41.83 -17.33,54.83 -6.03,17.53 -14.21,36.5 -21.44,52.47 -35.19,77.67 -135.92,213.58 -191.62,250.75 17.74,158.51 123.69,329.6 251.55,414.28 61.76,40.91 88.84,40.22 164.01,61.84l-2.34 13.99z"/>
   <path class="fil5" d="M2281.06 2630l10.62 10.47c4.41,4.21 4.64,4.3 9.08,8.35 71.57,65.32 52.74,86.43 119.04,137.29 28.27,21.69 57.28,38.35 97.47,50.21 60.13,17.76 65.03,22.12 125.78,3.97 21.52,56.6 178.91,267.83 224.81,323.29 63.54,76.76 52.4,73.25 101.77,62.83 187.14,-39.52 104.32,-51.82 242.89,57.37l193.89 165.2c103.82,-28.77 293.08,-138.57 379.14,-170.71 12.42,-7.69 29.07,-16.73 44.58,-23.32 -5.58,-15.91 -91.28,-135.16 -106.62,-156.48 -24.89,-34.6 -87.36,-122.85 -113.69,-147l-268.32 183.18c-47.79,-22.76 -503.82,-351.69 -578.89,-404.64 -24.59,-17.34 -18.78,-9.49 -34.93,-34.65 -10.6,-16.53 -23.07,-25.89 -29.13,-43.48l-183.77 -8.15c-8.26,21.38 -22.01,37.94 -50.69,28.79 -19.31,-6.16 -40,-19.92 -46.72,-33.74 -27.39,-16.72 -29.65,-32.55 -73.23,-42.05 -33.68,-7.34 -69.72,-1.5 -63.08,33.27z"/>
   <path class="fil6" d="M3383.96 3718.87l34.49 -5.39c25.36,-39.47 69.11,-0.61 64.66,74.69 -41.35,4.45 -112.53,-24.75 -99.15,-69.3zm-694.14 -74.85c6.7,-13.13 5.75,-21.41 25.28,-19.63 38.38,3.49 41.87,60.3 40.14,91.57 -41.52,-4.6 -110.74,-21.82 -99.45,-69.6 10.5,-4.56 20.74,-5.37 34.03,-2.34zm553.4 -75.04c7.71,-51.53 73.81,-8.82 62.39,71.19 -30.29,-3.31 -58.6,-12.17 -80.28,-25.93 -23.85,-15.13 -41.32,-57.07 17.89,-45.26zm-191.1 -56.34c6.63,-10.45 -1.05,-1.19 6,-9.75 50.31,-2.65 59.15,40.96 55.52,89.2 -47.47,4.43 -110.33,-25.43 -99.56,-69.53 13.39,-3.47 16.59,-6.14 30.92,0.72l7.12 -10.64zm-281.23 -76.6c0.19,-40.72 13.16,-61.72 57.49,-55.3 98.18,14.23 111.49,146.03 103.66,234.26 -87.45,1.19 -288.63,-72.81 -259.09,-163.53 13.94,-42.82 62.18,-22.79 97.94,-15.43zm-520.33 -60.82c-2,2.5 -6.1,8.57 -8.14,10.41 49,42.91 438.84,342.48 446.31,359.5 53.83,-41.33 116,-19.9 174.4,5.42l-2.32 -31.56 33.17 -2.16c0.8,1.26 16.99,-40.12 51.03,-4.82 15.07,15.63 17.12,43.38 18.04,68.48 39.91,5.48 83.13,10.65 108.95,-11.66 -1.76,-37.71 -34.75,-29.71 -77.18,-45.74 -56.33,-21.27 -46.54,-65.5 -35.43,-73.67 21.3,-7.96 133.93,18.83 159.94,27.35 24.14,7.9 49.07,18.54 70.38,29.6 21.46,11.13 43.46,26.96 64.19,34.86 19.46,-3.69 1.32,-10.9 23.32,-17.6 29.4,-8.95 49.37,27.43 50.95,67.68 15.22,14.04 45.76,31.08 68.57,42.59 36.73,18.53 52.05,19.06 96.95,16.25 71.46,-4.48 142.53,-13.92 212.43,-18.48l8.56 -5.49 -441.51 -351.08c-50.43,-39.16 -99.14,-76.54 -147.67,-117.36 -111.77,-94.02 -94.18,-80.93 -175.67,-69.74l-582.96 77.82c-32.84,4.41 -92.84,21.47 -116.31,9.4z"/>
   <path class="fil7" d="M2332.19 1716.82c-1.22,17.64 -137.42,178.4 -158.36,205.03 -40.77,51.88 -478.14,585.14 -488.45,607.7 12.43,1.71 23.1,4.59 33.43,10.29 12.52,6.91 13.25,11.75 25.96,18.07l460.65 -569.88c17.18,-21.24 50.07,-67.72 67.85,-81.15 -5.6,55.19 -11.11,98.55 -4.06,156.51 2.65,21.79 7.16,44.06 12.58,65.04l23.19 61.23c3.32,-14.91 -0.35,-7.41 13.31,-14.81 7.75,-4.2 14.91,-7.06 23.32,-11.52 16.27,-8.63 29.05,-15.48 45.25,-24.1 31.38,-16.69 57.69,-29.17 88.97,-45.83l354.46 -184.23c30.95,-16.46 160.45,-85.69 182.02,-92.09 -37.82,-81.94 -166.04,-174.51 -266.76,-204.49 -69.8,-20.78 -119.64,-10.73 -139.76,-22.02l-2.86 7c-125.19,12.27 -201.62,74.79 -254.75,138.81 -8.05,-9.96 -5.04,-10.86 -15.99,-19.56z"/>
   <path class="fil7" d="M1658.7 2685.91l170.86 1247.16 -237.27 1.17 -5.21 27.6 -5.84 47.81 -11.02 81.83c191.35,2.97 384.94,0.23 576.54,0.23l1438.03 2.56c81.75,0 215.81,7.87 291.44,-2.74l0 0.37 -39.42 -3.53 -1488.8 0.07c-4.76,-84.43 -65.25,-146.84 -145.94,-154.53 -84.66,-8.07 -209.58,-0.71 -298.61,-0.75 -11.68,-6.48 -6.65,-2.79 -9.79,-15.92l-148.56 -1086.37c-5.24,-37.55 -21.98,-125.42 -18.94,-158.71 -16.84,10.2 -38.2,16.94 -67.47,13.75z"/>
   <path class="fil7" d="M5978.47 3028.82l62.56 0.01c-6.11,24.8 -5.7,136.18 0,161.74l-62.56 0.02 0 -161.77zm-321 314.42l309.45 -0.46c26.17,-30.12 1.63,-62.14 14.71,-98.26 32.1,0 77.11,3.24 103.38,-5.32 14.71,-32.34 7.01,-91.17 7.01,-132.25 0,-152.8 17.79,-132 -111.09,-132.07 -9.16,-35.72 10.93,-78.97 -17.9,-96.26 -27.88,-8.84 -121.18,-2.96 -158.19,-2.96 -43.53,0 -122.68,-8.2 -153.84,7.42 -9.53,32.38 -4.28,185.04 -4.28,232.56 0,47.89 -8.49,195.59 10.75,227.6z"/>
   <path class="fil6" d="M6213.26 3536.78l-0.88 25.48c-69.13,-22.15 -22.28,-30.88 -94.75,-0.29l-0.9 -25.38 -64.74 0.45 -155.77 -0.24c9.95,40.71 32.08,154.03 -4.49,185.21l-41.17 -0.06c15.04,-80.74 20,-105.17 -2.23,-185.02l-30.45 -0.14c5.37,79.01 29.81,50.23 0.39,185.04l-47.9 -0.18c15.95,-82.11 18.8,-102.57 -2.15,-184.76l-133.05 0.07c12.33,23.73 10.97,150.87 4.35,185.18l58.07 -0.19c120.07,2.5 243.15,0.3 363.57,0.3 60.83,0 121.65,0 182.47,0 44.52,0 147.58,-5.03 185.13,3.51 29.91,2.5 101.02,3.74 124.72,-4.97 11.7,-24.88 7.44,-63.22 7.44,-96.77 0,-33.22 7.98,-69.77 -15.67,-84.93 -30.57,-10 -110.79,6.09 -133.67,-5.49 -29.8,8.25 -157.09,3.33 -198.32,3.18z"/>
   <path class="fil3" d="M3876.23 4091.9l0 -0.37 1045.25 -0.4c-23.46,-46.36 -62.91,-101.55 -68.04,-137.37 -9.13,-63.63 -15.24,-129.16 -15.04,-195.04 0.41,-133.83 33.84,-232.91 62.63,-352.86 -9.71,9.17 -32.36,50.01 -42.54,66.8 -14.17,23.34 -26.54,43.15 -41.98,66.62 -101.03,153.55 -235.74,364.95 -362.74,488.83 -84.56,82.49 -460.8,66.16 -577.54,63.79z"/>
   <path class="fil8" d="M5309.77 3537.03l325.4 -0.07 133.05 -0.07 49.66 -0.1c-19.14,-90.99 -21.55,-98.85 -0.63,-191.9 18.04,-0.55 30.92,-2.27 47.6,2.85 -24.74,85.64 -11.88,107.35 -0.4,189.13l31.77 -0.07 155.77 0.24c-17.88,-13.99 -14.85,-18.5 -14.6,-43.25l-0.01 -108.89c-0.06,-4.72 -0.19,-21.98 0.82,-25.57 2.99,-10.59 0.85,-7.02 14.25,-17.12l-85.53 0.57 -309.45 0.46 -120.03 -1.27 -219.19 1.68c-11.94,7.41 -7.91,2.21 -13.36,19.63 -19.46,62.1 -3.05,122.53 4.88,173.75z"/>
   <path class="fil6" d="M1194.36 3651.66l29.92 309.59c132.37,16.49 230.32,16.85 362.8,0.59l5.21 -27.6 32.55 -283c-156.95,23.14 -270.03,32.73 -430.48,0.42z"/>
   <path class="fil2" d="M3830.13 3254.95c-15.51,6.59 -32.16,15.63 -44.58,23.32 -23.07,105.96 -53.93,144.53 -61.34,289.13 -1.85,35.98 -0.9,135.31 15.6,162.32 10.19,16.68 75.97,63.83 91.82,81.41 22.33,1.83 114.56,-14.01 138.58,-20.5 10.92,-89.07 -3.48,-196.82 -15.85,-284.4 -12.94,-91.65 -26.45,-177.09 -37.68,-270.93 -17.29,-0.28 -66.62,22.94 -86.55,19.65z"/>
   <path class="fil9" d="M2202.5 2984.96l78.64 372.48c15.63,-9.83 16.06,-18.63 51.75,-38.22 17.1,-9.39 37.48,-17.82 58.36,-24.18 55.86,-17.03 87.85,-13.54 146.36,-11.64 76.48,2.49 222.77,-15.99 295.89,-32.76 -12.66,-11.59 -425.98,-210.73 -477.65,-235.64 -96.49,-46.53 -112.13,-73.37 -153.35,-30.04z"/>
   <path class="fil10" d="M5235.93 3898.17l465.69 2.8c-18.27,-15.99 -11.74,-54 -11.73,-85.77 0,-31.74 -2.95,-68.61 7.7,-93.25l-58.07 0.19 -364.38 -2.94c-37.75,0.85 -75.79,-0.68 -113.53,-0.73 -52.4,-0.06 -42.01,22.92 -42.13,70.65 -0.34,136.86 -10.61,101.5 116.45,109.05z"/>
   <path class="fil11" d="M5335.63 4048.06c-37.94,0 -32.26,-19.44 -32.29,-54.73 -0.03,-33.19 -4.94,-50.83 32.29,-50.83l647.33 0c22.22,0 28.18,7.92 28.18,29.13 0,56.27 7.27,76.43 -32.52,76.43l-642.99 0zm-101.08 42.26c65.13,10.44 1239.19,0.79 1244.08,-1.43 -51.11,-5.36 -342.92,7.31 -359.14,-6.33 -12.05,-14.23 -6.62,-151.7 -3.14,-179.94l-414.73 -1.65 -465.69 -2.8c-14.3,12.72 -17.24,13.62 -17.53,38.36 -0.23,18.72 0.26,38.01 0.26,56.82 0.01,31.71 -9.47,80.24 15.89,96.97z"/>
   <path class="fil3" d="M5335.63 4048.06l642.99 0c39.79,0 32.52,-20.16 32.52,-76.43 0,-21.21 -5.96,-29.13 -28.18,-29.13l-647.33 0c-37.23,0 -32.32,17.64 -32.29,50.83 0.03,35.29 -5.65,54.73 32.29,54.73z"/>
   <path class="fil12" d="M2250.56 3375.22c23.47,12.07 83.47,-4.99 116.31,-9.4l582.96 -77.82c81.49,-11.19 63.9,-24.28 175.67,69.74 48.53,40.82 97.24,78.2 147.67,117.36l441.51 351.08 -8.56 5.49c16.46,-2.13 72.64,-6.28 81.91,-11.76 -26.1,2.81 -55.28,-28.48 -85.78,-52.71l-607.28 -483.23c-42.9,-33.65 -29.79,-29.71 -96.73,-20.72 -88.21,11.83 -682.76,95.89 -717.1,94.19l-78.64 -372.48 -32.35 -12.44 80.41 402.7z"/>
   <path class="fil7" d="M5701.62 3900.97l414.73 1.65c49.67,0.42 289.16,6.46 315.24,-4.77l-0.96 -26.36c-40.81,-15.57 -586.51,6.03 -694.91,-4.35 -3.06,-20.07 -7.44,-86.74 0,-102.01 4.35,-5.97 9.77,-6.47 21,-7.35l534.7 -0.22c17.98,0 128.16,5.44 138.06,-4.55 9.66,-9.74 7.43,-20.71 -0.72,-27.25 -37.55,-8.54 -140.61,-3.51 -185.13,-3.51 -60.82,0 -121.64,0 -182.47,0 -120.42,0 -243.5,2.2 -363.57,-0.3 -10.65,24.64 -7.7,61.51 -7.7,93.25 -0.01,31.77 -6.54,69.78 11.73,85.77z"/>
   <path class="fil10" d="M2304.98 2189.66c0.31,17.09 9.78,34.97 19.9,48.98 36.32,-6.93 690.99,-355.78 722.2,-358.86 -4.78,-19.92 -22.64,-50.86 -34.77,-62.7 -21.57,6.4 -151.07,75.63 -182.02,92.09l-354.46 184.23c-31.28,16.66 -57.59,29.14 -88.97,45.83 -16.2,8.62 -28.98,15.47 -45.25,24.1 -8.41,4.46 -15.57,7.32 -23.32,11.52 -13.66,7.4 -9.99,-0.1 -13.31,14.81z"/>
   <path class="fil13" d="M2281.06 2630c-6.64,-34.77 29.4,-40.61 63.08,-33.27 43.58,9.5 45.84,25.33 73.23,42.05l97.41 4.95 183.77 8.15c44.71,2.97 89.91,4.36 134.56,6.4l99.94 4.62c37.16,-3.83 -15.07,-15.29 56.95,-15.92l-0.52 -38.04c-77.56,-2.85 -1.2,-12.85 -82.45,-15.79 -31.6,-1.15 -63.77,-2.98 -95.7,-4.49 -51.76,-2.45 -140.54,-2.11 -184.6,-10.15l-139.86 -5.1 -146.66 -7.14 -101.23 1.29c-22.14,0.13 -137.67,-2.95 -148.31,22.32 4.94,9.59 4.6,11.02 36.48,19.6 30.49,8.2 123.86,19.23 153.91,20.52z"/>
   <path class="fil6" d="M1482.02 3520.64c-1.97,0.9 -2.91,2.43 -12.53,4.78 -19.76,4.81 -48.62,4.81 -66.22,-1.63 -20.46,-1.9 -56.86,3.32 -71.29,-5.81 -27.51,4.13 -60.95,-0.29 -87.56,-6.99 -27.94,-3.06 -44.11,-7.29 -66.81,-19.41 0.39,11.91 6.4,112.32 14.72,123.34l1.77 -11.61c111.29,39 323.32,21.71 436.98,-2.27l11.93 -109.81 -48.92 17.12 -91.7 11.26 12.03 -67.05 -4.97 -10.99 -10.12 77.01 -17.31 2.06z"/>
   <path class="fil11" d="M1416.05 3447.85l-8.82 74.17 74.79 -1.38 17.31 -2.06 10.12 -77.01c-3.32,-34.89 17.33,-153.94 23.08,-197.75 8.29,-63.18 15.36,-126.27 24.66,-189.04 -11.04,-16.43 6.19,-7.18 -22.93,-9.6 -7.37,-0.61 -14.79,0.61 -24.76,-0.75 -18.15,-2.49 -26.74,-8.41 -42.38,-11.75 3.92,32.94 -18.67,166.51 -24.24,209.02 -9.04,68.99 -17.71,137.27 -26.83,206.15z"/>
   <path class="fil12" d="M2770.89 3436.04c-35.76,-7.36 -84,-27.39 -97.94,15.43 -29.54,90.72 171.64,164.72 259.09,163.53 7.83,-88.23 -5.48,-220.03 -103.66,-234.26 -44.33,-6.42 -57.3,14.58 -57.49,55.3z"/>
   <path class="fil14" d="M5304.96 3696.14l247.91 0.01c68.7,0.19 60.16,15.58 60.16,-102.55 0,-37.98 -20.44,-27.98 -55.82,-27.75l-252.54 0.07 0.29 130.22z"/>
   <path class="fil10" d="M2332.19 1716.82c10.95,8.7 7.94,9.6 15.99,19.56 53.13,-64.02 129.56,-126.54 254.75,-138.81l2.86 -7c-0.74,-35.3 -45.74,-74.24 -72.37,-87.22 -42.07,-20.51 -89,-22.39 -133.04,-2.56 -75.64,34.06 -113.15,125.1 -68.19,216.03z"/>
   <path class="fil15" d="M1150.81 3193.83l79.1 270.33 14.51 46.83c26.61,6.7 60.05,11.12 87.56,6.99 10.04,-4.73 -3.46,-35.43 -10.55,-59.2 -3.03,-10.16 -6.75,-23.09 -10.13,-33.31 -7.75,-23.47 -10.81,-17.79 -13.33,-35.79 2.87,-43.86 -60.77,-180.46 -61.49,-230.69 -13.71,5.61 -21.46,13.1 -39.85,18.84 -9.81,3.07 -15.63,2.69 -24.24,4.62 -29.74,6.67 -13.82,-6.12 -21.58,11.38z"/>
   <path class="fil8" d="M1290.66 3203.63c-0.22,43.94 19.5,170.69 7.31,186.05 2.52,18 5.58,12.32 13.33,35.79 3.38,10.22 7.1,23.15 10.13,33.31 7.09,23.77 20.59,54.47 10.55,59.2 14.43,9.13 50.83,3.91 71.29,5.81l-4.22 -74.62 -16.54 -226.01 -9.08 -26.45 -82.77 6.92z"/>
   <path class="fil16" d="M2238.98 2567.56l101.23 -1.29c10.33,-4.95 23.48,-12.1 34.42,-17.92 15.61,-8.31 15.72,-11.79 35.94,-5.47 16.66,5.2 63.35,17.9 76.3,30.53l139.86 5.1c-12.72,-20.05 -56.2,-67.92 -73.49,-78.07 -27.68,-16.27 -79.9,-30.4 -115.1,-36.88 -50.82,-9.35 -73.3,8.86 -110.86,28.7 -26,13.73 -71.73,38.31 -93.05,57.48l4.75 17.82z"/>
   <path class="fil6" d="M1116.13 4092.45l454.09 -0.97 11.02 -81.83c-101.22,16.37 -250.73,18.07 -351.38,-0.98l7.53 79.27c-38.73,3.09 -87.37,-5.88 -121.26,4.51z"/>
   <path class="fil8" d="M5262.8 3537.44c-5.71,-35.35 -15.52,-53.27 -15.55,-95.91 -0.03,-40 7.95,-62.28 15.24,-97.99l-120.15 1.12c-25.49,12 -17.42,31.81 -17.41,83.83 0.03,144.72 -7.39,102.25 137.87,108.95z"/>
   <path class="fil3" d="M6116.35 3902.62c-3.48,28.24 -8.91,165.71 3.14,179.94 16.22,13.64 308.03,0.97 359.14,6.33l4.9 0.96c8.14,-12.58 7.25,-8.01 4.87,-24.84 -55.38,-19 -265.28,10.76 -336.77,-6.15 -7.09,-20.72 -6.38,-105.47 -1.15,-128.13 72.61,-14.69 283.84,11.97 338.27,-6.06l-1.18 -23.43c-14.84,-4.95 -37.02,-4.72 -55.98,-3.39 -26.08,11.23 -265.57,5.19 -315.24,4.77z"/>
   <path class="fil12" d="M5304.67 3565.92l252.54 -0.07c35.38,-0.23 55.82,-10.23 55.82,27.75 0,118.13 8.54,102.74 -60.16,102.55l-247.91 -0.01 -0.29 -130.22zm-29.53 153.28l364.38 2.94c6.62,-34.31 7.98,-161.45 -4.35,-185.18l-325.4 0.07 -29.96 0.96c-4.11,7.1 -5.02,10.52 -5.07,22.29 7.79,4.26 7.76,2.75 14.31,5.36l6.58 2.78c0.81,0.35 2.77,2.66 3.35,1.68 0.6,-1.01 2.35,1.02 3.38,1.77l0 117.32 -15.69 8.35c-7.05,2.99 -4.52,0.88 -11.99,4.29l0.46 17.37z"/>
   <path class="fil15" d="M1514.42 3452.56l-12.03 67.05 91.7 -11.26 9.96 -40.56 35.25 -182c-5.78,-12.64 4.55,-6.84 -19.01,-12.74 -6.74,-1.69 -14.71,-2.56 -21.93,-4.09 -17.87,-3.77 -28.16,-9.03 -46.02,-4.15l-37.92 187.75z"/>
   <path class="fil12" d="M1192.33 3614.92l2.03 36.74c160.45,32.31 273.53,22.72 430.48,-0.42l6.24 -50.2c-113.66,23.98 -325.69,41.27 -436.98,2.27l-1.77 11.61z"/>
   <path class="fil10" d="M1603.72 2631.14c12.68,34.09 20.41,30.36 39.88,50.26l15.1 4.51c29.27,3.19 50.63,-3.55 67.47,-13.75 14.68,-7.74 28.2,-26.09 32.18,-49.17 4.81,-27.84 -6.78,-46.3 -13.58,-65.08 -12.71,-6.32 -13.44,-11.16 -25.96,-18.07 -10.33,-5.7 -21,-8.58 -33.43,-10.29 -53.37,-4.04 -102.08,46.87 -81.66,101.59z"/>
   <path class="fil15" d="M6051.99 3537.04l64.74 -0.45 -0.11 -30.38c-44.59,0.53 -44.44,4.08 -43.91,-42.86 0.3,-26.36 -4.42,-63.05 3.74,-84.68 14.21,-16.65 299.45,5.48 338.07,-10.21l-2.41 -21.62c-22.88,-10.68 -311.32,-6.17 -359.66,-4.63 -13.4,10.1 -11.26,6.53 -14.25,17.12 -1.01,3.59 -0.88,20.85 -0.82,25.57l0.01 108.89c-0.25,24.75 -3.28,29.26 14.6,43.25z"/>
   <path class="fil12" d="M1229.86 4008.67c100.65,19.05 250.16,17.35 351.38,0.98l5.84 -47.81c-132.48,16.26 -230.43,15.9 -362.8,-0.59l5.58 47.42z"/>
   <path class="fil6" d="M3354.69 4000.24c-61.22,-12.99 -157.2,-14.16 -224.72,-22.08 -70.51,-8.28 -134.84,-25.09 -197.66,-45.87l79.11 65.38c59.67,47.54 44.16,47.19 95.85,40.02l247.42 -37.45z"/>
   <path class="fil14" d="M4171.52 2385.66c-2.76,37.92 77.32,70.62 126.77,57.4 61.98,-16.56 97.82,-89.78 82.72,-102.27 -15.28,-4.7 -75.19,19.31 -99.1,24.92 -23.35,5.48 -96.85,11.85 -110.39,19.95z"/>
   <path class="fil3" d="M6116.62 3506.21l0.11 30.38 0.9 25.38c72.47,-30.59 25.62,-21.86 94.75,0.29l0.88 -25.48 0.14 -30.46 -0.24 -66.41 -96.27 -0.08 -0.27 66.38z"/>
   <path class="fil15" d="M5142.34 3344.66l120.15 -1.12c-7.29,35.71 -15.27,57.99 -15.24,97.99 0.03,42.64 9.84,60.56 15.55,95.91l17.01 0.55 29.96 -0.96c-7.93,-51.22 -24.34,-111.65 -4.88,-173.75 5.45,-17.42 1.42,-12.22 13.36,-19.63l219.19 -1.68 -1.69 -4.69c-21.43,10.24 -158.88,3.12 -195.78,3.32 -34.67,0.2 -179.14,-3.69 -197.63,4.06z"/>
   <path class="fil14" d="M5978.47 3190.59l62.56 -0.02c-5.7,-25.56 -6.11,-136.94 0,-161.74l-62.56 -0.01 0 161.77z"/>
   <path class="fil15" d="M5817.88 3536.79l30.45 0.14 16.12 -0.06c-11.48,-81.78 -24.34,-103.49 0.4,-189.13 -16.68,-5.12 -29.56,-3.4 -47.6,-2.85 -20.92,93.05 -18.51,100.91 0.63,191.9z"/>
   <path class="fil12" d="M5896.22 3536.8l-31.77 0.07 -16.12 0.06c22.23,79.85 17.27,104.28 2.23,185.02l41.17 0.06c36.57,-31.18 14.44,-144.5 4.49,-185.21z"/>
   <path class="fil12" d="M5817.88 3536.79l-49.66 0.1c20.95,82.19 18.1,102.65 2.15,184.76l47.9 0.18c29.42,-134.81 4.98,-106.03 -0.39,-185.04z"/>
   <path class="fil7" d="M1643.6 2681.4c-19.47,-19.9 -27.2,-16.17 -39.88,-50.26 -13.74,9.63 -70.99,84.05 -82.04,97.65 9.08,12.69 35.58,35.88 51.6,40.15 15.03,-14.5 61.88,-72.06 70.32,-87.54z"/>
   <path class="fil2" d="M4454.21 1999.37c14.63,-37.08 -14.86,-43.38 -45.6,-50.92 -117.78,-28.92 -110.97,24.95 -91.61,35.24 11.89,6.32 34.85,2.45 49.41,3.17 37.99,1.87 59.53,22.51 87.8,12.51z"/>
   <path class="fil12" d="M3045 3523.28c-14.33,-6.86 -17.53,-4.19 -30.92,-0.72 -10.77,44.1 52.09,73.96 99.56,69.53 3.63,-48.24 -5.21,-91.85 -55.52,-89.2 -7.05,8.56 0.63,-0.7 -6,9.75l-7.12 10.64z"/>
   <path class="fil2" d="M3939.11 2094.78c31.79,2.9 48.19,-26.44 77.85,-41.7 8.51,-4.38 41.25,-15.76 43.41,-17.5 12.11,-9.71 10.6,-33.93 -8.14,-38.85 -27.4,-7.2 -92.6,35.87 -113.95,60.66 -13.6,15.79 -8.97,20.15 0.83,37.39z"/>
   <path class="fil12" d="M3383.96 3718.87c-13.38,44.55 57.8,73.75 99.15,69.3 4.45,-75.3 -39.3,-114.16 -64.66,-74.69l-34.49 5.39z"/>
   <path class="fil12" d="M2689.82 3644.02c-13.29,-3.03 -23.53,-2.22 -34.03,2.34 -11.29,47.78 57.93,65 99.45,69.6 1.73,-31.27 -1.76,-88.08 -40.14,-91.57 -19.53,-1.78 -18.58,6.5 -25.28,19.63z"/>
   <path class="fil12" d="M3243.22 3568.98c-59.21,-11.81 -41.74,30.13 -17.89,45.26 21.68,13.76 49.99,22.62 80.28,25.93 11.42,-80.01 -54.68,-122.72 -62.39,-71.19z"/>
   <path class="fil3" d="M1284.62 3154.97l84.46 -6.54 3.66 -9.89c1.53,-47.88 -3.74,-68.07 -55.63,-61.74 -47.94,5.84 -30.57,38.36 -32.49,78.17z"/>
   <path class="fil15" d="M6213.26 3536.78c41.23,0.15 168.52,5.07 198.32,-3.18 8.52,-26.78 -4.03,-28.14 -27.9,-27.85 -19.2,0.24 -38.22,0.59 -57.51,0.59 -37.58,-0.01 -75.18,0.04 -112.77,-0.02l-0.14 30.46z"/>
   <path class="fil3" d="M1564.67 3212l87.85 16.88c1.96,-44.56 27.12,-69.45 -29.32,-80.71 -52.61,-10.49 -52.45,21.72 -58.53,63.83z"/>
   <path class="fil9" d="M1467.12 3032.68c15.64,3.34 24.23,9.26 42.38,11.75 9.97,1.36 17.39,0.14 24.76,0.75 29.12,2.42 11.89,-6.83 22.93,9.6 11.55,-15.5 -7.07,-75.45 -11.78,-90.67 -4.16,0.01 -20.59,0.58 -24.16,-0.38 -22.94,-6.15 -7.62,-1.18 -13.92,-13.19 -0.91,1.09 -1.9,2.5 -2.54,3.42l-31.08 58.65c-2.9,6.27 -0.77,0.45 -3.86,9.31 -3.73,10.7 0.39,-7.35 -2.73,10.76z"/>
   <path class="fil17" d="M4353.11 2040.44c-53.22,15.74 -37.03,95.41 21.23,83.77 56.26,-11.23 34.93,-100.38 -21.23,-83.77z"/>
   <path class="fil17" d="M4038.99 2094.39c-61.57,22.14 -26.46,97.96 26.31,81.41 49.27,-15.44 28.2,-101.01 -26.31,-81.41z"/>
   <path class="fil9" d="M1150.18 3102.8c-2.55,15.66 -2.14,29.15 -3.47,43.68 -0.17,1.92 -2.72,53.07 2.07,43.13 0.29,-0.61 1.15,2.93 2.03,4.22 7.76,-17.5 -8.16,-4.71 21.58,-11.38 8.61,-1.93 14.43,-1.55 24.24,-4.62 18.39,-5.74 26.14,-13.23 39.85,-18.84 -3.27,-15.13 -13.21,-24.06 -23.41,-38.82l-26.72 -32.86c-3.28,7.3 1.37,8.21 -15.14,13.27 -6.34,1.94 -13.28,1.79 -21.03,2.22z"/>
   <path class="fil12" d="M2863.13 3750.55l99.92 29.94c-0.92,-25.1 -2.97,-52.85 -18.04,-68.48 -34.04,-35.3 -50.23,6.08 -51.03,4.82l-33.17 2.16 2.32 31.56z"/>
   <path class="fil6" d="M1552.34 3264.81c17.86,-4.88 28.15,0.38 46.02,4.15 7.22,1.53 15.19,2.4 21.93,4.09 23.56,5.9 13.23,0.1 19.01,12.74 5.51,-10 10.36,-44.39 13.22,-56.91l-87.85 -16.88c-7.27,11.77 -10.85,36.99 -12.33,52.81z"/>
   <path class="fil6" d="M1284.62 3154.97l6.04 48.66 82.77 -6.92 9.08 26.45c-0.03,-14.64 -4.96,-77.58 -9.77,-84.62l-3.66 9.89 -84.46 6.54z"/>
   <path class="fil14" d="M2340.21 2566.27l146.66 7.14c-12.95,-12.63 -59.64,-25.33 -76.3,-30.53 -20.22,-6.32 -20.33,-2.84 -35.94,5.47 -10.94,5.82 -24.09,12.97 -34.42,17.92z"/>
   <path class="fil12" d="M3253.9 3741.23l74.27 50.08c-1.58,-40.25 -21.55,-76.63 -50.95,-67.68 -22,6.7 -3.86,13.91 -23.32,17.6z"/>
   <path class="fil14" d="M2514.78 2643.73l-97.41 -4.95c6.72,13.82 27.41,27.58 46.72,33.74 28.68,9.15 42.43,-7.41 50.69,-28.79z"/>
   <path class="fil12" d="M1177.61 3491.58c22.7,12.12 38.87,16.35 66.81,19.41l-14.51 -46.83c-11.86,0.2 -24.31,2.98 -35.05,7.16 -12.19,4.75 -17.48,5.45 -17.25,20.26z"/>
   <path class="fil3" d="M1507.33 2950.54c6.3,12.01 -9.02,7.04 13.92,13.19 3.57,0.96 20,0.39 24.16,0.38l-10.34 -45.02c-2.7,-7.03 -3.9,-6.39 -5.88,-8.41l-21.86 39.86z"/>
   <path class="fil12" d="M1594.09 3508.35l48.92 -17.12c-1,-13.32 -1.25,-13.15 -13.95,-18.79 -8.9,-3.95 -15.25,-4.51 -25.01,-4.65l-9.96 40.56z"/>
   <path class="fil12" d="M1403.27 3523.79c17.6,6.44 46.46,6.44 66.22,1.63 9.62,-2.35 10.56,-3.88 12.53,-4.78l-74.79 1.38 8.82 -74.17 -17 1.32 4.22 74.62z"/>
   <path class="fil8" d="M1150.18 3102.8c7.75,-0.43 14.69,-0.28 21.03,-2.22 16.51,-5.06 11.86,-5.97 15.14,-13.27l-31.84 -37.2 -4.33 52.69z"/>
  </g>
 </g>
</svg>
