<?xml version="1.0" encoding="UTF-8"?>
<!DOCTYPE svg PUBLIC "-//W3C//DTD SVG 1.1//EN" "http://www.w3.org/Graphics/SVG/1.1/DTD/svg11.dtd">
<!-- Creator: CorelDRAW 2018 (64-Bit) -->
<svg xmlns="http://www.w3.org/2000/svg" xml:space="preserve" width="74.475mm" height="51.76mm" version="1.1" style="shape-rendering:geometricPrecision; text-rendering:geometricPrecision; image-rendering:optimizeQuality; fill-rule:evenodd; clip-rule:evenodd"
viewBox="0 0 7447.5 5176"
 xmlns:xlink="http://www.w3.org/1999/xlink">
 <defs>
  <style type="text/css">
   <![CDATA[
    .fil9 {fill:#13656A}
    .fil2 {fill:#152D5B}
    .fil3 {fill:#1D8A8C}
    .fil5 {fill:#60C0C4}
    .fil1 {fill:#D9EFE9}
    .fil0 {fill:#E08569}
    .fil10 {fill:#E16764}
    .fil7 {fill:#F99291}
    .fil6 {fill:#FCD146}
    .fil8 {fill:#FEE96C}
    .fil4 {fill:#FEFEFE}
   ]]>
  </style>
 </defs>
 <g id="Layer_x0020_1">
  <metadata id="CorelCorpID_0Corel-Layer"/>
  <rect class="fil0" x="117.51" y="166.73" width="7247.5" height="4826"/>
  <g id="_1477979794976">
   <path class="fil1" d="M5299.52 3968.87c151.47,-4.33 291.01,3.47 339.82,111.18 -51.18,18.44 -293.37,11.92 -358.28,5.81 26.94,-38.08 40.99,-60.55 18.46,-116.99zm-3199.06 -986.96c5.19,23.83 -3.66,10.01 10.09,20.41 31.5,-17.58 34.97,-23.35 77.9,-18.28 20.96,33.47 20.17,41.63 -1.87,73.18 -49.83,5.96 -63.98,-9.47 -106.11,-19.24l-18.62 42.83 10.37 -50.2c-39.63,-33.75 -64.29,-46.37 -59.16,-108.91 70.58,-41.41 69.87,7.09 81.22,47.12l6.18 13.09zm0 0l23.65 -68.4 -33.57 -38.72c-49.08,-49.47 -33.55,-94.02 43.28,-79.2 22.89,60.84 24.47,59.98 15.02,96.32 0.02,0 131.01,-74.39 110.13,20.96 -11.82,54 -86.27,12.94 -129.12,4.24l-29.39 64.8zm69.61 -146.51c20.18,-61.72 7.21,-123.07 67.33,-137.45 30.6,14.08 24.96,8.25 35.21,39.92 -27.17,63.73 -64.36,40.05 -102.54,97.53zm1320.26 -932.72c-141.73,15.49 -116.39,-195.61 14.2,-101.21 8.36,55.19 0.7,56.79 -14.2,101.21zm-323.06 -113.27c1.38,-111.18 156.8,-184.27 185.8,-99.82 35.77,104.14 -101.16,171.97 -185.8,99.82zm-551.13 -948.45c425.34,-66.71 630.71,261.48 565.58,664.95 -12.69,78.54 -47.98,183.98 -80.9,240.98 -110.98,192.12 -338.04,347.44 -557.09,389.36 -378.61,72.46 -634.95,-299.29 -571.36,-666.82 60.72,-350.93 298.46,-574.31 643.77,-628.47zm-961.97 1657.69c54.3,98.49 63.29,84.71 -2.4,173.37 15.81,14 8.68,-0.66 11.59,26.52 0.01,0.02 -2.24,34.16 -2.34,39.76 108.11,-0.87 162.97,102.77 97.82,174.64 -69.82,77.01 -166.05,106.11 -203.17,137.18l37.4 213.99c55.24,-118.68 71.81,-288.18 222.81,-267.68 50.4,6.84 69.33,38.37 100.67,63.4 7.29,-34.32 5.51,-21.72 26.22,-47.49 96.6,-12.25 88.84,37.28 94.55,122.45l24.53 -53.98c-7.48,33.89 -16.03,41.96 -20.12,75.62 24.26,-9.95 70.74,-44.84 99.26,-47.38 51.87,-4.63 67.05,28.9 63.6,77.11 -52.05,66.24 -94.68,26.84 -176.5,1.87l-10.17 -1.3 -82.9 -76.18 -10.2 46.89c65.57,31.74 50.78,90.64 59.57,166.47 27.84,-14.03 76,-63.28 107.61,-70.1 67.28,-14.5 89.52,31.02 85.02,90.88 -55.66,66 -123.26,37.96 -204.36,9.57l-6.69 121.84c30.4,-14.61 81.7,-53.86 125.42,-55.27 55.26,-1.79 90.7,40.53 83.27,94.48 -16.81,122.01 -167.87,43.68 -243.14,23.97 -18.75,-7.81 -22.28,39.2 -27,61.69 -17.75,-32.15 -13.67,-15.04 -3.36,-53.3l-50.93 28.31 26.11 106.9c44.85,-19.32 117.77,-90.13 184.17,-76.74 79.12,15.96 87.74,136.49 2.47,156.15 -23.61,54.92 83,148.44 -97.42,222.16l-1.09 348.79 1035.47 0.41c-12.46,-39.71 -51.06,-110.99 -79.49,-143.87 -42.05,7.3 -92.25,48 -139.99,66.92 -181.36,71.88 -342.11,73.02 -448.99,-90.57 -129.31,-197.91 -134.46,-442.7 0.63,-631.16 16.93,-23.6 28.84,-29.9 46.97,-50.51 31.21,-35.49 202.47,-142.85 288.7,-228.58 105.32,-104.72 331.12,-330.45 453.01,-385.79 60.29,-27.38 105.41,-29.15 168.33,-42.56l-1.21 -46.57c-35.29,-7.26 -30.47,0.27 -41.3,-33.33 16.36,-27.72 8.41,-22.92 43.89,-30.29l-3.77 -32.19 40.68 -6.39 -2.34 -48.1 54.01 8.94c26.45,-23.47 10.39,-17.97 39.03,-29.67 41.83,54.01 5.98,49.56 85.98,70.35 4.89,12.87 3.97,17.67 5.92,25.46 4.69,18.69 -1.12,7.64 9.4,21.99 21.98,-39.46 14.82,-89 -11.6,-137.64 -70.04,-128.97 -214.26,-126.13 -198.76,-330.78 18.07,-238.46 237.06,-176.79 340.13,-373.6 54.25,-103.59 52.85,-158.11 135.94,-225.16 138.32,-111.6 614.69,-148.78 814.43,52.24 174.73,175.85 7.39,454.03 154.83,557.13 148.04,103.51 392.43,50.77 402.39,301.74 8.98,226.09 -245.92,348.16 -166.83,526.4 34.19,77.06 115.56,144.83 99.87,254.99 -12.18,85.51 -94.33,169.57 -169.47,184.65 22.5,119.49 286.01,370.51 189.74,628.37 -32.7,87.6 -82.01,107.4 -127.54,160.48l354.88 3.61c-25.69,-28.26 -25.21,-11.17 -43.85,-42.99 -9.62,-16.44 -17.54,-45.12 -17.35,-65.51 0.54,-56.78 36.17,-82.59 69.33,-106.86l-97.14 -0.55c16.3,-32 -8.88,-18.96 121.27,-19.07 139.3,-0.13 337.03,28.24 351.39,-60.71 17.54,-108.69 -108.87,-88.82 -185.5,-88.76 -94.72,0.07 -189.43,0.12 -284.14,0.03 6.49,-18.31 -12.98,-22.66 59.37,-21.91 29.87,0.32 59.64,0.24 89.51,0.44l-0.08 -423.46 114.64 -1.04c-1.6,-96.48 56.63,-122.57 92.57,-191.23 46.33,-88.52 7.49,-158.95 29.2,-246.71 33.51,-135.43 247.9,-72.68 244.55,-314.2l-36.05 -36.53c-13.14,-11.96 -21,-20.53 -35.09,-32.48 -26.46,-22.46 -46.01,-39.56 -76.19,-61.19 -26.35,-18.89 -47.32,-38.17 -76.68,-59.55 -411.66,-299.82 -463.72,-616.55 -588.52,-1128.55 -62.88,-257.94 -309.52,-423.72 -519.99,-543.91 -251.23,-143.45 -440.57,-222.68 -749.37,-303.89 -637.28,-167.61 -1611.42,-65.96 -1987.33,531.16 -286.83,455.6 -136.84,868.73 -135.42,1381.23 -15.27,12.22 20.32,27.86 -22.37,4.73z"/>
   <path class="fil2" d="M3519.4 2727.73c-1,5.04 -6.37,23.25 -6.44,23.71l2.25 48.24 185.3 -4.12c134.15,-180.95 101.05,-263.15 75.11,-496.79 -29.56,-23.8 -54.41,-26.31 -73.59,-59.28 -42.63,-73.31 6.65,-152.86 89.46,-109.84l55.96 42.73c76.05,-53 148.14,-95.07 245.34,-145.32 123.35,-63.76 150.42,-89.42 245.88,-143.81 88.71,97.74 278.62,292.04 169.56,444.84l13.26 15.15c2.04,2.1 4.24,4.19 6.4,6.38 1.95,1.98 4.31,3.36 6.2,5.31 59.15,60.87 -6.9,105.07 -82.15,114.79 -28.36,27.29 -46.19,87.63 -130.74,175.93 -65.33,68.21 -102.38,78.22 -217.73,77.05l-41.79 112.88c92.28,-0.95 242.26,37.94 324.35,65.95 123.26,42.05 153.29,86.76 217.1,173.5l240.98 344.52c23.6,35.33 46.3,86 76.22,118.15 75.14,-15.08 157.29,-99.14 169.47,-184.65 15.69,-110.16 -65.68,-177.93 -99.87,-254.99 -79.09,-178.24 175.81,-300.31 166.83,-526.4 -9.96,-250.97 -254.35,-198.23 -402.39,-301.74 -147.44,-103.1 19.9,-381.28 -154.83,-557.13 -199.74,-201.02 -676.11,-163.84 -814.43,-52.24 -83.09,67.05 -81.69,121.57 -135.94,225.16 -103.07,196.81 -322.06,135.14 -340.13,373.6 -15.5,204.65 128.72,201.81 198.76,330.78 26.42,48.64 33.58,98.18 11.6,137.64z"/>
   <path class="fil3" d="M2999.94 4333.65l571.68 -2.11c-19.84,-26.65 -170.68,-119.59 -213.85,-147.49 -135.1,-87.31 -104.8,-59.73 -107.14,-256.12 -1.19,-100.05 -29.85,-649.29 3.08,-690.27 35.97,-43.25 82.09,-13.21 123.59,16.29 49.89,-69.15 116.35,-72.9 218.53,-87.2 -22.84,-51.3 -60.91,-115.51 -89.93,-165.14 -22.76,-38.94 -82.88,-126.76 -72.58,-156.75l-12.05 -7.19c-4.31,42.92 6.16,28.25 -22.68,50.52 -46.15,-6.85 -16.29,-6.25 -44.13,-16.89 -13.3,-5.08 -25.92,-7.28 -42.18,-12.45l8.24 -30.66 -31.41 -0.66c-62.92,13.41 -108.04,15.18 -168.33,42.56 -121.89,55.34 -347.69,281.07 -453.01,385.79 -86.23,85.73 -257.49,193.09 -288.7,228.58 -18.13,20.61 -30.04,26.91 -46.97,50.51 -135.09,188.46 -129.94,433.25 -0.63,631.16 106.88,163.59 267.63,162.45 448.99,90.57 47.74,-18.92 97.94,-59.62 139.99,-66.92 28.43,32.88 67.03,104.16 79.49,143.87z"/>
   <path class="fil4" d="M2588.68 1798.85c-46.09,-19.71 -516.6,-490.77 -249.17,-607.8 124.62,-54.54 169.9,38.3 237.73,75.62 98.58,54.23 120.1,-99.07 225.33,-82.93 195.47,29.97 88.43,400.89 -213.89,615.11zm27.46 -957.89c-345.31,54.16 -583.05,277.54 -643.77,628.47 -63.59,367.53 192.75,739.28 571.36,666.82 219.05,-41.92 446.11,-197.24 557.09,-389.36 32.92,-57 68.21,-162.44 80.9,-240.98 65.13,-403.47 -140.24,-731.66 -565.58,-664.95z"/>
   <path class="fil3" d="M3488.44 2848.86c20.11,22.38 159.63,276.3 169.49,312.59 54.94,-8.44 85.09,-7.36 118.47,16.07 -24.59,57.05 -62.49,40.07 -119.67,57.5l47.79 -5.26 53.41 103.89 10.53 71.77c-23.38,-3.08 -16.69,1.35 -35.39,-16.85 -18.03,-17.54 -14.67,-9.84 -15.36,-32.48l-15.76 1.12 -16.37 50.3 160.26 90.98c93.1,30.91 64.16,37.75 175.96,16.08 104.56,-37.09 367.14,-100.19 503.85,-137.74 49.32,-13.55 136.4,-54.78 169.65,-13.45 33.85,44.25 -38.45,346.38 -40.63,430.3 48.79,38.12 67.17,140.99 49.57,220.47 -14.76,66.65 -68.27,141.74 -113.02,171.27l-1.51 31.5c28.97,17.49 9.84,5.45 33,28.93l105.84 83.92 -288.2 0.11 -23.45 7.36 939.94 -4.57 -19.43 -2.51 -354.88 -3.61c45.53,-53.08 94.84,-72.88 127.54,-160.48 96.27,-257.86 -167.24,-508.88 -189.74,-628.37 -29.92,-32.15 -52.62,-82.82 -76.22,-118.15l-240.98 -344.52c-63.81,-86.74 -93.84,-131.45 -217.1,-173.5 -82.09,-28.01 -232.07,-66.9 -324.35,-65.95l-54.41 125.73c-123.38,12.32 -209.79,-42.35 -286.98,-125.64 -31.97,-34.49 -14.62,3.66 -19.78,-40.11l-185.3 4.12 -24.41 16.25 -2.36 32.93z"/>
   <path class="fil5" d="M1544.68 3085.02c1.3,2.53 2.77,5.78 3.49,7.81l12.04 50.35c2.61,16.04 5.27,33.2 7.83,49.7 5.18,33.35 12.4,64.73 10.91,97.78 -27.32,-33.25 -65.73,-45.99 -92.3,-87.81 -68.43,-27.54 -148.61,-139.57 -255.96,-47.16 -81.54,70.2 -47.4,199.21 58.34,226.57 138.86,7.39 196.81,-32.52 302.05,-46.19 10.02,85.04 34.53,172.64 31.71,250.11 -63.36,-41.31 -145.25,-146.43 -250.98,-162.99 -141.28,6.51 -132.01,84.25 -134.44,195.48 56.42,33.42 40.69,82.91 189.99,64.88 73.48,-8.87 141.42,-27.97 205.26,-46.62 7.66,40.27 13.44,65.63 7.12,107.74 21.95,32.31 23.39,112.57 25.63,157.17 -36,-15.79 -25.21,-16.95 -52.05,-42.77 -25.64,-24.67 -25.03,-10.77 -34.76,-44.35 -2.69,-1.25 -6.41,-6.55 -7.69,-4.45 -1.02,1.66 -183.16,-180.25 -270.56,-18.82 -29.56,54.58 -21.06,114.53 20.12,156.18 45.54,46.07 96.04,41.92 170.11,46.9 38.56,-8.74 194.28,-25.46 222.91,-20.95 95.3,15.01 155.5,12.85 252.11,10.87 180.42,-73.72 73.81,-167.24 97.42,-222.16 -75.56,-9.79 -1.33,-34.36 -136.73,-42.05 -20.8,-1.18 -7.26,1.51 -27.87,-2.75l-19.96 -5.62c-3.59,-1.08 -18.44,-6.9 -21.53,-7.92 6.83,28.5 0.17,12.19 6.04,26.66 -32.08,21.32 -3.4,3.19 -21.77,26.34 -11.43,14.41 -9.11,12.13 -22.95,25.58 -17.91,17.42 -31.06,31.84 -50.01,43.24 -17.51,27.92 -39.89,70.45 -77.24,77.24 -26.85,-27.75 -23.64,-108.45 -28.7,-150.32l15.32 -7.33c-20.09,-20.2 -30.67,-47.86 -28.1,-81.53 3.91,-51.1 -13.28,-18.51 16.57,-33.61 21.29,-10.77 29.11,0.86 40.84,8.58 18.66,-32.78 28.89,-26.16 66.47,-37.93 31,-9.7 44.81,-18.12 76.87,-24.89l50.93 -28.31c-10.31,38.26 -14.39,21.15 3.36,53.3 4.72,-22.49 8.25,-69.5 27,-61.69 9.39,-32.1 15.96,-35.46 34.45,-63.18l6.69 -121.84c-11.2,-17.48 0.78,-3.25 -23.48,-16.47 -10.11,-5.51 -14.24,-6.24 -25.37,-12.73 -23.8,-13.89 -23.85,-17.73 -45.73,-34.36 -128.31,29.85 -130.84,-35.58 -241,282.51l-35.22 -241.75c103.04,-17.03 166.27,-59.74 249.35,-78.71 49.18,-48.44 39.33,-23.89 73.61,-95.31l10.2 -46.89c-14.32,-23.42 -13.49,-16.88 -18.47,-50.72 -31.34,-25.03 -50.27,-56.56 -100.67,-63.4 -151,-20.5 -167.57,149 -222.81,267.68l-37.4 -213.99c37.12,-31.07 133.35,-60.17 203.17,-137.18 65.15,-71.87 10.29,-175.51 -97.82,-174.64 -103.04,22.8 -96.37,114.48 -116.48,215.7 -25.36,-48.08 -35.39,-136.21 -40.35,-196.83 65.3,-19.06 107.76,-65.51 147.58,-85.15 65.69,-88.66 56.7,-74.88 2.4,-173.37 -183.45,-13.02 -117.3,73.08 -166.55,193.41l-39.78 -178.62c39.72,-42.39 91.6,-51.44 114.12,-100.22 30.12,-65.26 -13.97,-102.78 -87.77,-93.58 -42.23,47.76 -37.29,48.33 -42.84,126.52l-37.59 -137.64c36.18,-29.2 132.18,-82.25 107.75,-150.78 -11.56,-32.43 -53.07,-52.91 -95.29,-27.57 -28.34,17 -29.39,58.11 -33.84,94.82l-43.31 -93.47c-6.92,-36.25 0.05,-73.7 -4.92,-112.19 -11.55,-89.54 -100.36,-96.73 -123.62,-34.67 -26.44,70.54 59.61,106.72 94.7,134.69 38.26,30.48 59.08,113.22 71.05,160.23 -60.59,-41.38 -95.04,-107.64 -182.02,-42.63 -20.3,137.24 104.14,100.74 193.55,72.49l41.03 160.46c-31.4,-20.14 -85.1,-72.17 -132.49,-59.13 -53.39,14.7 -59.44,86.8 -15.15,114.03 46.52,30.59 112.84,-0.55 163.33,-6.93l42.58 200.48c-41.73,-20.74 -74.33,-67.22 -132.46,-93.08 -62.12,-27.64 -119.02,4.3 -131.68,56.22 -45.51,186.66 247.61,87.37 278.56,88.98l40.1 228.32c-29.69,-31.18 -94.07,-97.7 -132.94,-124.93 -159.6,-111.82 -260.73,161.92 -83.54,189.75 69.91,10.98 160.66,-8.99 229.55,-18.26l-0.02 39.67z"/>
   <path class="fil6" d="M3571.62 4331.54c37.94,10.36 236.36,143.58 267.37,172.24l11.43 0.21 -4.58 -1005.5 -160.26 -90.98 -308.28 -153.56c-41.5,-29.5 -87.62,-59.54 -123.59,-16.29 -32.93,40.98 -4.27,590.22 -3.08,690.27 2.34,196.39 -27.96,168.81 107.14,256.12 43.17,27.9 194.01,120.84 213.85,147.49z"/>
   <path class="fil7" d="M4072.82 2487.22c19.08,-13.37 -21.58,-2.67 28.04,-11.85 56.9,-10.53 67.99,3.14 88.11,25.04l50.49 -9.22 31.74 40.39c-7.3,18.04 -0.54,11.48 -10.19,22.02 -50.8,95.79 -168.75,54.84 -193.21,-54.59l5.02 -11.79zm336.82 -184.38c11.56,37.79 12.18,18.62 -2.42,48.31 -31.67,17.91 -11.72,14.39 -51.53,5.19 -18.34,-43.88 -0.3,-86.01 53.95,-53.5zm-184.71 108.89c13.08,-57.67 -9.72,-103.11 32.35,-148.57 24.26,31.53 1.61,12.55 -3.85,74.02 -0.02,0.13 19.68,153.79 -94.9,88.44 14,-11.83 1.23,-7.13 30.01,-12.28 0.28,-0.04 29.18,-0.69 36.39,-1.61zm-197.61 -205.51c31.88,-12.67 16.43,-13.53 48.59,0.54 49.25,82.13 -98.92,84.58 -48.59,-0.54zm342.65 -14.79c4.99,-3.54 -9.27,-28.42 48.25,-6.25 2.53,0.97 29.61,18.29 30.88,19.12 27.96,18.44 33.9,18.99 40.19,54.82 -45.5,2.58 -25.23,-7.85 -61.45,-33.12 -24.53,-17.11 -30.27,-5.03 -57.87,-34.57zm-383.31 -58.55c16.76,-41.52 113,-38.62 135.99,0l-135.99 0zm-286.15 662.68c5.16,43.77 -12.19,5.62 19.78,40.11 77.19,83.29 163.6,137.96 286.98,125.64l54.41 -125.73 41.79 -112.88c115.35,1.17 152.4,-8.84 217.73,-77.05 84.55,-88.3 102.38,-148.64 130.74,-175.93l56.29 -141.63c109.06,-152.8 -80.85,-347.1 -169.56,-444.84 -95.46,54.39 -122.53,80.05 -245.88,143.81 -97.2,50.25 -169.29,92.32 -245.34,145.32l-55.96 -42.73c-82.81,-43.02 -132.09,36.53 -89.46,109.84 19.18,32.97 44.03,35.48 73.59,59.28 25.94,233.64 59.04,315.84 -75.11,496.79z"/>
   <path class="fil1" d="M5595.06 3499.99l154.74 0.43 3.9 62.44c42.31,1.63 88.08,-5.12 127.14,10.11 9.33,46.03 27.82,228.46 -17.9,243.2l-110.62 7.03 0.23 101.99 291.4 1.07c109.67,32.18 102.87,157.31 19.68,177.56 41.17,26.33 94.2,-5.45 131.09,19.67 -14.46,32.29 -132.67,15.39 -171.27,15.44 -166.05,0.25 -314.31,-29.92 -324.61,73.06 -6.91,69.08 32.91,92.98 93.21,96.81 -9.21,-136.33 225.79,-149.28 345.17,-142.25 -1.58,90.25 -31.57,71.83 38.49,142.13 27.89,8.72 16.6,-7.76 18.39,26.56l141 -2.59c1.59,-59.67 20.51,-120.24 27.66,-181.04 50.01,-425.5 -45.76,-753.83 -251.48,-1118.16 -30.87,10.08 -108.06,87.99 -137.87,113.44 -60.14,51.33 -78.01,70.24 -79.88,167.19 -3.83,198.79 -235.67,29.6 -298.47,185.91z"/>
   <path class="fil2" d="M3838.99 4503.78c-31.01,-28.66 -229.43,-161.88 -267.37,-172.24l-571.68 2.11 -1035.47 -0.41 -478.07 1.08 -312.03 -1.95 -46 1.32 -0.89 170.23 2711.51 -0.14z"/>
   <path class="fil6" d="M4021.8 3514.57c8.71,230.49 3.08,625.45 1.29,882.17 -1,142.5 -13.3,105.79 15.7,102.62l20.08 4.46 358.03 -166.58 23.45 -7.36c1.95,-1.78 4.64,-4.02 6.07,-5.1l18.71 -13.47c52.62,-31.46 103.86,-21.89 124.58,-94.39l1.51 -31.5 -41.3 3.42c-6.98,-61.85 41.51,-68.33 16.09,-101.47 -116.05,-17.01 -396.15,-68.91 -426.61,-162.24l114.5 19.43c-51.56,-18.42 -123.35,-62.65 -140.3,-101.95 21.32,-8.84 33.27,-6.77 62.4,1.35 75.32,20.99 58.97,7.68 67.66,2.97 -23.88,-7.58 -40.98,-14.67 -62.92,-27.46 -32.44,-18.91 -34.27,-20.1 -44.88,-53.25l148.26 20.13c-27.7,-5.64 -50.15,-22.37 -74.12,-35.78 -70.57,-39.46 -54.72,-30.69 -61.9,-58.25 93.58,-24.87 196.41,54.42 284.28,66.58 -3.73,-50.71 -32.76,-84.69 -4.75,-128.68 41.18,3.55 72.91,88.01 93.54,112.21 20.4,23.94 30.17,32.18 49.59,57.6 20.75,27.13 27.23,42.25 49.5,61.37l0.09 -58.92 34.32 -8.8c2.18,-83.92 74.48,-386.05 40.63,-430.3 -33.25,-41.33 -120.33,-0.1 -169.65,13.45 -136.71,37.55 -399.29,100.65 -503.85,137.74z"/>
   <path class="fil2" d="M4416.9 4337.24l-358.03 166.58 2286.41 -0.24c0.09,-46.6 14.21,-138.57 -10.18,-170.93l-141 2.59 -473.16 -1.07 -364.1 -1.5 -939.94 4.57z"/>
   <path class="fil6" d="M2588.68 1798.85c302.32,-214.22 409.36,-585.14 213.89,-615.11 -105.23,-16.14 -126.75,137.16 -225.33,82.93 -67.83,-37.32 -113.11,-130.16 -237.73,-75.62 -267.43,117.03 203.08,588.09 249.17,607.8z"/>
   <path class="fil1" d="M1174.37 4332.37l312.03 1.95 4.14 -339.79c-74.07,-4.98 -124.57,-0.83 -170.11,-46.9 -41.18,-41.65 -49.68,-101.6 -20.12,-156.18 87.4,-161.43 269.54,20.48 270.56,18.82 1.28,-2.1 5,3.2 7.69,4.45 4.07,-41.14 20.42,-66.5 61.18,-70.05 6.32,-42.11 0.54,-67.47 -7.12,-107.74 -63.84,18.65 -131.78,37.75 -205.26,46.62 -149.3,18.03 -133.57,-31.46 -189.99,-64.88 -53.4,92.36 -106.34,202.55 -124.49,325.68 -10.76,72.92 -12.24,153.01 1,219.15 15.21,75.96 41.2,111.47 60.49,168.87z"/>
   <path class="fil8" d="M3850.42 4503.99c49.54,35.05 147.34,44.05 188.37,-4.63 -29,3.17 -16.7,39.88 -15.7,-102.62 1.79,-256.72 7.42,-651.68 -1.29,-882.17 -111.8,21.67 -82.86,14.83 -175.96,-16.08l4.58 1005.5z"/>
   <path class="fil6" d="M5751.17 3613.13l85.6 1.62 0.65 157.92 -85.17 -1.72 -1.08 -157.82zm-350.87 311.14l306.57 0.05 337.08 1.94 -291.4 -1.07 -0.23 -101.99 110.62 -7.03c45.72,-14.74 27.23,-197.17 17.9,-243.2 -39.06,-15.23 -84.83,-8.48 -127.14,-10.11l-3.9 -62.44 -154.74 -0.43 -80.2 -0.22 -114.64 1.04 0.08 423.46z"/>
   <path class="fil3" d="M1490.54 3994.53l-4.14 339.79 478.07 -1.08 1.09 -348.79c-96.61,1.98 -156.81,4.14 -252.11,-10.87 -28.63,-4.51 -184.35,12.21 -222.91,20.95z"/>
   <path class="fil7" d="M4566.01 4087.37c-28.26,-69.52 28.24,-71.17 31.39,-71.98l31.57 -9c-29.24,-30.88 -85.8,-66.49 -1.02,-94.84l-7.69 -50.15c-22.27,-19.12 -28.75,-34.24 -49.5,-61.37 -19.42,-25.42 -29.19,-33.66 -49.59,-57.6 -20.63,-24.2 -52.36,-108.66 -93.54,-112.21 -28.01,43.99 1.02,77.97 4.75,128.68 -87.87,-12.16 -190.7,-91.45 -284.28,-66.58 7.18,27.56 -8.67,18.79 61.9,58.25 23.97,13.41 46.42,30.14 74.12,35.78l-148.26 -20.13c10.61,33.15 12.44,34.34 44.88,53.25 21.94,12.79 39.04,19.88 62.92,27.46 -8.69,4.71 7.66,18.02 -67.66,-2.97 -29.13,-8.12 -41.08,-10.19 -62.4,-1.35 16.95,39.3 88.74,83.53 140.3,101.95l-114.5 -19.43c30.46,93.33 310.56,145.23 426.61,162.24z"/>
   <path class="fil5" d="M5337.41 4330.16l19.43 2.51 364.1 1.5c-21.07,-33.42 -24.52,-21.08 -43.95,-49.72 -13.85,-20.41 -17.86,-42.74 -15.42,-72.54 4.99,-61.09 36.73,-70.57 69.93,-100.07l-38.19 2.06 -347.77 0.9c-33.16,24.27 -68.79,50.08 -69.33,106.86 -0.19,20.39 7.73,49.07 17.35,65.51 18.64,31.82 18.16,14.73 43.85,42.99z"/>
   <path class="fil9" d="M5693.31 4113.9l38.19 -2.06c97.32,-0.06 251.52,11.27 332.13,-8.02 83.19,-20.25 89.99,-145.38 -19.68,-177.56l-337.08 -1.94c23.63,32.82 53.34,48.03 51.76,100.85 -1.69,56.91 -27.44,59.66 -65.32,88.73z"/>
   <path class="fil7" d="M3595.83 3166.75c-102.18,14.3 -168.64,18.05 -218.53,87.2l308.28 153.56 16.37 -50.3 -28.14 -33.87 12.56 -52.83c-66.93,-28.31 -29.68,-35.46 -29.64,-35.49 57.18,-17.43 95.08,-0.45 119.67,-57.5 -33.38,-23.43 -63.53,-24.51 -118.47,-16.07l-62.1 5.3z"/>
   <path class="fil6" d="M3289.11 2827.53l31.41 0.66 -8.24 30.66c16.26,5.17 28.88,7.37 42.18,12.45 27.84,10.64 -2.02,10.04 44.13,16.89 28.84,-22.27 18.37,-7.6 22.68,-50.52l12.05 7.19 55.12 4 2.36 -32.93 24.41 -16.25 -2.25 -48.24c0.07,-0.46 5.44,-18.67 6.44,-23.71 -10.52,-14.35 -4.71,-3.3 -9.4,-21.99 -1.95,-7.79 -1.03,-12.59 -5.92,-25.46 -80,-20.79 -44.15,-16.34 -85.98,-70.35 -28.64,11.7 -12.58,6.2 -39.03,29.67l-54.01 -8.94 2.34 48.1 -40.68 6.39 3.77 32.19c-35.48,7.37 -27.53,2.57 -43.89,30.29 10.83,33.6 6.01,26.07 41.3,33.33l1.21 46.57z"/>
   <path class="fil4" d="M5792.05 4308.8l383.66 -0.12c-70.06,-70.3 -40.07,-51.88 -38.49,-142.13 -119.38,-7.03 -354.38,5.92 -345.17,142.25z"/>
   <path class="fil3" d="M1706.89 3638.8c26.97,12.63 47.16,25.57 77.13,40.27 13.07,6.42 26.52,10.9 39.8,17.94 51.67,27.39 15.57,-5.02 39.11,33.6 -5.87,-14.47 0.79,1.84 -6.04,-26.66 3.09,1.02 17.94,6.84 21.53,7.92l19.96 5.62c20.61,4.26 7.07,1.57 27.87,2.75 135.4,7.69 61.17,32.26 136.73,42.05 85.27,-19.66 76.65,-140.19 -2.47,-156.15 -66.4,-13.39 -139.32,57.42 -184.17,76.74l-26.11 -106.9c-32.06,6.77 -45.87,15.19 -76.87,24.89 -37.58,11.77 -47.81,5.15 -66.47,37.93z"/>
   <path class="fil4" d="M4620.26 3861.4l7.69 50.15c-84.78,28.35 -28.22,63.96 1.02,94.84l-31.57 9c-3.15,0.81 -59.65,2.46 -31.39,71.98 25.42,33.14 -23.07,39.62 -16.09,101.47l41.3 -3.42c44.75,-29.53 98.26,-104.62 113.02,-171.27 17.6,-79.48 -0.78,-182.35 -49.57,-220.47l-34.32 8.8 -0.09 58.92z"/>
   <path class="fil4" d="M5299.52 3968.87c22.53,56.44 8.48,78.91 -18.46,116.99 64.91,6.11 307.1,12.63 358.28,-5.81 -48.81,-107.71 -188.35,-115.51 -339.82,-111.18z"/>
   <path class="fil3" d="M1851.21 3252.75l26.87 37.95c21.88,16.63 21.93,20.47 45.73,34.36 11.13,6.49 15.26,7.22 25.37,12.73 24.26,13.22 12.28,-1.01 23.48,16.47 81.1,28.39 148.7,56.43 204.36,-9.57 4.5,-59.86 -17.74,-105.38 -85.02,-90.88 -31.61,6.82 -79.77,56.07 -107.61,70.1 -8.79,-75.83 6,-134.73 -59.57,-166.47 -34.28,71.42 -24.43,46.87 -73.61,95.31z"/>
   <path class="fil3" d="M5731.5 4111.84c-33.2,29.5 -64.94,38.98 -69.93,100.07 -2.44,29.8 1.57,52.13 15.42,72.54 19.43,28.64 22.88,16.3 43.95,49.72l473.16 1.07c-1.79,-34.32 9.5,-17.84 -18.39,-26.56l-383.66 0.12c-60.3,-3.83 -100.12,-27.73 -93.21,-96.81 10.3,-102.98 158.56,-72.81 324.61,-73.06 38.6,-0.05 156.81,16.85 171.27,-15.44 -36.89,-25.12 -89.92,6.66 -131.09,-19.67 -80.61,19.29 -234.81,7.96 -332.13,8.02z"/>
   <path class="fil1" d="M1289.03 3382.26c37.39,27.83 46.15,16.18 97.06,3.96l-14.28 36.97c105.73,16.56 187.62,121.68 250.98,162.99 2.82,-77.47 -21.69,-165.07 -31.71,-250.11 -105.24,13.67 -163.19,53.58 -302.05,46.19z"/>
   <path class="fil3" d="M1916.55 3059.83c4.98,33.84 4.15,27.3 18.47,50.72l82.9 76.18 10.17 1.3c81.82,24.97 124.45,64.37 176.5,-1.87 3.45,-48.21 -11.73,-81.74 -63.6,-77.11 -28.52,2.54 -75,37.43 -99.26,47.38 4.09,-33.66 12.64,-41.73 20.12,-75.62l-24.53 53.98c-5.71,-85.17 2.05,-134.7 -94.55,-122.45 -20.71,25.77 -18.93,13.17 -26.22,47.49z"/>
   <path class="fil3" d="M1965.97 3476.1c-18.49,27.72 -25.06,31.08 -34.45,63.18 75.27,19.71 226.33,98.04 243.14,-23.97 7.43,-53.95 -28.01,-96.27 -83.27,-94.48 -43.72,1.41 -95.02,40.66 -125.42,55.27z"/>
   <path class="fil3" d="M5345.54 4114.8l347.77 -0.9c37.88,-29.07 63.63,-31.82 65.32,-88.73 1.58,-52.82 -28.13,-68.03 -51.76,-100.85l-306.57 -0.05c-29.87,-0.2 -59.64,-0.12 -89.51,-0.44 -72.35,-0.75 -52.88,3.6 -59.37,21.91 94.71,0.09 189.42,0.04 284.14,-0.03 76.63,-0.06 203.04,-19.93 185.5,88.76 -14.36,88.95 -212.09,60.58 -351.39,60.71 -130.15,0.11 -104.97,-12.93 -121.27,19.07l97.14 0.55z"/>
   <path class="fil4" d="M3167.27 1789.41c84.64,72.15 221.57,4.32 185.8,-99.82 -29,-84.45 -184.42,-11.36 -185.8,99.82z"/>
   <path class="fil1" d="M1677.58 3745.36c45.53,10.98 64.64,45.51 90.62,80.41 18.95,-11.4 32.1,-25.82 50.01,-43.24 13.84,-13.45 11.52,-11.17 22.95,-25.58 18.37,-23.15 -10.31,-5.02 21.77,-26.34 -23.54,-38.62 12.56,-6.21 -39.11,-33.6 -13.28,-7.04 -26.73,-11.52 -39.8,-17.94 -29.97,-14.7 -50.16,-27.64 -77.13,-40.27 -11.73,-7.72 -19.55,-19.35 -40.84,-8.58 -29.85,15.1 -12.66,-17.49 -16.57,33.61 -2.57,33.67 8.01,61.33 28.1,81.53z"/>
   <path class="fil1" d="M1878.08 3290.7l-26.87 -37.95c-83.08,18.97 -146.31,61.68 -249.35,78.71l35.22 241.75c110.16,-318.09 112.69,-252.66 241,-282.51z"/>
   <path class="fil2" d="M3595.83 3166.75l62.1 -5.3c-9.86,-36.29 -149.38,-290.21 -169.49,-312.59l-55.12 -4c-10.3,29.99 49.82,117.81 72.58,156.75 29.02,49.63 67.09,113.84 89.93,165.14z"/>
   <path class="fil4" d="M1661.02 2738.3c0.1,-5.6 2.35,-39.74 2.34,-39.76 -2.91,-27.18 4.22,-12.52 -11.59,-26.52 -39.82,19.64 -82.28,66.09 -147.58,85.15 4.96,60.62 14.99,148.75 40.35,196.83 20.11,-101.22 13.44,-192.9 116.48,-215.7z"/>
   <path class="fil3" d="M2061.85 3080.81l18.62 -42.83c42.13,9.77 56.28,25.2 106.11,19.24 22.04,-31.55 22.83,-39.71 1.87,-73.18 -42.93,-5.07 -46.4,0.7 -77.9,18.28 -13.75,-10.4 -4.9,3.42 -10.09,-20.41l-6.18 -13.09c-11.35,-40.03 -10.64,-88.53 -81.22,-47.12 -5.13,62.54 19.53,75.16 59.16,108.91l-10.37 50.2z"/>
   <path class="fil3" d="M2100.46 2981.91l29.39 -64.8c42.85,8.7 117.3,49.76 129.12,-4.24 20.88,-95.35 -110.11,-20.96 -110.13,-20.96 9.45,-36.34 7.87,-35.48 -15.02,-96.32 -76.83,-14.82 -92.36,29.73 -43.28,79.2l33.57 38.72 -23.65 68.4z"/>
   <path class="fil1" d="M4440.35 4329.88l288.2 -0.11 -105.84 -83.92c-23.16,-23.48 -4.03,-11.44 -33,-28.93 -20.72,72.5 -71.96,62.93 -124.58,94.39l-18.71 13.47c-1.43,1.08 -4.12,3.32 -6.07,5.1z"/>
   <polygon class="fil1" points="5752.25,3770.95 5837.42,3772.67 5836.77,3614.75 5751.17,3613.13 "/>
   <path class="fil4" d="M3490.33 1902.68c14.9,-44.42 22.56,-46.02 14.2,-101.21 -130.59,-94.4 -155.93,116.7 -14.2,101.21z"/>
   <path class="fil3" d="M1768.2 3825.77c-25.98,-34.9 -45.09,-69.43 -90.62,-80.41l-15.32 7.33c5.06,41.87 1.85,122.57 28.7,150.32 37.35,-6.79 59.73,-49.32 77.24,-77.24z"/>
   <path class="fil3" d="M1578.56 3814.72c9.73,33.58 9.12,19.68 34.76,44.35 26.84,25.82 16.05,26.98 52.05,42.77 -2.24,-44.6 -3.68,-124.86 -25.63,-157.17 -40.76,3.55 -57.11,28.91 -61.18,70.05z"/>
   <path class="fil4" d="M4067.8 2499.01c81.62,67.62 67,91.69 193.21,54.59 9.65,-10.54 2.89,-3.98 10.19,-22.02 -60.5,-1.64 -143.85,-28.28 -198.38,-44.36l-5.02 11.79z"/>
   <path class="fil10" d="M4451.94 2469.72c75.25,-9.72 141.3,-53.92 82.15,-114.79 -1.89,-1.95 -4.25,-3.33 -6.2,-5.31 -2.16,-2.19 -4.36,-4.28 -6.4,-6.38l-13.26 -15.15 -56.29 141.63z"/>
   <path class="fil1" d="M1486.65 3202.85c26.57,41.82 64.98,54.56 92.3,87.81 1.49,-33.05 -5.73,-64.43 -10.91,-97.78 -2.56,-16.5 -5.22,-33.66 -7.83,-49.7l-12.04 -50.35c-0.72,-2.03 -2.19,-5.28 -3.49,-7.81 -2.7,37.46 -5.03,43.79 -18.4,73.52 -0.93,2.07 -11.6,25.63 -12.51,26.96 -14.63,21.32 -1.18,16.83 -27.12,17.35z"/>
   <path class="fil2" d="M3701.95 3357.21l15.76 -1.12 40.22 -22.44 -53.41 -103.89 -47.79 5.26c-0.04,0.03 -37.29,7.18 29.64,35.49l-12.56 52.83 28.14 33.87z"/>
   <path class="fil3" d="M2170.07 2835.4c38.18,-57.48 75.37,-33.8 102.54,-97.53 -10.25,-31.67 -4.61,-25.84 -35.21,-39.92 -60.12,14.38 -47.15,75.73 -67.33,137.45z"/>
   <path class="fil6" d="M4261.01 2553.6c-126.21,37.1 -111.59,13.03 -193.21,-54.59 24.46,109.43 142.41,150.38 193.21,54.59z"/>
   <path class="fil10" d="M4224.93 2411.73c-7.21,0.92 -36.11,1.57 -36.39,1.61 -28.78,5.15 -16.01,0.45 -30.01,12.28 114.58,65.35 94.88,-88.31 94.9,-88.44 5.46,-61.47 28.11,-42.49 3.85,-74.02 -42.07,45.46 -19.27,90.9 -32.35,148.57z"/>
   <path class="fil6" d="M4271.2 2531.58l-31.74 -40.39 -50.49 9.22c-20.12,-21.9 -31.21,-35.57 -88.11,-25.04 -49.62,9.18 -8.96,-1.52 -28.04,11.85 54.53,16.08 137.88,42.72 198.38,44.36z"/>
   <path class="fil2" d="M4369.97 2191.43c27.6,29.54 33.34,17.46 57.87,34.57 36.22,25.27 15.95,35.7 61.45,33.12 -6.29,-35.83 -12.23,-36.38 -40.19,-54.82 -1.27,-0.83 -28.35,-18.15 -30.88,-19.12 -57.52,-22.17 -43.26,2.71 -48.25,6.25z"/>
   <path class="fil2" d="M4027.32 2206.22c-50.33,85.12 97.84,82.67 48.59,0.54 -32.16,-14.07 -16.71,-13.21 -48.59,-0.54z"/>
   <path class="fil2" d="M4355.69 2356.34c39.81,9.2 19.86,12.72 51.53,-5.19 14.6,-29.69 13.98,-10.52 2.42,-48.31 -54.25,-32.51 -72.29,9.62 -53.95,53.5z"/>
   <path class="fil2" d="M3986.66 2132.88l135.99 0c-22.99,-38.62 -119.23,-41.52 -135.99,0z"/>
   <path class="fil5" d="M3717.71 3356.09c0.69,22.64 -2.67,14.94 15.36,32.48 18.7,18.2 12.01,13.77 35.39,16.85l-10.53 -71.77 -40.22 22.44z"/>
  </g>
 </g>
</svg>
