<?xml version="1.0" encoding="UTF-8"?>
<!DOCTYPE svg PUBLIC "-//W3C//DTD SVG 1.1//EN" "http://www.w3.org/Graphics/SVG/1.1/DTD/svg11.dtd">
<!-- Creator: CorelDRAW 2018 (64-Bit) -->
<svg xmlns="http://www.w3.org/2000/svg" xml:space="preserve" width="74.475mm" height="51.76mm" version="1.1" style="shape-rendering:geometricPrecision; text-rendering:geometricPrecision; image-rendering:optimizeQuality; fill-rule:evenodd; clip-rule:evenodd"
viewBox="0 0 7447.5 5176"
 xmlns:xlink="http://www.w3.org/1999/xlink">
 <defs>
  <style type="text/css">
   <![CDATA[
    .fil1 {fill:#03DEC0}
    .fil2 {fill:#1B9EB2}
    .fil6 {fill:#47A887}
    .fil4 {fill:#507D90}
    .fil5 {fill:#77C8AA}
    .fil7 {fill:#BAE8CE}
    .fil8 {fill:#CEE8FC}
    .fil0 {fill:#E08569}
    .fil10 {fill:#FCA484}
    .fil9 {fill:#FDDACE}
    .fil3 {fill:white}
   ]]>
  </style>
 </defs>
 <g id="Layer_x0020_1">
  <metadata id="CorelCorpID_0Corel-Layer"/>
  <rect class="fil0" x="117.51" y="166.73" width="7247.5" height="4826"/>
  <path class="fil1" d="M2137.67 3488.22c25.54,-7.69 61.93,-7.65 92.75,-6.62 42.69,1.42 53.52,15.65 40.48,54.1 -27.48,10.12 -47.01,6.46 -79.28,7.77l-1.14 63.94c31.35,21.19 30.16,11.65 26.59,105.81 24.51,14.32 20.25,-2.82 42.8,23.04 70.19,80.45 58.5,99.55 59.26,165.68l-287.53 -0.38c5.37,-96.87 -16.34,-60.93 55.26,-159.42 16.69,-22.95 11.47,-17.34 46.33,-25.29 4.82,-115.29 -13.35,-79.67 27.56,-109.43l0.11 -59.52c-30.11,-20.56 -39.04,-17.53 -23.19,-59.68zm-143.37 -1091.37l-2.63 1862.37c7.65,2.57 -1.84,2.38 19.6,6.17 1.16,0.2 18.51,1.37 20.5,1.48l2.97 -121.32 -1.4 -239.52 284.33 -2.43 -1.72 241.5 1.4 151.24 8.5 -29.18 122.25 0.9c1.07,1.3 2.4,1.84 2.85,4.19 0.58,3.05 4.72,6.89 5.7,8.31 6.58,9.58 4.86,8.43 11.29,16.17l178.43 0.78c45.25,-10.09 -37.04,18.33 16.42,-6.8 9.6,-4.51 15.09,-62.03 17.35,-75.14l42.26 -312.29 -35.73 -0.81c-25.42,4.1 -41.89,6.38 -61.1,-1.63l-32.9 4.7 -32.25 -2.67 -5.87 0.09c-23.76,2.92 -19.18,3.01 -33.95,-6.21 -12.58,9.53 6.22,6.03 -25.93,8.28 -12.23,0.86 -24.54,-1.21 -36.35,-2.42 -13.1,-7.04 -54.17,-87.35 -59.93,-100.11 -27.16,-60.23 -49.11,-338.95 -69.49,-437.83l-6.37 -64.32c-23.1,-110.68 -29.68,-211.6 -60.39,-319.57 -49.97,-175.65 -58.15,-107.54 -3.09,-303.66 37.04,-131.97 36.31,-184.5 125.04,-257.72 35.98,-29.7 66.82,-56.46 105.26,-86.6 26.12,-20.49 87.7,-74.68 111.23,-85.04 15.11,-23.8 55.62,-55.69 82.19,-72.94 136.97,-137.25 212.94,-313.94 310.46,-502.67 64.92,-125.65 85.88,-147.5 179.98,-222.69 60.35,-48.22 161.38,-124.84 233.69,-169.36 33.23,-30.68 55.41,-15.44 80.43,13.5 75.04,46.78 164.29,115.78 231.95,170.23 92.65,74.56 109.03,106.74 170.98,225.19 49.4,94.45 91.76,180.64 138.88,265.12 25.88,46.41 47.21,82.28 75.22,123.1 44.23,64.49 69.06,73.08 92.72,102.47 13.87,9.91 23.22,18.38 38.95,30.79 4.62,3.65 15.24,11.17 18.55,14.02 14.75,12.7 9.47,6.09 19.74,23.3 23.92,9.43 180.72,141 212.48,168.12 91.46,78.08 90.93,118.77 128.6,261.17 50,188.99 52.13,115.58 -1.35,299.57 -31.3,107.69 -37.8,214.19 -60.96,323.7l-7.63 63.82c-8.02,51.23 -21.1,240.38 -42.9,268.21 13.97,26.76 19.69,22.59 40.21,49.57 13.25,17.4 24.23,32.63 35.5,50.86 83.26,134.63 11.69,282 -177.09,268.12 26.14,85.62 108.77,153.91 43.08,263.08 54.87,21.24 258.07,-15.64 315.94,11.19l-33.97 -306.19 158.95 -2.5 -9.44 -2943.69 -2877.71 0.51 -3.73 1373.49z"/>
  <path class="fil2" d="M5959.66 4248.8l-5.65 49.18 -482.86 -3.22 -7.19 -57.44 3.12 28.2 -486.61 -0.28 -3 -22.07c-10.71,15.76 -7.62,26.49 -11.36,51.46l-199.11 1.08 -6.8 -20.48c-57.87,-26.83 -261.07,10.05 -315.94,-11.19l-166.69 1c-1.81,-52.7 12.84,-438.82 20.94,-458.97l6.44 -243.94 -130.42 -0.4 -891.48 0.01 -143.14 0.59 9.89 272.04 17.17 432.23c-36.13,1.31 -74.63,0.88 -110.97,0.93 -49.11,0.06 -39.69,-9.67 -58.58,-43.76 -37.97,16.26 -118,4.28 -165.69,4.28 -28.66,0 -57.43,-0.25 -86.08,0.07 -61.07,0.7 -63.95,7 -65.51,-12.55 -2.26,13.11 -7.75,70.63 -17.35,75.14 -53.46,25.13 28.83,-3.29 -16.42,6.8l-178.43 -0.78c-6.43,-7.74 -4.71,-6.59 -11.29,-16.17 -0.98,-1.42 -5.12,-5.26 -5.7,-8.31 -0.45,-2.35 -1.78,-2.89 -2.85,-4.19l-122.25 -0.9 -8.5 29.18 -285.84 -1.64 0.26 -27.83c-1.99,-0.11 -19.34,-1.28 -20.5,-1.48 -21.44,-3.79 -11.95,-3.6 -19.6,-6.17l2.63 -1862.37c-26.32,60.46 5.25,1633.93 -7.44,1868.63l-832.76 0.34 -0.18 68.26 4917.27 -1.16 -2.07 -67.38 -102.19 -0.23c-8.81,-10.13 -7.33,14.74 -7.27,-16.51z"/>
  <path class="fil3" d="M2322.53 3300.35l710.5 -1.57c-23.67,-74.15 -14.09,-156.26 20.21,-216.73 43.89,-77.37 85.62,-59.16 164.25,-93.87 112.41,-49.62 24.51,-139.1 124.71,-265.58 22.81,-28.79 50.31,-39.61 67.13,-61.04 8.89,-43.69 8.41,-362.68 2.07,-413.81l-810.82 0.01c-23.53,10.36 -85.11,64.55 -111.23,85.04 -38.44,30.14 -69.28,56.9 -105.26,86.6 -88.73,73.22 -88,125.75 -125.04,257.72 -55.06,196.12 -46.88,128.01 3.09,303.66 30.71,107.97 37.29,208.89 60.39,319.57z"/>
  <path class="fil4" d="M3409.33 2661.56c-16.82,21.43 -44.32,32.25 -67.13,61.04 -100.2,126.48 -12.3,215.96 -124.71,265.58 -78.63,34.71 -120.36,16.5 -164.25,93.87 -34.3,60.47 -43.88,142.58 -20.21,216.73l22.52 83.78c27.34,54.52 14.07,150.53 -9.21,201.46 -32.33,70.76 -75.09,85.13 -112.7,131.85 -95.81,118.97 -27.43,274.88 133.21,272.84 33.58,-41.12 51.84,-110.19 82.95,-154.34l-9.89 -272.04 143.14 -0.59c24.26,-52.02 65.65,-85.08 126.88,-110 51.84,-21.1 131.26,-34.39 172.8,-55.74 38,-12.94 66.6,-32.04 77.79,-72.91 -14.71,-17.6 -32.53,-25.43 -47.48,-40.55 -10.81,-10.92 -24.85,-30.29 -33.78,-45.44 -20.04,-33.99 -33.5,-77.72 -43.77,-121.8 -29.22,-125.38 -5.12,-148.06 56.89,-235.91 75.44,10.64 310.44,49.47 334.14,129.34 10.61,35.76 -24.26,154.33 -38.04,187.28 -32.34,77.26 -58.59,78.41 -100.81,127.08 13.4,48.87 40.83,57.83 82.64,77.42 56.19,13.94 129.43,34.42 177.4,56.08 48.01,21.67 108.69,67.89 126.82,105.14l130.42 0.4 -6.44 243.94c34.56,39.57 69.62,148.46 102.67,194.89 188.78,13.88 260.35,-133.49 177.09,-268.12 -11.27,-18.23 -22.25,-33.46 -35.5,-50.86 -20.52,-26.98 -26.24,-22.81 -40.21,-49.57 -42.94,-50.8 -12.61,-80.04 -10.07,-144.27 3.2,-81.04 -35.25,-79.68 -55.65,-119.14 -21.81,-7.81 -95.37,-49.36 -108.02,-69.63 -16.72,-3.83 -18.69,-6.28 -32.9,-18.21 -98.75,-82.86 -19.93,-190.11 -27.81,-295.44 -12.01,-160.65 -153.95,-183.63 -192.39,-218.61 -66.54,-60.52 -166.6,-202.78 -357.48,-98.73 -74.18,40.42 -30.34,-58.16 -241.94,-31.16 -21.3,8.02 -45.4,18.76 -66.97,24.34z"/>
  <path class="fil5" d="M5513.57 3721.41c38.12,18.91 122.79,8.51 175.56,8.93 52.09,0.42 138.56,11.01 169.2,-9.17 41.16,-61.08 135.92,-115.77 279.02,-360.03 44.34,-75.69 -22.83,-90.49 -45.97,-137.16 71,23.89 94.71,43.59 125.97,-34.02 42.37,-105.17 61.04,-186.39 86.16,-297.93 20.82,-92.5 8.4,-88.43 -38.23,-137.6 33.28,-20.75 55.05,-15.74 59.75,-65.82 2.96,-31.47 -3.05,-79.65 -4.67,-112.74 -2.02,-41.18 -9.22,-184.43 -29.94,-212.13 -20.5,29.99 -46.52,47.58 -75.46,76.64 -40.06,40.24 -26.72,53.77 -31.9,119.94 -33.88,-53.12 -59.42,-28.38 -86.53,7.19 -4.38,-26.92 -0.02,-70.15 -13.28,-88.07 -5.54,30.78 13.87,64.71 4.07,95.29l-123.44 163.37c-48.67,68.81 -99.12,150.29 -140.23,236.35 -84.25,176.38 -143.88,380.05 -155.47,609.84l-22.59 -26.11c-5.25,-9.65 -7.49,-17.3 -11.5,-27.86 -8.98,-23.65 -16.68,-37.07 -27.18,-58.53 -117.33,-239.85 -148.78,-392.05 -179.44,-658.18 -4.78,-41.5 -22.37,-115.07 14.25,-141.13 37.13,-26.41 96.44,-3.54 131.26,-36.79 -94.84,-24.44 -164.99,1.64 -138.89,-78.23 -21.76,-8.4 -10.36,1.41 -26.48,-24.43l-53.14 -85.39c-33.7,-49.46 -43.02,-63.39 -115.88,-49.52 11.68,-78.65 22.81,-87.69 -28.93,-136.43 -16.04,-15.09 -73.13,-70.14 -78.7,-85.04 -8.34,45.51 0.2,168.89 2.09,220.42 2.02,55.05 -11.64,175.33 20.32,206.78 40.1,14.65 59.94,-3.52 96.87,-7.06 -32.77,33.33 -95.09,61.44 -98.71,117.69 -3.26,50.54 95.45,507.25 127.51,522.47 51.65,5.88 93.81,-22.73 137.38,-31.4 -25.99,31.29 -88.13,65.02 -98.42,105.52 -10.87,42.78 36.72,116.4 53.02,151.79 32.04,69.57 138.31,246.94 142.55,258.55z"/>
  <path class="fil6" d="M5434.09 2557.46c-26.1,79.87 44.05,53.79 138.89,78.23 -34.82,33.25 -94.13,10.38 -131.26,36.79 -36.62,26.06 -19.03,99.63 -14.25,141.13 30.66,266.13 62.11,418.33 179.44,658.18 10.5,21.46 18.2,34.88 27.18,58.53 4.01,10.56 6.25,18.21 11.5,27.86l22.59 26.11c11.59,-229.79 71.22,-433.46 155.47,-609.84 41.11,-86.06 91.56,-167.54 140.23,-236.35l123.44 -163.37c9.8,-30.58 -9.61,-64.51 -4.07,-95.29 5.19,-42.41 -7.29,-159.51 -26.32,-194.62l-115.53 -0.15c86.46,-89.06 136.2,-11.92 45.82,-244.62 -30.62,-78.85 -23.15,-81.41 -104.08,-106.63 40.14,-74.67 42.53,-53.81 -22.08,-157.4 -21.49,-34.46 -65.06,-125.17 -101.86,-142.25 -11.94,36.72 -43.39,91.24 -62.94,129.48 -20.74,40.57 -40.01,81.09 -61.33,123.61 -17.19,34.26 -65.62,96.46 -28.27,129.93 27.86,24.96 87.84,35.58 126.39,56.57 -25.53,13.74 -124.6,15.09 -165.16,30.32 -53.11,19.95 -63.02,61.1 -76.43,122.48 -17.47,79.9 -66.2,252.57 -57.37,331.3z"/>
  <path class="fil3" d="M3476.3 2637.22c211.6,-27 167.76,71.58 241.94,31.16 190.88,-104.05 290.94,38.21 357.48,98.73 38.44,34.98 180.38,57.96 192.39,218.61 7.88,105.33 -70.94,212.58 27.81,295.44 14.21,11.93 16.18,14.38 32.9,18.21l224.27 1.01c23.16,-109.51 29.66,-216.01 60.96,-323.7 53.48,-183.99 51.35,-110.58 1.35,-299.57 -37.67,-142.4 -37.14,-183.09 -128.6,-261.17 -31.76,-27.12 -188.56,-158.69 -212.48,-168.12l-796.16 2.92 -1.86 386.48z"/>
  <path class="fil3" d="M2458.32 3902.61c-2.11,-45.1 -72.45,-146.94 22.05,-133.86 -1.95,-18.97 1.28,-30.14 7.16,-42.39l41.59 -3.09c19.91,39.9 19.99,129.16 25.43,179.69l5.87 -0.09c1.09,-46.75 -3.66,-105.9 0.09,-150.3 4.41,-52.23 64.98,-55.67 62.17,16.27 12.67,-32.48 45.48,-39.88 58.96,-5.56 38.57,9.03 35.67,23.98 25.43,62.61 -6.85,25.88 -15.33,50.45 -20.4,76.58l35.73 0.81 -42.26 312.29c1.56,19.55 4.44,13.25 65.51,12.55 28.65,-0.32 57.42,-0.07 86.08,-0.07 47.69,0 127.72,11.98 165.69,-4.28 -11.77,-123.85 47.21,-148.02 69.43,-235.06 -160.64,2.04 -229.02,-153.87 -133.21,-272.84 37.61,-46.72 80.37,-61.09 112.7,-131.85 23.28,-50.93 36.55,-146.94 9.21,-201.46 -1.64,-1.55 -3.8,-3.54 -4.95,-4.64l-13.82 -13.85 -707.88 0.6c20.38,98.88 42.33,377.6 69.49,437.83 5.76,12.76 46.83,93.07 59.93,100.11z"/>
  <path class="fil3" d="M2682.77 2174.82c-5.29,16.37 36.66,8.79 76.19,8.62l653.14 -0.18c0.83,-11.07 8.61,-792.56 1.31,-877.23l-6.51 -25.93c-72.31,44.52 -173.34,121.14 -233.69,169.36 -94.1,75.19 -115.06,97.04 -179.98,222.69 -97.52,188.73 -173.49,365.42 -310.46,502.67z"/>
  <path class="fil3" d="M4197.08 2179.71c-23.66,-29.39 -48.49,-37.98 -92.72,-102.47 -28.01,-40.82 -49.34,-76.69 -75.22,-123.1 -47.12,-84.48 -89.48,-170.67 -138.88,-265.12 -61.95,-118.45 -78.33,-150.63 -170.98,-225.19 -67.66,-54.45 -156.91,-123.45 -231.95,-170.23 -0.97,1.35 -1.97,2.01 -2.21,4.45l-5.2 100.85c0.03,181.97 -8.66,675.15 1.4,785.05 93.94,-4.45 687.23,9.83 715.76,-4.24z"/>
  <path class="fil7" d="M5463.96 4237.32l7.19 57.44 482.86 3.22 5.65 -49.18c9.76,-86.59 26.52,-176.75 38.91,-263.15 7.57,-52.74 38.88,-212.43 34.27,-257.91 -34.76,-0.08 -156.65,8.73 -174.51,-6.57 -30.64,20.18 -117.11,9.59 -169.2,9.17 -52.77,-0.42 -137.44,9.98 -175.56,-8.93 -22.38,15.65 -93.12,3.54 -128.24,8.77l78.63 507.14z"/>
  <path class="fil3" d="M1232.88 3652.56l429.24 3.34 1.53 -509.39 -434.83 -0.93c-0.25,71.73 -8.56,478.33 4.06,506.98z"/>
  <polygon class="fil3" points="1229.02,2776.6 1663.01,2777.59 1663.57,2268.25 1229.32,2267.02 "/>
  <polygon class="fil3" points="1228.92,1899.22 1663.62,1898.38 1662.69,1388.84 1229.11,1390.02 "/>
  <path class="fil8" d="M3406.9 1280.1l6.51 25.93c7.3,84.67 -0.48,866.16 -1.31,877.23l-653.14 0.18c-39.53,0.17 -81.48,7.75 -76.19,-8.62 -26.57,17.25 -67.08,49.14 -82.19,72.94l810.82 -0.01c6.34,51.13 6.82,370.12 -2.07,413.81 21.57,-5.58 45.67,-16.32 66.97,-24.34l1.86 -386.48 796.16 -2.92c-10.27,-17.21 -4.99,-10.6 -19.74,-23.3 -3.31,-2.85 -13.93,-10.37 -18.55,-14.02 -15.73,-12.41 -25.08,-20.88 -38.95,-30.79 -28.53,14.07 -621.82,-0.21 -715.76,4.24 -10.06,-109.9 -1.37,-603.08 -1.4,-785.05l5.2 -100.85c0.24,-2.44 1.24,-3.1 2.21,-4.45 -25.02,-28.94 -47.2,-44.18 -80.43,-13.5z"/>
  <path class="fil7" d="M1229.32 2267.02l434.25 1.23 -0.56 509.34 -433.99 -0.99 0.3 -509.58zm-77.24 601.01l590.17 -2.01 -0.47 -689.1 -591.38 1.88 1.68 689.23z"/>
  <path class="fil7" d="M1229.11 1390.02l433.58 -1.18 0.93 509.54 -434.7 0.84 0.19 -509.2zm-78.71 598.07l590.95 1.7 0.92 -689.59 -589.69 -1.21 -2.18 689.1z"/>
  <path class="fil7" d="M1232.88 3652.56c-12.62,-28.65 -4.31,-435.25 -4.06,-506.98l434.83 0.93 -1.53 509.39 -429.24 -3.34zm-79.58 92.47l588.91 -0.45 -0.28 -690.08 -591.6 2.34 2.97 688.19z"/>
  <path class="fil9" d="M3622.71 3190.84c16.03,-11.42 63.02,0.99 88.65,-0.74 33.99,-2.29 55.14,-16.79 83.1,-15.97 10.12,74.45 -147.9,85.82 -171.75,16.71zm-39.98 205.16c-6.39,23.58 25.15,53.97 42.65,65.88 22.53,15.34 59.56,26.53 92.38,29.41 83.04,7.28 135.66,-22.25 152.55,-90.78 -41.81,-19.59 -69.24,-28.55 -82.64,-77.42 42.22,-48.67 68.47,-49.82 100.81,-127.08 13.78,-32.95 48.65,-151.52 38.04,-187.28 -23.7,-79.87 -258.7,-118.7 -334.14,-129.34 -62.01,87.85 -86.11,110.53 -56.89,235.91 10.27,44.08 23.73,87.81 43.77,121.8 8.93,15.15 22.97,34.52 33.78,45.44 14.95,15.12 32.77,22.95 47.48,40.55 -11.19,40.87 -39.79,59.97 -77.79,72.91z"/>
  <path class="fil10" d="M3283.05 3561.74l891.48 -0.01c-18.13,-37.25 -78.81,-83.47 -126.82,-105.14 -47.97,-21.66 -121.21,-42.14 -177.4,-56.08 -16.89,68.53 -69.51,98.06 -152.55,90.78 -32.82,-2.88 -69.85,-14.07 -92.38,-29.41 -17.5,-11.91 -49.04,-42.3 -42.65,-65.88 -41.54,21.35 -120.96,34.64 -172.8,55.74 -61.23,24.92 -102.62,57.98 -126.88,110z"/>
  <path class="fil4" d="M4995.56 4064.95c43.6,-7.4 55.4,28.56 40.91,67.17 -10.35,27.56 -32.58,50.25 -59.5,67.38l18.59 -134.55zm-235.36 210.28l6.8 20.48 199.11 -1.08c3.74,-24.97 0.65,-35.7 11.36,-51.46l19.43 -25.07c109.7,-101.82 75.52,-178.29 -0.55,-180.72l3.01 -70.43 -114.18 -0.41 -158.95 2.5 33.97 306.19z"/>
  <path class="fil10" d="M2191.62 3543.47c32.27,-1.31 51.8,2.35 79.28,-7.77 13.04,-38.45 2.21,-52.68 -40.48,-54.1 -30.82,-1.03 -67.21,-1.07 -92.75,6.62 -15.85,42.15 -6.92,39.12 23.19,59.68l-0.11 59.52c-40.91,29.76 -22.74,-5.86 -27.56,109.43 -34.86,7.95 -29.64,2.34 -46.33,25.29 -71.6,98.49 -49.89,62.55 -55.26,159.42l287.53 0.38c-0.76,-66.13 10.93,-85.23 -59.26,-165.68 -22.55,-25.86 -18.29,-8.72 -42.8,-23.04 3.57,-94.16 4.76,-84.62 -26.59,-105.81l1.14 -63.94z"/>
  <path class="fil3" d="M2216.8 4009.5c20.26,6.96 7.79,-4 17.24,14.49 -7.94,13.36 -1.1,12.51 -41.85,15.31 -4.58,42.16 -1.15,33.14 -15.28,42.14 -12.75,-5.94 -14.76,3.52 -17.51,-40.77 -43.83,-7.5 -34.66,1.62 -43.72,-16.68 8.98,-20.74 1.98,-11.61 43.59,-17.2 1.8,-25.02 -1.32,-43.18 17.64,-42.3 18.62,0.86 13.53,26.59 15.56,43.22 3.24,0.22 23.27,1.43 24.33,1.79zm-182.06 136.05l281.21 -0.45 1.72 -241.5 -284.33 2.43 1.4 239.52z"/>
  <path class="fil10" d="M4444.26 4264.04c65.69,-109.17 -16.94,-177.46 -43.08,-263.08 -33.05,-46.43 -68.11,-155.32 -102.67,-194.89 -8.1,20.15 -22.75,406.27 -20.94,458.97l166.69 -1z"/>
  <path class="fil8" d="M2328.9 3364.67l707.88 -0.6 13.82 13.85c1.15,1.1 3.31,3.09 4.95,4.64l-22.52 -83.78 -710.5 1.57 6.37 64.32z"/>
  <path class="fil10" d="M3066.85 3988.71c-22.22,87.04 -81.2,111.21 -69.43,235.06 18.89,34.09 9.47,43.82 58.58,43.76 36.34,-0.05 74.84,0.38 110.97,-0.93l-17.17 -432.23c-31.11,44.15 -49.37,113.22 -82.95,154.34z"/>
  <polygon class="fil10" points="2031.77,4266.87 2031.51,4294.7 2317.35,4296.34 2315.95,4145.1 2034.74,4145.55 "/>
  <path class="fil3" d="M4502.56 3632.41c21.8,-27.83 34.88,-216.98 42.9,-268.21 -25.83,-0.16 -90.95,-6.88 -108.62,4.8 20.4,39.46 58.85,38.1 55.65,119.14 -2.54,64.23 -32.87,93.47 10.07,144.27z"/>
  <path class="fil8" d="M4436.84 3369c17.67,-11.68 82.79,-4.96 108.62,-4.8l7.63 -63.82 -224.27 -1.01c12.65,20.27 86.21,61.82 108.02,69.63z"/>
  <path class="fil6" d="M2560.42 3902.87l32.25 2.67c-1.27,-34.82 22.81,-102.2 30.01,-136.7 2.81,-71.94 -57.76,-68.5 -62.17,-16.27 -3.75,44.4 1,103.55 -0.09,150.3z"/>
  <path class="fil5" d="M2480.37 3768.75l40.23 128c14.77,9.22 10.19,9.13 33.95,6.21 -5.44,-50.53 -5.52,-139.79 -25.43,-179.69l-41.59 3.09c-5.88,12.25 -9.11,23.42 -7.16,42.39z"/>
  <path class="fil10" d="M2625.57 3900.84c19.21,8.01 35.68,5.73 61.1,1.63 5.07,-26.13 13.55,-50.7 20.4,-76.58 10.24,-38.63 13.14,-53.58 -25.43,-62.61l-21.34 10.06 -34.73 127.5z"/>
  <path class="fil9" d="M2458.32 3902.61c11.81,1.21 24.12,3.28 36.35,2.42 32.15,-2.25 13.35,1.25 25.93,-8.28l-40.23 -128c-94.5,-13.08 -24.16,88.76 -22.05,133.86z"/>
  <path class="fil3" d="M3622.71 3190.84c23.85,69.11 181.87,57.74 171.75,-16.71 -27.96,-0.82 -49.11,13.68 -83.1,15.97 -25.63,1.73 -72.62,-10.68 -88.65,0.74z"/>
  <path class="fil4" d="M2622.68 3768.84c-7.2,34.5 -31.28,101.88 -30.01,136.7l32.9 -4.7 34.73 -127.5 21.34 -10.06c-13.48,-34.32 -46.29,-26.92 -58.96,5.56z"/>
  <path class="fil4" d="M2159.27 4006.79c-41.61,5.59 -34.61,-3.54 -43.59,17.2 9.06,18.3 -0.11,9.18 43.72,16.68 2.75,44.29 4.76,34.83 17.51,40.77 14.13,-9 10.7,0.02 15.28,-42.14 40.75,-2.8 33.91,-1.95 41.85,-15.31 -9.45,-18.49 3.02,-7.53 -17.24,-14.49 -1.06,-0.36 -21.09,-1.57 -24.33,-1.79 -2.03,-16.63 3.06,-42.36 -15.56,-43.22 -18.96,-0.88 -15.84,17.28 -17.64,42.3z"/>
  <path class="fil3" d="M4976.97 4199.5c26.92,-17.13 49.15,-39.82 59.5,-67.38 14.49,-38.61 2.69,-74.57 -40.91,-67.17l-18.59 134.55z"/>
 </g>
</svg>
