<?xml version="1.0" encoding="UTF-8"?>
<!DOCTYPE svg PUBLIC "-//W3C//DTD SVG 1.1//EN" "http://www.w3.org/Graphics/SVG/1.1/DTD/svg11.dtd">
<!-- Creator: CorelDRAW 2018 (64-Bit) -->
<svg xmlns="http://www.w3.org/2000/svg" xml:space="preserve" width="297mm" height="420mm" version="1.1" style="shape-rendering:geometricPrecision; text-rendering:geometricPrecision; image-rendering:optimizeQuality; fill-rule:evenodd; clip-rule:evenodd"
viewBox="0 0 29700 42000"
 xmlns:xlink="http://www.w3.org/1999/xlink">
 <defs>
  <style type="text/css">
   <![CDATA[
    .fil1 {fill:#F69453}
    .fil0 {fill:#F69453;fill-opacity:0.611765}
   ]]>
  </style>
 </defs>
 <g id="Layer_x0020_1">
  <metadata id="CorelCorpID_0Corel-Layer"/>
  <path class="fil0" d="M493.87 7600.5c287.06,-141.12 741.03,-382.18 1325.19,-605.61 584.16,-223.43 1298.51,-429.21 1942.76,-498.15 644.23,-68.95 1218.38,-1.04 1679.04,128.31 460.64,129.35 807.8,320.15 1255.1,671.32 447.3,351.16 994.74,862.69 1365.26,1315.43 370.53,452.73 564.13,846.66 677.62,1246.48 113.5,399.81 146.87,805.51 196.95,1102.43 50.07,296.92 116.83,485.06 243.67,661.45 126.85,176.39 313.78,341.02 530.76,570.32 216.97,229.31 463.98,523.3 597.5,826.1 133.53,302.8 153.56,614.42 106.83,1125.95 -46.74,511.53 -160.23,1222.96 -400.57,1731.55 -240.35,508.59 -607.53,814.33 -1061.51,1034.81 -453.97,220.49 -994.73,355.73 -1528.82,361.61 -534.09,5.88 -1061.5,-117.6 -1638.99,-352.79 -577.48,-235.18 -1205.03,-582.08 -1739.11,-879 -534.09,-296.92 -974.72,-543.87 -1438.7,-699.68 -463.99,-155.81 -951.35,-220.48 -1358.58,-246.94 -407.25,-26.46 -734.39,-14.7 -927.99,-214.61 -193.61,-199.9 -253.69,-611.48 -280.39,-1596.32 -26.71,-984.83 -20.03,-2542.94 -26.71,-3548.35 -6.68,-1005.42 -26.71,-1458.16 23.37,-1705.1 50.06,-246.95 170.24,-288.1 457.32,-429.21z"/>
  <path class="fil1" d="M479.06 7111.53c287.06,-141.12 741.03,-382.18 1325.19,-605.61 584.16,-223.43 1298.51,-429.21 1942.76,-498.15 644.23,-68.95 1218.38,-1.04 1679.04,128.31 460.64,129.35 807.8,320.15 1255.1,671.32 447.3,351.16 994.74,862.69 1365.26,1315.43 370.53,452.73 564.13,846.66 677.62,1246.48 113.5,399.81 146.87,805.51 196.95,1102.43 50.07,296.92 116.83,485.06 243.67,661.45 126.85,176.39 313.78,341.02 530.76,570.32 216.97,229.31 463.98,523.3 597.5,826.1 133.53,302.8 153.56,614.42 106.83,1125.95 -46.74,511.53 -160.23,1222.96 -400.57,1731.55 -240.35,508.59 -607.53,814.33 -1061.51,1034.81 -453.97,220.49 -994.73,355.73 -1528.82,361.61 -534.09,5.88 -1061.5,-117.6 -1638.99,-352.79 -577.48,-235.18 -1205.03,-582.08 -1739.11,-879 -534.09,-296.92 -974.72,-543.87 -1438.7,-699.68 -463.99,-155.81 -951.35,-220.48 -1358.58,-246.94 -407.25,-26.46 -734.39,-14.7 -927.99,-214.61 -193.61,-199.9 -253.69,-611.48 -280.39,-1596.32 -26.71,-984.83 -20.03,-2542.94 -26.71,-3548.35 -6.68,-1005.42 -26.71,-1458.16 23.37,-1705.1 50.06,-246.95 170.24,-288.1 457.32,-429.21z"/>
 </g>
</svg>
