<?xml version="1.0" encoding="UTF-8"?>
<!DOCTYPE svg PUBLIC "-//W3C//DTD SVG 1.1//EN" "http://www.w3.org/Graphics/SVG/1.1/DTD/svg11.dtd">
<!-- Creator: CorelDRAW 2018 (64-Bit) -->
<svg xmlns="http://www.w3.org/2000/svg" xml:space="preserve" width="297mm" height="420mm" version="1.1" style="shape-rendering:geometricPrecision; text-rendering:geometricPrecision; image-rendering:optimizeQuality; fill-rule:evenodd; clip-rule:evenodd"
viewBox="0 0 29700 42000"
 xmlns:xlink="http://www.w3.org/1999/xlink">
 <defs>
  <style type="text/css">
   <![CDATA[
    .fil0 {fill:#ED6A40}
   ]]>
  </style>
 </defs>
 <g id="Layer_x0020_1">
  <metadata id="CorelCorpID_0Corel-Layer"/>
  <path class="fil0" d="M29637.45 14543.3c-284.91,-126.18 -724.48,-345.97 -1522.23,-358.18 -797.75,-12.21 -1953.67,183.16 -2763.64,195.37 -809.96,12.21 -1273.95,-158.74 -1676.9,-606.45 -402.95,-447.72 -744.84,-1172.21 -1127.44,-1729.82 -382.59,-557.61 -805.88,-948.35 -1001.25,-1367.57 -195.36,-419.23 -162.81,-866.95 329.68,-1119.29 492.49,-252.36 1444.91,-309.34 2181.61,-374.46 736.69,-65.12 1257.68,-138.39 1530.37,-472.14 272.71,-333.75 297.12,-927.99 643.09,-1269.88 345.96,-341.9 1013.46,-431.45 1758.3,-175.03 594.56,204.69 1238.36,629.8 1680.98,979.33l0 6312.41c-10.64,-4.63 -21.47,-9.38 -32.57,-14.29z"/>
 </g>
</svg>
