<?xml version="1.0" encoding="UTF-8"?>
<!DOCTYPE svg PUBLIC "-//W3C//DTD SVG 1.1//EN" "http://www.w3.org/Graphics/SVG/1.1/DTD/svg11.dtd">
<!-- Creator: CorelDRAW 2018 (64-Bit) -->
<svg xmlns="http://www.w3.org/2000/svg" xml:space="preserve" width="297mm" height="420mm" version="1.1" style="shape-rendering:geometricPrecision; text-rendering:geometricPrecision; image-rendering:optimizeQuality; fill-rule:evenodd; clip-rule:evenodd"
viewBox="0 0 29700 42000"
 xmlns:xlink="http://www.w3.org/1999/xlink">
 <defs>
  <style type="text/css">
   <![CDATA[
    .fil1 {fill:#719E3A}
    .fil0 {fill:#ED6A40}
    .fil2 {fill:#F69453}
   ]]>
  </style>
 </defs>
 <g id="Layer_x0020_1">
  <metadata id="CorelCorpID_0Corel-Layer"/>
  <g id="_1513566437568">
   <path class="fil0" d="M29153.41 13710.92c-466.12,-149.68 -1053.01,-495.58 -1474.9,-881.3 -421.89,-385.76 -678.81,-811.38 -951.16,-1135.11 -272.37,-323.79 -560.19,-545.66 -809.54,-950.57 -249.37,-404.94 -460.22,-992.86 -558.02,-1532.23 -97.76,-539.39 -82.4,-1030.19 97.08,-1401.22 179.41,-371.03 523.02,-622.32 921.78,-806.33 398.79,-184.07 852.77,-300.85 1175,-393.14 322.2,-92.28 512.65,-159.98 631.4,-553.37 118.76,-393.44 165.81,-1112.5 218.73,-1626.68 52.92,-514.2 111.72,-823.51 182.4,-1120.16 70.68,-296.65 153.28,-580.65 316.38,-821.18 163.08,-240.55 406.69,-437.62 638.81,-528.59 48.94,-19.18 97.35,-33.57 144.09,-28.45l0 11857.64c-149.46,13.73 -329.33,-14.22 -532.05,-79.31z"/>
   <path class="fil1" d="M20209.59 14965.3c-241.84,-155.99 -106.96,-352.51 90.86,-535.28 323.27,-298.74 814.28,-560.61 1207.13,-781.57 392.82,-220.97 687.46,-401.03 1080.29,-548.31 392.82,-147.33 883.87,-261.91 1231.7,-290.57 347.8,-28.64 552.41,28.66 871.59,24.56 319.15,-4.09 752.94,-69.56 1735.01,16.36 981.2,85.86 2509.74,322.83 3259.29,633.48l0 1481.33 -9475.87 0z"/>
   <path class="fil2" d="M23393.57 14630.05c90.02,-270.06 212.77,-613.8 413.29,-1027.1 200.48,-413.29 478.75,-896.13 793.83,-1272.59 315.1,-376.47 666.99,-646.55 1092.55,-941.16 425.57,-294.61 924.79,-613.8 1248.08,-912.51 323.27,-298.7 470.56,-576.97 581.03,-953.45 110.5,-376.45 184.16,-851.13 261.91,-1313.52 77.75,-462.38 159.58,-912.51 216.86,-1268.49 57.3,-356.02 90.03,-617.94 159.6,-957.54 69.58,-339.63 175.95,-757.03 282.34,-1031.18 106.39,-274.16 212.77,-405.08 372.36,-581.07 159.62,-175.94 372.36,-396.91 556.53,-536.03 110.41,-83.4 210.48,-137.41 313.51,-178.79l0 11308.68 -6382.32 0c11.21,-91.86 47,-204.99 90.43,-335.25z"/>
  </g>
 </g>
</svg>
