<?xml version="1.0" encoding="UTF-8"?>
<!DOCTYPE svg PUBLIC "-//W3C//DTD SVG 1.1//EN" "http://www.w3.org/Graphics/SVG/1.1/DTD/svg11.dtd">
<!-- Creator: CorelDRAW 2018 (64-Bit) -->
<svg xmlns="http://www.w3.org/2000/svg" xml:space="preserve" width="297mm" height="420mm" version="1.1" style="shape-rendering:geometricPrecision; text-rendering:geometricPrecision; image-rendering:optimizeQuality; fill-rule:evenodd; clip-rule:evenodd"
viewBox="0 0 29700 42000"
 xmlns:xlink="http://www.w3.org/1999/xlink">
 <defs>
  <style type="text/css">
   <![CDATA[
    .fil1 {fill:#729E3C}
    .fil0 {fill:#F69453}
   ]]>
  </style>
 </defs>
 <g id="Layer_x0020_1">
  <metadata id="CorelCorpID_0Corel-Layer"/>
  <g id="_1513468833312">
   <path class="fil0" d="M42.79 2723.7c130.49,-70.69 288.19,-135.95 497.53,-168.58 209.35,-32.63 470.37,-32.63 630.79,65.26 160.4,97.86 220.2,293.63 252.83,502.97 32.62,209.34 38.06,432.3 106.5,589.54 68.42,157.22 199.85,248.76 295.02,362.96 95.14,114.17 154.04,251.03 289.52,303.15 135.47,52.11 347.55,19.48 594.96,-18.59 247.41,-38.06 530.16,-81.55 739.52,-40.76 209.35,40.76 345.28,165.84 377.91,358.86 32.62,193.03 -38.05,454.06 -144.09,644.38 -106.04,190.31 -247.41,309.93 -481.22,396.94 -233.84,87.01 -560.1,141.37 -815.66,187.59 -255.57,46.22 -440.46,84.29 -750.38,103.32 -309.95,19.03 -744.97,19.03 -1076.64,2.72 -222.78,-10.95 -398.94,-29.3 -530.15,-106.84l0 -3175.49 13.56 -7.43z"/>
   <path class="fil1" d="M29.23 5170.59c81.57,-326.25 190.31,-424.12 353.45,-500.25 163.12,-76.13 380.64,-130.49 609.01,-141.37 228.38,-10.87 467.65,21.73 674.27,97.87 206.63,76.13 380.64,195.74 467.65,342.57 86.99,146.8 86.99,320.82 65.24,500.25 -21.76,179.44 -65.26,364.33 -62.15,522.32 3.1,157.98 52.84,289.07 96.35,354.32 43.48,65.26 80.77,64.67 180.98,97 100.2,32.33 263.32,97.57 355.76,255.27 92.45,157.68 114.2,407.83 103.32,609.01 -10.87,201.19 -54.37,353.45 -146.82,467.65 -92.45,114.18 -233.81,190.31 -494.82,258.28 -261.02,67.96 -641.64,127.76 -1141.89,35.31 -353.93,-65.4 -767.68,-206.99 -1060.35,-379.55l0 -2518.68z"/>
  </g>
 </g>
</svg>
