<?xml version="1.0" encoding="UTF-8"?>
<!DOCTYPE svg PUBLIC "-//W3C//DTD SVG 1.1//EN" "http://www.w3.org/Graphics/SVG/1.1/DTD/svg11.dtd">
<!-- Creator: CorelDRAW 2018 (64-Bit) -->
<svg xmlns="http://www.w3.org/2000/svg" xml:space="preserve" width="297mm" height="420mm" version="1.1" style="shape-rendering:geometricPrecision; text-rendering:geometricPrecision; image-rendering:optimizeQuality; fill-rule:evenodd; clip-rule:evenodd"
viewBox="0 0 29700 42000"
 xmlns:xlink="http://www.w3.org/1999/xlink">
 <defs>
  <style type="text/css">
   <![CDATA[
    .fil1 {fill:#739D41}
    .fil0 {fill:#739D41;fill-opacity:0.619608}
   ]]>
  </style>
 </defs>
 <g id="Layer_x0020_1">
  <metadata id="CorelCorpID_0Corel-Layer"/>
  <g id="_1513467950960">
   <path class="fil0" d="M1225.89 679.58c306.04,216.6 265.3,599.32 280.58,964.11 15.28,364.78 86.58,711.61 224.09,998.66 137.51,287.04 341.23,514.28 565.32,711.62 224.09,197.35 468.55,364.79 656.99,550.17 188.44,185.38 320.86,388.7 402.34,633.89 81.49,245.17 112.05,532.22 50.94,777.41 -61.12,245.18 -213.91,448.49 -412.54,609.95 -198.62,161.46 -443.09,281.07 -748.67,412.63 -305.57,131.56 -672.27,275.09 -875.99,448.51 -203.72,173.42 -244.46,376.74 -244.46,598 0,221.26 40.74,460.47 86.58,681.73 45.84,221.26 96.77,424.58 96.77,705.65 0,281.06 -50.93,639.85 -137.51,944.83 -86.58,304.99 -208.81,556.15 -366.7,741.54 -157.88,185.37 -351.41,304.98 -488.92,424.58 -129.3,112.45 -209.07,224.91 -303.2,246.78l0 -10751.18c278.09,35.8 913.65,88.25 1214.38,301.12z"/>
   <path class="fil1" d="M1203.43 505.76c300.9,212.97 260.85,589.26 275.86,947.92 15.02,358.66 85.13,699.67 220.33,981.9 135.2,282.22 335.5,505.64 555.82,699.67 220.34,194.03 460.69,358.66 645.96,540.93 185.28,182.27 315.48,382.17 395.59,623.24 80.13,241.06 110.17,523.29 50.08,764.36 -60.08,241.06 -210.31,440.96 -405.6,599.71 -195.29,158.75 -435.65,276.35 -736.1,405.7 -300.44,129.35 -660.99,270.47 -861.29,440.98 -200.29,170.51 -240.35,370.41 -240.35,587.96 0,217.54 40.06,452.73 85.13,670.28 45.07,217.54 95.14,417.45 95.14,693.8 0,276.34 -50.07,629.11 -135.21,928.97 -85.12,299.86 -205.3,546.81 -360.53,729.08 -155.23,182.26 -345.51,299.86 -480.71,417.45 -127.13,110.57 -205.56,221.14 -298.11,242.64l0 -10570.65c273.42,35.2 898.31,86.77 1193.99,296.06z"/>
  </g>
 </g>
</svg>
